<?xml version="1.0" encoding="UTF-8"?>
<svg version="1.1" xmlns="http://www.w3.org/2000/svg" width="512" height="512">
<path d="M0 0 C1.01790619 0.00215515 2.03581238 0.0043103 3.08456421 0.00653076 C17.69363523 0.05620146 32.02575853 0.30709809 46.375 3.3125 C47.34985352 3.51117676 48.32470703 3.70985352 49.32910156 3.91455078 C97.7109774 14.03517194 141.69928269 35.9516877 177.375 70.3125 C178.3640332 71.26068604 178.3640332 71.26068604 179.37304688 72.22802734 C188.86130305 81.37247479 197.6012044 90.66984009 205.375 101.3125 C206.23306152 102.46355017 207.09113451 103.61459177 207.94921875 104.765625 C213.98736829 112.95680614 219.34595521 121.47054105 224.375 130.3125 C224.73948242 130.94430176 225.10396484 131.57610352 225.47949219 132.22705078 C247.08534998 169.97532572 256.85198095 212.74189997 256.6875 255.9375 C256.68534485 256.95540619 256.6831897 257.97331238 256.68096924 259.02206421 C256.63129854 273.63113523 256.38040191 287.96325853 253.375 302.3125 C253.07698486 303.77478027 253.07698486 303.77478027 252.77294922 305.26660156 C242.65232806 353.6484774 220.7358123 397.63678269 186.375 433.3125 C185.74287598 433.97185547 185.11075195 434.63121094 184.45947266 435.31054688 C175.31502521 444.79880305 166.01765991 453.5387044 155.375 461.3125 C154.22394983 462.17056152 153.07290823 463.02863451 151.921875 463.88671875 C143.73224019 469.92427396 135.22961724 475.30707302 126.375 480.3125 C125.66778809 480.7146875 124.96057617 481.116875 124.23193359 481.53125 C101.09654164 494.5566741 75.92537591 503.30551461 49.9375 508.625 C49.21860596 508.77235596 48.49971191 508.91971191 47.7590332 509.0715332 C33.08339502 511.86090125 18.55831162 512.66142619 3.64770508 512.62817383 C0.70811513 512.6250221 -2.2304558 512.64854926 -5.16992188 512.67382812 C-18.54306192 512.71848737 -31.43916711 511.51301542 -44.625 509.3125 C-46.33055054 509.03031616 -46.33055054 509.03031616 -48.07055664 508.74243164 C-91.33802759 500.97044532 -132.38793216 480.98345309 -165.625 452.3125 C-166.37007813 451.67828125 -167.11515625 451.0440625 -167.8828125 450.390625 C-181.38779833 438.57948485 -194.05918743 425.82889772 -204.625 411.3125 C-205.48149066 410.16255169 -206.33826433 409.01281411 -207.1953125 407.86328125 C-213.23534209 399.67315742 -218.61867614 391.16870382 -223.625 382.3125 C-224.0271875 381.60528809 -224.429375 380.89807617 -224.84375 380.16943359 C-237.8691741 357.03404164 -246.61801461 331.86287591 -251.9375 305.875 C-252.08485596 305.15610596 -252.23221191 304.43721191 -252.3840332 303.6965332 C-255.35789088 288.05024391 -255.99800362 272.57681954 -255.9375 256.6875 C-255.93534485 255.66959381 -255.9331897 254.65168762 -255.93096924 253.60293579 C-255.88129854 238.99386477 -255.63040191 224.66174147 -252.625 210.3125 C-252.42632324 209.33764648 -252.22764648 208.36279297 -252.02294922 207.35839844 C-241.90232806 158.9765226 -219.9858123 114.98821731 -185.625 79.3125 C-184.99287598 78.65314453 -184.36075195 77.99378906 -183.70947266 77.31445312 C-174.56502521 67.82619695 -165.26765991 59.0862956 -154.625 51.3125 C-153.47394983 50.45443848 -152.32290823 49.59636549 -151.171875 48.73828125 C-142.98224019 42.70072604 -134.47961724 37.31792698 -125.625 32.3125 C-124.91778809 31.9103125 -124.21057617 31.508125 -123.48193359 31.09375 C-100.34654164 18.0683259 -75.17537591 9.31948539 -49.1875 4 C-48.46860596 3.85264404 -47.74971191 3.70528809 -47.0090332 3.5534668 C-31.36274391 0.57960912 -15.88931954 -0.06050362 0 0 Z " fill="#FEBC33" transform="translate(255.625,-0.3125)"/>
<path d="M0 0 C5.33302487 5.03388034 9.11426532 10.83413188 12.76953125 17.15625 C13.17171875 17.82398438 13.57390625 18.49171875 13.98828125 19.1796875 C20.59521305 31.04213324 22.06080123 46.76844269 18.66796875 59.85546875 C13.820951 76.25079602 4.77686451 89.85508854 -9.98046875 99.03125 C-25.15823107 107.09625815 -41.6821042 110.53404049 -58.5324707 105.66259766 C-75.57372642 99.9564359 -89.02189358 88.18315123 -97.48046875 72.40625 C-105.18431421 56.13342135 -104.63704562 39.92550154 -99.23046875 23.15625 C-92.73936288 6.10843459 -79.28662893 -4.77199364 -63.14819336 -12.06005859 C-41.57359282 -20.87666811 -17.44977248 -14.42433031 0 0 Z " fill="#FEFDFB" transform="translate(208.23046875,156.84375)"/>
<path d="M0 0 C12.02271399 9.25766477 21.20667018 21.83879576 24.640625 36.7890625 C26.05166529 49.39640076 26.16248176 62.23472025 21 74 C20.59910156 74.92683594 20.19820313 75.85367188 19.78515625 76.80859375 C12.96753347 90.7402577 0.76854174 102.0529657 -13.84277344 107.27563477 C-29.93413061 112.68263393 -46.4471988 112.49829112 -62.05078125 105.54296875 C-78.58453408 96.89285965 -88.98843419 83.79483153 -95.0546875 66.359375 C-99.77627611 49.58017582 -96.98384747 33.55681608 -88.6875 18.5625 C-80.81368865 6.0390673 -70.52807583 -2.13783381 -57 -8 C-56.29101562 -8.32097656 -55.58203125 -8.64195312 -54.8515625 -8.97265625 C-37.10524831 -15.66644143 -14.93589481 -10.60847662 0 0 Z " fill="#F2F2F1" transform="translate(382,153)"/>
<path d="M0 0 C1.39412109 -0.00386719 1.39412109 -0.00386719 2.81640625 -0.0078125 C5.17897476 0.11190036 7.17780763 0.45506767 9.4375 1.125 C8.4375 4.125 8.4375 4.125 6.0625 5.9375 C2.08437797 9.2526017 0.66552556 11.96709962 0.1171875 17.15625 C-0.11979758 24.04461635 0.13073679 28.65424674 4.4375 34.125 C9.9644297 39.23740998 14.18710668 40.60200892 21.6171875 40.43359375 C26.73996239 39.87306852 30.61343765 38.2026515 34.0390625 34.30078125 C35.25179611 32.63073189 36.35580206 30.88275915 37.4375 29.125 C39.96226523 31.64976523 39.74583359 33.33338973 39.81811523 36.78710938 C39.78386269 50.66683788 36.35141319 59.56783771 26.8515625 69.83984375 C18.48352479 77.86091404 8.51121239 79.83092267 -2.68994141 79.64624023 C-14.13155005 79.14264427 -22.3423389 74.54307532 -30.28125 66.3515625 C-37.60977857 57.4900254 -40.42039402 47.05586806 -39.9765625 35.703125 C-38.6313041 24.0780618 -32.60561454 14.79859303 -23.5859375 7.47265625 C-16.29522807 2.61687487 -8.7387939 -0.02430819 0 0 Z " fill="#3D2A2A" transform="translate(177.5625,145.875)"/>
<path d="M0 0 C0 0.66 0 1.32 0 2 C-1.42578125 3.26171875 -1.42578125 3.26171875 -3.3125 4.6875 C-7.51363889 8.20829251 -9.4359541 11.60304944 -10.34765625 17.09375 C-10.79083007 23.54817897 -8.63319649 28.72569908 -5 34 C1.14133736 39.13867004 7.22465117 39.67772454 15 39 C19.76416863 37.29209049 22.59051228 34.68593267 26 31 C27 30 28 29 29 28 C31.89301512 37.86891447 30.04957293 48.52084506 25.74609375 57.6640625 C20.43796742 67.23893888 13.0468692 72.86506404 3 77 C-6.88818802 79.82156522 -19.12256171 79.20705406 -28.3203125 74.671875 C-38.44509599 68.35495469 -45.87029629 59.63463847 -49 48 C-50.43653918 35.99761104 -49.30002404 25.19655102 -41.98046875 15.2578125 C-31.37528791 2.73961305 -16.65509317 -5.00056066 0 0 Z " fill="#513A3A" transform="translate(367,147)"/>
<path d="M0 0 C7.16141013 5.83522307 15.49358769 15.2110609 17.21484375 24.54296875 C17.1598782 29.00433929 16.58972752 31.86282781 13.81640625 35.3828125 C10.70744661 36.93729232 8.25269343 36.66946836 4.81640625 36.3828125 C1.8515625 34.6953125 1.8515625 34.6953125 -1.12109375 32.3828125 C-24.84539101 14.77696037 -53.00960794 9.43651767 -82.05859375 13.0078125 C-88.16808907 14.12460197 -94.01802361 16.19578597 -99.83154297 18.35009766 C-104.42474221 20.00963561 -108.22250781 20.87583967 -113.18359375 20.3828125 C-116.42628013 18.03703937 -117.89574331 16.53421426 -118.87109375 12.6328125 C-117.13762703 4.43824255 -110.85626765 -1.92546366 -104.18359375 -6.6171875 C-72.40353225 -26.86169783 -29.70799097 -22.00198258 0 0 Z " fill="#4F3432" transform="translate(312.18359375,330.6171875)"/>
<path d="M0 0 C0.6608963 0.00870117 1.3217926 0.01740234 2.00271606 0.02636719 C28.95357784 0.40258223 63.43582019 6.42958256 83.9375 25.5625 C87.00510614 30.05751825 86.52193149 35.33960593 85.9375 40.5625 C84.63190426 44.83109445 82.33806732 47.25005749 78.8125 50 C73.79479782 52.48955223 67.96843991 52.43211639 62.63916016 50.90307617 C60.32726582 49.98266122 58.07238212 48.97893546 55.8125 47.9375 C48.13561327 44.63300173 40.4944769 42.16894103 32.375 40.1875 C30.91392822 39.83051025 30.91392822 39.83051025 29.42333984 39.46630859 C26.60080759 38.79904215 23.77341755 38.17021436 20.9375 37.5625 C19.58555542 37.2677478 19.58555542 37.2677478 18.20629883 36.96704102 C10.34361236 35.38096317 2.63600938 35.23468336 -5.36523438 35.25976562 C-13.74056233 35.09365227 -18.72130404 32.98722586 -24.5625 27 C-26.8108379 21.84755897 -26.79310892 17.09534043 -26.0625 11.5625 C-21.17740001 0.3674792 -10.8667704 -0.23084244 0 0 Z " fill="#594140" transform="translate(149.0625,92.4375)"/>
<path d="M0 0 C0.82982391 -0.00040283 1.65964783 -0.00080566 2.51461792 -0.0012207 C25.43946594 0.06466101 25.43946594 0.06466101 31 5.3125 C31.54527344 5.80492188 32.09054687 6.29734375 32.65234375 6.8046875 C36.03328395 10.71946036 36.4446816 14.10209924 36.3125 19.125 C35.78492705 24.00504978 34.16279839 27.39362717 30.625 30.75 C25.83317642 33.90559114 22.85796179 34.69456401 17.015625 34.78125 C15.98233063 34.8031842 15.98233063 34.8031842 14.92816162 34.82556152 C12.72300104 34.87190748 10.51792045 34.90608375 8.3125 34.9375 C-7.14455296 35.1642453 -21.94392977 36.23560683 -36.9375 40.375 C-37.89527344 40.62701172 -38.85304688 40.87902344 -39.83984375 41.13867188 C-44.0751456 42.27447642 -48.19521955 43.48596448 -52.2734375 45.1015625 C-57.30633633 46.93658532 -61.652524 47.16590404 -66.9375 46.4375 C-71.76583008 44.06722887 -75.64909336 40.6585166 -77.6875 35.5625 C-78.41268463 29.39843064 -77.97177225 25.71708065 -74.8125 20.4296875 C-57.65060016 2.19516892 -23.22353696 -0.01106423 0 0 Z " fill="#59413F" transform="translate(358.9375,71.5625)"/>
<path d="M0 0 C7.03128878 0.43384548 13.329015 1.74321997 20 4 C20 4.66 20 5.32 20 6 C19.01 6.33 18.02 6.66 17 7 C17 6.34 17 5.68 17 5 C16.27554687 4.96261719 15.55109375 4.92523438 14.8046875 4.88671875 C9.13808848 4.50139002 4.85096382 4.015464 0 1 C0 0.67 0 0.34 0 0 Z " fill="#CECCC7" transform="translate(350,142)"/>
<path d="M0 0 C2.31 0.66 4.62 1.32 7 2 C6.01 2.495 6.01 2.495 5 3 C5 3.66 5 4.32 5 5 C4.34 5 3.68 5 3 5 C3 4.34 3 3.68 3 3 C1.68 2.67 0.36 2.34 -1 2 C-0.67 1.34 -0.34 0.68 0 0 Z " fill="#E9E2CD" transform="translate(184,144)"/>
<path d="M0 0 C2.97 0.495 2.97 0.495 6 1 C3.36095629 2.41377341 0.92879371 3.37240135 -2 4 C-1.34 2.68 -0.68 1.36 0 0 Z " fill="#DAD8D8" transform="translate(342,146)"/>
</svg>
