<?xml version="1.0" encoding="UTF-8"?>
<svg version="1.1" xmlns="http://www.w3.org/2000/svg" width="512" height="512">
<path d="M0 0 C2.24483549 0.00849857 4.48710375 -0.02035352 6.73168945 -0.05200195 C20.60052848 -0.12137889 33.01266946 2.63751235 45.63208008 8.50854492 C57.26759084 13.60149398 67.72385151 15.56572738 80.35913086 16.04467773 C104.83703511 17.07094681 126.59633774 26.27850324 143.61254883 44.26635742 C159.39526018 62.55615606 167.5211602 85.24618327 166.1262207 109.4152832 C165.50427415 116.36871259 164.13950996 123.40944099 162.15942383 130.09838867 C160.52871071 135.65453096 161.40178546 138.86519064 163.90161133 144.08666992 C168.06843764 153.51274891 166.40065097 165.07053346 162.94458008 174.44604492 C157.40473747 185.5403858 149.49143542 192.93995503 137.94458008 197.44604492 C130.68560185 199.67957668 123.48260483 199.67917971 115.94458008 199.44604492 C115.99098633 200.1034668 116.03739258 200.76088867 116.08520508 201.43823242 C116.60615466 215.16897492 113.23405276 228.11791015 106.92114258 240.23510742 C105.81926265 243.85808862 106.49079424 245.47024018 107.45169067 249.01303101 C108.4399204 253.89115713 108.18566113 258.86393158 108.13989258 263.82104492 C108.13564774 265.56865112 108.13564774 265.56865112 108.13131714 267.3515625 C108.12017815 271.04983054 108.09508486 274.74785084 108.06958008 278.44604492 C108.05954217 280.96296849 108.05041774 283.47989588 108.04223633 285.99682617 C108.02025938 292.14664939 107.98684452 298.29632945 107.94458008 304.44604492 C108.76487701 304.57872772 109.58517395 304.71141052 110.43032837 304.84811401 C111.5083371 305.02464508 112.58634583 305.20117615 113.69702148 305.38305664 C114.76481842 305.55698944 115.83261536 305.73092224 116.93276978 305.91012573 C132.3288458 308.64969156 150.27985446 316.91433423 160.35864258 329.16479492 C162.72622631 331.07752267 164.64813646 330.73886058 167.63208008 330.63354492 C170.26176758 330.54073242 170.26176758 330.54073242 172.94458008 330.44604492 C172.94458008 325.16604492 172.94458008 319.88604492 172.94458008 314.44604492 C170.63458008 314.11604492 168.32458008 313.78604492 165.94458008 313.44604492 C163.80004883 312.17651367 163.80004883 312.17651367 162.13208008 310.63354492 C161.56875977 310.13209961 161.00543945 309.6306543 160.42504883 309.11401367 C155.46029909 303.52048296 156.5767254 296.63777003 156.56958008 289.57104492 C156.54508789 288.30389648 156.5205957 287.03674805 156.49536133 285.73120117 C156.45893935 274.18543539 156.45893935 274.18543539 160.94458008 269.44604492 C165.38937668 265.53039077 167.70945072 264.32335827 173.58422852 264.28491211 C174.76595642 264.27530457 175.94768433 264.26569702 177.16522217 264.25579834 C179.09014496 264.24942352 179.09014496 264.24942352 181.05395508 264.24291992 C183.02600922 264.23436981 183.02600922 264.23436981 185.03790283 264.22564697 C187.82548408 264.21513546 190.61303649 264.20929439 193.40063477 264.20581055 C196.96270161 264.20033793 200.52438386 264.17633755 204.08633041 264.14783859 C207.49219766 264.12466135 210.89801307 264.12275857 214.30395508 264.11791992 C215.57914001 264.10557312 216.85432495 264.09322632 218.16815186 264.08050537 C219.95965668 264.08500702 219.95965668 264.08500702 221.78735352 264.08959961 C222.83389099 264.08595398 223.88042847 264.08230835 224.9586792 264.07855225 C229.1224998 264.59101855 232.48085056 266.11095671 235.58911133 268.94604492 C240.73433232 275.55395415 240.15947266 281.17067345 240.19458008 289.25854492 C240.22551758 291.02294922 240.22551758 291.02294922 240.25708008 292.82299805 C240.2924251 300.63866502 239.84353408 305.4812056 234.19458008 311.25854492 C230.94458008 313.44604492 230.94458008 313.44604492 223.94458008 314.44604492 C223.94458008 319.72604492 223.94458008 325.00604492 223.94458008 330.44604492 C225.42958008 330.52854492 226.91458008 330.61104492 228.44458008 330.69604492 C237.17081719 331.60554006 244.20860859 335.81124079 249.94458008 342.44604492 C255.58715256 351.56473581 257.08421218 359.23846923 256.97973633 369.75463867 C256.9834481 371.57170162 256.98937563 373.38876115 256.99731445 375.20581055 C257.00787574 378.04827076 257.00701719 380.88821577 256.96875 383.73046875 C256.3940123 394.38903061 256.3940123 394.38903061 259.68676758 404.1496582 C261.73341543 406.00914335 261.73341543 406.00914335 263.94677734 407.24707031 C269.53757382 410.60236806 271.44212159 417.49555886 272.94458008 423.44604492 C273.31012987 427.71130453 273.31622782 431.96210767 273.31518555 436.2421875 C273.31954674 438.24324951 273.35654877 440.24415302 273.39379883 442.24487305 C273.428611 453.85473212 270.92777495 462.80423647 262.94458008 471.44604492 C259.35274334 474.44604492 259.35274334 474.44604492 256.94458008 474.44604492 C257.03739258 476.36416992 257.03739258 476.36416992 257.13208008 478.32104492 C257.10212823 487.86070864 253.61439687 496.34885651 247.19458008 503.35620117 C238.18612679 511.91059935 228.57325693 513.03826408 216.53543091 512.95397949 C215.09166616 512.95859529 213.64790612 512.96495276 212.2041558 512.97288847 C208.25923639 512.98951228 204.31470643 512.98136733 200.36978602 512.9689436 C196.10654422 512.95986662 191.84336783 512.97387603 187.58013916 512.98486328 C179.23677146 513.00262582 170.8935479 512.99881837 162.55017461 512.98721272 C155.76656024 512.97816853 148.98298619 512.97695866 142.19936752 512.98130798 C140.74953223 512.98222738 140.74953223 512.98222738 139.27040734 512.98316535 C137.30666145 512.9844443 135.34291556 512.98574115 133.37916969 512.98705572 C114.97542992 512.9984552 96.57176992 512.98535836 78.16804324 512.96385425 C62.39087884 512.94598953 46.61383219 512.94908346 30.83666992 512.9675293 C12.50058456 512.98895696 -5.83543089 512.99735065 -24.17152703 512.98508024 C-26.12854329 512.9838061 -28.08555956 512.98254861 -30.04257584 512.98130798 C-31.00537601 512.98069088 -31.96817618 512.98007378 -32.96015211 512.97943798 C-39.73136482 512.97599034 -46.50253304 512.98180088 -53.27373886 512.9912262 C-61.53186978 513.00246889 -69.78984869 512.99935875 -78.04796229 512.97810322 C-82.25810742 512.96762241 -86.46799954 512.96341992 -90.67814255 512.97669983 C-94.53853004 512.9886919 -98.398432 512.98195022 -102.25877596 512.96078962 C-103.64898608 512.95635213 -105.03923793 512.95852501 -106.42942081 512.96829277 C-120.0228259 513.0564139 -130.46521312 510.09901877 -141.05541992 501.44604492 C-141.6922168 500.93428711 -142.32901367 500.4225293 -142.98510742 499.89526367 C-150.86952805 492.83432698 -156.28272721 481.92880706 -157.24268532 471.39021111 C-157.3197253 469.21830965 -157.33723932 467.05459498 -157.33007812 464.88134766 C-157.33518906 464.06546677 -157.34029999 463.24958588 -157.3455658 462.40898132 C-157.35937528 459.73245743 -157.35851056 457.0561938 -157.35620117 454.37963867 C-157.36009484 452.49886481 -157.36443088 450.61809182 -157.3691864 448.73731995 C-157.37663159 444.79929758 -157.37637116 440.86136488 -157.37109375 436.92333984 C-157.36532301 431.91626219 -157.38218032 426.90955733 -157.40543842 421.90254116 C-157.42029296 418.01678884 -157.4210313 414.13112367 -157.4179287 410.24534798 C-157.41843676 408.40166554 -157.42357588 406.55797753 -157.43374062 404.71432304 C-157.57467752 375.56106314 -149.20930596 351.07110052 -128.49682617 329.82104492 C-103.41470824 305.94024759 -72.3949294 303.35811824 -39.68823242 299.39916992 C-38.51739609 299.25419571 -38.51739609 299.25419571 -37.32290649 299.10629272 C-36.58639862 299.01892853 -35.84989075 298.93156433 -35.09106445 298.84155273 C-34.13564255 298.72641327 -34.13564255 298.72641327 -33.16091919 298.60894775 C-30.46659277 298.40048727 -27.75779862 298.44604492 -25.05541992 298.44604492 C-25.05541992 294.48604492 -25.05541992 290.52604492 -25.05541992 286.44604492 C-26.70541992 286.11604492 -28.35541992 285.78604492 -30.05541992 285.44604492 C-53.99292752 273.00108076 -70.87242705 252.64244072 -79.24291992 227.07104492 C-81.90475806 218.00786324 -83.42611145 208.89867894 -83.05541992 199.44604492 C-83.7334668 199.46924805 -84.41151367 199.49245117 -85.11010742 199.51635742 C-98.74006307 199.78065019 -110.65527383 196.83634827 -120.93041992 187.32104492 C-128.95780832 178.72444171 -132.24993958 169.22164179 -132.24291992 157.75854492 C-132.24501465 156.94853027 -132.24710938 156.13851562 -132.24926758 155.30395508 C-132.21829568 151.14786168 -132.02968076 147.356396 -130.93041992 143.32104492 C-130.03344173 139.34871294 -130.51507042 137.53892779 -131.55297852 133.7253418 C-135.02285569 117.98444126 -131.43843783 101.82004812 -123.11791992 88.31713867 C-118.61457221 82.04827396 -113.54771726 75.92570205 -106.05541992 73.44604492 C-106.45374023 72.74479492 -106.85206055 72.04354492 -107.26245117 71.32104492 C-115.0835978 57.31529329 -118.70591845 43.89141881 -114.38745117 27.95776367 C-111.40601229 20.09760661 -107.15718086 12.76823472 -103.05541992 5.44604492 C-98.74693515 6.78962038 -94.79555383 8.46673654 -90.74291992 10.44604492 C-77.17678618 16.73092044 -64.33966685 17.13081402 -50.11010742 12.2043457 C-45.21787058 10.39882198 -40.38732367 8.41463488 -35.59814453 6.35229492 C-23.87610349 1.42930108 -12.58473899 -0.07228689 0 0 Z " fill="#020201" transform="translate(198.055419921875,-0.446044921875)"/>
<path d="M0 0 C7.35800807 2.51085312 11.38665586 12.17078925 15.03295898 18.53759766 C16.82356931 21.65285129 18.54171936 24.25492888 21.140625 26.73046875 C21.140625 27.39046875 21.140625 28.05046875 21.140625 28.73046875 C21.71296875 28.99988281 22.2853125 29.26929687 22.875 29.546875 C25.95955998 31.15829168 28.70186218 33.17653396 31.53125 35.1953125 C38.96742155 39.57018588 45.39900732 40.28029439 53.890625 40.23046875 C55.48753174 40.22623901 55.48753174 40.22623901 57.11669922 40.22192383 C66.66817094 40.02515971 73.37288449 38.0678871 81.265625 32.54296875 C84.140625 31.73046875 84.140625 31.73046875 86.33203125 32.78125 C88.05439898 33.86750069 89.76475532 34.97295096 91.46484375 36.09375 C98.59816875 40.4570539 106.35909752 40.92377311 114.515625 41.3046875 C115.34707031 41.34702515 116.17851562 41.38936279 117.03515625 41.4329834 C119.07011863 41.53604723 121.10534888 41.63379847 123.140625 41.73046875 C123.18712263 53.51851346 123.22258238 65.30653607 123.24424934 77.09465408 C123.2546524 82.56932075 123.26874762 88.04392432 123.29150391 93.51855469 C123.31335688 98.80944177 123.32521974 104.10026844 123.33037949 109.3911972 C123.33405299 111.40203552 123.34122597 113.41287082 123.35208511 115.42368317 C123.43176412 130.80026433 122.73002868 143.54564556 116.140625 157.73046875 C114.35109909 157.71381416 114.35109909 157.71381416 112.52542114 157.69682312 C101.2560539 157.59525393 89.98678011 157.5204106 78.71705818 157.47140789 C72.92380754 157.44536765 67.13092783 157.41007098 61.33789062 157.35327148 C55.74224094 157.29875366 50.14694697 157.26900633 44.55105209 157.25608253 C42.42128784 157.24687815 40.29154199 157.22890422 38.16193008 157.20181847 C21.49817353 156.66865969 21.49817353 156.66865969 7.26907349 164.40849304 C-0.39801262 172.1050892 -0.43609031 182.46946393 -0.859375 192.73046875 C-6.41326571 190.74902795 -10.32445365 187.40044075 -14.859375 183.73046875 C-15.849375 183.00859375 -16.839375 182.28671875 -17.859375 181.54296875 C-32.1841646 169.3212646 -40.14886829 149.03298706 -41.859375 130.73046875 C-42.00696025 127.59350977 -42.03627656 124.46042102 -42.05224609 121.3203125 C-42.06042358 120.415159 -42.06860107 119.51000549 -42.07702637 118.5774231 C-42.10166754 115.60761143 -42.11833541 112.63784661 -42.1328125 109.66796875 C-42.13813618 108.64822968 -42.14345985 107.6284906 -42.14894485 106.57785034 C-42.17557538 101.18699905 -42.19498797 95.79617018 -42.20947266 90.40527344 C-42.2228387 85.95519584 -42.25075531 81.50557383 -42.29150391 77.05566406 C-42.34085261 71.66473898 -42.36559483 66.27422845 -42.37269974 60.88308716 C-42.37940098 58.83541322 -42.39459357 56.78774815 -42.41859055 54.74020386 C-42.45029385 51.87318794 -42.45027191 49.00777098 -42.44287109 46.140625 C-42.45927643 45.30298615 -42.47568176 44.46534729 -42.49258423 43.60232544 C-42.42874238 37.53649948 -40.74059187 33.41389024 -36.859375 28.73046875 C-31.43580739 23.98118093 -25.80382038 24.27838912 -18.859375 24.73046875 C-18.611875 23.47234375 -18.364375 22.21421875 -18.109375 20.91796875 C-14.91088318 6.78197693 -14.91088318 6.78197693 -10.234375 2.10546875 C-6.55286277 -0.02593307 -4.34350305 -0.66402475 0 0 Z " fill="#EECEB2" transform="translate(173.859375,74.26953125)"/>
<path d="M0 0 C13.31497888 -0.69899377 28.33931212 8.0134153 38.25 16.4375 C39.1575 17.283125 40.065 18.12875 41 19 C40.50343399 19.66180771 40.00686798 20.32361542 39.49525452 21.00547791 C31.80781423 33.29889152 33.05637333 46.90098246 33.2243793 60.9094975 C33.26108907 64.55590021 33.25895451 68.20230416 33.26173401 71.84886169 C33.27182108 77.95885374 33.30782315 84.0682258 33.36206055 90.17797852 C33.43150201 98.01294965 33.45901677 105.84748105 33.47305202 113.68272495 C33.48533697 120.44226396 33.51504766 127.20170918 33.5484364 133.96117282 C33.5585766 136.12524562 33.56665411 138.28931967 33.57458305 140.45340157 C33.59082957 144.48154769 33.62515269 148.50934202 33.66186523 152.53735352 C33.665672 153.73167999 33.66947876 154.92600647 33.67340088 156.15652466 C33.68626633 157.25383408 33.69913177 158.35114349 33.71238708 159.48170471 C33.71963523 160.43232568 33.72688337 161.38294664 33.73435116 162.36237431 C34.02246099 165.22301499 34.89416668 167.36204831 36 170 C36 170.99 36 171.98 36 173 C-35.28 173 -106.56 173 -180 173 C-178.44409056 169.88818113 -177.22284295 167.86913217 -175.05859375 165.27734375 C-174.47940186 164.57947754 -173.90020996 163.88161133 -173.3034668 163.16259766 C-172.37981323 162.06117432 -172.37981323 162.06117432 -171.4375 160.9375 C-170.16132962 159.40245074 -168.88528788 157.86729454 -167.609375 156.33203125 C-166.98869141 155.58775879 -166.36800781 154.84348633 -165.72851562 154.07666016 C-163.53265069 151.43852073 -161.35790158 148.78412676 -159.1875 146.125 C-158.14142578 144.84496094 -158.14142578 144.84496094 -157.07421875 143.5390625 C-156.38972656 142.70117188 -155.70523438 141.86328125 -155 141 C-153.50014304 139.16654964 -152.0001406 137.33321829 -150.5 135.5 C-149.7575 134.5925 -149.015 133.685 -148.25 132.75 C-146 130 -143.75 127.25 -141.5 124.5 C-140.75878906 123.59378906 -140.01757812 122.68757813 -139.25390625 121.75390625 C-137.74201773 119.90662478 -136.22898251 118.06028125 -134.71484375 116.21484375 C-133.96332031 115.29832031 -133.21179688 114.38179688 -132.4375 113.4375 C-131.68726563 112.53773438 -130.93703125 111.63796875 -130.1640625 110.7109375 C-127.97426299 108.04646275 -127.97426299 108.04646275 -126.1484375 105.2265625 C-121.472182 98.44101729 -117.42209751 96.68831972 -109.46875 94.8359375 C-100.02020723 92.55892381 -93.61960626 87.90378802 -88 80 C-86.9841536 78.00800198 -85.98227954 76.00876253 -85 74 C-83.42702148 73.970271 -83.42702148 73.970271 -81.82226562 73.93994141 C-77.90081324 73.86339227 -73.97970828 73.77475432 -70.05859375 73.68261719 C-68.3672577 73.64452985 -66.67584622 73.6096431 -64.984375 73.578125 C-62.54139394 73.53203102 -60.09892319 73.47411441 -57.65625 73.4140625 C-56.53700134 73.39673569 -56.53700134 73.39673569 -55.3951416 73.37905884 C-42.08463908 73.01180452 -29.88676809 67.81586091 -20 59 C-19.38511719 58.47792969 -18.77023437 57.95585937 -18.13671875 57.41796875 C-9.20868839 49.28178144 -4.96009276 38.45842361 -2 27 C-1.82654053 26.39381836 -1.65308105 25.78763672 -1.47436523 25.16308594 C-0.91476444 22.61132936 -0.78511512 20.18867452 -0.68359375 17.578125 C-0.64169922 16.55332031 -0.59980469 15.52851563 -0.55664062 14.47265625 C-0.51732422 13.40917969 -0.47800781 12.34570312 -0.4375 11.25 C-0.37272461 9.63158203 -0.37272461 9.63158203 -0.30664062 7.98046875 C-0.20071011 5.32043572 -0.09863579 2.66031188 0 0 Z " fill="#B3DB7E" transform="translate(306,322)"/>
<path d="M0 0 C0.73510803 -0.00301117 1.47021606 -0.00602234 2.2276001 -0.00912476 C13.82687686 -0.00611919 23.55076015 1.25056003 34 6.5 C47.30073903 12.89528685 59.28709236 15.62982442 74 15.9375 C94.29858496 16.41245119 111.49725593 22.82252408 126 37.5 C127.04607422 38.51320313 127.04607422 38.51320313 128.11328125 39.546875 C140.56620421 52.41086532 146.58535681 69.76537895 146.34570312 87.4777832 C146.15704074 92.96110247 145.4552213 98.21182973 144 103.5 C141.6404034 104.33248689 140.41230632 104.64719417 138.01953125 103.79296875 C137.29121094 103.42816406 136.56289063 103.06335938 135.8125 102.6875 C128.55378926 99.53296255 120.80105079 99.18779566 113 98.5 C112.96132813 96.99373047 112.96132813 96.99373047 112.921875 95.45703125 C112.37279289 80.52163062 108.91841838 65.59015697 98.69921875 54.046875 C94.43985391 50.16938425 89.67452161 46.85491982 85 43.5 C79.6279391 49.99033527 79.6279391 49.99033527 76 57.5 C76.58007812 57.768125 77.16015625 58.03625 77.7578125 58.3125 C85.26717548 62.28958423 90.56517492 68.81027049 94 76.5 C94.39673967 78.48839351 94.74599356 80.48838576 95 82.5 C83.4281664 83.06724675 74.52400349 83.46470297 65.05859375 75.9609375 C60.92615496 72.19443822 58.35239838 67.87291309 55.58984375 63.05859375 C49.69062687 53.56476805 41.58944734 47.07372653 31 43.5 C28.03472773 42.91305674 25.07051745 42.5934545 22.0625 42.3125 C21.28326172 42.23064453 20.50402344 42.14878906 19.70117188 42.06445312 C17.80179203 41.86635829 15.90101238 41.68176159 14 41.5 C14 46.78 14 52.06 14 57.5 C16.64 57.5 19.28 57.5 22 57.5 C32.29574931 59.82440555 38.64008796 64.93089303 44.34765625 73.5703125 C45 75.5 45 75.5 44.3515625 77.6328125 C41.7888914 81.17315002 38.14489876 81.71582996 34 82.5 C24.671031 83.43697069 16.68439484 83.26672054 9 77.5 C3.19722557 72.54369555 -0.30602104 66.36884014 -4 59.8125 C-7.48826063 53.63549632 -10.49376075 48.80825725 -17 45.5 C-18.051875 44.88125 -19.10375 44.2625 -20.1875 43.625 C-27.64772941 41.42362083 -35.20198643 41.25845493 -42.375 44.5 C-49.71831789 48.77269226 -53.54546769 53.87062627 -56.375 61.8125 C-58.4103215 67.14437501 -58.4103215 67.14437501 -61.02734375 68.72265625 C-62.55997058 69.16017536 -64.1071962 69.54925232 -65.6640625 69.890625 C-72.62552173 71.70665784 -77.1812851 77.38831899 -80.81640625 83.26953125 C-83.56363573 88.44665348 -84.20387073 93.77059105 -85 99.5 C-86.74023438 99.52126953 -86.74023438 99.52126953 -88.515625 99.54296875 C-98.38970671 99.79704612 -106.05293555 100.97293833 -115 105.5 C-116.485 105.995 -116.485 105.995 -118 106.5 C-118.72721232 94.74340079 -116.34390821 87.00546511 -109.171875 77.703125 C-103.46340359 71.91251731 -96.60799993 67.95683709 -89.5 64.125 C-88.67757812 63.67511719 -87.85515625 63.22523437 -87.0078125 62.76171875 C-85.00816485 61.66888806 -83.00563744 60.58178588 -81 59.5 C-81.39791748 59.11779297 -81.79583496 58.73558594 -82.20581055 58.34179688 C-84.0412774 56.56951167 -85.86432617 54.78492543 -87.6875 53 C-88.31333984 52.39929688 -88.93917969 51.79859375 -89.58398438 51.1796875 C-97.2697199 43.61467033 -101.94820299 36.08248463 -102.3125 25.0625 C-102.23449684 19.92847403 -101.10863905 16.1565779 -99 11.5 C-97.66634524 11.7901934 -96.33309785 12.08225892 -95 12.375 C-94.2575 12.53742187 -93.515 12.69984375 -92.75 12.8671875 C-90.57375093 13.36797209 -88.41527117 13.94591219 -86.265625 14.55078125 C-81.739772 15.68330492 -77.39845437 15.83158233 -72.75 15.8125 C-71.98042969 15.82861328 -71.21085937 15.84472656 -70.41796875 15.86132812 C-58.84608356 15.87086016 -48.40402506 11.70517022 -37.8125 7.4375 C-24.77300189 2.19294272 -14.06231634 0.03198389 0 0 Z " fill="#B07745" transform="translate(201,16.5)"/>
<path d="M0 0 C1.29114967 -0.0131424 1.29114967 -0.0131424 2.60838318 -0.02655029 C5.44712069 -0.04851546 8.28429417 -0.03400209 11.12304688 -0.01708984 C13.09932758 -0.02045881 15.07560626 -0.02531211 17.05187988 -0.03158569 C21.19120027 -0.03895311 25.32998072 -0.0282556 29.46923828 -0.00488281 C34.77250394 0.02360475 40.07450444 0.0072001 45.37772369 -0.02274513 C49.45788082 -0.04082155 53.53773847 -0.03505847 57.61790466 -0.02210617 C59.57311656 -0.01877312 61.52835573 -0.02285569 63.48353577 -0.03450394 C66.21761988 -0.04721831 68.94966161 -0.02782823 71.68359375 0 C72.48997787 -0.01012115 73.296362 -0.02024231 74.12718201 -0.03067017 C77.93819646 0.04111532 80.14593107 0.51718501 83.3434906 2.63600159 C86.04246932 6.70271896 86.04080268 9.68737133 85.97290039 14.46948242 C85.98005569 15.34826553 85.987211 16.22704865 85.99458313 17.13246155 C86.01147581 20.03496482 85.9920531 22.93592365 85.97070312 25.83837891 C85.97153229 27.8651492 85.97399347 29.89191943 85.97801208 31.91868591 C85.98087117 36.16987316 85.96616706 40.42053396 85.9387207 44.67163086 C85.90479031 50.09289789 85.91060444 55.51321424 85.92938328 60.93452549 C85.94001358 65.12389381 85.93095842 69.31304547 85.91599846 73.50239372 C85.91085002 75.49926037 85.91125746 77.49614999 85.91754341 79.49301338 C85.94864583 95.32293645 84.57930302 108.68778634 73.34179688 120.80322266 C64.72286634 129.05277045 55.15834522 132.76888423 43.32617188 132.77978516 C42.66973694 132.78074188 42.013302 132.78169861 41.3369751 132.78268433 C39.95869856 132.78336146 38.58041875 132.78153989 37.20214844 132.77734375 C35.08456374 132.77195425 32.96718783 132.77732201 30.84960938 132.78369141 C29.50846307 132.78303122 28.1673169 132.78175128 26.82617188 132.77978516 C25.60639648 132.77865723 24.38662109 132.7775293 23.12988281 132.77636719 C20.34179688 132.64697266 20.34179688 132.64697266 19.34179688 131.64697266 C19.10210764 127.81194484 18.94703157 123.98321376 18.82421875 120.14306641 C18.37074854 109.20844518 16.23665872 100.19999869 8.73242188 91.85791016 C4.36659572 88.09093626 -0.52495956 86.59556396 -5.94726562 84.97900391 C-7.06065308 84.63947693 -7.06065308 84.63947693 -8.1965332 84.29309082 C-10.01551915 83.73920009 -11.83665303 83.19237167 -13.65820312 82.64697266 C-13.77409483 72.69389855 -13.86291731 62.74098516 -13.91726398 52.78737354 C-13.94334896 48.16537951 -13.97872653 43.54384735 -14.03540039 38.92211914 C-14.08976002 34.46115778 -14.11963194 30.00064043 -14.13258934 25.5393734 C-14.14182219 23.83808083 -14.15985225 22.13681234 -14.18685341 20.435709 C-14.22319817 18.05092651 -14.2281465 15.66797424 -14.22583008 13.28295898 C-14.24380646 12.5809285 -14.26178284 11.87889801 -14.28030396 11.15559387 C-14.24260083 7.56393584 -13.69405898 5.69977309 -11.66386414 2.7101593 C-7.77229626 0.03885644 -4.5610716 -0.0572473 0 0 Z " fill="#E5E8EC" transform="translate(203.658203125,247.35302734375)"/>
<path d="M0 0 C0.83789062 -0.01611328 1.67578125 -0.03222656 2.5390625 -0.04882812 C9.29735714 -0.05414125 13.84197559 1.4113503 18.96484375 5.96484375 C23.20585494 11.23599282 22.40367727 18.19169388 22.24243164 24.61010742 C22.18754213 26.87326287 22.18090413 29.13273132 22.18164062 31.39648438 C22.03436139 45.90313861 22.03436139 45.90313861 16.4375 51.5 C12.01807051 54.34807678 7.70818265 55.99910084 2.53515625 56.77734375 C-4.07046148 57.83331765 -7.83246761 59.02013081 -12.125 64.3125 C-13.5584543 66.30050232 -14.97507031 68.30074919 -16.375 70.3125 C-17.85855658 72.15916483 -19.35854502 73.99275403 -20.875 75.8125 C-21.6175 76.72 -22.36 77.6275 -23.125 78.5625 C-56.875 119.8125 -56.875 119.8125 -59.109375 122.5390625 C-60.6670967 124.44592871 -62.21885999 126.35767299 -63.765625 128.2734375 C-64.54421875 129.23507812 -65.3228125 130.19671875 -66.125 131.1875 C-66.82109375 132.05117188 -67.5171875 132.91484375 -68.234375 133.8046875 C-74.47460287 141.11531942 -81.38020222 147.99363177 -91.390625 148.81640625 C-101.91705758 149.15143897 -109.30540351 147.64190179 -117.45703125 140.484375 C-124.28636451 133.41062349 -126.83111211 125.24398642 -126.82818604 115.5562439 C-126.80754089 114.51416779 -126.78689575 113.47209167 -126.765625 112.3984375 C-126.75996521 111.30278473 -126.75430542 110.20713196 -126.74847412 109.07827759 C-126.72626804 105.61422104 -126.67610039 102.15123846 -126.625 98.6875 C-126.60491467 96.3242338 -126.58666748 93.96095121 -126.5703125 91.59765625 C-126.52987422 85.83520127 -126.45155032 80.075038 -126.375 74.3125 C-116.805 74.3125 -107.235 74.3125 -97.375 74.3125 C-104.125 82.1875 -104.125 82.1875 -107.25 85.25 C-107.84554687 85.83652344 -108.44109375 86.42304688 -109.0546875 87.02734375 C-109.70824219 87.66349609 -109.70824219 87.66349609 -110.375 88.3125 C-107.67395639 97.74245928 -104.50347689 107.01819001 -101.375 116.3125 C-97.42026847 116.3125 -95.2615721 115.6978608 -91.625 114.3125 C-90.14773437 113.755625 -90.14773437 113.755625 -88.640625 113.1875 C-87.89296875 112.89875 -87.1453125 112.61 -86.375 112.3125 C-86.81972656 111.13171875 -87.26445313 109.9509375 -87.72265625 108.734375 C-88.29483755 107.17729147 -88.86642101 105.61998816 -89.4375 104.0625 C-89.73205078 103.28519531 -90.02660156 102.50789063 -90.33007812 101.70703125 C-90.60400391 100.95292969 -90.87792969 100.19882812 -91.16015625 99.421875 C-91.41676025 98.73061523 -91.67336426 98.03935547 -91.93774414 97.32714844 C-92.49503177 94.75945582 -92.34628761 93.7824255 -91.375 91.3125 C-89.54441058 89.25869118 -87.71473755 87.37646046 -85.72875977 85.484375 C-85.13995529 84.91119537 -84.55115082 84.33801575 -83.94450378 83.74746704 C-82.66361655 82.50144293 -81.3795702 81.25866005 -80.09277534 80.01873779 C-78.04298615 78.03989045 -76.00595575 76.04873807 -73.97239685 74.05322266 C-68.18875407 68.37914223 -62.39599584 62.71494567 -56.5637207 57.09082031 C-52.99343855 53.64616284 -49.44955121 50.17605336 -45.92011833 46.6895752 C-44.58404707 45.3791209 -43.23891422 44.07782656 -41.88388252 42.7869873 C-33.43959343 34.73447498 -27.48262037 26.98115018 -22.71878147 16.25717163 C-17.6244258 4.81350094 -12.6186144 -0.04808923 0 0 Z " fill="#EDCDB2" transform="translate(184.375,346.6875)"/>
<path d="M0 0 C0 5.28 0 10.56 0 16 C-2.89713542 17.33463542 -5.79427083 18.66927083 -8.69140625 20.00390625 C-16.78317543 24.88571741 -20.45681027 31.27907763 -24.3828125 39.66015625 C-30.60387446 52.11502494 -38.26272228 62.39715624 -47.875 72.4375 C-48.6706134 73.27976135 -49.46622681 74.12202271 -50.28594971 74.98980713 C-60.73236024 85.72173587 -69.70991008 91.85135009 -84.91970825 92.58879089 C-95.02737126 92.69229276 -105.04101576 91.65915898 -115 90 C-115.26178032 67.62868994 -111.32146023 49.12398496 -96 32 C-95.35289063 31.16597656 -94.70578125 30.33195312 -94.0390625 29.47265625 C-72.94799142 3.89670223 -35.44543767 3.53749663 -5.31469727 0.21191406 C-3 0 -3 0 0 0 Z " fill="#B2DB7E" transform="translate(173,315)"/>
<path d="M0 0 C27.39 0 54.78 0 83 0 C83 5.61 83 11.22 83 17 C79.2875 17.12375 79.2875 17.12375 75.5 17.25 C68.4560973 17.62483397 62.84273635 18.39108094 57.5234375 23.38671875 C52.50909559 28.97287157 50.63668642 34.16567902 50.48828125 41.5859375 C50.43861206 43.51252197 50.43861206 43.51252197 50.38793945 45.47802734 C50.36304443 47.09402832 50.33814941 48.7100293 50.3125 50.375 C50.209375 55.53125 50.10625 60.6875 50 66 C33.5 66 17 66 0 66 C0 44.22 0 22.44 0 0 Z " fill="#E3E6EA" transform="translate(355,380)"/>
<path d="M0 0 C7.15269442 -0.22849796 14.30444648 -0.38592406 21.45996094 -0.49438477 C23.89293585 -0.53960193 26.32566678 -0.60098912 28.7578125 -0.67895508 C32.25842416 -0.78834919 35.75580166 -0.83921234 39.2578125 -0.87890625 C40.34240753 -0.92535782 41.42700256 -0.97180939 42.54446411 -1.01966858 C45.61594934 -1.02171436 48.06988939 -0.92948665 51 0 C53.69343123 2.69754733 55.25163952 5.64767519 57 9 C64.25637983 16.25637983 73.28325149 16.57044862 83 17 C82.18520013 22.90112632 80.50071334 26.80240343 75.9375 30.8125 C72.35344447 33.0091792 69.3548799 33.1381592 65.24682617 33.17700195 C64.0651738 33.18983719 62.88352142 33.20267242 61.6660614 33.21589661 C59.74888054 33.22697701 59.74888054 33.22697701 57.79296875 33.23828125 C55.82303703 33.25038887 55.82303703 33.25038887 53.81330872 33.26274109 C51.03170908 33.2777545 48.25013486 33.28759893 45.46850586 33.29516602 C41.91420015 33.30622345 38.3605217 33.34062072 34.80643749 33.38033772 C31.40614011 33.4128466 28.00590951 33.41728603 24.60546875 33.42578125 C23.33342087 33.44328934 22.06137299 33.46079742 20.7507782 33.47883606 C9.43082231 33.45103231 9.43082231 33.45103231 5 29 C-0.21259896 23.02794808 -0.65820392 17.71185675 -0.3125 10 C-0.28994141 9.03449219 -0.26738281 8.06898438 -0.24414062 7.07421875 C-0.18573128 4.71448126 -0.10390208 2.35809777 0 0 Z " fill="#67D2F0" transform="translate(355,462)"/>
<path d="M0 0 C5.61 0 11.22 0 17 0 C17 10.89 17 21.78 17 33 C23.22241829 32.84297588 23.22241829 32.84297588 29.44335938 32.63964844 C35.4513919 32.56387585 40.03157126 33.49313729 45 37 C48.9048899 41.49062338 49 42.7651602 49 49 C21.94 49 -5.12 49 -33 49 C-31.96385527 42.78313161 -30.65053831 39.40205034 -26 35.1875 C-22.50161695 33.11033507 -19.24920393 32.87660767 -15.234375 32.90234375 C-14.43225586 32.90484131 -13.63013672 32.90733887 -12.80371094 32.90991211 C-11.79598633 32.91901611 -10.78826172 32.92812012 -9.75 32.9375 C-6.5325 32.958125 -3.315 32.97875 0 33 C0 22.11 0 11.22 0 0 Z " fill="#67D3F1" transform="translate(388,314)"/>
<path d="M0 0 C1.08571289 -0.00290039 1.08571289 -0.00290039 2.19335938 -0.00585938 C2.93521484 0.01798828 3.67707031 0.04183594 4.44140625 0.06640625 C5.54838867 0.0499707 5.54838867 0.0499707 6.67773438 0.03320312 C11.87960385 0.10256138 14.8697489 1.25597847 19.00390625 4.62890625 C24.7409694 11.1412482 24.21751754 15.93672649 24.25390625 24.37890625 C24.27453125 25.5596875 24.29515625 26.74046875 24.31640625 27.95703125 C24.34718226 34.78930568 24.35831214 40.03550961 19.46875 45.2734375 C14.22493302 49.28341519 11.13323237 49.83568814 4.62890625 49.87890625 C3.860625 49.89953125 3.09234375 49.92015625 2.30078125 49.94140625 C-1.14451303 49.96524912 -3.39619022 49.95062108 -6.47265625 48.30078125 C-10.95766165 43.37877532 -9.30315413 33.77767955 -9.34619141 27.44189453 C-9.36276102 25.6533508 -9.39006454 23.86487356 -9.42822266 22.07666016 C-9.48304961 19.49216527 -9.50487069 16.90921715 -9.51953125 14.32421875 C-9.54220062 13.52823273 -9.56487 12.7322467 -9.58822632 11.91213989 C-9.57227379 7.71008611 -9.34167194 6.0836533 -6.71313477 2.62475586 C-4.12229803 0.7216118 -3.12178963 -0.00349411 0 0 Z " fill="#EDCDB2" transform="translate(429.99609375,412.37109375)"/>
<path d="M0 0 C5.61 0 11.22 0 17 0 C17.09077338 7.78067502 17.16398612 15.56105478 17.20724869 23.3421154 C17.22802442 26.95614345 17.25615513 30.56978695 17.30175781 34.18359375 C17.34557814 37.67847537 17.36921218 41.17298976 17.37950897 44.66812515 C17.39037481 46.63441341 17.42154181 48.60055623 17.45318604 50.56661987 C17.45546888 59.78878657 15.9078149 66.59673744 10.8125 74.3125 C6.1774753 78.74152361 1.73712784 81.90405944 -4.7890625 82.1328125 C-5.84867188 82.08898437 -6.90828125 82.04515625 -8 82 C-8.16236745 79.41414795 -8.28095486 76.83848046 -8.375 74.25 C-8.42527344 73.52039063 -8.47554687 72.79078125 -8.52734375 72.0390625 C-8.5859375 69.890625 -8.5859375 69.890625 -8 66 C-5.0390625 63.609375 -5.0390625 63.609375 -2 62 C-0.66669971 59.33339943 -0.83840541 57.25111257 -0.79467773 54.26513672 C-0.77473251 53.06404266 -0.75478729 51.86294861 -0.73423767 50.62545776 C-0.70916893 48.67230148 -0.70916893 48.67230148 -0.68359375 46.6796875 C-0.66302375 45.33732462 -0.64202727 43.99496821 -0.62062073 42.65261841 C-0.56540469 39.11811562 -0.51599342 35.58355443 -0.46777344 32.0489502 C-0.41755496 28.44273678 -0.36187071 24.83660828 -0.30664062 21.23046875 C-0.19906481 14.15371802 -0.09812361 7.07688902 0 0 Z " fill="#050506" transform="translate(256,281)"/>
<path d="M0 0 C0 16.5 0 33 0 50 C-18.90618476 50 -18.90618476 50 -27.26953125 42.00390625 C-32.52113196 35.9224815 -33.63268779 29.69369851 -33.3125 21.7890625 C-32.47747619 14.33647501 -28.44172613 8.90926761 -23 4 C-15.64518434 -1.22001827 -9.37298132 0 0 0 Z " fill="#EACBAF" transform="translate(116,132)"/>
<path d="M0 0 C18.97660819 0 18.97660819 0 27.01171875 8.00390625 C31.70585865 13.99376515 33.54495618 19.49103276 33.37109375 27.08984375 C32.36794238 34.95666239 28.14635402 40.77413432 22.01953125 45.59375 C14.25165937 51.00271301 10.49777207 50 0 50 C0 33.5 0 17 0 0 Z " fill="#ECCDB1" transform="translate(314,132)"/>
<path d="M0 0 C6.40300813 3.52123923 10.10129253 7.57793905 12.828125 14.3203125 C14.28365775 19.70578368 13.80087707 24.94452344 13.6875 30.5 C8.0775 30.5 2.4675 30.5 -3.3125 30.5 C-3.47526042 27.47265625 -3.63802083 24.4453125 -3.80078125 21.41796875 C-4.0963019 18.53334123 -4.0963019 18.53334123 -5.60546875 16.63671875 C-7.66457061 15.26555481 -8.85227524 15.0970429 -11.3125 15.125 C-11.993125 15.11726563 -12.67375 15.10953125 -13.375 15.1015625 C-15.98045073 15.63736084 -16.7942409 16.31205561 -18.3125 18.5 C-18.89197281 21.46243726 -18.89197281 21.46243726 -19 24.6875 C-19.103125 26.605625 -19.20625 28.52375 -19.3125 30.5 C-24.9225 30.5 -30.5325 30.5 -36.3125 30.5 C-36.73305363 20.51185126 -36.57162709 13.41437741 -29.875 5.6875 C-29.029375 4.965625 -28.18375 4.24375 -27.3125 3.5 C-26.4875 2.778125 -25.6625 2.05625 -24.8125 1.3125 C-17.03679821 -4.3248838 -8.49036535 -3.88613737 0 0 Z " fill="#050404" transform="translate(267.3125,134.5)"/>
<path d="M0 0 C5.36562056 3.21139372 9.80251404 6.91924329 12.45703125 12.69140625 C13.89466814 18.41581495 13.31019382 24.41613547 13.1015625 30.2578125 C7.8215625 30.2578125 2.5415625 30.2578125 -2.8984375 30.2578125 C-2.9809375 28.5253125 -3.0634375 26.7928125 -3.1484375 25.0078125 C-3.48048733 21.5212893 -3.69634608 19.59204062 -5.5234375 16.5703125 C-8.8893792 14.71018682 -11.11481885 14.71729555 -14.8984375 15.2578125 C-17.49756001 16.4364788 -17.49756001 16.4364788 -18.8984375 19.2578125 C-19.52598772 22.95397691 -19.71937325 26.49746329 -19.8984375 30.2578125 C-25.1784375 30.2578125 -30.4584375 30.2578125 -35.8984375 30.2578125 C-36.51791416 12.912466 -36.51791416 12.912466 -31.8984375 7.2578125 C-22.96210969 -2.2988244 -12.1025388 -6.11541713 0 0 Z " fill="#020202" transform="translate(184.8984375,134.7421875)"/>
<path d="M0 0 C5.61 0 11.22 0 17 0 C17.226875 1.835625 17.45375 3.67125 17.6875 5.5625 C18.9427114 13.83961865 21.23495473 22.46990945 25 30 C25.57700717 36.23167745 25.57700717 36.23167745 23.52734375 38.9609375 C20.05774968 41.76020814 16.30165566 43.43582582 12.25 45.25 C11.45722656 45.61351562 10.66445312 45.97703125 9.84765625 46.3515625 C7.90205521 47.2423196 5.95150346 48.12224953 4 49 C2.79994469 46.9021477 1.61497017 44.7979751 0.4375 42.6875 C-0.07586914 41.79514648 -0.07586914 41.79514648 -0.59960938 40.88476562 C-1.47766262 39.29717441 -2.24586268 37.65006069 -3 36 C-2 33 -2 33 0.9375 31.3125 C4 30 4 30 6 30 C5.73445312 29.34515625 5.46890625 28.6903125 5.1953125 28.015625 C1.56836038 18.64379252 0 10.0561981 0 0 Z " fill="#060505" transform="translate(206,173)"/>
<path d="M0 0 C16.17 0 32.34 0 49 0 C49 5.28 49 10.56 49 16 C32.83 16 16.66 16 0 16 C0 10.72 0 5.44 0 0 Z " fill="#AAB2BD" transform="translate(372,281)"/>
</svg>
