<?xml version="1.0" encoding="UTF-8"?>
<svg version="1.1" xmlns="http://www.w3.org/2000/svg" width="512" height="512">
<path d="M0 0 C2.94040344 0.00853988 5.87887754 -0.02039202 8.8190918 -0.05200195 C27.05924806 -0.12074287 40.36129641 4.06289447 53.54370117 17.09057617 C53.98456055 17.53788086 54.42541992 17.98518555 54.87963867 18.44604492 C55.38108398 18.22948242 55.8825293 18.01291992 56.39916992 17.78979492 C67.79851206 13.59514773 82.01618738 13.71128029 93.29760742 18.17651367 C99.70020373 21.32453757 105.08556752 25.13369581 109.87963867 30.44604492 C110.60086914 31.17887695 110.60086914 31.17887695 111.33666992 31.92651367 C122.33255907 43.64618286 123.17133572 58.75085238 123.11791992 74.05932617 C123.13332287 76.63159717 123.14962523 79.20386292 123.16674805 81.77612305 C123.18325415 85.78316545 123.19353965 89.78981719 123.18505859 93.796875 C123.17806267 97.69714186 123.21051373 101.59668418 123.24291992 105.49682617 C123.22760979 107.28918449 123.22760979 107.28918449 123.21199036 109.11775208 C123.29646872 116.30473519 124.04762918 120.05721273 128.87963867 125.44604492 C133.23878688 133.5394805 133.08747096 143.75197844 131.22338867 152.53979492 C127.83714265 162.9320672 121.43943627 170.27679561 111.87963867 175.44604492 C106.18706802 178.33057208 101.21444096 178.84197007 94.87963867 178.44604492 C94.86545898 179.00549805 94.8512793 179.56495117 94.83666992 180.14135742 C93.75890152 198.25951816 83.58946404 214.91918249 70.87963867 227.44604492 C66.59641526 231.19098862 61.97755716 234.89708568 56.87963867 237.44604492 C55.91167251 248.75653544 55.91167251 248.75653544 60.24291992 258.82495117 C74.77646124 273.21974747 98.96312096 277.20947392 117.99554443 281.97595215 C122.54191067 283.11490028 127.08456094 284.26711618 131.62374878 285.43435669 C133.82328399 285.99420105 136.0269464 286.53480103 138.23144531 287.07470703 C149.2874225 289.86008002 158.17396472 293.4607993 165.30932617 302.71166992 C169.99431047 310.86960278 171.54684637 318.41530583 172.01513672 327.74438477 C172.0877431 328.91633078 172.16034948 330.08827679 172.23515606 331.29573631 C172.38703126 333.76999688 172.53177351 336.2447046 172.66973495 338.71977997 C172.87286112 342.32572815 173.09932342 345.92931783 173.33511353 349.53326416 C174.26384006 363.78791921 175.10014476 378.04861355 175.93739796 392.30890846 C176.39842462 400.15684811 176.87122909 408.00389924 177.35876828 415.85023749 C177.70477018 421.43488951 178.03729974 427.02024854 178.36001414 432.60629404 C178.55173469 435.91837359 178.7510655 439.2296927 178.96158791 442.54063797 C179.19394928 446.21359493 179.40424422 449.8872031 179.609375 453.56176758 C179.71902336 455.17481529 179.71902336 455.17481529 179.83088684 456.82044983 C180.14339359 462.8934957 180.28748797 469.15992941 176.87963867 474.44604492 C171.67762934 479.13564883 167.00837062 479.01408024 160.36584473 478.95397949 C158.7780449 478.96333944 158.7780449 478.96333944 157.15816832 478.97288847 C153.61132246 478.98884276 150.0651615 478.97620408 146.51831055 478.96362305 C143.97546487 478.96904305 141.43262234 478.97616502 138.88978577 478.98486328 C132.70018951 479.00121833 126.51084685 478.99881206 120.32124722 478.98721272 C115.29043748 478.97817562 110.25968211 478.97695558 105.22886658 478.98130798 C104.51259329 478.98192092 103.79632001 478.98253385 103.05834147 478.98316535 C101.60320205 478.98444427 100.14806264 478.98574112 98.69292325 478.98705572 C85.05114882 478.99845927 71.40948195 478.98535138 57.76772517 478.96385425 C46.0649042 478.94598344 34.36224194 478.94908762 22.65942383 478.9675293 C9.06615031 478.98894002 -4.52702896 478.99736066 -18.12031698 478.98508024 C-19.57007438 478.98380606 -21.0198318 478.98254858 -22.46958923 478.98130798 C-23.18287959 478.98069088 -23.89616995 478.98007378 -24.63107517 478.97943798 C-29.65528266 478.97598567 -34.67943032 478.98181082 -39.70362854 478.9912262 C-46.46703953 479.00362237 -53.23010447 478.99478467 -59.99350166 478.97164917 C-62.4775448 478.9663545 -64.96161313 478.96788872 -67.44564629 478.97669983 C-70.83296237 478.98760833 -74.21931304 478.97394707 -77.60656738 478.95397949 C-79.08584615 478.96736382 -79.08584615 478.96736382 -80.59500933 478.98101854 C-86.42455749 478.91422932 -89.64681449 478.26571064 -94.12036133 474.44604492 C-97.2439918 470.89156887 -98.22953503 467.84201184 -98.32568359 463.15820312 C-98.35560143 461.86720451 -98.35560143 461.86720451 -98.38612366 460.55012512 C-98.40283615 459.62503647 -98.41954865 458.69994781 -98.43676758 457.74682617 C-98.45754868 456.79664108 -98.47832977 455.84645599 -98.4997406 454.86747742 C-98.56514185 451.83124036 -98.62407736 448.79491661 -98.68286133 445.75854492 C-98.7260555 443.70059324 -98.76967008 441.64265033 -98.8137207 439.5847168 C-98.92081364 434.53858176 -99.02210779 429.4923595 -99.12036133 424.44604492 C-99.59304443 425.19587646 -100.06572754 425.94570801 -100.55273438 426.71826172 C-101.17704346 427.70479736 -101.80135254 428.69133301 -102.44458008 429.70776367 C-103.06163818 430.68447021 -103.67869629 431.66117676 -104.31445312 432.66748047 C-109.79679486 441.10259352 -116.06351532 445.88353315 -125.37036133 449.82104492 C-136.63502303 451.69848854 -147.29904291 451.30710057 -156.81176758 444.52807617 C-164.5924103 437.97656628 -170.41532625 430.30420343 -171.92895508 420.05932617 C-172.50544125 412.18852514 -171.47774295 405.84645857 -168.38427734 398.56005859 C-165.38049111 391.30020062 -162.90116983 383.94590461 -160.56449699 376.44835854 C-159.87508326 374.23675662 -159.17818788 372.02762292 -158.47962952 369.81889343 C-156.99934752 365.13410036 -155.5279725 360.44653794 -154.05786133 355.75854492 C-152.34718753 350.30427545 -150.63263854 344.85127817 -148.90912056 339.40105247 C-148.23062367 337.24908713 -147.55872673 335.09514028 -146.88719177 332.94099426 C-142.81196296 319.97382378 -139.03498363 309.06804816 -129.12036133 299.44604492 C-128.54286133 298.85952148 -127.96536133 298.27299805 -127.37036133 297.66870117 C-117.61710542 288.45468778 -103.20416095 286.04792081 -90.62060547 282.82104492 C-88.27026009 282.21407588 -85.92785918 281.58195256 -83.58520508 280.94604492 C-82.86445297 280.76879883 -82.14370087 280.59155273 -81.40110779 280.40893555 C-78.06363227 279.48713036 -76.44358818 279.00433101 -74.67041016 275.94165039 C-74.11152736 273.40596468 -73.85377465 271.1668606 -73.87036133 268.57104492 C-73.86262695 267.36834961 -73.86262695 267.36834961 -73.85473633 266.14135742 C-74.04716227 263.30549884 -74.04716227 263.30549884 -75.11254883 260.13745117 C-78.07904031 249.27181378 -76.72336845 237.60982773 -72.12036133 227.44604492 C-71.6846582 226.47795898 -71.24895508 225.50987305 -70.80004883 224.51245117 C-66.99974693 216.85993069 -62.1614295 212.14009037 -55.12036133 207.44604492 C-55.43489258 206.89819336 -55.74942383 206.3503418 -56.07348633 205.78588867 C-60.53398281 197.523222 -64.12036133 187.92254746 -64.12036133 178.44604492 C-65.35786133 178.54916992 -66.59536133 178.65229492 -67.87036133 178.75854492 C-76.20037918 178.74540609 -84.59859447 174.89978299 -90.59692383 169.16479492 C-98.62191131 160.11096289 -101.79468396 150.76068579 -101.46801758 138.68823242 C-100.49859932 129.64759023 -96.54211636 121.86779996 -90.12036133 115.44604492 C-90.00905209 112.38666938 -89.95862919 109.34616633 -89.94458008 106.28588867 C-89.92133431 104.35684187 -89.89721523 102.42780544 -89.87231445 100.4987793 C-89.83756378 97.46477822 -89.80807534 94.43114611 -89.79443359 91.39697266 C-89.67246257 68.70097969 -85.90831274 48.51413343 -71.12036133 30.44604492 C-70.12069336 29.1834082 -70.12069336 29.1834082 -69.10083008 27.89526367 C-51.36509241 6.73741707 -26.65065336 -0.11797249 0 0 Z " fill="#030303" transform="translate(248.120361328125,33.553955078125)"/>
<path d="M0 0 C2.32582777 0.02164705 4.64862372 -0.00005522 6.97436523 -0.02539062 C18.32630479 -0.04583495 28.73227279 1.29137564 37.99584961 8.52148438 C39.23334961 9.38773438 39.23334961 9.38773438 40.49584961 10.27148438 C43.87103061 13.30914728 46.38424165 16.82395008 48.99584961 20.52148438 C53.3488733 20.14296058 56.59466799 19.31307016 60.55834961 17.45898438 C69.18051009 13.90560915 78.01868569 14.49853301 86.74584961 17.45898438 C97.74247521 22.20630811 104.63242365 30.23229142 109.54223633 40.87280273 C111.63645075 46.53073903 111.36980753 52.15295659 111.28881836 58.11523438 C111.28457352 59.30250122 111.28032867 60.48976807 111.2759552 61.7130127 C111.259243 65.48273978 111.22160342 69.2519205 111.18334961 73.02148438 C111.16829319 75.58658079 111.15460646 78.15168563 111.14233398 80.71679688 C111.10936384 86.98521057 111.05923857 93.25330842 110.99584961 99.52148438 C109.8955542 99.20002441 108.79525879 98.87856445 107.66162109 98.54736328 C104.71091711 97.7215985 102.08992651 97.17632224 99.05834961 96.89648438 C98.28620117 96.82171875 97.51405273 96.74695313 96.71850586 96.66992188 C95.86579102 96.59644531 95.86579102 96.59644531 94.99584961 96.52148438 C94.98166992 95.92980469 94.96749023 95.338125 94.95288086 94.72851562 C94.68088842 90.22226246 94.47387246 88.09511179 91.49584961 84.52148438 C90.67084961 83.86148438 89.84584961 83.20148438 88.99584961 82.52148438 C88.66584961 82.19148438 88.33584961 81.86148438 87.99584961 81.52148438 C85.81012388 81.38506599 83.62187131 81.28885743 81.43334961 81.20898438 C65.9602554 80.33314885 48.5856389 75.99047543 36.99584961 65.08398438 C33.86614839 62.41069791 32.09395552 61.33127853 28.04272461 61.08789062 C23.72973521 62.00152006 20.92807509 65.42352441 17.99584961 68.52148438 C3.44539406 83.44502852 -12.85984103 90.45964049 -33.59521484 90.7668457 C-41.26584025 90.78054969 -48.77553151 90.44251079 -56.37524414 89.34960938 C-59.97094878 89.58469259 -61.45917421 91.06178958 -64.00415039 93.52148438 C-64.49915039 94.51148438 -64.49915039 94.51148438 -65.00415039 95.52148438 C-67.53573699 96.15950273 -70.00254541 96.68835805 -72.56665039 97.14648438 C-73.63302734 97.34757812 -73.63302734 97.34757812 -74.72094727 97.55273438 C-76.48057592 97.88340285 -78.24219587 98.20344204 -80.00415039 98.52148438 C-80.10464715 93.81166488 -80.17636659 89.10249823 -80.22387695 84.3918457 C-80.24372645 82.79668276 -80.27081543 81.20158987 -80.3059082 79.60668945 C-80.60644985 65.57404651 -78.98025065 52.90509504 -72.31665039 40.27148438 C-71.9741626 39.60947021 -71.6316748 38.94745605 -71.27880859 38.26538086 C-62.77202246 22.39669385 -48.19207654 9.7275135 -31.07003784 3.85852051 C-20.75240315 0.86262613 -10.70934236 -0.11827244 0 0 Z " fill="#744D33" transform="translate(249.004150390625,43.478515625)"/>
<path d="M0 0 C4.22945794 1.63410875 6.71121611 4.78510491 9.75 8.0625 C10.595625 8.866875 11.44125 9.67125 12.3125 10.5 C18.96855617 17.49739238 24.22374094 24.29851687 24.09375 34.24462891 C23.46426148 39.4048253 21.1561355 43.72813159 18.8125 48.3125 C18.05924438 49.82638306 18.05924438 49.82638306 17.29077148 51.37084961 C9.05337054 67.66161197 -1.26947448 81.38735555 -14.375 94.0625 C-24.32856046 103.76545435 -31.2764543 115.51903298 -38.40234375 127.359375 C-41.26734165 132.11358912 -44.2159248 136.81184695 -47.1875 141.5 C-47.68838135 142.29083984 -48.1892627 143.08167969 -48.70532227 143.89648438 C-49.71882376 145.49570548 -50.73273931 147.09466427 -51.74707031 148.69335938 C-54.18931677 152.54319037 -56.62671205 156.39608013 -59.0625 160.25 C-59.79327759 161.40616821 -59.79327759 161.40616821 -60.53881836 162.58569336 C-64.62970686 169.06519042 -68.69171208 175.56254842 -72.75 182.0625 C-75.24928424 186.0629477 -77.74939561 190.06287739 -80.25 194.0625 C-80.81847656 194.97225586 -81.38695312 195.88201172 -81.97265625 196.81933594 C-84.96586298 201.60457483 -87.97387312 206.37950831 -91.01757812 211.1328125 C-92.10976533 212.84292495 -93.18868928 214.56149219 -94.265625 216.28125 C-98.47221415 222.72377392 -102.899964 226.612488 -110.25 229.0625 C-125.51013969 230.32965276 -125.51013969 230.32965276 -131.609375 225.609375 C-138.5218275 219.09191979 -142.27291451 213.24507715 -142.6875 203.5625 C-142.27822637 192.87753484 -135.17938436 185.87097831 -128.73779297 177.90917969 C-126.37999915 174.98263678 -124.06654341 172.02171886 -121.75 169.0625 C-120.8335636 167.89565245 -119.91689644 166.72898609 -119 165.5625 C-118.54625 164.985 -118.0925 164.4075 -117.625 163.8125 C-116.25 162.0625 -114.875 160.3125 -113.5 158.5625 C-112.81949585 157.69637085 -112.81949585 157.69637085 -112.12524414 156.81274414 C-111.20784991 155.6451959 -110.29036933 154.47771551 -109.37280273 153.31030273 C-107.09155755 150.4076721 -104.81178786 147.50390726 -102.53515625 144.59765625 C-97.30509493 137.92481939 -92.036497 131.28495764 -86.73291016 124.67041016 C-81.98625399 118.74514684 -77.29484019 112.77752653 -72.61328125 106.80078125 C-70.77092504 104.45164511 -68.92266112 102.10718451 -67.07470703 99.76245117 C-65.24838378 97.44210137 -63.42842142 95.1167968 -61.60839844 92.79150391 C-60.23782288 91.04700065 -58.85757106 89.31046911 -57.4765625 87.57421875 C-48.9032423 76.72552233 -42.70526589 66.36808108 -44.25 52.0625 C-44.6999089 50.58794309 -45.20041576 49.12787956 -45.75 47.6875 C-49.07932159 38.5798847 -47.68297014 30.46057548 -43.6796875 21.83203125 C-37.26192504 9.39980835 -37.26192504 9.39980835 -30.25 7.0625 C-27.91700175 7.02295766 -25.58291811 7.01848268 -23.25 7.0625 C-25.04058863 12.27405533 -28.16252315 15.98332522 -31.5703125 20.24609375 C-33.49866044 23.47943995 -33.58777865 25.36327899 -33.25 29.0625 C-31.010165 30.01270416 -31.010165 30.01270416 -28.25 30.0625 C-24.27223752 26.60158495 -21.38765704 22.6261255 -18.4375 18.3125 C-5.74816718 0.15967131 -5.74816718 0.15967131 0 0 Z " fill="#F7CEB2" transform="translate(229.25,243.9375)"/>
<path d="M0 0 C3.63878101 1.30230057 6.33538062 2.88229649 9.375 5.25 C21.45757471 13.85480098 36.12688775 17.44651964 50.73779297 18.53393555 C51.91002411 18.6218486 53.08225525 18.70976166 54.29000854 18.80033875 C55.18430573 18.86622696 56.07860291 18.93211517 57 19 C57.06998455 28.38930321 57.12305437 37.77851452 57.15543652 47.16802311 C57.17099034 51.52950925 57.19203675 55.89081493 57.22631836 60.25219727 C57.25928366 64.47327343 57.27692997 68.69417773 57.28463173 72.91537285 C57.29010941 74.51345965 57.30080243 76.1115387 57.31719017 77.70955086 C57.44845703 91.05942646 56.7673134 104.46870321 50.1875 116.4375 C49.8371167 117.10507324 49.4867334 117.77264648 49.12573242 118.46044922 C46.51000664 123.33653891 43.57935927 127.77364284 40 132 C39.29875 132.969375 38.5975 133.93875 37.875 134.9375 C31.06128498 142.93051185 21.64516472 148.22515895 12 152 C11.25621094 152.30679688 10.51242187 152.61359375 9.74609375 152.9296875 C2.08316759 155.98322544 -4.86760279 156.13023412 -13 156 C-7.85918229 141.20738216 -7.85918229 141.20738216 -3.66015625 138.48046875 C-1.1875 137.875 -1.1875 137.875 1.37890625 137.484375 C8.97558533 136.08051776 17.2115129 129.66486876 21.77734375 123.6640625 C28.1662683 114.23600894 32.8583566 103.60065032 31 92 C28.79600962 87.42876069 26.51222863 85.21221231 22 83 C18.67229859 82.54115085 18.67229859 82.54115085 15.01000977 82.59594727 C14.32641388 82.58908401 13.64281799 82.58222076 12.93850708 82.57514954 C10.68925938 82.55691798 8.44071166 82.56071359 6.19140625 82.56640625 C4.62108637 82.56184256 3.05076849 82.55653643 1.48045349 82.55052185 C-1.80714035 82.54159786 -5.09449118 82.54400551 -8.38208008 82.55395508 C-12.58654395 82.56544213 -16.79016762 82.5452345 -20.99452114 82.51603794 C-24.23657015 82.49765478 -27.4784186 82.49797259 -30.72050667 82.50367546 C-32.27019491 82.50382843 -33.81989697 82.49780438 -35.36953545 82.48538399 C-37.54042495 82.47043524 -39.7097726 82.48117704 -41.88061523 82.49829102 C-43.11351791 82.49845718 -44.34642059 82.49862335 -45.61668396 82.49879456 C-50.5138191 83.22425761 -53.67830744 85.40485381 -56.8125 89.1875 C-57.98593286 91.96668308 -58.09850117 93.49064996 -58.1875 96.4375 C-58.4162639 99.32087838 -58.58440612 100.57341686 -60.625 102.66796875 C-62.01839763 103.65231973 -63.43362472 104.60637079 -64.8671875 105.53125 C-69.50106082 108.72234225 -72.6732375 113.53179699 -76 118 C-76.79913872 116.16991133 -77.58890755 114.33573034 -78.375 112.5 C-79.03628906 110.96859375 -79.03628906 110.96859375 -79.7109375 109.40625 C-83.19798539 100.19199012 -83.2641088 91.63797709 -83.1953125 81.90625 C-83.19157684 80.34826846 -83.18873248 78.79028455 -83.18673706 77.2322998 C-83.17914408 73.15524677 -83.15953344 69.07833892 -83.1373291 65.00134277 C-83.11677669 60.83164432 -83.10771535 56.66192214 -83.09765625 52.4921875 C-83.07628294 44.32805879 -83.04220011 36.16404751 -83 28 C-81.70920532 28.02356567 -81.70920532 28.02356567 -80.39233398 28.04760742 C-77.12127354 28.09951511 -73.85066634 28.13671974 -70.5793457 28.16479492 C-69.17823268 28.17964771 -67.77716405 28.19993556 -66.3762207 28.22631836 C-53.43721218 28.46343278 -40.6531536 27.37591295 -28.75 21.8125 C-27.75915405 21.3640271 -27.75915405 21.3640271 -26.74829102 20.90649414 C-20.6023666 18.01530439 -15.24954615 14.30305035 -10 10 C-9.30003906 9.43925781 -8.60007812 8.87851563 -7.87890625 8.30078125 C-4.82521331 5.78037356 -2.1859976 3.34329045 0 0 Z " fill="#F7CEB2" transform="translate(277,115)"/>
<path d="M0 0 C6.32938762 1.37990046 12.61891862 2.87033008 18.8984375 4.4609375 C19.81404449 4.6927774 20.72965149 4.92461731 21.67300415 5.16348267 C23.59764298 5.6517792 25.5220686 6.14091678 27.44628906 6.63085938 C29.39454642 7.12588175 31.34344015 7.61840648 33.29296875 8.10839844 C62.78545303 15.52132043 62.78545303 15.52132043 68 22 C69.0828125 23.2065625 69.0828125 23.2065625 70.1875 24.4375 C74.69174824 30.8055751 74.55759122 38.03147317 75 45.5625 C75.07976074 46.82852051 75.15952148 48.09454102 75.24169922 49.39892578 C76.44034029 68.91663669 77.18380843 88.46349959 78 108 C64.8 108 51.6 108 38 108 C37.93941406 104.61878906 37.87882812 101.23757813 37.81640625 97.75390625 C37.75467111 94.49403523 37.69126097 91.23420082 37.62768555 87.97436523 C37.58426335 85.70161164 37.54259384 83.42882387 37.50268555 81.15600586 C37.44515881 77.89686768 37.38141448 74.63790269 37.31640625 71.37890625 C37.29969376 70.35599991 37.28298126 69.33309357 37.26576233 68.27919006 C37.2358445 66.86784035 37.2358445 66.86784035 37.20532227 65.42797852 C37.18200584 64.17888451 37.18200584 64.17888451 37.15821838 62.90455627 C37.20571386 60.99033415 37.20571386 60.99033415 36 60 C33 59.83333333 33 59.83333333 30 60 C28.3641052 61.6358948 28.85799136 63.49406044 28.84178162 65.75184631 C28.8319928 66.77974777 28.82220398 67.80764923 28.81211853 68.86669922 C28.80636307 70.00389404 28.8006076 71.14108887 28.79467773 72.31274414 C28.78477814 73.50282578 28.77487854 74.69290741 28.76467896 75.91905212 C28.73842897 79.19160309 28.71659269 82.46414865 28.69667697 85.73674321 C28.67485467 89.15341561 28.64744767 92.57004297 28.62062073 95.98667908 C28.57064288 102.46065999 28.52572302 108.93466584 28.48259836 115.40869564 C28.43326941 122.77741119 28.37833523 130.14608157 28.32291877 137.51475346 C28.20902059 152.67646047 28.10239754 167.83821065 28 183 C23.71 183 19.42 183 15 183 C14.7525 181.123125 14.505 179.24625 14.25 177.3125 C13.4677102 172.34925931 13.4677102 172.34925931 10.75 168.1875 C10.1725 167.465625 9.595 166.74375 9 166 C9.6875 162.75 9.6875 162.75 11 159 C11.45303584 156.00996347 11.74041926 153.01250279 12 150 C12.99 149.67 13.98 149.34 15 149 C16.18391223 146.62374655 16.18391223 146.62374655 17 144 C17.33 143.01 17.66 142.02 18 141 C18.40080498 135.68933397 17.58004784 132.62258572 15 128 C15 127.34 15 126.68 15 126 C14.01 125.67 13.02 125.34 12 125 C11.97421875 124.3709375 11.9484375 123.741875 11.921875 123.09375 C11.39382738 115.12503141 9.69789478 109.18464758 3.6875 103.6875 C-3.63345921 97.50102357 -11.23966475 97.48812697 -20.4375 97.3125 C-21.64599609 97.27833984 -22.85449219 97.24417969 -24.09960938 97.20898438 C-27.06631349 97.12690165 -30.03273676 97.05761985 -33 97 C-32.89930987 95.06302989 -32.78144779 93.1269468 -32.65625 91.19140625 C-32.59244141 90.11318604 -32.52863281 89.03496582 -32.46289062 87.92407227 C-31.83685947 83.969444 -30.10525086 82.40656942 -27 80 C-25.1707082 74.51212461 -25.02497758 68.27505232 -27.3125 62.9375 C-29.03837129 60.7843899 -29.03837129 60.7843899 -32 59 C-32.3359375 56.71484375 -32.3359375 56.71484375 -32.375 53.9375 C-32.73030763 47.9525403 -34.70353639 43.9264493 -38 39 C-36.79730469 38.47019531 -35.59460938 37.94039063 -34.35546875 37.39453125 C-29.95411898 35.18563226 -27.33160248 32.51101854 -24.3125 28.6875 C-23.28729233 27.44072 -22.26121856 26.19465178 -21.234375 24.94921875 C-20.70908203 24.30388184 -20.18378906 23.65854492 -19.64257812 22.99365234 C-16.84996165 19.60415975 -13.95184062 16.30700686 -11.0625 13 C-7.3240409 8.70714924 -3.62984959 4.38523265 0 0 Z " fill="#3BA9DA" transform="translate(335,319)"/>
<path d="M0 0 C1.0209375 1.1446875 1.0209375 1.1446875 2.0625 2.3125 C5.35898525 5.32843331 7.86306835 6.45879017 12 8 C11.56880859 8.86044922 11.56880859 8.86044922 11.12890625 9.73828125 C10.75636719 10.48464844 10.38382812 11.23101562 10 12 C9.48759766 13.01126953 9.48759766 13.01126953 8.96484375 14.04296875 C7.05394175 18.03188585 5.80019637 21.37545118 5.5 25.8125 C5.27147098 29.02305401 5.2134715 29.74521144 3.0625 32.3125 C2.381875 32.869375 1.70125 33.42625 1 34 C-1.454782 37.5594339 -1.36560955 40.75892924 -1 45 C0.41623241 48.25058324 0.41623241 48.25058324 2 51 C2 51.66 2 52.32 2 53 C2.99 53.33 3.98 53.66 5 54 C5.09087891 54.90492188 5.09087891 54.90492188 5.18359375 55.828125 C5.26738281 56.62734375 5.35117188 57.4265625 5.4375 58.25 C5.51871094 59.03890625 5.59992188 59.8278125 5.68359375 60.640625 C5.97665065 62.82588881 6.44756275 64.86888974 7 67 C6.22398437 67.0093457 5.44796875 67.01869141 4.6484375 67.02832031 C1.09833713 67.08233437 -2.45048948 67.16592303 -6 67.25 C-7.22074219 67.26417969 -8.44148438 67.27835937 -9.69921875 67.29296875 C-18.0280473 67.51807222 -23.90176294 68.40868773 -30.2421875 73.96484375 C-34.70450311 79.35591883 -36.88560105 82.94054907 -37.3125 90 C-37.6243684 93.95425588 -37.83500368 94.80200442 -40.5 98 C-41.7375 98.99 -41.7375 98.99 -43 100 C-44.85661432 103.71322864 -44.45356929 107.94811434 -44 112 C-42.73328626 115.34988751 -41.31919376 118.34040312 -38 120 C-37.40234375 122.58203125 -37.40234375 122.58203125 -36.9375 125.8125 C-36.34371574 130.07156105 -36.34371574 130.07156105 -35.29296875 134.2265625 C-35.19628906 134.81179688 -35.09960938 135.39703125 -35 136 C-36.26009673 137.35957805 -37.52070031 138.71869397 -38.78515625 140.07421875 C-41.19857058 143.89998487 -40.91361397 148.58645928 -41 153 C-43.12472576 153.05386629 -45.24983652 153.09273071 -47.375 153.125 C-48.55835938 153.14820313 -49.74171875 153.17140625 -50.9609375 153.1953125 C-54 153 -54 153 -56 151 C-56.32125854 148.45765686 -56.32125854 148.45765686 -56.41748047 145.19946289 C-56.47535233 143.36968651 -56.47535233 143.36968651 -56.53439331 141.50294495 C-56.56405158 140.15955928 -56.5915915 138.81612545 -56.6171875 137.47265625 C-56.63033115 136.79212126 -56.64347481 136.11158627 -56.65701675 135.410429 C-56.72233177 131.79006149 -56.77113943 128.16981242 -56.81005859 124.54907227 C-56.84530557 121.58663647 -56.91424058 118.62814983 -57.01513672 115.66723633 C-57.60409133 97.96836781 -57.26663846 84.14218064 -45.48590088 69.84762573 C-43.3741015 67.22173397 -41.70146201 64.45258603 -39.96875 61.5625 C-39.39229736 60.63848389 -38.81584473 59.71446777 -38.22192383 58.76245117 C-37.65368896 57.85084229 -37.0854541 56.9392334 -36.5 56 C-31.0012783 47.19090256 -25.47957818 38.39700076 -19.921875 29.625 C-17.85619628 26.36251692 -15.80692627 23.09028842 -13.765625 19.8125 C-13.2296167 18.95503174 -12.6936084 18.09756348 -12.14135742 17.21411133 C-11.12231861 15.58336559 -10.10660761 13.95053338 -9.0949707 12.31518555 C-6.33603902 7.91020488 -3.42601329 3.91100246 0 0 Z " fill="#3BA7D9" transform="translate(217,349)"/>
<path d="M0 0 C13.53 0 27.06 0 41 0 C41.42959102 7.52551413 41.8576265 15.05108397 42.28173828 22.5769043 C42.42633803 25.13457298 42.57183438 27.69219115 42.71826172 30.24975586 C42.9291447 33.93590434 43.13675248 37.62222529 43.34375 41.30859375 C43.40937134 42.44332626 43.47499268 43.57805878 43.54260254 44.74717712 C44.24409427 57.36608887 44.24409427 57.36608887 44 63 C42 65 42 65 40.16500854 65.24050903 C39.42332428 65.23606781 38.68164001 65.23162659 37.91748047 65.22705078 C36.63877075 65.22668823 36.63877075 65.22668823 35.33422852 65.22631836 C34.43760498 65.21608643 33.54098145 65.20585449 32.6171875 65.1953125 C31.79355713 65.19329834 30.96992676 65.19128418 30.12133789 65.18920898 C27.03916876 65.17873023 23.9570789 65.1508077 20.875 65.125 C13.98625 65.08375 7.0975 65.0425 0 65 C0 43.55 0 22.1 0 0 Z " fill="#F6CEB2" transform="translate(373,437)"/>
<path d="M0 0 C1.26198212 -0.00563965 2.52396423 -0.0112793 3.82418823 -0.01708984 C5.23053035 -0.01320088 6.63687191 -0.00910452 8.04321289 -0.00482178 C9.51807834 -0.00753057 10.99294244 -0.01109088 12.46780396 -0.01544189 C16.48012211 -0.02458145 20.49233773 -0.02101523 24.50465775 -0.01468372 C28.69711846 -0.00963181 32.8895702 -0.01431292 37.08203125 -0.01745605 C44.12346986 -0.02109807 51.16486657 -0.01629045 58.20629883 -0.0067749 C66.35539706 0.00411011 74.50439522 0.00058469 82.65349102 -0.01042771 C89.64119926 -0.01949391 96.62887732 -0.02078915 103.61658955 -0.01555037 C107.7939601 -0.01242699 111.97128357 -0.0120314 116.14865112 -0.01862335 C120.07532324 -0.02438651 124.00186593 -0.02041895 127.92852402 -0.00883484 C129.37253479 -0.00618271 130.81655639 -0.00696272 132.2605629 -0.01136017 C134.22595082 -0.01679506 136.19136246 -0.00878303 138.15673828 0 C139.80930382 0.00113108 139.80930382 0.00113108 141.49525452 0.002285 C144.07836914 0.25396729 144.07836914 0.25396729 146.07836914 2.25396729 C146.39086914 5.25396729 146.39086914 5.25396729 146.07836914 8.25396729 C142.58110671 10.58547557 141.20744519 10.50508433 137.07444763 10.50793457 C135.19203369 10.51639404 135.19203369 10.51639404 133.27159119 10.52502441 C131.87832584 10.52113571 130.48506106 10.51703937 129.09179688 10.51275635 C127.62663601 10.51546595 126.1614765 10.51902671 124.69631958 10.52337646 C120.71505107 10.53250562 116.73388604 10.52895427 112.75261569 10.52261829 C108.59085733 10.51756198 104.42910795 10.52224863 100.26734924 10.52539062 C93.27896531 10.52903094 86.29062362 10.52422903 79.30224609 10.51470947 C71.21504281 10.50382053 63.12794033 10.50735341 55.04073948 10.51836228 C48.103966 10.52742822 41.16722293 10.52872397 34.23044544 10.52348495 C30.0843888 10.52036197 25.9383796 10.51996494 21.79232597 10.52655792 C17.89600894 10.53232085 13.99982234 10.52835394 10.10351944 10.51676941 C8.67079574 10.51411734 7.23806113 10.51489719 5.80534172 10.51929474 C3.85533405 10.52472977 1.90530248 10.51671749 -0.04469299 10.50793457 C-1.13773019 10.50718052 -2.23076738 10.50642647 -3.35692692 10.50564957 C-5.92163086 10.25396729 -5.92163086 10.25396729 -7.92163086 8.25396729 C-8.17163086 5.25396729 -8.17163086 5.25396729 -7.92163086 2.25396729 C-5.20976076 -0.45790281 -3.79555584 0.00259782 0 0 Z " fill="#ECF3FB" transform="translate(193.921630859375,491.74603271484375)"/>
<path d="M0 0 C0.12117188 0.95261719 0.24234375 1.90523438 0.3671875 2.88671875 C0.61855469 4.76810547 0.61855469 4.76810547 0.875 6.6875 C1.11863281 8.54955078 1.11863281 8.54955078 1.3671875 10.44921875 C1.92478369 13.57795295 2.69008123 16.12148102 4 19 C3.31035156 19.73863281 2.62070312 20.47726562 1.91015625 21.23828125 C-3.59997969 27.17432141 -8.90707035 33.20288183 -13.98828125 39.515625 C-15.78630987 41.73610306 -17.62506542 43.90699326 -19.5 46.0625 C-21.954032 48.70879388 -21.954032 48.70879388 -23 51 C-27.45161638 51.54222696 -31.56853768 51.77989605 -36 51 C-39.13117464 48.42536305 -40.96564247 45.46779714 -43 42 C-43.66 41.34 -44.32 40.68 -45 40 C-44.72175684 33.52090935 -41.31453278 27.88959201 -38.47998047 22.20141602 C-36.7319196 18.67907678 -35.11453479 15.37417569 -33.9609375 11.60546875 C-33.00325452 8.5489385 -32.47962683 7.05837749 -30 5 C-25.37480342 3.70174054 -20.63473952 3.54319412 -15.859375 3.37890625 C-11.51360603 3.19068298 -7.87739779 2.16766919 -3.82128906 0.63647461 C-2 0 -2 0 0 0 Z " fill="#F5CCB1" transform="translate(293,276)"/>
<path d="M0 0 C0.65042267 -0.00335861 1.30084534 -0.00671722 1.97097778 -0.01017761 C4.13114304 -0.01971301 6.291231 -0.02163202 8.45141602 -0.02270508 C9.94735242 -0.0259159 11.44328851 -0.02927984 12.93922424 -0.03279114 C16.07911914 -0.03878892 19.21898649 -0.04063038 22.35888672 -0.04003906 C26.38873909 -0.03993741 30.41841537 -0.05358965 34.44822598 -0.07081127 C37.53909624 -0.08191236 40.62992368 -0.08395886 43.72081184 -0.08342934 C45.20681426 -0.08461231 46.69281769 -0.08905179 48.17880058 -0.0967617 C50.25474362 -0.10652359 52.33030119 -0.10369891 54.40625 -0.09765625 C55.58904037 -0.09908127 56.77183075 -0.10050629 57.99046326 -0.10197449 C60.76782227 0.14526367 60.76782227 0.14526367 62.76782227 2.14526367 C63.83079873 10.34536786 60.79394529 17.75297831 56.15844727 24.48120117 C50.18051548 31.63826629 44.02403363 36.49236879 34.76782227 38.14526367 C34.62086914 37.38342773 34.47391602 36.6215918 34.32250977 35.83666992 C32.03512365 25.30680625 27.7728946 17.33743081 18.76782227 11.14526367 C12.17956019 7.28872002 6.6305302 6.02168162 -0.98217773 5.58276367 C-1.67956055 5.53958008 -2.37694336 5.49639648 -3.09545898 5.4519043 C-4.80749696 5.34636771 -6.51981334 5.24536458 -8.23217773 5.14526367 C-6.96581664 -0.46290687 -5.70052271 0.01838353 0 0 Z " fill="#F6627B" transform="translate(236.232177734375,206.854736328125)"/>
<path d="M0 0 C-1.68517708 3.89105495 -4.24577172 7.02940604 -6.875 10.3125 C-7.3611377 10.92569092 -7.84727539 11.53888184 -8.34814453 12.1706543 C-10.86608552 15.342036 -13.40040393 18.50018411 -15.9375 21.65625 C-16.91677615 22.87491203 -17.89594197 24.09366273 -18.875 25.3125 C-19.3712085 25.9297998 -19.86741699 26.54709961 -20.37866211 27.18310547 C-24.13918245 31.8793874 -27.80054304 36.64513959 -31.4375 41.4375 C-36.27139736 47.80520929 -41.23990055 54.04313875 -46.30712891 60.22631836 C-51.34128033 66.38114387 -56.19488325 72.66548944 -61 79 C-62.25361067 75.239168 -61.55665809 73.81687403 -60.375 70.06640625 C-60.00157471 68.86918945 -59.62814941 67.67197266 -59.2434082 66.43847656 C-58.82963376 65.14626164 -58.41514972 63.85427375 -58 62.5625 C-57.58204105 61.2458426 -57.16431776 59.92911036 -56.74682617 58.61230469 C-55.51304692 54.7365518 -54.25743851 50.86813978 -53 47 C-52.66307129 45.95118652 -52.32614258 44.90237305 -51.97900391 43.82177734 C-47.15498156 28.89293806 -42.05343996 15.78313104 -27.390625 7.97265625 C-22.48496979 5.60925167 -17.36437853 4.18024818 -12.125 2.75 C-11.17625 2.481875 -10.2275 2.21375 -9.25 1.9375 C-2.31058673 0 -2.31058673 0 0 0 Z " fill="#3AA6D6" transform="translate(163,326)"/>
<path d="M0 0 C0 17.49 0 34.98 0 53 C-9.0526633 51.99414852 -14.94692487 50.74226199 -20.9296875 43.7421875 C-26.43974353 35.75392444 -26.73546577 28.62594908 -26 19 C-24.29563944 11.88314306 -18.77065656 7.12867698 -13 3 C-8.59864526 0.64999095 -5.05874216 0 0 0 Z " fill="#F1C9AE" transform="translate(184,149)"/>
<path d="M0 0 C2.86961279 1.42337367 5.7131402 2.88935767 8.546875 4.3828125 C9.81337891 5.04990234 9.81337891 5.04990234 11.10546875 5.73046875 C12.41451172 6.42076172 12.41451172 6.42076172 13.75 7.125 C14.63816406 7.59292969 15.52632813 8.06085938 16.44140625 8.54296875 C18.62780078 9.69494006 20.81399144 10.84729647 23 12 C20.85499408 15.86101066 18.39675329 18.91138935 15.375 22.125 C11.85607058 25.92605933 8.50009157 29.77467437 5.25 33.8125 C-1.39707998 41.98360184 -1.39707998 41.98360184 -5 45 C-9.73538478 44.52025021 -12.73723984 41.1786672 -16.1875 38.1875 C-16.82880859 37.65318359 -17.47011719 37.11886719 -18.13085938 36.56835938 C-19.04641602 35.78235352 -19.04641602 35.78235352 -19.98046875 34.98046875 C-20.53629639 34.50504639 -21.09212402 34.02962402 -21.66479492 33.53979492 C-23.28213107 31.67463875 -23.77918317 30.45628723 -24 28 C-22.35085939 25.68080041 -20.72838955 23.70469521 -18.8125 21.625 C-17.70925656 20.38575384 -16.60640401 19.1461596 -15.50390625 17.90625 C-14.92914551 17.26816406 -14.35438477 16.63007813 -13.76220703 15.97265625 C-10.8710142 12.73618658 -8.06434992 9.4282276 -5.25 6.125 C-4.23477288 4.93976324 -3.21918479 3.75483552 -2.203125 2.5703125 C-1.11257813 1.29800781 -1.11257813 1.29800781 0 0 Z " fill="#6ED2F5" transform="translate(302,303)"/>
<path d="M0 0 C11.17735366 1.11773537 13.49672856 2.49672856 20.8125 9.8125 C24.6684866 15.43122333 26.73386275 21.66938558 26.48046875 28.53515625 C25.25046662 34.8451672 21.99794471 41.63421825 17.1875 46 C11.4059072 49.62766607 6.91259491 52 0 52 C0 34.84 0 17.68 0 0 Z " fill="#F6CDB1" transform="translate(344,150)"/>
<path d="M0 0 C0.658862 -0.00511093 1.317724 -0.01022186 1.99655151 -0.01548767 C4.17357474 -0.0293835 6.35028146 -0.02842719 8.52734375 -0.02612305 C10.04044716 -0.03000958 11.55354949 -0.03434417 13.06665039 -0.03910828 C16.23750344 -0.04657014 19.40824513 -0.04627919 22.57910156 -0.04101562 C26.64477409 -0.03521653 30.70999171 -0.05216235 34.77558899 -0.0753603 C37.89997019 -0.09008228 41.02424139 -0.09097154 44.14865112 -0.08785057 C45.64778546 -0.08836441 47.14692586 -0.09361399 48.64602661 -0.10366249 C50.74088242 -0.1159824 52.83484627 -0.10926348 54.9296875 -0.09765625 C56.12198975 -0.09828568 57.31429199 -0.0989151 58.54272461 -0.0995636 C61.46484375 0.2746582 61.46484375 0.2746582 63.34985352 1.61042786 C65.09546241 4.21591731 64.84557522 6.22880645 64.46484375 9.2746582 C63.34886169 10.93690491 63.34886169 10.93690491 61.46484375 12.2746582 C58.54945374 12.66233826 58.54945374 12.66233826 54.94555664 12.67871094 C54.28830093 12.68557419 53.63104523 12.69243744 52.95387268 12.69950867 C50.78152859 12.71780782 48.60990462 12.71393497 46.4375 12.70825195 C44.92679102 12.71281251 43.41608412 12.7181177 41.90538025 12.72413635 C38.73867365 12.73307369 35.57221914 12.73063769 32.40551758 12.72070312 C28.34875995 12.70921608 24.2928731 12.72941665 20.2362299 12.75862026 C17.1160683 12.77697404 13.99611565 12.77669147 10.87591362 12.77098274 C9.38039364 12.7708294 7.88485961 12.7768841 6.38939095 12.78927422 C4.29688176 12.8041671 2.20598441 12.79352255 0.11352539 12.77636719 C-1.67159706 12.77611794 -1.67159706 12.77611794 -3.49278259 12.77586365 C-7.14829585 12.17364862 -8.36914596 11.24017457 -10.53515625 8.2746582 C-10.47265625 5.1496582 -10.47265625 5.1496582 -9.53515625 2.2746582 C-5.93160511 -0.12770922 -4.28586073 0.01656177 0 0 Z " fill="#ED5F76" transform="translate(235.53515625,384.725341796875)"/>
<path d="M0 0 C0.86795197 -0.00428513 1.73590393 -0.00857025 2.63015747 -0.01298523 C4.46420419 -0.01872132 6.29827366 -0.0192341 8.13232422 -0.01489258 C10.92845818 -0.01173777 13.72352842 -0.0351824 16.51953125 -0.06054688 C18.30468617 -0.06282056 20.08984392 -0.06352304 21.875 -0.0625 C22.70643524 -0.07170975 23.53787048 -0.08091949 24.39450073 -0.09040833 C30.56138591 -0.04162879 34.82499307 1.11614613 39.3828125 5.55078125 C41.0703125 8.30078125 41.0703125 8.30078125 42.0703125 15.30078125 C21.9403125 15.30078125 1.8103125 15.30078125 -18.9296875 15.30078125 C-17.86416057 7.84209276 -17.73700277 7.10809652 -12.9296875 2.30078125 C-9.03051584 -0.4825674 -4.59533867 -0.00501294 0 0 Z " fill="#F6D883" transform="translate(294.9296875,425.69921875)"/>
<path d="M0 0 C0.86795197 -0.00428513 1.73590393 -0.00857025 2.63015747 -0.01298523 C4.46420419 -0.01872132 6.29827366 -0.0192341 8.13232422 -0.01489258 C10.92845818 -0.01173777 13.72352842 -0.0351824 16.51953125 -0.06054688 C18.30468617 -0.06282056 20.08984392 -0.06352304 21.875 -0.0625 C22.70643524 -0.07170975 23.53787048 -0.08091949 24.39450073 -0.09040833 C30.56138591 -0.04162879 34.82499307 1.11614613 39.3828125 5.55078125 C41.0703125 8.30078125 41.0703125 8.30078125 42.0703125 15.30078125 C21.9403125 15.30078125 1.8103125 15.30078125 -18.9296875 15.30078125 C-17.86416057 7.84209276 -17.73700277 7.10809652 -12.9296875 2.30078125 C-9.03051584 -0.4825674 -4.59533867 -0.00501294 0 0 Z " fill="#F6D883" transform="translate(207.9296875,425.69921875)"/>
<path d="M0 0 C6.82608699 4.64173916 11.57744404 10.98042768 13.875 18.9375 C14.75227447 25.37413177 13.86065424 30.21499604 10.875 35.9375 C7.86059376 33.04475141 5.30582815 29.98838507 2.75 26.6875 C-2.24455098 20.51046427 -10.01821371 11.53829839 -18.3125 10.5625 C-23.98506273 11.12045699 -28.37702724 13.08964308 -32.3125 17.25 C-32.910625 17.806875 -33.50875 18.36375 -34.125 18.9375 C-36.875 18.6875 -36.875 18.6875 -39.125 17.9375 C-37.81464346 10.23915531 -33.2585608 5.40375951 -27.3828125 0.4765625 C-20.06192934 -4.11119095 -7.54303336 -3.86756549 0 0 Z " fill="#F5D682" transform="translate(248.125,224.0625)"/>
<path d="M0 0 C0.81740158 -0.00902847 1.63480316 -0.01805695 2.47697449 -0.02735901 C4.20246742 -0.04182887 5.92801482 -0.05074012 7.65356445 -0.05444336 C10.27455592 -0.0663228 12.89317783 -0.11552204 15.51367188 -0.16601562 C17.19660319 -0.1754833 18.87954885 -0.18271669 20.5625 -0.1875 C21.72384209 -0.21679848 21.72384209 -0.21679848 22.90864563 -0.24668884 C29.80484565 -0.19035733 34.57453147 2.55596701 39.48046875 7.30859375 C40.48046875 9.37109375 40.48046875 9.37109375 40.48046875 15.37109375 C20.68046875 15.37109375 0.88046875 15.37109375 -19.51953125 15.37109375 C-19.51953125 8.57260509 -19.51953125 8.57260509 -16.83203125 5.62109375 C-16.08373047 4.76257813 -16.08373047 4.76257813 -15.3203125 3.88671875 C-10.76321906 0.05124748 -5.71772817 0.03929571 0 0 Z " fill="#F6D883" transform="translate(252.51953125,359.62890625)"/>
<path d="M0 0 C1.00270432 -0.00744736 1.00270432 -0.00744736 2.02566528 -0.01504517 C4.24050926 -0.02966941 6.45528166 -0.03646866 8.67016602 -0.04199219 C10.20711774 -0.04774278 11.74406944 -0.05350053 13.28102112 -0.05926514 C16.50489639 -0.06977543 19.72874672 -0.07561811 22.95263672 -0.07910156 C27.08668638 -0.08459086 31.22040742 -0.10862775 35.3543539 -0.13707352 C38.52933217 -0.15568144 41.70423092 -0.16090447 44.87925911 -0.16243744 C46.40352236 -0.16546796 47.92778408 -0.17350993 49.45199394 -0.18662262 C51.58283514 -0.20364766 53.71286869 -0.20181231 55.84375 -0.1953125 C57.05683334 -0.19895813 58.26991669 -0.20260376 59.51976013 -0.20635986 C62.48657227 0.16113281 62.48657227 0.16113281 64.37831116 1.52716064 C65.97053417 3.87466528 65.90249737 5.38829879 65.48657227 8.16113281 C64.37731934 9.79312134 64.37731934 9.79312134 62.48657227 11.16113281 C59.52648926 11.54208374 59.52648926 11.54208374 55.85961914 11.54931641 C55.19100357 11.55457336 54.522388 11.55983032 53.83351135 11.56524658 C51.62387719 11.57844807 49.41496372 11.56970863 47.20532227 11.55957031 C45.6697984 11.56159102 44.13427546 11.56450243 42.59875488 11.56826782 C39.38076642 11.57269135 36.16302779 11.56625941 32.94506836 11.55224609 C28.81883611 11.53515393 24.69318923 11.54499499 20.56697845 11.56296349 C17.39625635 11.5738007 14.22567318 11.57035533 11.0549469 11.56258011 C9.53349234 11.56057791 8.01202519 11.56303807 6.49058533 11.57001877 C4.36455848 11.57763254 2.23948143 11.56603163 0.11352539 11.54931641 C-1.09654175 11.54692963 -2.30660889 11.54454285 -3.55334473 11.54208374 C-6.51342773 11.16113281 -6.51342773 11.16113281 -8.43933105 9.86343384 C-9.51342773 8.16113281 -9.51342773 8.16113281 -9.32592773 4.53613281 C-9.05780273 3.42238281 -8.78967773 2.30863281 -8.51342773 1.16113281 C-5.65255692 -0.26930259 -3.19787648 0.01801149 0 0 Z " fill="#FB647D" transform="translate(191.513427734375,450.8388671875)"/>
<path d="M0 0 C0.66861557 -0.00525696 1.33723114 -0.01051392 2.02610779 -0.01593018 C4.23574195 -0.02913166 6.44465542 -0.02039222 8.65429688 -0.01025391 C10.18982074 -0.01227462 11.72534368 -0.01518603 13.26086426 -0.01895142 C16.47885272 -0.02337494 19.69659136 -0.016943 22.91455078 -0.00292969 C27.04078303 0.01416248 31.16642991 0.00432141 35.29264069 -0.01364708 C38.46336279 -0.02448429 41.63394597 -0.02103892 44.80467224 -0.0132637 C46.3261268 -0.01126151 47.84759395 -0.01372167 49.36903381 -0.02070236 C51.49506066 -0.02831613 53.62013771 -0.01671523 55.74609375 0 C57.56119446 0.00358017 57.56119446 0.00358017 59.41296387 0.00723267 C62.37304688 0.38818359 62.37304688 0.38818359 64.26379395 1.75619507 C65.85829677 4.10210757 65.78892401 5.61566934 65.37304688 8.38818359 C64.26379395 10.02017212 64.26379395 10.02017212 62.37304688 11.38818359 C59.41296387 11.76913452 59.41296387 11.76913452 55.74609375 11.77636719 C55.07747818 11.78162415 54.40886261 11.7868811 53.71998596 11.79229736 C51.5103518 11.80549885 49.30143833 11.79675941 47.09179688 11.78662109 C45.55627301 11.7886418 44.02075007 11.79155322 42.48522949 11.7953186 C39.26724103 11.79974213 36.04950239 11.79331019 32.83154297 11.77929688 C28.70531072 11.76220471 24.57966384 11.77204577 20.45345306 11.79001427 C17.28273096 11.80085148 14.11214778 11.79740611 10.94142151 11.78963089 C9.41996695 11.7876287 7.8984998 11.79008885 6.37705994 11.79706955 C4.25103309 11.80468332 2.12595604 11.79308242 0 11.77636719 C-1.21006714 11.77398041 -2.42013428 11.77159363 -3.66687012 11.76913452 C-6.62695312 11.38818359 -6.62695312 11.38818359 -8.5177002 10.02017212 C-10.11220302 7.67425962 -10.04283026 6.16069785 -9.62695312 3.38818359 C-7.09208582 -0.34124028 -4.2662797 0.00841496 0 0 Z " fill="#FB647D" transform="translate(278.626953125,450.61181640625)"/>
<path d="M0 0 C1.9375 1 1.9375 1 3 3 C3.23595284 5.71882023 3.13477523 8.25957022 3 11 C4.258125 10.938125 5.51625 10.87625 6.8125 10.8125 C9.37705844 10.83065617 10.71463773 10.8484013 13 12.0625 C14.58433618 15.13215135 14.36248449 17.61681143 14 21 C13 22.9375 13 22.9375 11 24 C8.28117977 24.23595284 5.74042978 24.13477523 3 24 C3.061875 25.258125 3.12375 26.51625 3.1875 27.8125 C3.16934383 30.37705844 3.1515987 31.71463773 1.9375 34 C-1.13215135 35.58433618 -3.61681143 35.36248449 -7 35 C-8.9375 34 -8.9375 34 -10 32 C-10.23595284 29.28117977 -10.13477523 26.74042978 -10 24 C-11.258125 24.061875 -12.51625 24.12375 -13.8125 24.1875 C-16.37705844 24.16934383 -17.71463773 24.1515987 -20 22.9375 C-21.58433618 19.86784865 -21.36248449 17.38318857 -21 14 C-20 12.0625 -20 12.0625 -18 11 C-15.28117977 10.76404716 -12.74042978 10.86522477 -10 11 C-10.061875 9.741875 -10.12375 8.48375 -10.1875 7.1875 C-10.16934383 4.62294156 -10.1515987 3.28536227 -8.9375 1 C-5.86784865 -0.58433618 -3.38318857 -0.36248449 0 0 Z " fill="#6FD6F9" transform="translate(402,254)"/>
<path d="M0 0 C20.13 0 40.26 0 61 0 C60 7 60 7 58 9 C55.69166565 9.26742554 55.69166565 9.26742554 52.77172852 9.29052734 C51.6804213 9.30328705 50.58911407 9.31604675 49.46473694 9.32919312 C47.68975075 9.33253159 47.68975075 9.33253159 45.87890625 9.3359375 C44.06264992 9.3459227 44.06264992 9.3459227 42.20970154 9.35610962 C39.64494347 9.36625023 37.08015895 9.37092621 34.51538086 9.37060547 C30.58207935 9.37497823 26.64989963 9.4112844 22.71679688 9.44921875 C20.22917052 9.45508653 17.74153881 9.45905618 15.25390625 9.4609375 C13.48195641 9.48249405 13.48195641 9.48249405 11.67420959 9.50448608 C10.57975021 9.49833282 9.48529083 9.49217957 8.35766602 9.48583984 C7.39329117 9.48868988 6.42891632 9.49153992 5.43531799 9.49447632 C3 9 3 9 1.16514587 7.28213501 C0 5 0 5 0 0 Z " fill="#F6D883" transform="translate(189,472)"/>
<path d="M0 0 C20.13 0 40.26 0 61 0 C60 7 60 7 58 9 C55.69166565 9.27415466 55.69166565 9.27415466 52.77172852 9.30639648 C51.13476768 9.33037758 51.13476768 9.33037758 49.46473694 9.35484314 C47.68975075 9.36288719 47.68975075 9.36288719 45.87890625 9.37109375 C44.06264992 9.38463646 44.06264992 9.38463646 42.20970154 9.39845276 C39.64495324 9.41298207 37.08016766 9.42184861 34.51538086 9.42553711 C30.58188795 9.43744132 26.64995877 9.48661159 22.71679688 9.53710938 C20.22917436 9.5465719 17.74154216 9.55380775 15.25390625 9.55859375 C13.48195641 9.58789223 13.48195641 9.58789223 11.67420959 9.61778259 C10.57975021 9.61170486 9.48529083 9.60562714 8.35766602 9.59936523 C6.91110374 9.60697121 6.91110374 9.60697121 5.43531799 9.61473083 C3 9 3 9 1.16514587 6.71253967 C0 4 0 4 0 0 Z " fill="#F7D983" transform="translate(276,472)"/>
<path d="M0 0 C19.8 0 39.6 0 60 0 C59.67 2.31 59.34 4.62 59 7 C55.69895394 9.20069737 54.68061276 9.25555432 50.84179688 9.2746582 C49.79060669 9.28419022 48.7394165 9.29372223 47.65637207 9.30354309 C46.52195679 9.30263168 45.3875415 9.30172028 44.21875 9.30078125 C43.05371948 9.30506638 41.88868896 9.3093515 40.68835449 9.31376648 C38.22372081 9.31951272 35.75907016 9.32000789 33.29443359 9.31567383 C29.51500674 9.31251255 25.73636134 9.33597506 21.95703125 9.36132812 C19.56510516 9.36360087 17.17317695 9.36430473 14.78125 9.36328125 C13.07962708 9.37709587 13.07962708 9.37709587 11.34362793 9.39118958 C10.29243774 9.38496078 9.24124756 9.37873199 8.15820312 9.37231445 C6.76945984 9.37325859 6.76945984 9.37325859 5.35266113 9.3742218 C3 9 3 9 1.1776123 7.85173035 C0 6 0 6 0 0 Z " fill="#F9DA84" transform="translate(233,407)"/>
<path d="M0 0 C3 1 3 1 3.95703125 2.671875 C4.23933594 3.35765625 4.52164063 4.0434375 4.8125 4.75 C8.01853116 11.53852811 13.24123884 14.43167076 20 17 C20 17.66 20 18.32 20 19 C19.34773438 19.268125 18.69546875 19.53625 18.0234375 19.8125 C10.29759589 23.27659417 6.14734585 27.31488179 2.625 35 C2.41875 35.66 2.2125 36.32 2 37 C-0.75070359 35.6246482 -0.97558764 34.0460845 -2.1875 31.25 C-5.29600947 24.85012756 -8.88925708 22.18773821 -15.4375 19.6875 C-16.283125 19.460625 -17.12875 19.23375 -18 19 C-18 18.34 -18 17.68 -18 17 C-17.34773438 16.79246094 -16.69546875 16.58492187 -16.0234375 16.37109375 C-9.71400714 14.14697302 -5.55095364 11.77340364 -2 6 C-0.60794936 2.75381554 -0.60794936 2.75381554 0 0 Z " fill="#F5C84B" transform="translate(130,40)"/>
<path d="M0 0 C3.90506327 1.16921511 5.68011406 3.30820501 8.015625 6.5546875 C10.0164738 9.41855328 10.0164738 9.41855328 14.6484375 13.79296875 C3.0984375 13.79296875 -8.4515625 13.79296875 -20.3515625 13.79296875 C-18.7015625 12.14296875 -17.0515625 10.49296875 -15.3515625 8.79296875 C-14.30533437 7.35878522 -13.26327137 5.92154835 -12.2265625 4.48046875 C-8.57244757 0.29179989 -5.46870958 -0.3970433 0 0 Z " fill="#3BA7D9" transform="translate(266.3515625,336.20703125)"/>
<path d="M0 0 C6.09411765 4.61176471 6.09411765 4.61176471 8 8 C7.78469456 10.98894617 6.98025492 12.0207689 4.890625 14.21875 C4.01921875 14.9715625 3.1478125 15.724375 2.25 16.5 C1.38890625 17.2528125 0.5278125 18.005625 -0.359375 18.78125 C-1.23078125 19.5134375 -2.1021875 20.245625 -3 21 C-3.87914062 21.7528125 -4.75828125 22.505625 -5.6640625 23.28125 C-8 25 -8 25 -10.625 25 C-13.42713146 23.82015518 -14.42969171 22.56208195 -16 20 C-14.39914309 16.17772929 -11.93771778 13.57135685 -9.125 10.5625 C-5.93425561 7.13840266 -2.88007793 3.69051846 0 0 Z " fill="#6CCFF0" transform="translate(241,323)"/>
<path d="M0 0 C3 1 3 1 4.6875 4.3125 C7.02343781 8.76452265 10.45500204 10.2239207 15 12 C15 12.66 15 13.32 15 14 C13.1746875 14.7115625 13.1746875 14.7115625 11.3125 15.4375 C6.14543124 17.96137906 4.26637261 21.90066163 2 27 C0 26 0 26 -1.3125 23.1875 C-3.78723068 18.51300872 -7.22840388 16.12070939 -12 14 C-12 13.34 -12 12.68 -12 12 C-11.46890625 11.8040625 -10.9378125 11.608125 -10.390625 11.40625 C-5.04092873 9.14141508 -2.85858492 6.95907127 -0.59375 1.609375 C-0.3978125 1.07828125 -0.201875 0.5471875 0 0 Z " fill="#FC647D" transform="translate(130,270)"/>
<path d="M0 0 C3.34265205 1.20706879 3.94704566 1.92056849 6 5 C6.6779661 12.11864407 6.6779661 12.11864407 4.125 15.4375 C0.58300058 18.04191134 -1.58936125 18.43241556 -6 18 C-8.69990662 16.20006226 -10.5418865 14.916227 -12 12 C-12.43023798 8.12785818 -12.31669086 6.47503629 -10.125 3.1875 C-6.78940571 -0.2462 -4.7066745 -0.28240047 0 0 Z " fill="#070605" transform="translate(237,165)"/>
<path d="M0 0 C3.375 2.0625 3.375 2.0625 6 5 C6.77152986 9.32056721 6.52747866 11.19119939 4.125 14.875 C1.61333682 17.38666318 0.70615837 17.92153796 -2.8125 18.3125 C-6.7307645 17.92835642 -8.21293267 16.70743683 -11 14 C-12.42662219 11.14675563 -12.31033868 9.16545451 -12 6 C-8.57142548 0.85713823 -6.21724352 -0.71737425 0 0 Z " fill="#050404" transform="translate(298,165)"/>
<path d="M0 0 C2.0625 1.5625 2.0625 1.5625 3 4 C2.87988224 7.42335626 2.60726153 9.95416069 0.875 12.9375 C-2.22289358 14.69297303 -4.52844534 14.48723574 -8 14 C-10.5 11.875 -10.5 11.875 -12 9 C-11.93689022 5.84451076 -11.48864121 3.86230802 -9.9375 1.125 C-6.76015463 -0.71991022 -3.56671699 -0.65253866 0 0 Z " fill="#F5C84B" transform="translate(442,308)"/>
<path d="M0 0 C2.0625 1.5625 2.0625 1.5625 3 4 C2.87988224 7.42335626 2.60726153 9.95416069 0.875 12.9375 C-2.22289358 14.69297303 -4.52844534 14.48723574 -8 14 C-10.5 11.875 -10.5 11.875 -12 9 C-11.93689022 5.84451076 -11.48864121 3.86230802 -9.9375 1.125 C-6.76015463 -0.71991022 -3.56671699 -0.65253866 0 0 Z " fill="#87D146" transform="translate(184,0)"/>
<path d="M0 0 C4.62 0 9.24 0 14 0 C13.34 1.65 12.68 3.3 12 5 C11.57056312 7.26117071 11.19727072 9.53358565 10.875 11.8125 C10.62363281 13.55466797 10.62363281 13.55466797 10.3671875 15.33203125 C10.24601562 16.21246094 10.12484375 17.09289062 10 18 C8.34385343 18.38218767 6.67542976 18.71395102 5 19 C2.78179857 16.78179857 3.0424116 12.17694551 2.59765625 9.17578125 C1.97536702 5.4750414 1.97536702 5.4750414 0 0 Z " fill="#3AA5D6" transform="translate(256,426)"/>
<path d="M0 0 C1.921875 0.5859375 1.921875 0.5859375 4 2 C4.828125 5.0390625 4.828125 5.0390625 5.25 8.625 C5.39953125 9.81351562 5.5490625 11.00203125 5.703125 12.2265625 C5.85007812 13.59941406 5.85007812 13.59941406 6 15 C2.7 15 -0.6 15 -4 15 C-3.71848084 12.87363187 -3.42446737 10.74891472 -3.125 8.625 C-2.96257812 7.44164062 -2.80015625 6.25828125 -2.6328125 5.0390625 C-2 2 -2 2 0 0 Z " fill="#379CCA" transform="translate(262,467)"/>
</svg>
