<?xml version="1.0" encoding="UTF-8"?>
<svg version="1.1" xmlns="http://www.w3.org/2000/svg" width="512" height="512">
<path d="M0 0 C5.86415174 4.10841769 10.15904444 9.47807484 14.58203125 15.04296875 C17.11573976 18.14154281 19.77096221 21.07498273 22.5 24 C26.76981873 28.58697576 30.75763189 33.33448535 34.6875 38.21875 C37.19971256 41.24019484 39.82404088 44.12438383 42.5 47 C46.01277594 50.77559534 49.3804967 54.61176421 52.625 58.625 C65.37890851 74.72567907 65.37890851 74.72567907 84 82 C93.97335905 82.90517285 102.61219734 80.68323441 110.78515625 74.8515625 C117.64725987 69.1149891 123.01938139 61.77567807 128.6171875 54.8515625 C131.60101113 51.28075717 134.74647952 47.88415005 137.91577148 44.47875977 C140.8868675 41.26736593 143.69946588 37.97390237 146.4375 34.5625 C150.2772675 29.78854935 154.35668407 25.31198506 158.54956055 20.8515625 C161.79317742 17.37844198 164.80857333 13.80014045 167.75 10.0625 C173.28130755 3.20087798 179.18536862 -2.24018047 188.2421875 -3.25 C195.64876309 -3.61917511 202.37297759 -2.14296491 208.078125 2.80078125 C214.08358717 9.29828758 216.58717785 15.44755596 216.2734375 24.3046875 C215.38249162 33.08686827 210.5636114 38.43714028 205 45 C203.30905134 47.04974568 201.62533429 49.10532855 199.94116211 51.16064453 C193.66889636 58.80810392 187.34474348 66.41262242 181 74 C182.41919152 78.46031621 184.86616306 81.32855651 188.0625 84.625 C191.63975472 88.4120302 195.06700358 92.23122725 198.3125 96.3125 C202.11957965 101.01980968 206.0982839 105.53811212 210.1875 110 C210.76991455 110.64751221 211.3523291 111.29502441 211.95239258 111.9621582 C215.99560243 116.32297896 219.63326096 119.4615158 225.7109375 120.43359375 C233.44495284 120.44493395 238.53445906 119.35354859 244.17578125 113.89453125 C248.90399617 108.75800761 253.22973329 103.2785529 257.6171875 97.8515625 C260.59563207 94.2871944 263.73310007 90.89442723 266.90039062 87.49853516 C270.79659725 83.29408434 274.39591821 78.88962541 277.9296875 74.375 C281.75570294 69.98591059 285.862288 66.42583234 291.734375 65.62890625 C298.75377693 65.47433393 303.79132678 66.01724514 309 71 C312.41465502 75.19116549 313.81123755 79.62027019 314 85 C312.91348923 91.01902274 311.09323588 94.92549969 307.125 99.625 C306.64248779 100.21764648 306.15997559 100.81029297 305.6628418 101.42089844 C301.13506906 106.94537818 296.45786393 112.34808753 291.78515625 117.75 C288.72280677 121.30319709 285.77879289 124.941994 282.87890625 128.62890625 C281.5545314 130.30020674 280.20571432 131.95228103 278.83984375 133.58984375 C278.12957031 134.44707031 277.41929687 135.30429687 276.6875 136.1875 C275.73423828 137.32251953 275.73423828 137.32251953 274.76171875 138.48046875 C270.26960375 144.90489042 269.56764877 150.2278106 269.59375 157.87890625 C269.57749573 159.27434914 269.57749573 159.27434914 269.56091309 160.69798279 C269.51529086 164.65204063 269.50358316 168.60602902 269.48876953 172.56030273 C269.47304099 175.45840526 269.44004027 178.35596704 269.40625 181.25390625 C269.40927124 182.14155167 269.41229248 183.02919708 269.41540527 183.94374084 C269.34535388 189.74848241 268.57181976 194.18037469 264.5 198.64453125 C260.05716543 202.10392588 257.18424822 203.12191573 251.62988281 203.16113281 C250.53154114 203.17074036 249.43319946 203.1803479 248.30157471 203.19024658 C247.1140863 203.19449646 245.9265979 203.19874634 244.703125 203.203125 C243.48099304 203.20882507 242.25886108 203.21452515 240.99969482 203.22039795 C238.41061266 203.22985182 235.82151844 203.23638346 233.23242188 203.24023438 C229.27973289 203.24992709 225.32756663 203.28094258 221.375 203.3125 C218.85937809 203.31903138 216.34375246 203.32428132 213.828125 203.328125 C212.64873352 203.3404718 211.46934204 203.3528186 210.25421143 203.36553955 C202.87083442 203.34559425 197.15022192 203.15022192 191.6875 197.6875 C187.96129409 191.75317208 187.71870902 186.30281931 187.7265625 179.5078125 C187.7062736 177.64973356 187.68542281 175.79166068 187.6640625 173.93359375 C187.64149241 171.02843072 187.62499699 168.12350835 187.61914062 165.21826172 C187.60957122 162.3976786 187.57574566 159.5781557 187.5390625 156.7578125 C187.54663071 155.46993332 187.54663071 155.46993332 187.55435181 154.15603638 C187.43373822 146.69090695 185.08405837 140.86018044 180.046875 135.2890625 C179.51400879 134.68908447 178.98114258 134.08910645 178.43212891 133.47094727 C177.5994751 132.55720337 177.5994751 132.55720337 176.75 131.625 C175.58446257 130.31511299 174.42039821 129.00391375 173.2578125 127.69140625 C172.41718262 126.74612061 172.41718262 126.74612061 171.55957031 125.78173828 C168.85314947 122.68977534 166.33005713 119.45807256 163.7890625 116.23046875 C160.97351067 112.7202502 157.99831487 109.35436476 155 106 C154.19289985 107.30306627 153.40529823 108.61820965 152.625 109.9375 C151.96371094 111.03384766 151.96371094 111.03384766 151.2890625 112.15234375 C147.46267001 120.60519262 147.73292941 129.28052793 147.76171875 138.37890625 C147.75568617 139.75936129 147.74807325 141.13981022 147.7389679 142.52024841 C147.70215099 148.33831546 147.68329891 154.1561844 147.69458008 159.97436523 C147.70045994 163.55121362 147.68204496 167.12727462 147.64869118 170.70396233 C147.63698105 172.70899447 147.65200886 174.71412613 147.66764832 176.71913147 C147.58862967 184.09900263 147.00976843 189.35963053 142 195 C136.37507262 200.34368101 131.24363769 201.29940672 123.66479492 201.29052734 C122.83810806 201.29724457 122.0114212 201.30396179 121.15968323 201.31088257 C118.43321684 201.32984292 115.70699692 201.33378589 112.98046875 201.3359375 C111.07863769 201.34236723 109.17680763 201.34909573 107.27497864 201.35610962 C103.28965971 201.36807779 99.30442743 201.37179096 95.3190918 201.37060547 C90.22483523 201.37040241 85.13113734 201.39769324 80.03701305 201.43214989 C76.10864231 201.45444349 72.18040544 201.45844224 68.25197792 201.45738602 C66.37458688 201.4597387 64.49719197 201.46854341 62.61986351 201.48405075 C59.98731331 201.50375893 57.35596025 201.49785395 54.72338867 201.48583984 C53.95584259 201.49707886 53.18829651 201.50831787 52.39749146 201.51989746 C46.31311043 201.44972627 40.97251701 199.8085047 36.46815777 195.55267906 C32.30412901 190.7390969 30.75393571 187.27860231 30.72875977 180.953125 C30.71347984 179.11971558 30.71347984 179.11971558 30.69789124 177.24926758 C30.69575119 175.92950928 30.69361115 174.60975098 30.69140625 173.25 C30.68029503 171.87197816 30.66789914 170.49396614 30.65428162 169.1159668 C30.59908501 163.2780856 30.56839681 157.44013207 30.54370117 151.60205078 C30.52766075 148.02461237 30.49726258 144.44750448 30.45893669 140.87023926 C30.44187616 138.8676582 30.44123322 136.86495841 30.4410553 134.86230469 C30.33130849 124.5983888 29.65036325 114.25562335 23 106 C17.52094896 111.90569846 12.18867661 117.8387899 7.21875 124.18359375 C5.46930517 126.40427988 3.69812267 128.59900651 1.90625 130.78515625 C1.36468262 131.44999023 0.82311523 132.11482422 0.26513672 132.79980469 C-0.80687348 134.11532301 -1.88320135 135.42733776 -2.96435547 136.73535156 C-3.70516357 137.64945801 -3.70516357 137.64945801 -4.4609375 138.58203125 C-4.90228027 139.12061768 -5.34362305 139.6592041 -5.79833984 140.21411133 C-9.31836323 145.44551545 -9.2935448 150.29212736 -9.30859375 156.39453125 C-9.33375792 158.25586245 -9.35915588 160.1171905 -9.38476562 161.97851562 C-9.41345329 164.89460401 -9.43748799 167.81063767 -9.45629883 170.72680664 C-9.47807281 173.55383546 -9.51752254 176.38022624 -9.55859375 179.20703125 C-9.55870956 180.06875443 -9.55882538 180.9304776 -9.5589447 181.8183136 C-9.66621552 188.4459816 -10.48892471 194.48892471 -15.375 199.375 C-19.82121399 202.12741819 -23.37819654 203.24968087 -28.61303711 203.2746582 C-29.71445541 203.28419022 -30.81587372 203.29372223 -31.95066833 203.30354309 C-33.13097122 203.30263168 -34.31127411 203.30172028 -35.52734375 203.30078125 C-37.35985435 203.30720894 -37.35985435 203.30720894 -39.22938538 203.31376648 C-41.81071351 203.31950466 -44.39205781 203.32001382 -46.97338867 203.31567383 C-50.91938904 203.3125145 -54.8646392 203.33597863 -58.81054688 203.36132812 C-61.32031156 203.36360124 -63.83007825 203.36430456 -66.33984375 203.36328125 C-67.51812241 203.372491 -68.69640106 203.38170074 -69.91038513 203.39118958 C-76.49876019 203.35403703 -81.5480849 203.14854014 -86.64453125 198.5 C-89.7098522 194.56326674 -91.12281475 191.8332181 -91.12597656 186.87084961 C-91.12978333 186.04246078 -91.13359009 185.21407196 -91.13751221 184.36058044 C-91.13853943 183.46686234 -91.13956665 182.57314423 -91.140625 181.65234375 C-91.15896522 179.74803503 -91.17853664 177.84373785 -91.19921875 175.93945312 C-91.22807475 172.94649952 -91.24999725 169.95428296 -91.25048828 166.96118164 C-91.26615161 153.47170249 -91.38983061 143.15849152 -101.3125 133 C-104.96604099 129.12485079 -108.33484813 125.15485076 -111.62890625 120.97265625 C-115.3221139 116.34245687 -119.11341168 111.79305359 -122.90112305 107.23999023 C-135.82635627 91.62875761 -135.82635627 91.62875761 -136 83 C-134.86106874 76.29414307 -132.05066242 71.21173025 -126.5 67.1875 C-120.73456305 65.23136961 -114.59881879 64.75642911 -108.76171875 66.7734375 C-99.87168201 71.79746628 -93.67903943 81.36042161 -87.3828125 89.1484375 C-84.40408475 92.71314448 -81.26769668 96.10768763 -78.09741211 99.50146484 C-74.96144022 102.88137625 -72.05035764 106.38173286 -69.1875 110 C-65.24649319 114.89277053 -62.03748125 117.98750625 -56 120 C-49.75270847 120.50998298 -44.25024269 120.76647845 -39 117 C-33.1690652 111.81570807 -28.25384577 105.97355721 -23.390625 99.89453125 C-20.82021468 96.78231876 -18.12715491 93.82538147 -15.375 90.875 C-10.95328855 86.12905532 -6.85861502 81.21505647 -3 76 C-4.65834397 72.05428503 -7.34732469 69.06604219 -10.125 65.875 C-11.12859802 64.70527906 -12.1311958 63.53469922 -13.1328125 62.36328125 C-13.62426758 61.78916504 -14.11572266 61.21504883 -14.62207031 60.62353516 C-17.11009361 57.69204067 -19.50490756 54.6898221 -21.88671875 51.671875 C-23.5203951 49.60637662 -25.16993275 47.55805757 -26.83203125 45.515625 C-27.82574918 44.28143382 -28.81923989 43.04705966 -29.8125 41.8125 C-30.28107422 41.24217041 -30.74964844 40.67184082 -31.23242188 40.08422852 C-36.46863701 33.52854021 -38.65221936 27.47546812 -38.41015625 19.06640625 C-37.52616621 12.45752837 -34.54495659 7.09686888 -29.6875 2.5625 C-21.00036252 -4.04646451 -9.68360589 -5.48017453 0 0 Z " fill="#1E3040" transform="translate(167,270)"/>
<path d="M0 0 C2.70139122 1.96031094 2.70139122 1.96031094 5.31478882 4.58653259 C5.8019234 5.06783506 6.28905799 5.54913754 6.79095423 6.04502493 C8.41215767 7.65404826 10.01106227 9.28351203 11.61083984 10.91381836 C12.77151584 12.07454976 13.93350742 13.23396691 15.09671021 14.39216614 C18.24629589 17.53576396 21.37697935 20.69759251 24.5044589 23.86316371 C27.779344 27.17186334 31.07085562 30.46394021 34.36050415 33.75794983 C39.87964399 39.28904342 45.38773401 44.8309371 50.88818359 50.38061523 C58.6522786 58.21415115 66.43638251 66.02756653 74.22443843 73.83727062 C80.26556592 79.89668373 86.30110302 85.96166412 92.3359375 92.02734375 C92.98457119 92.67914887 93.63320487 93.33095399 94.30149412 94.00251079 C98.02416229 97.74397073 101.74403016 101.48817381 105.45957565 105.23670769 C106.58709855 106.37356809 107.71546028 107.50959723 108.84470367 108.64474869 C110.38120251 110.18967297 111.91457804 111.73762881 113.44711304 113.28648376 C114.30727209 114.15351394 115.16743114 115.02054411 116.05365562 115.91384792 C118.64034211 118.68633848 118.96255593 119.58811526 119.3125 123.4375 C119 127 119 127 117.4375 129 C113.8396174 130.4760544 111.75994819 129.96717676 108 129 C105.37827007 127.08501596 103.25358398 124.82320666 101.0625 122.4375 C99.98212287 121.28812356 98.90058542 120.13983708 97.81811523 118.99243164 C96.87874349 117.99495443 95.93937174 116.99747721 95 116 C82.62708935 121.50759422 70.33221396 127.1545201 58.11413574 132.99737549 C53.76341842 135.07757354 49.40903127 137.15006248 45.0546875 139.22265625 C43.75694397 139.84053009 43.75694397 139.84053009 42.4329834 140.47088623 C33.6988551 144.62569282 24.93501343 148.71483545 16.16430664 152.79174805 C8.74928528 156.24156011 1.35008639 159.72280266 -6.03852844 163.2288208 C-13.60125941 166.81699878 -21.17218828 170.38750796 -28.75 173.94372559 C-30.25683751 174.65111844 -31.76334529 175.35921407 -33.26953125 176.06799316 C-37.63760309 178.12282265 -42.01182767 180.16326661 -46.39675903 182.18188477 C-47.74488606 182.80491295 -49.09087081 183.43260018 -50.43453979 184.06518555 C-52.28239109 184.93393949 -54.13906371 185.78385591 -55.99609375 186.6328125 C-57.03950928 187.11637207 -58.0829248 187.59993164 -59.15795898 188.09814453 C-62.30518519 189.09684341 -63.88967519 189.00363704 -67 188 C-68.8125 186.8125 -68.8125 186.8125 -70 185 C-70.38842093 180.32814782 -69.54939896 177.3125935 -67.53515625 173.1171875 C-66.71917969 171.39435547 -66.71917969 171.39435547 -65.88671875 169.63671875 C-65.27876603 168.38275422 -64.67068923 167.12884984 -64.0625 165.875 C-63.43114432 164.55132789 -62.80096303 163.22709508 -62.171875 161.90234375 C-60.8261544 159.07244098 -59.47420911 156.24563349 -58.11767578 153.42089844 C-54.90432897 146.72325556 -51.74376254 140.00066078 -48.57614136 133.28131104 C-47.49227459 130.98362291 -46.40669497 128.68675184 -45.32055664 126.39013672 C-40.28361183 115.73823355 -35.28923476 105.06717764 -30.31738281 94.38476562 C-26.40107628 85.97616724 -22.44608627 77.5863765 -18.47583008 69.203125 C-15.95390049 63.87728185 -13.44268472 58.54640791 -10.93339539 53.21459961 C-9.37961197 49.91564087 -7.8209674 46.61934461 -6.24267578 43.33203125 C-4.75296602 40.22730482 -3.28067293 37.11495052 -1.8125 34 C-1.38420898 33.12279297 -0.95591797 32.24558594 -0.51464844 31.34179688 C-0.14500977 30.54837891 0.22462891 29.75496094 0.60546875 28.9375 C0.92668701 28.26589844 1.24790527 27.59429687 1.57885742 26.90234375 C2.18972424 24.94444534 2.18972424 24.94444534 1.24975586 22.91113281 C-0.23582993 20.63936771 -2.08171556 18.9531328 -4.08959961 17.14257812 C-10.53014903 11.30112577 -10.53014903 11.30112577 -11.86328125 7.609375 C-11.97357274 4.47477471 -11.32282519 2.42612925 -9.4375 -0.0625 C-5.92945151 -1.41174942 -3.63967735 -0.8360289 0 0 Z " fill="#1F2F3E" transform="translate(214,63)"/>
<path d="M0 0 C8.1626933 3.9038968 13.75722133 12.42878513 19.3125 19.3125 C23.20255931 24.12585437 27.32871834 28.6476145 31.55566406 33.16113281 C35.47878593 37.37393141 39.11896414 41.76395352 42.72265625 46.25390625 C45.65860878 49.79417148 48.77275465 53.15468298 51.91430664 56.51098633 C54.9662679 59.79529526 57.75442641 63.20036558 60.5 66.75 C68.28385052 76.36534476 78.68371913 83.06099368 91 85 C105.30981414 85.96559587 117.4201897 84.0467268 129 75 C129.82371094 74.37996094 130.64742187 73.75992188 131.49609375 73.12109375 C134.06665335 70.94353702 135.99217232 68.71523199 138.0625 66.0625 C141.55046655 61.70399271 145.18048862 57.56971355 149 53.5 C153.45926516 48.7396224 157.63801725 43.83527326 161.72265625 38.74609375 C164.21826547 35.73680853 166.83766805 32.86062978 169.5 30 C172.99348735 26.24558828 176.3405733 22.43223452 179.5625 18.4375 C182.72691455 14.52182157 185.95700186 10.68943875 189.3125 6.9375 C190.51326172 5.58978516 190.51326172 5.58978516 191.73828125 4.21484375 C194.71704881 1.2978123 196.76245438 0.16141899 200.875 -0.375 C205.63845784 0.19661494 208.49015375 2.54048196 211.875 5.8125 C213.6167295 9.19919626 213.55792324 11.21852027 213 15 C209.52053204 22.37001231 203.26173259 28.48915241 197.94921875 34.5859375 C194.87618482 38.12056084 191.96133191 41.76621386 189.05859375 45.44140625 C186.59188057 48.50724522 184.05117557 51.50440652 181.5 54.5 C177.68101403 58.98763215 173.94166337 63.52105275 170.296875 68.15234375 C168.44415119 70.44934317 166.55869434 72.69959648 164.640625 74.94140625 C151.76133858 90.0789832 144.68534817 102.31533701 144.75617027 122.68184853 C144.76183123 124.7799694 144.75249967 126.87755137 144.7389679 128.97563171 C144.70209492 134.93340869 144.68335119 140.89098858 144.69458008 146.84887695 C144.7004307 150.50999238 144.68219138 154.17033215 144.64869118 157.83128929 C144.64074902 159.2207135 144.64199829 160.6102225 144.65271568 161.99962807 C144.66704052 163.93762396 144.64809888 165.87577937 144.62768555 167.8137207 C144.62705612 168.91464554 144.6264267 170.01557037 144.6257782 171.14985657 C144 174 144 174 141.95700073 176.35429382 C138.26408496 178.40957038 135.17785039 178.56305245 131.06030273 178.51757812 C129.88378647 178.52809204 129.88378647 178.52809204 128.6835022 178.53881836 C126.0998356 178.55637424 123.5172708 178.54478589 120.93359375 178.53125 C119.1342803 178.53394535 117.33496826 178.53782813 115.53565979 178.54284668 C111.76883038 178.54873821 108.00238089 178.54018898 104.2355957 178.52148438 C99.40766688 178.49867847 94.58062671 178.51183022 89.75273037 178.53577423 C86.03893841 178.55022761 82.32535722 178.54562865 78.61155891 178.53526306 C76.83135943 178.53259535 75.05114079 178.53586712 73.27096367 178.54518127 C70.78356078 178.55534135 68.29759831 178.53985557 65.81030273 178.51757812 C65.07512924 178.52567505 64.33995575 178.53377197 63.58250427 178.54211426 C60.30322213 178.48770569 58.29430988 178.19656117 55.54299927 176.35903931 C53.54525566 173.30475679 53.50116679 171.37816412 53.50170898 167.73779297 C53.49167343 166.46902313 53.48163788 165.2002533 53.47129822 163.89303589 C53.47535109 163.21718319 53.47940395 162.54133049 53.48357964 161.84499741 C53.49624976 159.71597277 53.48488184 157.58823751 53.46754456 155.45925903 C53.44083797 151.6983276 53.43524814 147.93771276 53.43664551 144.17669678 C53.43887203 138.17923136 53.42440324 132.18216214 53.38105965 126.18484879 C53.37132085 124.10322982 53.37989059 122.02224797 53.38975525 119.94064331 C53.29514465 102.24174793 46.60613516 90.54768312 35.140625 77.6015625 C32.13400278 74.19565202 29.33258484 70.66168098 26.5625 67.0625 C22.11036185 61.30506114 17.41786957 55.79796673 12.62524414 50.32226562 C9.03283188 46.21175304 5.55341801 42.03927442 2.1796875 37.74609375 C0.37241931 35.46919493 -1.45777173 33.21726556 -3.3046875 30.97265625 C-3.8925 30.25650146 -4.4803125 29.54034668 -5.0859375 28.80249023 C-6.25757025 27.37648144 -7.43195009 25.95272423 -8.609375 24.53149414 C-9.14820313 23.8739917 -9.68703125 23.21648926 -10.2421875 22.5390625 C-10.7254248 21.95334473 -11.20866211 21.36762695 -11.70654297 20.76416016 C-14.81355765 16.52646894 -15.71849802 13.29892292 -15 8 C-10.93468377 1.70250093 -7.64234618 -0.63686218 0 0 Z " fill="#5FB6FC" transform="translate(157,280)"/>
<path d="M0 0 C7.91685978 8.35066032 12.2583122 19.52125143 12 31 C11.22137141 43.1822932 6.25185828 54.82691571 -3 63 C-6.19419188 65.32931933 -9.46637076 67.23318538 -13 69 C-13.99386719 69.51240234 -13.99386719 69.51240234 -15.0078125 70.03515625 C-24.03240869 73.83964288 -36.81426205 73.47324246 -46 70.4375 C-57.48286514 65.40053769 -66.48040951 57.33466424 -71.21484375 45.5703125 C-74.93508763 33.39160368 -74.70825834 22.29374035 -69.3125 10.75 C-63.31547324 -0.385256 -55.64110637 -7.20323944 -43.6875 -11.21484375 C-27.91267286 -15.82347784 -11.82752988 -11.26207028 0 0 Z " fill="#1F2F3F" transform="translate(287,269)"/>
<path d="M0 0 C4.23035662 0.60286446 5.91557353 2.63103675 8.51953125 5.76953125 C8.99390625 6.31351562 9.46828125 6.8575 9.95703125 7.41796875 C13.70629797 11.75023137 17.30329908 16.21239269 20.89453125 20.67578125 C23.84624317 24.22581316 26.9644876 27.59805728 30.12109375 30.96557617 C33.18907723 34.26333704 35.96512195 37.69036037 38.70703125 41.26953125 C43.61144457 47.3867688 49.72520583 51.96308944 57.20703125 54.45703125 C68.87221036 55.21645059 78.79204802 55.15024021 88.20703125 47.39453125 C95.73333173 40.2922477 102.3473807 32.35445519 108.828125 24.30859375 C111.97943159 20.53116549 115.30008085 16.92659036 118.66577148 13.34008789 C121.23803157 10.61788151 121.23803157 10.61788151 123.20703125 7.45703125 C127.00224435 8.94800783 128.81745856 11.21403974 131.20703125 14.45703125 C129.67854012 19.53587835 126.55596507 22.79085766 123.08203125 26.64453125 C121.89702839 27.98443219 120.71343243 29.32557871 119.53125 30.66796875 C118.95810059 31.31733398 118.38495117 31.96669922 117.79443359 32.63574219 C115.10624267 35.72000922 112.56563746 38.91295053 110.04296875 42.1328125 C108.76149348 43.75510566 107.45168538 45.35524216 106.12109375 46.9375 C99.79895344 54.51701766 94.19104728 62.58431044 94.01757812 72.75073242 C94.0008606 73.58807419 93.98414307 74.42541595 93.96691895 75.28813171 C93.95334351 76.18304825 93.93976807 77.07796478 93.92578125 78 C93.90737183 78.92420242 93.8889624 79.84840485 93.86999512 80.8006134 C93.79134034 84.75261935 93.72332954 88.7047901 93.65478516 92.65698242 C93.60321615 95.54224485 93.54593025 98.42735371 93.48828125 101.3125 C93.47470581 102.21348923 93.46113037 103.11447845 93.44714355 104.04277039 C93.31989921 110.34416329 93.31989921 110.34416329 92.20703125 111.45703125 C90.62187547 111.56078083 89.03213659 111.59555014 87.44360352 111.60229492 C85.92181236 111.6118647 85.92181236 111.6118647 84.36927795 111.62162781 C83.2651506 111.62274063 82.16102325 111.62385345 81.0234375 111.625 C79.8975975 111.6283284 78.77175751 111.6316568 77.61180115 111.63508606 C75.22517304 111.64016019 72.8385378 111.64249424 70.4519043 111.64233398 C66.78878151 111.64451976 63.12596003 111.66266865 59.46289062 111.68164062 C57.14974062 111.68457451 54.83658917 111.68655934 52.5234375 111.6875 C50.87028282 111.69827827 50.87028282 111.69827827 49.18373108 111.70927429 C47.65721169 111.70465935 47.65721169 111.70465935 46.09985352 111.69995117 C44.75202538 111.7020887 44.75202538 111.7020887 43.37696838 111.70426941 C41.20703125 111.45703125 41.20703125 111.45703125 39.20703125 109.45703125 C38.96893311 107.62686157 38.96893311 107.62686157 38.98339844 105.38134766 C38.9828949 104.53931793 38.98239136 103.69728821 38.98187256 102.82974243 C38.98914368 101.91526337 38.99641479 101.0007843 39.00390625 100.05859375 C38.9933442 98.1145767 38.9815854 96.17056586 38.96875 94.2265625 C38.95850053 91.16782896 38.95684676 88.10996137 38.97705078 85.05126953 C39.18455812 68.31943293 39.18455812 68.31943293 32.20703125 53.45703125 C31.75215332 52.81572266 31.29727539 52.17441406 30.82861328 51.51367188 C29.59502047 49.91097621 28.24649608 48.39871731 26.89453125 46.89453125 C25.93145241 45.80282314 24.96922554 44.71036289 24.0078125 43.6171875 C23.53553223 43.08754395 23.06325195 42.55790039 22.57666016 42.01220703 C20.51439846 39.67056586 18.54908036 37.25380975 16.58203125 34.83203125 C15.85886719 33.94386719 15.13570312 33.05570312 14.390625 32.140625 C13.67003906 31.25503906 12.94945313 30.36945313 12.20703125 29.45703125 C10.68647824 27.60263469 9.16564401 25.74846869 7.64453125 23.89453125 C6.91234375 22.9921875 6.18015625 22.08984375 5.42578125 21.16015625 C3.9297029 19.33746924 2.40803759 17.53552523 0.86328125 15.75390625 C0.13109375 14.8928125 -0.60109375 14.03171875 -1.35546875 13.14453125 C-2.01675781 12.38527344 -2.67804687 11.62601562 -3.359375 10.84375 C-5.17063223 7.82827815 -5.20827428 5.91791066 -4.79296875 2.45703125 C-2.79296875 0.45703125 -2.79296875 0.45703125 0 0 Z " fill="#FBDE76" transform="translate(49.79296875,348.54296875)"/>
<path d="M0 0 C3.2578125 0.859375 3.2578125 0.859375 4.2578125 1.859375 C4.82863445 5.92648139 4.49651816 7.51360284 2.1328125 10.9375 C1.18855416 12.00738066 0.22932436 13.06417973 -0.7421875 14.109375 C-1.76800707 15.26466695 -2.79274083 16.4209239 -3.81640625 17.578125 C-4.32091309 18.14015625 -4.82541992 18.7021875 -5.34521484 19.28125 C-7.15997786 21.3313423 -8.86301932 23.45701287 -10.5546875 25.609375 C-14.83478833 31.01488536 -19.23466528 36.31970489 -23.64379883 41.62011719 C-25.35695041 43.6891385 -27.05363103 45.77024494 -28.7421875 47.859375 C-29.27811523 48.51518555 -29.81404297 49.17099609 -30.36621094 49.84667969 C-31.13626465 50.82362793 -31.13626465 50.82362793 -31.921875 51.8203125 C-32.37030762 52.38282715 -32.81874023 52.9453418 -33.28076172 53.52490234 C-37.79270546 60.73225384 -39.32820229 66.82726477 -39.28125 75.29296875 C-39.29304291 76.25211685 -39.30483582 77.21126495 -39.31698608 78.19947815 C-39.35201007 81.232113 -39.36139829 84.26405498 -39.3671875 87.296875 C-39.38352421 90.3544822 -39.4054799 93.41178319 -39.43881226 96.46925354 C-39.45847067 98.36446701 -39.46777407 100.25982179 -39.46572876 102.15513611 C-39.47268768 103.00684891 -39.47964661 103.85856171 -39.48681641 104.73608398 C-39.48807526 105.48615219 -39.48933411 106.2362204 -39.4906311 107.00901794 C-39.7421875 108.859375 -39.7421875 108.859375 -41.7421875 110.859375 C-43.91212463 111.10661316 -43.91212463 111.10661316 -46.63500977 111.10229492 C-47.65268936 111.10537155 -48.67036896 111.10844818 -49.71888733 111.11161804 C-50.82099045 111.10443253 -51.92309357 111.09724701 -53.05859375 111.08984375 C-54.18539047 111.08938553 -55.31218719 111.08892731 -56.47312927 111.0884552 C-58.85799206 111.08543036 -61.24285283 111.07753721 -63.62768555 111.06518555 C-67.29287659 111.04693382 -70.95781515 111.04467577 -74.62304688 111.04492188 C-76.93489803 111.04000673 -79.24674747 111.03417842 -81.55859375 111.02734375 C-82.6627211 111.02623093 -83.76684845 111.0251181 -84.9044342 111.02397156 C-85.91896164 111.01759171 -86.93348907 111.01121185 -87.97875977 111.00463867 C-88.87651627 111.00082687 -89.77427277 110.99701508 -90.69923401 110.99308777 C-92.7421875 110.859375 -92.7421875 110.859375 -93.7421875 109.859375 C-93.85329984 106.88707217 -93.90388358 103.9341521 -93.91796875 100.9609375 C-93.94119706 99.10024948 -93.96531554 97.2395724 -93.99023438 95.37890625 C-94.02512797 92.44540418 -94.05455847 89.51229607 -94.06811523 86.57861328 C-94.15432845 70.97800081 -95.31857726 60.03500122 -105.7421875 47.859375 C-107.37592872 45.88671654 -109.00132713 43.90732868 -110.62695312 41.92797852 C-111.83067122 40.46327008 -113.03640897 39.00021916 -114.24414062 37.53881836 C-120.16080093 30.37899637 -125.96332446 23.1305818 -131.7421875 15.859375 C-130.18867061 11.4819419 -128.55461903 9.56820793 -124.7421875 6.859375 C-120.67723174 10.68906001 -116.99354599 14.69383471 -113.4921875 19.046875 C-109.72542543 23.72640194 -105.78478677 28.17485319 -101.69946289 32.57324219 C-99.04544418 35.4310558 -96.45805048 38.32758338 -93.9296875 41.296875 C-87.61418061 48.54467101 -80.7704784 53.42072597 -70.984375 54.1328125 C-59.30077274 54.51281056 -51.8064347 52.64496664 -42.7421875 44.859375 C-41.32242724 43.23066889 -39.94894967 41.56078979 -38.6171875 39.859375 C-35.29505684 35.70947092 -31.86474922 31.74335219 -28.2421875 27.859375 C-24.74827104 24.10539551 -21.40157667 20.29156299 -18.1796875 16.296875 C-16.70055735 14.4843452 -15.22138954 12.67184613 -13.7421875 10.859375 C-13.33081543 10.3432666 -12.91944336 9.8271582 -12.49560547 9.29541016 C-11.22488651 7.71363229 -9.92508813 6.16046691 -8.6171875 4.609375 C-7.46863281 3.20945312 -7.46863281 3.20945312 -6.296875 1.78125 C-3.7421875 -0.140625 -3.7421875 -0.140625 0 0 Z " fill="#19CCB8" transform="translate(462.7421875,349.140625)"/>
<path d="M0 0 C7.91831177 4.52068787 12.34712187 10.48633725 15.17578125 19.2421875 C16.52826982 29.27744623 15.39601696 37.09653921 9.703125 45.38671875 C4.46109793 52.06627571 -2.45061312 55.90941104 -10.82421875 57.2421875 C-19.90726805 57.84772412 -27.29893088 55.3523335 -34.74609375 50.10546875 C-41.56719398 43.98955746 -44.31431081 35.74919328 -45.13671875 26.8671875 C-44.2815085 16.94674856 -40.59749963 9.88646079 -33.51171875 2.9921875 C-23.11699644 -3.77646889 -11.55131589 -5.48262129 0 0 Z " fill="#1F2F3E" transform="translate(130.82421875,325.7578125)"/>
<path d="M0 0 C7.13196039 4.98390704 11.03360692 11.02455072 13.3203125 19.33984375 C14.54550393 29.14137516 12.2210631 37.75607735 6.5 45.796875 C0.58290119 52.27102286 -7.58565405 55.44791478 -16.1796875 56.15234375 C-24.5398874 55.90884278 -32.1733725 52.89808283 -38.1796875 47.0859375 C-45.56134143 39.22755176 -47.07994542 32.44023903 -46.84375 21.671875 C-45.90959882 14.16038066 -42.61694376 7.57832893 -37.1171875 2.33984375 C-25.79167107 -6.00007903 -12.27059823 -6.953339 0 0 Z " fill="#1F2F3F" transform="translate(412.3671875,327.16015625)"/>
<path d="M0 0 C7.0988968 4.22581884 13.38554851 11.0011537 15.5 19.0625 C16.51245969 29.5459434 15.31657646 38.23466392 9 46.8125 C2.96291401 53.166533 -4.82527645 56.39987488 -13.5 56.8125 C-22.17472355 56.39987488 -29.96291401 53.166533 -36 46.8125 C-42.22820998 38.35466456 -43.83425538 29.42680521 -42.5 19.0625 C-40.25418478 11.22374109 -35.15982082 5.61092653 -28.5 1.0625 C-19.93609552 -3.32586762 -8.91608943 -3.994961 0 0 Z " fill="#EEAF6D" transform="translate(269.5,271.9375)"/>
<path d="M0 0 C2.82384367 1.28596263 4.87568428 2.62707571 7.06256104 4.822052 C7.64022217 5.39696381 8.2178833 5.97187561 8.81304932 6.56420898 C9.43451843 7.19286865 10.05598755 7.82152832 10.69628906 8.46923828 C11.69202942 9.46454056 11.69202942 9.46454056 12.70788574 10.47994995 C14.89857333 12.6720297 17.08209364 14.87110625 19.265625 17.0703125 C20.78404837 18.59246639 22.30291421 20.11417902 23.82220459 21.63546753 C27.8181963 25.63909255 31.80814529 29.64868759 35.796875 33.6595459 C39.86877055 37.75190629 43.94633926 41.83860529 48.0234375 45.92578125 C56.02119471 53.94498305 64.01258103 61.97050181 72 70 C67.93715073 74.25203675 62.81023911 76.2801048 57.5625 78.8125 C56.51255859 79.34037109 55.46261719 79.86824219 54.38085938 80.41210938 C53.36958984 80.90130859 52.35832031 81.39050781 51.31640625 81.89453125 C50.39287354 82.34675049 49.46934082 82.79896973 48.51782227 83.26489258 C46 84 46 84 44.18182373 83.36499023 C41.29093884 81.55639791 38.97624278 79.2875906 36.57299805 76.89526367 C36.04411484 76.37631027 35.51523163 75.85735687 34.97032166 75.32267761 C33.22852349 73.61001158 31.49453707 71.8897171 29.76171875 70.16796875 C28.554351 68.9721077 27.34697891 67.77625103 26.13960266 66.58039856 C23.61319113 64.07497157 21.09144855 61.56493926 18.57202148 59.05249023 C15.33925403 55.8307224 12.08833891 52.62793965 8.83279705 49.42920971 C6.33411056 46.96771345 3.84888603 44.49295897 1.36719704 42.01433754 C0.17400145 40.82720416 -1.02420508 39.64508568 -2.22741127 38.46809959 C-3.90603678 36.82348804 -5.56480683 35.16109526 -7.2199707 33.49291992 C-7.72222168 33.00909851 -8.22447266 32.5252771 -8.74194336 32.02679443 C-10.09712219 30.63786316 -10.09712219 30.63786316 -12 28 C-11.80605925 24.22370795 -10.316599 21.15387393 -8.75 17.734375 C-8.08484375 16.27644531 -8.08484375 16.27644531 -7.40625 14.7890625 C-6.71015625 13.28472656 -6.71015625 13.28472656 -6 11.75 C-5.30390625 10.22246094 -5.30390625 10.22246094 -4.59375 8.6640625 C-1.14501232 1.14501232 -1.14501232 1.14501232 0 0 Z " fill="#F66D84" transform="translate(227,97)"/>
<path d="M0 0 C5.44410402 4.49908974 9.51501601 9.79504802 11.7578125 16.5234375 C12.55335543 25.82216062 11.93249954 33.89950677 6.25 41.5546875 C1.16002611 47.14182163 -4.29463062 50.06411694 -11.80078125 50.9375 C-21.04698477 51.29133256 -27.9277571 50.06548864 -35.04296875 43.984375 C-40.38775413 38.38760222 -43.40402653 31.1794448 -43.6796875 23.4609375 C-43.22870601 14.71462974 -40.46446389 8.82913947 -34.4296875 2.47265625 C-24.91273601 -6.00762731 -10.71986799 -7.05942526 0 0 Z " fill="#1F2E3E" transform="translate(419.2421875,131.4765625)"/>
<path d="M0 0 C7.23903395 4.26947966 12.3159431 9.75439097 14.75 17.875 C16.35209309 26.10536057 15.40290373 33.69945244 11.0625 40.9375 C6.23612166 47.42368162 -0.41121902 51.61453982 -8.375 53.0625 C-17.28865329 53.78134301 -24.60330222 51.42636973 -31.5859375 45.79296875 C-36.55048102 40.99101945 -39.68964037 34.95281202 -40.375 28.0625 C-40.47632309 19.41204141 -38.70262923 12.81674836 -32.9375 6.3125 C-31.6690625 5.19875 -31.6690625 5.19875 -30.375 4.0625 C-29.1684375 2.9796875 -29.1684375 2.9796875 -27.9375 1.875 C-20.13277291 -3.64541672 -8.59216717 -3.85716483 0 0 Z " fill="#1E2F40" transform="translate(78.375,212.9375)"/>
<path d="M0 0 C3.65881177 1.53956134 5.9829179 3.74089057 8.76855469 6.54150391 C9.22755661 7.00021378 9.68655853 7.45892365 10.1594696 7.93153381 C11.66839675 9.4418491 13.17012454 10.95911388 14.671875 12.4765625 C15.71947224 13.5278917 16.76751328 14.57877885 17.815979 15.62924194 C20.5691252 18.39001016 23.31621127 21.15673249 26.06207275 23.92474365 C28.86716916 26.75032928 31.67796321 29.57023445 34.48828125 32.390625 C39.99777532 37.92154374 45.50087877 43.45876589 51 49 C47.06487676 53.12046539 42.20040562 54.91967509 37.0625 57.25 C36.06025391 57.72179687 35.05800781 58.19359375 34.02539062 58.6796875 C33.05923828 59.12054688 32.09308594 59.56140625 31.09765625 60.015625 C30.21601807 60.42071289 29.33437988 60.82580078 28.42602539 61.24316406 C25.6419355 62.11170373 24.70213629 61.97747684 22 61 C20.22821045 59.588974 20.22821045 59.588974 18.42480469 57.76538086 C17.74440125 57.08475082 17.0639978 56.40412079 16.36297607 55.7028656 C15.63991272 54.96431839 14.91684937 54.22577118 14.171875 53.46484375 C13.42286926 52.71159317 12.67386353 51.95834259 11.90216064 51.18226624 C9.51097956 48.77428956 7.13043835 46.35609255 4.75 43.9375 C3.13089823 42.30335262 1.51111468 40.66988045 -0.109375 39.03710938 C-4.08086182 35.03254154 -8.0436621 31.01953193 -12 27 C-10.76897488 23.12894512 -9.37894349 19.47934417 -7.6171875 15.8203125 C-7.17246094 14.8921875 -6.72773438 13.9640625 -6.26953125 13.0078125 C-5.80933594 12.05648437 -5.34914062 11.10515625 -4.875 10.125 C-4.40707031 9.15046875 -3.93914062 8.1759375 -3.45703125 7.171875 C-2.30785155 4.77970501 -1.15542757 2.38915684 0 0 Z " fill="#FDBE31" transform="translate(208,137)"/>
<path d="M0 0 C2.10209857 3.15314785 2.2434761 3.86103081 2.1953125 7.44921875 C2.18886719 8.29677734 2.18242187 9.14433594 2.17578125 10.01757812 C2.15902344 10.89865234 2.14226562 11.77972656 2.125 12.6875 C2.11597656 13.58017578 2.10695312 14.47285156 2.09765625 15.39257812 C2.07409748 17.59532314 2.04120329 19.79752588 2 22 C2.83192871 21.9685791 2.83192871 21.9685791 3.68066406 21.93652344 C6.20359023 21.85316452 8.72622649 21.80128132 11.25 21.75 C12.12269531 21.71648437 12.99539062 21.68296875 13.89453125 21.6484375 C20.36583772 21.54963893 20.36583772 21.54963893 23.57421875 23.828125 C25.53996142 26.82251658 25.65800546 28.49063753 25 32 C22.85015585 34.3906267 21.1402792 35.82696101 17.90209961 36.31835938 C15.48523212 36.39338746 13.10338042 36.34915216 10.6875 36.25 C9.43356445 36.22292969 9.43356445 36.22292969 8.15429688 36.1953125 C6.10236772 36.14841126 4.05103244 36.07667411 2 36 C2.01571045 36.55985596 2.0314209 37.11971191 2.04760742 37.6965332 C2.10999848 40.2350859 2.14900218 42.77347729 2.1875 45.3125 C2.21263672 46.19357422 2.23777344 47.07464844 2.26367188 47.98242188 C2.27333984 48.82998047 2.28300781 49.67753906 2.29296875 50.55078125 C2.3086792 51.33106689 2.32438965 52.11135254 2.34057617 52.9152832 C1.90722501 55.56788933 1.15103153 56.42463577 -1 58 C-7.10663132 58.65428193 -7.10663132 58.65428193 -9.70043945 56.75463867 C-11.3504894 54.52677676 -11.34836209 53.30198391 -11.29296875 50.55078125 C-11.28330078 49.70322266 -11.27363281 48.85566406 -11.26367188 47.98242188 C-11.23853516 47.10134766 -11.21339844 46.22027344 -11.1875 45.3125 C-11.16719727 43.97348633 -11.16719727 43.97348633 -11.14648438 42.60742188 C-11.11114079 40.40433834 -11.06180493 38.20247418 -11 36 C-12.25296875 36.02320313 -13.5059375 36.04640625 -14.796875 36.0703125 C-16.4479107 36.08907427 -18.09895285 36.10727403 -19.75 36.125 C-20.575 36.14175781 -21.4 36.15851563 -22.25 36.17578125 C-23.44882813 36.18544922 -23.44882813 36.18544922 -24.671875 36.1953125 C-25.4050293 36.20578613 -26.13818359 36.21625977 -26.89355469 36.22705078 C-29.33992539 35.96335992 -30.91604264 35.29409777 -33 34 C-34.42041821 31.15916359 -34.31452272 29.14522722 -34 26 C-32.58984375 23.8203125 -32.58984375 23.8203125 -30 22 C-26.73659078 21.50839306 -23.54062113 21.62362459 -20.25 21.75 C-19.36183594 21.76804688 -18.47367188 21.78609375 -17.55859375 21.8046875 C-15.37129152 21.85172626 -13.18620184 21.91742991 -11 22 C-11.02094727 21.40985107 -11.04189453 20.81970215 -11.06347656 20.21166992 C-11.14663683 17.53712001 -11.19865691 14.86284185 -11.25 12.1875 C-11.28351563 11.25873047 -11.31703125 10.32996094 -11.3515625 9.37304688 C-11.36445312 8.48037109 -11.37734375 7.58769531 -11.390625 6.66796875 C-11.41157227 5.84578857 -11.43251953 5.0236084 -11.45410156 4.17651367 C-11 2 -11 2 -9.20214844 0.20043945 C-5.87792687 -1.61166669 -3.57402698 -0.92659959 0 0 Z " fill="#1D2E3E" transform="translate(132,108)"/>
<path d="M0 0 C2 2 2 2 2.22705078 4.06298828 C2.21657715 4.89040527 2.20610352 5.71782227 2.1953125 6.5703125 C2.18886719 7.46621094 2.18242187 8.36210937 2.17578125 9.28515625 C2.15902344 10.22230469 2.14226562 11.15945312 2.125 12.125 C2.11597656 13.06988281 2.10695313 14.01476562 2.09765625 14.98828125 C2.07404522 17.32577292 2.04111516 19.66276123 2 22 C2.83192871 21.9685791 2.83192871 21.9685791 3.68066406 21.93652344 C6.20359023 21.85316452 8.72622649 21.80128132 11.25 21.75 C12.12269531 21.71648437 12.99539063 21.68296875 13.89453125 21.6484375 C20.36262055 21.54968805 20.36262055 21.54968805 23.58203125 23.82421875 C25.49492888 26.75943633 25.51175389 28.56393817 25 32 C23.14657225 34.55949546 22.06243607 34.97918798 19 36 C17.66474283 36.07973476 16.32587917 36.10771338 14.98828125 36.09765625 C13.85229492 36.09282227 13.85229492 36.09282227 12.69335938 36.08789062 C11.51483398 36.07532227 11.51483398 36.07532227 10.3125 36.0625 C9.11657227 36.05573242 9.11657227 36.05573242 7.89648438 36.04882812 C5.93095743 36.0370585 3.96546915 36.01912348 2 36 C2.01571045 36.55985596 2.0314209 37.11971191 2.04760742 37.6965332 C2.10999848 40.2350859 2.14900218 42.77347729 2.1875 45.3125 C2.21263672 46.19357422 2.23777344 47.07464844 2.26367188 47.98242188 C2.27333984 48.82998047 2.28300781 49.67753906 2.29296875 50.55078125 C2.3086792 51.33106689 2.32438965 52.11135254 2.34057617 52.9152832 C1.90722501 55.56788933 1.15103153 56.42463577 -1 58 C-7.10663132 58.65428193 -7.10663132 58.65428193 -9.70043945 56.75463867 C-11.3504894 54.52677676 -11.34836209 53.30198391 -11.29296875 50.55078125 C-11.28330078 49.70322266 -11.27363281 48.85566406 -11.26367188 47.98242188 C-11.23853516 47.10134766 -11.21339844 46.22027344 -11.1875 45.3125 C-11.16719727 43.97348633 -11.16719727 43.97348633 -11.14648438 42.60742188 C-11.11114079 40.40433834 -11.06180493 38.20247418 -11 36 C-12.75376953 36.05220703 -12.75376953 36.05220703 -14.54296875 36.10546875 C-16.09113141 36.13361716 -17.63930968 36.16091619 -19.1875 36.1875 C-20.34088867 36.22520508 -20.34088867 36.22520508 -21.51757812 36.26367188 C-26.2172263 36.32418237 -29.13604564 35.97862113 -33 33 C-34 32 -34 32 -34.3125 29.1875 C-34 26 -34 26 -32.58984375 23.81640625 C-28.64167102 21.04732583 -24.94474729 21.56969951 -20.25 21.75 C-19.36183594 21.76804688 -18.47367187 21.78609375 -17.55859375 21.8046875 C-15.37129152 21.85172626 -13.18620184 21.91742991 -11 22 C-11.02094727 21.40985107 -11.04189453 20.81970215 -11.06347656 20.21166992 C-11.14663683 17.53712001 -11.19865691 14.86284185 -11.25 12.1875 C-11.28351563 11.25873047 -11.31703125 10.32996094 -11.3515625 9.37304688 C-11.36445313 8.48037109 -11.37734375 7.58769531 -11.390625 6.66796875 C-11.41157227 5.84578857 -11.43251953 5.0236084 -11.45410156 4.17651367 C-11 2 -11 2 -9.20214844 0.1965332 C-5.90374448 -1.59564837 -3.55723094 -0.85637041 0 0 Z " fill="#1D2E3E" transform="translate(445,220)"/>
<path d="M0 0 C5.9693726 4.92284865 11.46209945 10.27590236 16.92749023 15.7421875 C18.45344834 17.26592513 19.98728145 18.7814443 21.52148438 20.296875 C22.49267457 21.2651367 23.46339558 22.23386929 24.43359375 23.203125 C25.31072021 24.07614258 26.18784668 24.94916016 27.09155273 25.84863281 C29 28 29 28 29 30 C24.92602145 32.04010939 20.83948152 34.05367126 16.75 36.0625 C15.59113281 36.64322266 14.43226563 37.22394531 13.23828125 37.82226562 C12.12324219 38.36689453 11.00820312 38.91152344 9.859375 39.47265625 C8.31975098 40.23461304 8.31975098 40.23461304 6.74902344 41.01196289 C3.82022962 42.06461196 2.7904881 42.27946848 0 41 C-1.64746094 39.69311523 -1.64746094 39.69311523 -3.234375 38.05859375 C-3.80800781 37.47529297 -4.38164062 36.89199219 -4.97265625 36.29101562 C-5.55917969 35.67935547 -6.14570313 35.06769531 -6.75 34.4375 C-7.35199219 33.82197266 -7.95398438 33.20644531 -8.57421875 32.57226562 C-10.05634381 31.05485187 -11.5290967 29.52829404 -13 28 C-11.26621585 22.10513389 -8.59391176 16.70697508 -5.9375 11.1875 C-5.47794922 10.22134766 -5.01839844 9.25519531 -4.54492188 8.25976562 C-1.13547633 1.13547633 -1.13547633 1.13547633 0 0 Z " fill="#F56C83" transform="translate(190,176)"/>
<path d="M0 0 C5.07113977 1.92323838 8.97663286 5.07275825 11.375 9.9765625 C13.05895449 15.42836515 12.8539962 20.29200761 10.3125 25.375 C6.95646944 29.1845482 3.63802299 32.71978511 -1.57421875 33.2734375 C-7.56287893 33.46880157 -12.02206863 33.54464706 -16.6640625 29.46875 C-21.05857192 24.63735953 -21.53998347 19.93319622 -21.3515625 13.62109375 C-20.67448755 8.57312384 -18.06880325 5.94156477 -14.375 2.6875 C-9.70947737 -0.62747661 -5.61745523 -0.71450088 0 0 Z " fill="#ECAF6D" transform="translate(121,336)"/>
<path d="M0 0 C4.35699098 2.46622131 7.04335342 5.33670683 9.3125 9.875 C10.03160796 16.98355901 9.82642888 22.20365346 5.3125 27.875 C0.26740399 31.97414051 -4.27603942 32.66754895 -10.73828125 32.46484375 C-15.63175778 31.48614844 -18.64225673 28.71669151 -21.6875 24.875 C-24.26893069 20.61775528 -24.20494511 16.72912798 -23.6875 11.875 C-21.92310844 5.99369479 -19.5542122 3.32225448 -14.6875 -0.125 C-9.48953613 -1.85765462 -5.1467454 -1.57019351 0 0 Z " fill="#EDAF6D" transform="translate(402.6875,337.125)"/>
<path d="M0 0 C4.26405704 1.29444589 5.26892224 2.23779527 7.5 6.0625 C10.36005876 12.18611129 11.25315167 17.49235542 9.5 24.0625 C6.17103411 31.1202087 0.601192 36.57718717 -4.8125 42.0625 C-5.62912109 42.93261719 -6.44574219 43.80273438 -7.28710938 44.69921875 C-14.10218388 51.61746968 -14.10218388 51.61746968 -18.9765625 51.72265625 C-22.5 51.0625 -22.5 51.0625 -24.5625 49.5 C-25.89975081 46.02314789 -25.89527147 43.4646523 -24.5 40.0625 C-21.62599561 36.56540934 -18.32976101 33.55828699 -15 30.5 C-13.22826564 28.86504456 -11.46733204 27.21828733 -9.71875 25.55859375 C-8.93435547 24.83857178 -8.14996094 24.1185498 -7.34179688 23.37670898 C-5.09980294 20.5596543 -4.6818059 18.63104671 -4.5 15.0625 C-5.46885372 13.37753702 -6.46986723 11.71071244 -7.5 10.0625 C-8.02365467 6.39691734 -7.94505874 4.75679164 -5.9375 1.625 C-3.5 0.0625 -3.5 0.0625 0 0 Z " fill="#1D2E3E" transform="translate(291.5,38.9375)"/>
<path d="M0 0 C1.4609375 1.265625 1.4609375 1.265625 2.41796875 3.140625 C2.4609375 5.265625 2.4609375 5.265625 0.80859375 7.40625 C0.05449219 8.10234375 -0.69960938 8.7984375 -1.4765625 9.515625 C-2.22808594 10.22203125 -2.97960937 10.9284375 -3.75390625 11.65625 C-4.34300781 12.18734375 -4.93210937 12.7184375 -5.5390625 13.265625 C-6.5290625 12.935625 -7.5190625 12.605625 -8.5390625 12.265625 C-11.74540978 11.3897439 -11.74540978 11.3897439 -15.5390625 12.265625 C-19.18542718 15.05212135 -22.2320574 18.34863796 -25.3515625 21.703125 C-27.04388107 23.47427434 -28.73780966 25.24388718 -30.43359375 27.01171875 C-31.54504761 28.19785767 -31.54504761 28.19785767 -32.67895508 29.40795898 C-35.27794204 32.00353475 -36.23433173 32.2379222 -39.9765625 32.578125 C-43.5390625 32.265625 -43.5390625 32.265625 -45.5390625 30.703125 C-46.97759939 27.19669133 -46.37822521 24.93141537 -45.5390625 21.265625 C-43.60888672 18.59082031 -43.60888672 18.59082031 -41.09375 16.09375 C-40.18109375 15.18238281 -39.2684375 14.27101563 -38.328125 13.33203125 C-37.84891602 12.86941895 -37.36970703 12.40680664 -36.87597656 11.93017578 C-35.42125287 10.52258241 -33.99497442 9.09028808 -32.5703125 7.65234375 C-22.92801246 -1.84140545 -13.02049339 -6.69625374 0 0 Z " fill="#1D2E3E" transform="translate(351.5390625,96.734375)"/>
<path d="M0 0 C2.54863224 1.66979354 2.93131552 2.70465674 3.625 5.6875 C2.01338915 14.22903748 -8.80444006 22.15490949 -14.82470703 28.28466797 C-15.94875022 29.4355755 -17.06556315 30.59358581 -18.17529297 31.75830078 C-19.79813363 33.46016507 -21.44276601 35.13797907 -23.09375 36.8125 C-23.5825061 37.33424805 -24.07126221 37.85599609 -24.5748291 38.39355469 C-27.32846683 41.13162464 -28.8063614 41.97799793 -32.71289062 42.421875 C-36 42 -36 42 -38.5 40.4375 C-40 38 -40 38 -40.01708984 34.81201172 C-38.6424821 29.66003732 -35.9993966 27.20273544 -32.2265625 23.5703125 C-31.54701508 22.89451141 -30.86746765 22.21871033 -30.16732788 21.52243042 C-28.73344054 20.1019487 -27.29239446 18.68866137 -25.84472656 17.28222656 C-23.62548482 15.12547117 -21.4284677 12.94793206 -19.234375 10.765625 C-17.83717816 9.38676255 -16.43878097 8.00911511 -15.0390625 6.6328125 C-14.04986313 5.65636276 -14.04986313 5.65636276 -13.04067993 4.66018677 C-12.42349091 4.06221283 -11.80630188 3.46423889 -11.17041016 2.84814453 C-10.62937653 2.32076691 -10.0883429 1.79338928 -9.53091431 1.25003052 C-6.31308049 -1.37741274 -3.77483925 -1.13245178 0 0 Z " fill="#1D2E3E" transform="translate(340,53)"/>
<path d="M0 0 C4.26190177 1.54153894 6.18915773 4.08094481 8.2734375 8.10546875 C9.93902887 12.44854301 9.398506 15.93032601 7.8125 20.1875 C5.20995401 24.22593343 2.55880664 26.48039779 -2 28 C-8.12093081 28.50171564 -11.1167095 28.08833623 -16 24 C-18.89626035 20.70425546 -19.89660298 18.09600845 -20.3125 13.6875 C-19.85380253 8.27486982 -17.40291534 5.61547827 -13.9375 1.625 C-9.39853349 -0.88591765 -5.06954832 -0.61171021 0 0 Z " fill="#DF3E64" transform="translate(409,141)"/>
<path d="M0 0 C3.93244436 2.04953668 6.40422343 4.13204365 7.96875 8.2734375 C8.7116329 13.92353278 8.30385276 18.49312354 4.96875 23.2734375 C1.33381991 26.72662109 -1.64829433 27.59046283 -6.53125 27.8359375 C-10.24289402 27.69959139 -12.6597281 27.35191188 -15.59375 25.0234375 C-19.76292278 20.31975539 -20.48439305 16.93571282 -20.34765625 10.74609375 C-19.74452843 6.03276152 -17.33895645 3.39432874 -13.84375 0.3984375 C-9.23944071 -1.44328621 -4.71308238 -1.68583331 0 0 Z " fill="#5EB4FB" transform="translate(72.03125,224.7265625)"/>
<path d="M0 0 C6.875 5.625 6.875 5.625 8 9 C6.06891037 10.03290841 4.129882 11.05098672 2.1875 12.0625 C1.10855469 12.63097656 0.02960938 13.19945312 -1.08203125 13.78515625 C-4 15 -4 15 -7 14 C-4.69 9.38 -2.38 4.76 0 0 Z " fill="#F2B731" transform="translate(171,216)"/>
</svg>
