<?xml version="1.0" encoding="UTF-8"?>
<svg version="1.1" xmlns="http://www.w3.org/2000/svg" width="512" height="512">
<path d="M0 0 C1.12742615 -0.00281982 2.25485229 -0.00563965 3.41644287 -0.00854492 C4.66427551 -0.00652069 5.91210815 -0.00449646 7.19775391 -0.00241089 C8.50327209 -0.00416321 9.80879028 -0.00591553 11.15386963 -0.00772095 C14.7446815 -0.01229497 18.33546476 -0.01050585 21.92627716 -0.00734186 C25.67611267 -0.0048181 29.42594565 -0.00715584 33.17578125 -0.00872803 C39.47412559 -0.01054968 45.77245822 -0.00814354 52.07080078 -0.00338745 C59.36270524 0.00205516 66.65458174 0.0002925 73.94648552 -0.00521386 C80.19615354 -0.00974512 86.44581312 -0.01039547 92.69548225 -0.00777519 C96.43295882 -0.00621249 100.17042222 -0.00601846 103.90789795 -0.00931168 C108.07224191 -0.01272441 112.23653732 -0.00800044 116.40087891 -0.00241089 C117.64871155 -0.00443512 118.89654419 -0.00645935 120.18218994 -0.00854492 C121.87332916 -0.00431519 121.87332916 -0.00431519 123.59863281 0 C124.58457428 0.00037703 125.57051575 0.00075405 126.58633423 0.0011425 C128.79931641 0.12698364 128.79931641 0.12698364 129.79931641 1.12698364 C129.87245207 3.65747766 129.89179168 6.16003201 129.86181641 8.68948364 C129.85730469 9.40040161 129.85279297 10.11131958 129.84814453 10.84378052 C129.83632505 12.60488377 129.81838904 14.365944 129.79931641 16.12698364 C130.83749512 16.10603638 131.87567383 16.08508911 132.9453125 16.06350708 C136.84035145 15.99046406 140.73533138 15.94495331 144.63085938 15.90725708 C146.30869772 15.88728665 147.98646777 15.86010032 149.6640625 15.82522583 C161.65824664 15.58234182 171.99777154 15.76575306 181.26806641 24.42385864 C187.04515749 30.84939872 190.0293173 37.84301654 190.08984375 46.52444458 C190.10260345 47.7730426 190.11536316 49.02164063 190.12850952 50.30807495 C190.13156816 51.65916792 190.13379539 53.010263 190.13525391 54.36135864 C190.14169092 55.76372408 190.14841993 57.16608821 190.15542603 58.56845093 C190.16737216 61.50368356 190.17110975 64.43879875 190.16992188 67.37405396 C190.16971915 71.11063485 190.19698373 74.84645119 190.23146629 78.58285141 C190.25385546 81.47933313 190.25775573 84.37563457 190.25670242 87.27219391 C190.2590418 88.64833452 190.26777014 90.02448138 190.28336716 91.40053558 C190.39473923 102.24364737 189.13216378 111.42653594 181.50244141 119.59573364 C173.69221563 126.6177715 165.8550919 128.43607103 155.58837891 128.32229614 C154.62024261 128.31946625 153.65210632 128.31663635 152.65463257 128.3137207 C149.57773213 128.3025706 146.50112813 128.27747544 143.42431641 128.25198364 C141.33187271 128.24194716 139.23942443 128.23282248 137.14697266 128.22463989 C132.03097389 128.20264817 126.91519533 128.1681539 121.79931641 128.12698364 C121.49767578 128.74790894 121.19603516 129.36883423 120.88525391 130.00857544 C115.61739463 140.28492772 105.17581604 146.67068377 94.63525391 150.40042114 C91.092144 151.30816004 87.42861499 151.67332132 83.79931641 152.12698364 C88.41931641 170.27698364 93.03931641 188.42698364 97.79931641 207.12698364 C106.04931641 207.45698364 114.29931641 207.78698364 122.79931641 208.12698364 C128.79931641 213.12698364 128.79931641 213.12698364 129.79931641 215.12698364 C129.8842314 217.01337484 129.90650941 218.90276879 129.89697266 220.79104614 C129.89375 221.91253052 129.89052734 223.03401489 129.88720703 224.18948364 C129.87882812 225.36510864 129.87044922 226.54073364 129.86181641 227.75198364 C129.85730469 228.93534302 129.85279297 230.11870239 129.84814453 231.33792114 C129.83633107 234.26765871 129.81985898 237.19729636 129.79931641 240.12698364 C130.52521973 240.10079956 131.25112305 240.07461548 131.99902344 240.04763794 C135.30723182 239.94331555 138.61509361 239.87854492 141.92431641 239.81448364 C143.63748047 239.75164185 143.63748047 239.75164185 145.38525391 239.68753052 C154.88938024 239.54938915 154.88938024 239.54938915 158.54150391 242.52151489 C162.06458167 246.58707349 161.92202062 248.71313122 161.9128418 254.0552063 C161.91298782 254.767509 161.91313385 255.47981171 161.9132843 256.21369934 C161.91258651 258.5728457 161.90480037 260.93191354 161.89697266 263.29104614 C161.895108 264.92486528 161.89368432 266.55868498 161.89268494 268.19250488 C161.8888635 272.49646544 161.87903638 276.80039235 161.86798096 281.1043396 C161.85775882 285.49469548 161.85318559 289.88505679 161.84814453 294.27542114 C161.8374138 302.8926241 161.82034184 311.50979969 161.79931641 320.12698364 C162.41738726 320.12237468 163.03545811 320.11776571 163.67225838 320.11301708 C178.72070212 320.00253015 193.76902119 319.91982361 208.81776619 319.86792278 C216.09529321 319.84215585 223.37254926 319.8070348 230.64990234 319.74978638 C236.99386938 319.69990442 243.33764016 319.66768162 249.68179786 319.65654117 C253.04018891 319.6500303 256.39801854 319.6347611 259.7562294 319.59833336 C263.50807337 319.56207722 267.25875144 319.5570372 271.01074219 319.55935669 C272.12060989 319.54138031 273.2304776 319.52340393 274.37397766 319.50488281 C282.77915716 319.56117053 282.77915716 319.56117053 286.47360229 322.53746033 C289.55919454 325.97305588 289.9250724 327.46339593 289.95321655 331.95870972 C289.96181702 332.97931488 289.97041748 333.99992004 289.97927856 335.05145264 C289.98566849 336.73771255 289.98566849 336.73771255 289.9921875 338.45803833 C290.00036499 339.63862823 290.00854248 340.81921814 290.01696777 342.0355835 C290.04185412 345.95666143 290.05849703 349.87773184 290.07275391 353.79885864 C290.07811387 355.14900977 290.08349137 356.49916084 290.08888626 357.84931183 C290.1105165 363.46648101 290.12925231 369.08364733 290.14050865 374.70084763 C290.15674172 382.74850927 290.18990132 390.79568762 290.2469095 398.84316707 C290.28563277 404.50270236 290.30514421 410.16210853 290.31042922 415.82177281 C290.31407998 419.20134529 290.32606995 422.58040232 290.35853195 425.95983124 C290.39007282 429.73304646 290.39023593 433.50503894 290.3828125 437.27835083 C290.39921783 438.39442719 290.41562317 439.51050354 290.43252563 440.66040039 C290.3644094 449.11003022 290.3644094 449.11003022 287.3878479 452.80502319 C283.43318828 456.35242574 280.76589244 456.27269588 275.66710281 456.26399803 C274.92033154 456.26664986 274.17356026 456.26930169 273.40415955 456.27203387 C270.87581154 456.27975663 268.34751187 456.28028717 265.81915283 456.28088379 C263.99854016 456.28489645 262.17792838 456.28933434 260.35731769 456.29416335 C255.33392509 456.30615653 250.31054211 456.31178363 245.28713799 456.3163445 C239.87732179 456.32229017 234.46751715 456.33390254 229.05770874 456.34463501 C215.98313551 456.36918204 202.90855843 456.38378914 189.83396924 456.39669508 C186.1432948 456.40040521 182.45262074 456.40437858 178.76194668 456.40844774 C155.86030005 456.43368143 132.95865286 456.45574207 110.05699539 456.46817589 C104.74974821 456.47110575 99.44250104 456.47406739 94.13525391 456.4770813 C92.81610704 456.47782735 91.49696018 456.4785734 90.13783917 456.47934206 C68.75717466 456.4917937 47.37659795 456.52523248 25.99597183 456.56688313 C4.06233828 456.60926207 -17.87125271 456.63286621 -39.80492711 456.63809645 C-52.12695337 456.64151506 -64.44884983 456.65332326 -76.77083588 456.68619919 C-87.26251441 456.71414529 -97.75403657 456.72522295 -108.24574944 456.71400373 C-113.60143634 456.70880322 -118.95679548 456.71179408 -124.31243515 456.73646927 C-129.21277447 456.75885888 -134.11254863 456.7583023 -139.01289716 456.7392654 C-140.78817562 456.7364509 -142.56349157 456.74214383 -144.33870944 456.75707833 C-146.7482007 456.77611372 -149.1556619 456.76444576 -151.56510544 456.7450161 C-152.25789235 456.75786532 -152.95067925 456.77071454 -153.66445971 456.78395313 C-159.18050863 456.68590184 -161.45094761 454.87831016 -165.20068359 451.12698364 C-166.42995029 448.66845026 -166.337366 447.04535452 -166.35458374 444.29525757 C-166.3631842 443.2746524 -166.37178467 442.25404724 -166.38064575 441.20251465 C-166.3849057 440.07834137 -166.38916565 438.95416809 -166.39355469 437.79592896 C-166.40173218 436.61533905 -166.40990967 435.43474915 -166.41833496 434.21838379 C-166.44322131 430.29730585 -166.45986421 426.37623545 -166.47412109 422.45510864 C-166.47948105 421.10495751 -166.48485856 419.75480645 -166.49025345 418.40465546 C-166.51188368 412.78748627 -166.5306195 407.17031996 -166.54187584 401.55311966 C-166.5581089 393.50545801 -166.59126851 385.45827967 -166.64827669 377.41080022 C-166.68699996 371.75126492 -166.70651139 366.09185875 -166.7117964 360.43219447 C-166.71544717 357.05262199 -166.72743713 353.67356497 -166.75989914 350.29413605 C-166.79144001 346.52092082 -166.79160312 342.74892835 -166.78417969 338.97561646 C-166.80058502 337.8595401 -166.81699036 336.74346375 -166.83389282 335.59356689 C-166.76577658 327.14393706 -166.76577658 327.14393706 -163.78921509 323.44894409 C-160.34455591 320.35902133 -158.87110601 320.00206602 -154.36654663 320.00672913 C-153.34568466 320.00535446 -152.32482269 320.0039798 -151.27302551 320.00256348 C-150.1487767 320.00615875 -149.02452789 320.00975403 -147.86621094 320.01345825 C-146.68573685 320.01331223 -145.50526276 320.0131662 -144.28901672 320.01301575 C-141.04748585 320.01359405 -137.80599784 320.01861781 -134.56447554 320.0255897 C-131.17853449 320.03183058 -127.79259264 320.03242762 -124.40664673 320.03361511 C-117.99287349 320.03672626 -111.57911725 320.04493673 -105.16535151 320.0549646 C-97.86435813 320.06613246 -90.56336394 320.07163789 -83.26236415 320.07666004 C-68.24179449 320.08711952 -53.22124074 320.10471478 -38.20068359 320.12698364 C-38.21178665 319.22575775 -38.22288971 318.32453186 -38.23432922 317.39599609 C-38.33462226 308.8920171 -38.41069477 300.38823746 -38.45974445 291.88380241 C-38.48580962 287.51180615 -38.52115048 283.14029963 -38.57788086 278.76858521 C-38.63231191 274.54751923 -38.66212731 270.32692351 -38.67506981 266.1055336 C-38.68428992 264.49716923 -38.70229519 262.88882986 -38.72933388 261.28066635 C-38.7657745 259.02298657 -38.7706231 256.76723564 -38.76831055 254.50930786 C-38.7794136 253.22579437 -38.79051666 251.94228088 -38.80195618 250.61987305 C-38.00884395 246.01255624 -36.46995346 244.41087504 -33.20068359 241.12698364 C-30.53890139 239.79609254 -28.51328963 240.01429371 -25.53662109 240.02932739 C-24.41513672 240.03255005 -23.29365234 240.03577271 -22.13818359 240.03909302 C-20.96255859 240.04747192 -19.78693359 240.05585083 -18.57568359 240.06448364 C-17.39232422 240.06899536 -16.20896484 240.07350708 -14.98974609 240.07815552 C-12.06000853 240.08996898 -9.13037087 240.10644107 -6.20068359 240.12698364 C-6.22686768 239.40108032 -6.25305176 238.675177 -6.2800293 237.92727661 C-6.38435169 234.61906823 -6.44912231 231.31120644 -6.51318359 228.00198364 C-6.57602539 226.28881958 -6.57602539 226.28881958 -6.64013672 224.54104614 C-6.77827809 215.03691981 -6.77827809 215.03691981 -3.80615234 211.38479614 C5.22085422 203.5622927 8.11053882 207.83453475 25.79931641 207.12698364 C30.41931641 188.97698364 35.03931641 170.82698364 39.79931641 152.12698364 C37.15931641 151.79698364 34.51931641 151.46698364 31.79931641 151.12698364 C19.51686356 148.09491369 9.18542537 140.32785619 1.79931641 130.12698364 C1.79931641 129.46698364 1.79931641 128.80698364 1.79931641 128.12698364 C0.51355713 128.14793091 -0.77220215 128.16887817 -2.09692383 128.19046021 C-6.89954345 128.26324825 -11.70211498 128.30892394 -16.50512695 128.34671021 C-18.57780171 128.36673761 -20.65042059 128.39396775 -22.72290039 128.42874146 C-25.71433355 128.47765164 -28.70501514 128.50004158 -31.69677734 128.51760864 C-33.07076942 128.54857635 -33.07076942 128.54857635 -34.47251892 128.58016968 C-44.08783071 128.58346996 -52.24661932 124.74700989 -59.20068359 118.12698364 C-64.06465987 111.95442492 -66.43615858 105.62579048 -66.49121094 97.72952271 C-66.50397064 96.48092468 -66.51673035 95.23232666 -66.52987671 93.94589233 C-66.53293535 92.59479936 -66.53516258 91.24370429 -66.53662109 89.89260864 C-66.54305811 88.4902432 -66.54978712 87.08787907 -66.55679321 85.68551636 C-66.56873935 82.75028373 -66.57247694 79.81516853 -66.57128906 76.87991333 C-66.57108634 73.14333244 -66.59835092 69.40751609 -66.63283348 65.67111588 C-66.65522265 62.77463416 -66.65912292 59.87833271 -66.65806961 56.98177338 C-66.66040899 55.60563277 -66.66913732 54.22948591 -66.68473434 52.8534317 C-66.79610642 42.01031992 -65.53353097 32.82743134 -57.90380859 24.65823364 C-50.73692936 18.21461745 -43.33364383 15.80075876 -33.73974609 15.93167114 C-32.94917816 15.93450104 -32.15861023 15.93733093 -31.34408569 15.94024658 C-28.83779276 15.95137409 -26.33186715 15.97646439 -23.82568359 16.00198364 C-22.11865753 16.01202307 -20.41162583 16.02114723 -18.70458984 16.02932739 C-14.53648119 16.05128901 -10.36864451 16.08576693 -6.20068359 16.12698364 C-6.21228516 15.05577271 -6.22388672 13.98456177 -6.23583984 12.88088989 C-6.24521658 11.48375621 -6.2543169 10.08662065 -6.26318359 8.68948364 C-6.2715625 7.98243286 -6.27994141 7.27538208 -6.28857422 6.54690552 C-6.29721947 4.74004805 -6.25288371 2.93310761 -6.20068359 1.12698364 C-4.49992585 -0.5737741 -2.32684887 0.00088979 0 0 Z M-34.20068359 48.12698364 C-34.20068359 63.96698364 -34.20068359 79.80698364 -34.20068359 96.12698364 C-24.96068359 96.12698364 -15.72068359 96.12698364 -6.20068359 96.12698364 C-6.20068359 80.28698364 -6.20068359 64.44698364 -6.20068359 48.12698364 C-15.44068359 48.12698364 -24.68068359 48.12698364 -34.20068359 48.12698364 Z M129.79931641 48.12698364 C129.79931641 63.96698364 129.79931641 79.80698364 129.79931641 96.12698364 C139.03931641 96.12698364 148.27931641 96.12698364 157.79931641 96.12698364 C157.79931641 80.28698364 157.79931641 64.44698364 157.79931641 48.12698364 C148.55931641 48.12698364 139.31931641 48.12698364 129.79931641 48.12698364 Z " fill="#212A40" transform="translate(194.20068359375,27.873016357421875)"/>
<path d="M0 0 C1.11052734 -0.00563965 2.22105469 -0.0112793 3.36523438 -0.01708984 C5.20118164 -0.01101715 5.20118164 -0.01101715 7.07421875 -0.00482178 C8.35876953 -0.00832642 9.64332031 -0.01183105 10.96679688 -0.01544189 C14.49566399 -0.02457883 18.02441448 -0.02101633 21.55328369 -0.01468372 C25.24125489 -0.00963045 28.92921592 -0.0143133 32.6171875 -0.01745605 C38.81121621 -0.02109767 45.00519727 -0.0162915 51.19921875 -0.0067749 C58.36675332 0.00411004 65.53417412 0.0005846 72.70170593 -0.01042771 C78.848658 -0.01949505 84.99557576 -0.02078859 91.14253235 -0.01555037 C94.81688299 -0.01242761 98.49118011 -0.01202968 102.16552734 -0.01862335 C106.26016002 -0.02545758 110.35459565 -0.01599313 114.44921875 -0.00482178 C115.67318359 -0.00887024 116.89714844 -0.0129187 118.15820312 -0.01708984 C119.26873047 -0.0114502 120.37925781 -0.00581055 121.5234375 0 C122.49240967 0.00075405 123.46138184 0.0015081 124.4597168 0.002285 C126.76171875 0.25396729 126.76171875 0.25396729 128.76171875 2.25396729 C128.95925135 4.84515715 129.03099606 7.32955946 129.01568604 9.92193604 C129.02036601 11.12294701 129.02036601 11.12294701 129.02514052 12.34822083 C129.03315318 15.04604331 129.02678424 17.7436429 129.02050781 20.44146729 C129.02321623 22.36952853 129.02677631 24.29758874 129.03112793 26.22564697 C129.04027201 31.473455 129.03669938 36.72118469 129.03036976 41.96899414 C129.02532019 47.45070615 129.0299983 52.93241127 129.03314209 58.41412354 C129.03678479 67.62116709 129.03197469 76.82817859 129.02246094 86.03521729 C129.01157581 96.69275989 129.01510118 107.35022598 129.02611375 118.00776672 C129.03517799 127.14407508 129.03647614 136.28036035 129.03123641 145.41667175 C129.02811195 150.87953954 129.02772038 156.34237132 129.03430939 161.80523682 C129.04006969 166.94007972 129.03611017 172.0748236 129.02452087 177.20965576 C129.02186722 179.09873286 129.02265132 180.98781824 129.0270462 182.87689209 C129.03247541 185.44670831 129.02569974 188.01620305 129.01568604 190.58599854 C129.0223782 191.71915245 129.0223782 191.71915245 129.02920556 192.87519836 C128.99001888 198.02566715 128.99001888 198.02566715 126.76171875 200.25396729 C124.4597168 200.50564957 124.4597168 200.50564957 121.5234375 200.50793457 C120.41291016 200.51357422 119.30238281 200.51921387 118.15820312 200.52502441 C116.32225586 200.51895172 116.32225586 200.51895172 114.44921875 200.51275635 C113.16466797 200.51626099 111.88011719 200.51976562 110.55664062 200.52337646 C107.02777351 200.5325134 103.49902302 200.5289509 99.97015381 200.52261829 C96.28218261 200.51756502 92.59422158 200.52224787 88.90625 200.52539062 C82.71222129 200.52903224 76.51824023 200.52422607 70.32421875 200.51470947 C63.15668418 200.50382453 55.98926338 200.50734997 48.82173157 200.51836228 C42.6747795 200.52742962 36.52786174 200.52872316 30.38090515 200.52348495 C26.70655451 200.52036218 23.03225739 200.51996425 19.35791016 200.52655792 C15.26327748 200.53339215 11.16884185 200.5239277 7.07421875 200.51275635 C5.85025391 200.51680481 4.62628906 200.52085327 3.36523438 200.52502441 C2.25470703 200.51938477 1.14417969 200.51374512 0 200.50793457 C-0.96897217 200.50718052 -1.93794434 200.50642647 -2.9362793 200.50564957 C-5.23828125 200.25396729 -5.23828125 200.25396729 -7.23828125 198.25396729 C-7.43581385 195.66277742 -7.50755856 193.17837511 -7.49224854 190.58599854 C-7.49692851 189.38498756 -7.49692851 189.38498756 -7.50170302 188.15971375 C-7.50971568 185.46189126 -7.50334674 182.76429167 -7.49707031 180.06646729 C-7.49977873 178.13840604 -7.50333881 176.21034583 -7.50769043 174.2822876 C-7.51683451 169.03447957 -7.51326188 163.78674988 -7.50693226 158.53894043 C-7.50188269 153.05722842 -7.5065608 147.5755233 -7.50970459 142.09381104 C-7.51334729 132.88676748 -7.50853719 123.67975598 -7.49902344 114.47271729 C-7.48813831 103.81517468 -7.49166368 93.15770859 -7.50267625 82.50016785 C-7.51174049 73.36385949 -7.51303864 64.22757422 -7.50779891 55.09126282 C-7.50467445 49.62839503 -7.50428288 44.16556325 -7.51087189 38.70269775 C-7.51663219 33.56785485 -7.51267267 28.43311097 -7.50108337 23.29827881 C-7.49842972 21.40920171 -7.49921382 19.52011633 -7.5036087 17.63104248 C-7.50903791 15.06122626 -7.50226224 12.49173152 -7.49224854 9.92193604 C-7.49670998 9.16650009 -7.50117142 8.41106415 -7.50576806 7.63273621 C-7.45771991 1.31756778 -6.22058721 0.00484084 0 0 Z " fill="#0078A7" transform="translate(219.23828125,275.74603271484375)"/>
<path d="M0 0 C39.6 0 79.2 0 120 0 C120.04125 15.819375 120.0825 31.63875 120.125 47.9375 C120.14320801 52.919646 120.16141602 57.90179199 120.18017578 63.03491211 C120.18920898 69.15148926 120.18920898 69.15148926 120.19088745 72.02125549 C120.19394457 74.01170243 120.20094942 76.00214583 120.21115112 77.99256897 C120.22588173 81.01976895 120.22780894 84.04674393 120.22705078 87.07397461 C120.234247 87.95032279 120.24144321 88.82667097 120.2488575 89.72957516 C120.20744914 102.15753802 116.32953548 114.25064524 107.68359375 123.48046875 C96.96109762 133.15808127 85.03786957 136.12508019 70.95703125 136.23828125 C69.99278732 136.246353 69.0285434 136.25442474 68.03507996 136.26274109 C65.99858369 136.27653296 63.96206479 136.28727687 61.92553711 136.29516602 C59.85906113 136.30667255 57.79261457 136.32710322 55.72631836 136.35668945 C38.04329145 136.60952609 24.27562737 134.69842618 11 122 C2.49523834 111.11390507 -0.16906776 100.93990077 -0.11352539 87.30102539 C-0.11364593 86.33869964 -0.11376646 85.37637388 -0.11389065 84.38488674 C-0.11314798 81.28911922 -0.10554928 78.19341291 -0.09765625 75.09765625 C-0.09618483 73.17867054 -0.09516535 71.25968443 -0.09460449 69.34069824 C-0.0893748 62.24795935 -0.07541353 55.15522906 -0.0625 48.0625 C-0.041875 32.201875 -0.02125 16.34125 0 0 Z " fill="#F8AB2F" transform="translate(196,36)"/>
<path d="M0 0 C0.97590088 -0.00563965 1.95180176 -0.0112793 2.95727539 -0.01708984 C4.56880493 -0.01101715 4.56880493 -0.01101715 6.21289062 -0.00482178 C7.34138428 -0.00832642 8.46987793 -0.01183105 9.63256836 -0.01544189 C13.37815427 -0.02427403 17.12355266 -0.01840475 20.86914062 -0.01165771 C23.46223995 -0.01300394 26.05533904 -0.01494411 28.6484375 -0.01745605 C34.08921945 -0.02040933 39.52993037 -0.01629272 44.97070312 -0.0067749 C51.26573789 0.00410997 57.56064312 0.0005845 63.85567474 -0.01042771 C69.90518489 -0.02058786 75.95463152 -0.01952445 82.00415039 -0.01366425 C84.58146177 -0.01232622 87.15877644 -0.01398077 89.73608398 -0.01862335 C93.33260975 -0.02367948 96.92888371 -0.01599105 100.52539062 -0.00482178 C101.59974365 -0.00887024 102.67409668 -0.0129187 103.78100586 -0.01708984 C104.75690674 -0.0114502 105.73280762 -0.00581055 106.73828125 0 C107.58926392 0.00075405 108.44024658 0.0015081 109.3170166 0.002285 C111.36914062 0.25396729 111.36914062 0.25396729 113.36914062 2.25396729 C113.62082291 4.30609131 113.62082291 4.30609131 113.62310791 6.88482666 C113.62874756 7.86072754 113.63438721 8.83662842 113.64019775 9.84210205 C113.63614929 10.91645508 113.63210083 11.99080811 113.62792969 13.09771729 C113.63143433 14.22621094 113.63493896 15.35470459 113.6385498 16.51739502 C113.64738194 20.26298093 113.64151266 24.00837932 113.63476562 27.75396729 C113.63611185 30.34706661 113.63805202 32.9401657 113.64056396 35.53326416 C113.64351724 40.97404611 113.63940063 46.41475703 113.62988281 51.85552979 C113.61899794 58.15056455 113.62252341 64.44546978 113.63353562 70.7405014 C113.64369577 76.79001155 113.64263236 82.83945818 113.63677216 88.88897705 C113.63543413 91.46628843 113.63708868 94.0436031 113.64173126 96.62091064 C113.64678739 100.21743641 113.63909896 103.81371037 113.62792969 107.41021729 C113.63197815 108.48457031 113.63602661 109.55892334 113.64019775 110.66583252 C113.63455811 111.6417334 113.62891846 112.61763428 113.62310791 113.62310791 C113.62235386 114.47409058 113.62159981 115.32507324 113.62082291 116.20184326 C113.36914062 118.25396729 113.36914062 118.25396729 111.36914062 120.25396729 C109.3170166 120.50564957 109.3170166 120.50564957 106.73828125 120.50793457 C105.76238037 120.51357422 104.78647949 120.51921387 103.78100586 120.52502441 C102.70665283 120.52097595 101.6322998 120.51692749 100.52539062 120.51275635 C99.39689697 120.51626099 98.26840332 120.51976562 97.10571289 120.52337646 C93.36012698 120.5322086 89.61472859 120.52633932 85.86914062 120.51959229 C83.2760413 120.52093851 80.68294221 120.52287868 78.08984375 120.52539062 C72.6490618 120.5283439 67.20835088 120.52422729 61.76757812 120.51470947 C55.47254336 120.5038246 49.17763813 120.50735007 42.88260651 120.51836228 C36.83309636 120.52852243 30.78364973 120.52745902 24.73413086 120.52159882 C22.15681948 120.52026079 19.57950481 120.52191534 17.00219727 120.52655792 C13.4056715 120.53161405 9.80939754 120.52392562 6.21289062 120.51275635 C4.60136108 120.51882904 4.60136108 120.51882904 2.95727539 120.52502441 C1.98137451 120.51938477 1.00547363 120.51374512 0 120.50793457 C-0.85098267 120.50718052 -1.70196533 120.50642647 -2.57873535 120.50564957 C-4.63085938 120.25396729 -4.63085938 120.25396729 -6.63085938 118.25396729 C-6.88254166 116.20184326 -6.88254166 116.20184326 -6.88482666 113.62310791 C-6.89046631 112.64720703 -6.89610596 111.67130615 -6.9019165 110.66583252 C-6.89786804 109.59147949 -6.89381958 108.51712646 -6.88964844 107.41021729 C-6.89315308 106.28172363 -6.89665771 105.15322998 -6.90026855 103.99053955 C-6.90910069 100.24495364 -6.90323141 96.49955525 -6.89648438 92.75396729 C-6.8978306 90.16086796 -6.89977077 87.56776887 -6.90228271 84.97467041 C-6.90523599 79.53388846 -6.90111938 74.09317754 -6.89160156 68.65240479 C-6.88071669 62.35737002 -6.88424216 56.06246479 -6.89525437 49.76743317 C-6.90541452 43.71792302 -6.90435111 37.66847639 -6.89849091 31.61895752 C-6.89715288 29.04164614 -6.89880743 26.46433147 -6.90345001 23.88702393 C-6.90850614 20.29049816 -6.90081771 16.6942242 -6.88964844 13.09771729 C-6.8936969 12.02336426 -6.89774536 10.94901123 -6.9019165 9.84210205 C-6.89627686 8.86620117 -6.89063721 7.89030029 -6.88482666 6.88482666 C-6.88369558 5.60835266 -6.88369558 5.60835266 -6.88254166 4.30609131 C-6.3504948 -0.0320215 -3.71597776 0.00329271 0 0 Z " fill="#B6BFD6" transform="translate(362.630859375,355.74603271484375)"/>
<path d="M0 0 C0.97590088 -0.00563965 1.95180176 -0.0112793 2.95727539 -0.01708984 C4.56880493 -0.01101715 4.56880493 -0.01101715 6.21289062 -0.00482178 C7.34138428 -0.00832642 8.46987793 -0.01183105 9.63256836 -0.01544189 C13.37815427 -0.02427403 17.12355266 -0.01840475 20.86914062 -0.01165771 C23.46223995 -0.01300394 26.05533904 -0.01494411 28.6484375 -0.01745605 C34.08921945 -0.02040933 39.52993037 -0.01629272 44.97070312 -0.0067749 C51.26573789 0.00410997 57.56064312 0.0005845 63.85567474 -0.01042771 C69.90518489 -0.02058786 75.95463152 -0.01952445 82.00415039 -0.01366425 C84.58146177 -0.01232622 87.15877644 -0.01398077 89.73608398 -0.01862335 C93.33260975 -0.02367948 96.92888371 -0.01599105 100.52539062 -0.00482178 C101.59974365 -0.00887024 102.67409668 -0.0129187 103.78100586 -0.01708984 C104.75690674 -0.0114502 105.73280762 -0.00581055 106.73828125 0 C107.58926392 0.00075405 108.44024658 0.0015081 109.3170166 0.002285 C111.36914062 0.25396729 111.36914062 0.25396729 113.36914062 2.25396729 C113.62082291 4.30609131 113.62082291 4.30609131 113.62310791 6.88482666 C113.62874756 7.86072754 113.63438721 8.83662842 113.64019775 9.84210205 C113.63614929 10.91645508 113.63210083 11.99080811 113.62792969 13.09771729 C113.63143433 14.22621094 113.63493896 15.35470459 113.6385498 16.51739502 C113.64738194 20.26298093 113.64151266 24.00837932 113.63476562 27.75396729 C113.63611185 30.34706661 113.63805202 32.9401657 113.64056396 35.53326416 C113.64351724 40.97404611 113.63940063 46.41475703 113.62988281 51.85552979 C113.61899794 58.15056455 113.62252341 64.44546978 113.63353562 70.7405014 C113.64369577 76.79001155 113.64263236 82.83945818 113.63677216 88.88897705 C113.63543413 91.46628843 113.63708868 94.0436031 113.64173126 96.62091064 C113.64678739 100.21743641 113.63909896 103.81371037 113.62792969 107.41021729 C113.63197815 108.48457031 113.63602661 109.55892334 113.64019775 110.66583252 C113.63455811 111.6417334 113.62891846 112.61763428 113.62310791 113.62310791 C113.62235386 114.47409058 113.62159981 115.32507324 113.62082291 116.20184326 C113.36914062 118.25396729 113.36914062 118.25396729 111.36914062 120.25396729 C109.3170166 120.50564957 109.3170166 120.50564957 106.73828125 120.50793457 C105.76238037 120.51357422 104.78647949 120.51921387 103.78100586 120.52502441 C102.70665283 120.52097595 101.6322998 120.51692749 100.52539062 120.51275635 C99.39689697 120.51626099 98.26840332 120.51976562 97.10571289 120.52337646 C93.36012698 120.5322086 89.61472859 120.52633932 85.86914062 120.51959229 C83.2760413 120.52093851 80.68294221 120.52287868 78.08984375 120.52539062 C72.6490618 120.5283439 67.20835088 120.52422729 61.76757812 120.51470947 C55.47254336 120.5038246 49.17763813 120.50735007 42.88260651 120.51836228 C36.83309636 120.52852243 30.78364973 120.52745902 24.73413086 120.52159882 C22.15681948 120.52026079 19.57950481 120.52191534 17.00219727 120.52655792 C13.4056715 120.53161405 9.80939754 120.52392562 6.21289062 120.51275635 C4.60136108 120.51882904 4.60136108 120.51882904 2.95727539 120.52502441 C1.98137451 120.51938477 1.00547363 120.51374512 0 120.50793457 C-0.85098267 120.50718052 -1.70196533 120.50642647 -2.57873535 120.50564957 C-4.63085938 120.25396729 -4.63085938 120.25396729 -6.63085938 118.25396729 C-6.88254166 116.20184326 -6.88254166 116.20184326 -6.88482666 113.62310791 C-6.89046631 112.64720703 -6.89610596 111.67130615 -6.9019165 110.66583252 C-6.89786804 109.59147949 -6.89381958 108.51712646 -6.88964844 107.41021729 C-6.89315308 106.28172363 -6.89665771 105.15322998 -6.90026855 103.99053955 C-6.90910069 100.24495364 -6.90323141 96.49955525 -6.89648438 92.75396729 C-6.8978306 90.16086796 -6.89977077 87.56776887 -6.90228271 84.97467041 C-6.90523599 79.53388846 -6.90111938 74.09317754 -6.89160156 68.65240479 C-6.88071669 62.35737002 -6.88424216 56.06246479 -6.89525437 49.76743317 C-6.90541452 43.71792302 -6.90435111 37.66847639 -6.89849091 31.61895752 C-6.89715288 29.04164614 -6.89880743 26.46433147 -6.90345001 23.88702393 C-6.90850614 20.29049816 -6.90081771 16.6942242 -6.88964844 13.09771729 C-6.8936969 12.02336426 -6.89774536 10.94901123 -6.9019165 9.84210205 C-6.89627686 8.86620117 -6.89063721 7.89030029 -6.88482666 6.88482666 C-6.88369558 5.60835266 -6.88369558 5.60835266 -6.88254166 4.30609131 C-6.3504948 -0.0320215 -3.71597776 0.00329271 0 0 Z " fill="#B6BFD6" transform="translate(90.630859375,355.74603271484375)"/>
<path d="M0 0 C12.54 0 25.08 0 38 0 C38 39.6 38 79.2 38 120 C25.46 120 12.92 120 0 120 C-2.48395006 117.51604994 -2.25093403 116.79231177 -2.25396729 113.36914062 C-2.25960693 112.39323975 -2.26524658 111.41733887 -2.27105713 110.41186523 C-2.26700867 109.33751221 -2.26296021 108.26315918 -2.25878906 107.15625 C-2.2622937 106.02775635 -2.26579834 104.8992627 -2.26940918 103.73657227 C-2.27824131 99.99098636 -2.27237204 96.24558797 -2.265625 92.5 C-2.26697122 89.90690067 -2.26891139 87.31380159 -2.27142334 84.72070312 C-2.27437662 79.27992118 -2.27026 73.83921025 -2.26074219 68.3984375 C-2.24985731 62.10340273 -2.25338279 55.80849751 -2.264395 49.51346588 C-2.27455514 43.46395574 -2.27349173 37.41450911 -2.26763153 31.36499023 C-2.26629351 28.78767885 -2.26794806 26.21036419 -2.27259064 23.63305664 C-2.27764676 20.03653088 -2.26995834 16.44025692 -2.25878906 12.84375 C-2.26283752 11.76939697 -2.26688599 10.69504395 -2.27105713 9.58813477 C-2.26541748 8.61223389 -2.25977783 7.63633301 -2.25396729 6.63085938 C-2.25283621 5.35438538 -2.25283621 5.35438538 -2.25168228 4.05212402 C-2 2 -2 2 0 0 Z " fill="#98A1B8" transform="translate(38,356)"/>
<path d="M0 0 C1.4540625 0.0309375 1.4540625 0.0309375 2.9375 0.0625 C5.57791025 5.1108987 7.17492449 9.7875575 8.06640625 15.42578125 C10.18815894 27.80889372 10.18815894 27.80889372 17.72381592 37.33013916 C26.92934368 42.44059017 37.55934972 44.93746616 47.75390625 47.27587891 C50.9375 48.0625 50.9375 48.0625 51.9375 49.0625 C51.97830783 51.06208364 51.98004356 53.06295254 51.9375 55.0625 C46.8891013 57.70291025 42.2124425 59.29992449 36.57421875 60.19140625 C24.19110628 62.31315894 24.19110628 62.31315894 14.66986084 69.84881592 C9.55940983 79.05434368 7.06253384 89.68434972 4.72412109 99.87890625 C3.9375 103.0625 3.9375 103.0625 2.9375 104.0625 C0.93791636 104.10330783 -1.06295254 104.10504356 -3.0625 104.0625 C-5.70291025 99.0141013 -7.29992449 94.3374425 -8.19140625 88.69921875 C-10.31315894 76.31610628 -10.31315894 76.31610628 -17.84881592 66.79486084 C-27.05434368 61.68440983 -37.68434972 59.18753384 -47.87890625 56.84912109 C-51.0625 56.0625 -51.0625 56.0625 -52.0625 55.0625 C-52.10330783 53.06291636 -52.10504356 51.06204746 -52.0625 49.0625 C-47.0141013 46.42208975 -42.3374425 44.82507551 -36.69921875 43.93359375 C-24.31610628 41.81184106 -24.31610628 41.81184106 -14.79486084 34.27618408 C-9.68440983 25.07065632 -7.18753384 14.44065028 -4.84912109 4.24609375 C-3.81922997 0.07794347 -3.81922997 0.07794347 0 0 Z " fill="#242D43" transform="translate(416.0625,171.9375)"/>
<path d="M0 0 C1.4540625 0.0309375 1.4540625 0.0309375 2.9375 0.0625 C5.57791025 5.1108987 7.17492449 9.7875575 8.06640625 15.42578125 C10.18815894 27.80889372 10.18815894 27.80889372 17.72381592 37.33013916 C26.92934368 42.44059017 37.55934972 44.93746616 47.75390625 47.27587891 C50.9375 48.0625 50.9375 48.0625 51.9375 49.0625 C51.97830783 51.06208364 51.98004356 53.06295254 51.9375 55.0625 C46.8891013 57.70291025 42.2124425 59.29992449 36.57421875 60.19140625 C24.19110628 62.31315894 24.19110628 62.31315894 14.66986084 69.84881592 C9.55940983 79.05434368 7.06253384 89.68434972 4.72412109 99.87890625 C3.9375 103.0625 3.9375 103.0625 2.9375 104.0625 C0.93791636 104.10330783 -1.06295254 104.10504356 -3.0625 104.0625 C-5.70291025 99.0141013 -7.29992449 94.3374425 -8.19140625 88.69921875 C-10.31315894 76.31610628 -10.31315894 76.31610628 -17.84881592 66.79486084 C-27.05434368 61.68440983 -37.68434972 59.18753384 -47.87890625 56.84912109 C-51.0625 56.0625 -51.0625 56.0625 -52.0625 55.0625 C-52.10330783 53.06291636 -52.10504356 51.06204746 -52.0625 49.0625 C-47.0141013 46.42208975 -42.3374425 44.82507551 -36.69921875 43.93359375 C-24.31610628 41.81184106 -24.31610628 41.81184106 -14.79486084 34.27618408 C-9.68440983 25.07065632 -7.18753384 14.44065028 -4.84912109 4.24609375 C-3.81922997 0.07794347 -3.81922997 0.07794347 0 0 Z " fill="#242D43" transform="translate(96.0625,171.9375)"/>
<path d="M0 0 C1.59752844 0.00050064 3.19507931 0.01156627 4.79248047 0.03173828 C5.53747803 0.03375244 6.28247559 0.0357666 7.05004883 0.0378418 C9.83665105 0.04831668 12.6231656 0.07623926 15.40966797 0.10205078 C24.75279297 0.16392578 24.75279297 0.16392578 34.28466797 0.22705078 C34.28466797 23.98705078 34.28466797 47.74705078 34.28466797 72.22705078 C21.08466797 72.22705078 7.88466797 72.22705078 -5.71533203 72.22705078 C-5.79554965 54.83765367 -5.79554965 54.83765367 -5.81298828 47.44189453 C-5.82495749 42.38960587 -5.83913756 37.33738949 -5.86621094 32.28515625 C-5.88789506 28.21327801 -5.89989126 24.14147726 -5.90508652 20.06954575 C-5.90879027 18.51375991 -5.91602249 16.95797846 -5.92679214 15.40222549 C-5.94124841 13.22801704 -5.94331247 11.05413137 -5.94238281 8.87988281 C-5.94682404 7.64078156 -5.95126526 6.4016803 -5.95584106 5.12503052 C-5.57923354 0.5871512 -4.46884927 0.27309961 0 0 Z " fill="#005A89" transform="translate(169.71533203125,275.77294921875)"/>
<path d="M0 0 C0.97590088 -0.00563965 1.95180176 -0.0112793 2.95727539 -0.01708984 C4.56880493 -0.01101715 4.56880493 -0.01101715 6.21289062 -0.00482178 C7.34138428 -0.00832642 8.46987793 -0.01183105 9.63256836 -0.01544189 C13.37815427 -0.02427403 17.12355266 -0.01840475 20.86914062 -0.01165771 C23.46223995 -0.01300394 26.05533904 -0.01494411 28.6484375 -0.01745605 C34.08921945 -0.02040933 39.52993037 -0.01629272 44.97070312 -0.0067749 C51.26573789 0.00410997 57.56064312 0.0005845 63.85567474 -0.01042771 C69.90518489 -0.02058786 75.95463152 -0.01952445 82.00415039 -0.01366425 C84.58146177 -0.01232622 87.15877644 -0.01398077 89.73608398 -0.01862335 C93.33260975 -0.02367948 96.92888371 -0.01599105 100.52539062 -0.00482178 C101.59974365 -0.00887024 102.67409668 -0.0129187 103.78100586 -0.01708984 C104.75690674 -0.0114502 105.73280762 -0.00581055 106.73828125 0 C107.58926392 0.00075405 108.44024658 0.0015081 109.3170166 0.002285 C111.36914062 0.25396729 111.36914062 0.25396729 113.36914062 2.25396729 C113.62792969 4.28521729 113.62792969 4.28521729 113.63476562 6.75396729 C113.63863281 8.08427979 113.63863281 8.08427979 113.64257812 9.44146729 C113.63484375 10.36959229 113.62710938 11.29771729 113.61914062 12.25396729 C113.63074219 13.64615479 113.63074219 13.64615479 113.64257812 15.06646729 C113.64 15.95334229 113.63742187 16.84021729 113.63476562 17.75396729 C113.63250977 18.56865479 113.63025391 19.38334229 113.62792969 20.22271729 C113.36914062 22.25396729 113.36914062 22.25396729 111.36914062 24.25396729 C109.3170166 24.50564957 109.3170166 24.50564957 106.73828125 24.50793457 C105.76238037 24.51357422 104.78647949 24.51921387 103.78100586 24.52502441 C102.70665283 24.52097595 101.6322998 24.51692749 100.52539062 24.51275635 C99.39689697 24.51626099 98.26840332 24.51976562 97.10571289 24.52337646 C93.36012698 24.5322086 89.61472859 24.52633932 85.86914062 24.51959229 C83.2760413 24.52093851 80.68294221 24.52287868 78.08984375 24.52539062 C72.6490618 24.5283439 67.20835088 24.52422729 61.76757812 24.51470947 C55.47254336 24.5038246 49.17763813 24.50735007 42.88260651 24.51836228 C36.83309636 24.52852243 30.78364973 24.52745902 24.73413086 24.52159882 C22.15681948 24.52026079 19.57950481 24.52191534 17.00219727 24.52655792 C13.4056715 24.53161405 9.80939754 24.52392562 6.21289062 24.51275635 C4.60136108 24.51882904 4.60136108 24.51882904 2.95727539 24.52502441 C1.98137451 24.51938477 1.00547363 24.51374512 0 24.50793457 C-0.85098267 24.50718052 -1.70196533 24.50642647 -2.57873535 24.50564957 C-4.63085938 24.25396729 -4.63085938 24.25396729 -6.63085938 22.25396729 C-6.88964844 20.22271729 -6.88964844 20.22271729 -6.89648438 17.75396729 C-6.8990625 16.86709229 -6.90164062 15.98021729 -6.90429688 15.06646729 C-6.89269531 13.67427979 -6.89269531 13.67427979 -6.88085938 12.25396729 C-6.88859375 11.32584229 -6.89632812 10.39771729 -6.90429688 9.44146729 C-6.90171875 8.55459229 -6.89914063 7.66771729 -6.89648438 6.75396729 C-6.89422852 5.93927979 -6.89197266 5.12459229 -6.88964844 4.28521729 C-6.33906449 -0.0363473 -3.70352926 0.00328168 0 0 Z " fill="#F8AB2F" transform="translate(202.630859375,243.74603271484375)"/>
<path d="M0 0 C0.74759079 0.0028299 1.49518158 0.00565979 2.26542664 0.00857544 C4.63935755 0.01971781 7.012903 0.04481088 9.38671875 0.0703125 C11.00194765 0.08035001 12.61718251 0.08947451 14.23242188 0.09765625 C18.17995336 0.11793119 22.12665757 0.15708975 26.07421875 0.1953125 C26.07421875 5.4753125 26.07421875 10.7553125 26.07421875 16.1953125 C22.78710938 16.23398438 22.78710938 16.23398438 19.43359375 16.2734375 C17.30537203 16.31187829 15.17739095 16.35703145 13.04931641 16.40283203 C11.57319679 16.43101338 10.09692706 16.45224216 8.62060547 16.46630859 C6.49498818 16.48777948 4.37116996 16.53444293 2.24609375 16.5859375 C0.96831055 16.60688477 -0.30947266 16.62783203 -1.62597656 16.64941406 C-5.54530767 17.29780296 -6.49107861 18.13296305 -8.92578125 21.1953125 C-9.51295935 23.69816401 -9.51295935 23.69816401 -9.41162109 26.45117188 C-9.42085098 28.02300232 -9.42085098 28.02300232 -9.43026733 29.62658691 C-9.4158963 30.75270386 -9.40152527 31.8788208 -9.38671875 33.0390625 C-9.38580231 34.2003064 -9.38488586 35.36155029 -9.38394165 36.5579834 C-9.37790124 39.01249276 -9.36214226 41.46699461 -9.33740234 43.92138672 C-9.30092072 47.68094002 -9.29638283 51.43950702 -9.296875 55.19921875 C-9.28704295 57.58334186 -9.27538556 59.96745829 -9.26171875 62.3515625 C-9.2594931 63.47767944 -9.25726746 64.60379639 -9.25497437 65.76403809 C-9.23583481 67.33586853 -9.23583481 67.33586853 -9.21630859 68.93945312 C-9.208685 69.86004517 -9.2010614 70.78063721 -9.19320679 71.72912598 C-8.90882813 74.35165345 -8.33998777 75.97977817 -6.92578125 78.1953125 C-3.97293405 79.6717361 -1.24129142 79.41804189 2.05078125 79.51171875 C3.0786525 79.5428904 3.0786525 79.5428904 4.12728882 79.57469177 C6.31782944 79.64011435 8.50849064 79.69903804 10.69921875 79.7578125 C12.18360625 79.80100468 13.66798153 79.8446192 15.15234375 79.88867188 C18.79283959 79.99578803 22.43347126 80.09707612 26.07421875 80.1953125 C26.55555285 81.92387709 27.03418846 83.65319321 27.51171875 85.3828125 C27.77855469 86.34574219 28.04539063 87.30867188 28.3203125 88.30078125 C29.00301893 90.92194947 29.5731407 93.5342475 30.07421875 96.1953125 C24.8089743 96.29474332 19.54428532 96.36704449 14.27832031 96.41503906 C12.48981191 96.43506209 10.70136821 96.46228904 8.91308594 96.49707031 C6.33121713 96.54600205 3.75021925 96.56837415 1.16796875 96.5859375 C-0.01690125 96.61690521 -0.01690125 96.61690521 -1.22570801 96.64849854 C-8.09737248 96.65122958 -13.20883198 94.56725234 -18.38671875 90.046875 C-19.01835937 89.31210938 -19.65 88.57734375 -20.30078125 87.8203125 C-20.94789063 87.09070313 -21.595 86.36109375 -22.26171875 85.609375 C-25.37315312 81.09560401 -26.17552598 76.6317303 -26.21630859 71.22509766 C-26.2290683 70.07014801 -26.241828 68.91519836 -26.25497437 67.72525024 C-26.25720001 66.49076141 -26.25942566 65.25627258 -26.26171875 63.984375 C-26.26837555 62.70227142 -26.27503235 61.42016785 -26.28189087 60.09921265 C-26.2938293 57.39097729 -26.29757523 54.68286916 -26.29638672 51.97460938 C-26.29618365 48.52254137 -26.32348713 45.07129772 -26.35793114 41.61942482 C-26.38565758 38.30356398 -26.38435204 34.98785004 -26.38671875 31.671875 C-26.40108978 30.44143463 -26.41546082 29.21099426 -26.43026733 27.94326782 C-26.38624101 19.63454275 -25.4056421 14.11715926 -19.7421875 7.734375 C-18.62650391 6.78691406 -18.62650391 6.78691406 -17.48828125 5.8203125 C-16.74707031 5.17320313 -16.00585938 4.52609375 -15.2421875 3.859375 C-10.32827082 0.32931007 -5.92362577 -0.08517463 0 0 Z " fill="#F7AB2F" transform="translate(161.92578125,51.8046875)"/>
<path d="M0 0 C4.41141001 -0.06924888 8.82089937 -0.12886267 13.23242188 -0.16479492 C14.72988307 -0.17978888 16.22730105 -0.20019105 17.72460938 -0.22631836 C36.63480093 -0.54779162 36.63480093 -0.54779162 44.25 6.1875 C44.87390625 6.71730469 45.4978125 7.24710938 46.140625 7.79296875 C52.36858693 15.18540256 52.60438951 22.0091757 52.56640625 31.3359375 C52.57260483 32.61046783 52.57880341 33.88499817 52.58518982 35.19815063 C52.59227473 37.88656988 52.59110099 40.57348276 52.57641602 43.26171875 C52.55925615 46.68018673 52.58270845 50.09696922 52.61790562 53.51524925 C52.64535076 56.80966275 52.6351315 60.10394212 52.62890625 63.3984375 C52.64216446 64.61228119 52.65542267 65.82612488 52.66908264 67.07675171 C52.57733136 75.5295917 51.10927969 82.52926201 45.24464417 88.90975952 C38.98428281 94.81488835 32.58004925 96.46033105 24.22265625 96.29296875 C23.00563271 96.28660149 23.00563271 96.28660149 21.76402283 96.28010559 C19.19649744 96.26343867 16.62978436 96.22581048 14.0625 96.1875 C12.31186037 96.1724376 10.56120832 96.15875193 8.81054688 96.14648438 C4.53980702 96.11613805 0.27080259 96.05739755 -4 96 C-2.68 90.72 -1.36 85.44 0 80 C2.11921875 79.95101562 4.2384375 79.90203125 6.421875 79.8515625 C8.48053886 79.79750976 10.539089 79.7402193 12.59765625 79.68261719 C14.02530398 79.64439976 15.45304563 79.60953428 16.88085938 79.578125 C18.93653868 79.53231599 20.99157554 79.4743502 23.046875 79.4140625 C24.28276367 79.3826416 25.51865234 79.3512207 26.79199219 79.31884766 C29.79427147 79.0204476 31.56097036 78.74038738 34 77 C35.00130279 73.99609163 35.13233868 71.98108328 35.14526367 68.84179688 C35.15164352 67.79060669 35.15802338 66.7394165 35.16459656 65.65637207 C35.16570938 64.52195679 35.1668222 63.3875415 35.16796875 62.21875 C35.17129715 61.05371948 35.17462555 59.88868896 35.17805481 58.68835449 C35.18312018 56.22371821 35.18546326 53.75907507 35.18530273 51.29443359 C35.18749121 47.51518531 35.20565678 43.73622794 35.22460938 39.95703125 C35.22754291 37.56510517 35.22952797 35.1731777 35.23046875 32.78125 C35.23765427 31.64683472 35.24483978 30.51241943 35.25224304 29.34362793 C35.2476281 27.76684265 35.2476281 27.76684265 35.24291992 26.15820312 C35.24434494 25.23237427 35.24576996 24.30654541 35.24723816 23.35266113 C35.1558967 20.73041773 35.1558967 20.73041773 33 18 C29.57117059 16.85705686 26.75917162 16.79035528 23.14453125 16.68359375 C22.48289474 16.66281265 21.82125824 16.64203156 21.13957214 16.62062073 C19.03065148 16.55535273 16.92160865 16.49634656 14.8125 16.4375 C13.38084685 16.39429311 11.94920596 16.35067812 10.51757812 16.30664062 C7.01184204 16.19892815 3.50601025 16.09968692 0 16 C0 10.72 0 5.44 0 0 Z " fill="#F7AB2F" transform="translate(324,52)"/>
<path d="M0 0 C8.58 0 17.16 0 26 0 C30.62 18.48 35.24 36.96 40 56 C22.18 56 4.36 56 -14 56 C-9.38862177 35.24879798 -9.38862177 35.24879798 -7.67578125 28.4375 C-7.48404831 27.66865479 -7.29231537 26.89980957 -7.09477234 26.10766602 C-6.70031885 24.52852065 -6.30473398 22.94965741 -5.90795898 21.37109375 C-5.29898765 18.94619438 -4.69522386 16.52003437 -4.09179688 14.09375 C-3.70342771 12.54159089 -3.31476763 10.98950454 -2.92578125 9.4375 C-2.74662674 8.7168335 -2.56747223 7.99616699 -2.38288879 7.25366211 C-1.11504439 2.23008878 -1.11504439 2.23008878 0 0 Z " fill="#F7AB2F" transform="translate(243,180)"/>
<path d="M0 0 C4.55555556 0.55555556 4.55555556 0.55555556 6 2 C6.10203772 4.32306689 6.13888239 6.61655625 6.13371277 8.94029236 C6.13597833 9.67477508 6.13824388 10.40925779 6.14057809 11.16599756 C6.14694647 13.64575556 6.14608692 16.1254593 6.14526367 18.60522461 C6.14825339 20.37550427 6.15165548 22.14578327 6.15544128 23.9160614 C6.16430442 28.7383002 6.16662036 33.56052128 6.16725707 38.38276744 C6.16820422 42.4014068 6.17188025 46.42004199 6.17542917 50.43867975 C6.18358248 59.91574632 6.1860126 69.39280338 6.18530273 78.86987305 C6.18470167 88.66227095 6.19525716 98.45461381 6.2110464 108.24699777 C6.22409982 116.64018831 6.22948756 125.0333608 6.22884732 133.42656142 C6.22859169 138.4456736 6.23147861 143.46473691 6.24202538 148.48383904 C6.25166951 153.20252965 6.25181103 157.92112429 6.24450874 162.63981819 C6.2434583 164.37570459 6.24585282 166.11159685 6.2518692 167.84747314 C6.25952755 170.20933823 6.25498568 172.57086674 6.24723816 174.932724 C6.25238172 175.62658689 6.25752529 176.32044978 6.26282471 177.03533882 C6.22827126 181.77172874 6.22827126 181.77172874 4 184 C-0.55555556 183.44444444 -0.55555556 183.44444444 -2 182 C-2.10203772 179.67693311 -2.13888239 177.38344375 -2.13371277 175.05970764 C-2.13597833 174.32522492 -2.13824388 173.59074221 -2.14057809 172.83400244 C-2.14694647 170.35424444 -2.14608692 167.8745407 -2.14526367 165.39477539 C-2.14825339 163.62449573 -2.15165548 161.85421673 -2.15544128 160.0839386 C-2.16430442 155.2616998 -2.16662036 150.43947872 -2.16725707 145.61723256 C-2.16820422 141.5985932 -2.17188025 137.57995801 -2.17542917 133.56132025 C-2.18358248 124.08425368 -2.1860126 114.60719662 -2.18530273 105.13012695 C-2.18470167 95.33772905 -2.19525716 85.54538619 -2.2110464 75.75300223 C-2.22409982 67.35981169 -2.22948756 58.9666392 -2.22884732 50.57343858 C-2.22859169 45.5543264 -2.23147861 40.53526309 -2.24202538 35.51616096 C-2.25166951 30.79747035 -2.25181103 26.07887571 -2.24450874 21.36018181 C-2.2434583 19.62429541 -2.24585282 17.88840315 -2.2518692 16.15252686 C-2.25952755 13.79066177 -2.25498568 11.42913326 -2.24723816 9.067276 C-2.25238172 8.37341311 -2.25752529 7.67955022 -2.26282471 6.96466118 C-2.22827126 2.22827126 -2.22827126 2.22827126 0 0 Z " fill="#005B8A" transform="translate(334,284)"/>
<path d="M0 0 C4.55555556 0.55555556 4.55555556 0.55555556 6 2 C6.10203772 4.32306689 6.13888239 6.61655625 6.13371277 8.94029236 C6.13597833 9.67477508 6.13824388 10.40925779 6.14057809 11.16599756 C6.14694647 13.64575556 6.14608692 16.1254593 6.14526367 18.60522461 C6.14825339 20.37550427 6.15165548 22.14578327 6.15544128 23.9160614 C6.16430442 28.7383002 6.16662036 33.56052128 6.16725707 38.38276744 C6.16820422 42.4014068 6.17188025 46.42004199 6.17542917 50.43867975 C6.18358248 59.91574632 6.1860126 69.39280338 6.18530273 78.86987305 C6.18470167 88.66227095 6.19525716 98.45461381 6.2110464 108.24699777 C6.22409982 116.64018831 6.22948756 125.0333608 6.22884732 133.42656142 C6.22859169 138.4456736 6.23147861 143.46473691 6.24202538 148.48383904 C6.25166951 153.20252965 6.25181103 157.92112429 6.24450874 162.63981819 C6.2434583 164.37570459 6.24585282 166.11159685 6.2518692 167.84747314 C6.25952755 170.20933823 6.25498568 172.57086674 6.24723816 174.932724 C6.25238172 175.62658689 6.25752529 176.32044978 6.26282471 177.03533882 C6.22827126 181.77172874 6.22827126 181.77172874 4 184 C-0.55555556 183.44444444 -0.55555556 183.44444444 -2 182 C-2.10203772 179.67693311 -2.13888239 177.38344375 -2.13371277 175.05970764 C-2.13597833 174.32522492 -2.13824388 173.59074221 -2.14057809 172.83400244 C-2.14694647 170.35424444 -2.14608692 167.8745407 -2.14526367 165.39477539 C-2.14825339 163.62449573 -2.15165548 161.85421673 -2.15544128 160.0839386 C-2.16430442 155.2616998 -2.16662036 150.43947872 -2.16725707 145.61723256 C-2.16820422 141.5985932 -2.17188025 137.57995801 -2.17542917 133.56132025 C-2.18358248 124.08425368 -2.1860126 114.60719662 -2.18530273 105.13012695 C-2.18470167 95.33772905 -2.19525716 85.54538619 -2.2110464 75.75300223 C-2.22409982 67.35981169 -2.22948756 58.9666392 -2.22884732 50.57343858 C-2.22859169 45.5543264 -2.23147861 40.53526309 -2.24202538 35.51616096 C-2.25166951 30.79747035 -2.25181103 26.07887571 -2.24450874 21.36018181 C-2.2434583 19.62429541 -2.24585282 17.88840315 -2.2518692 16.15252686 C-2.25952755 13.79066177 -2.25498568 11.42913326 -2.24723816 9.067276 C-2.25238172 8.37341311 -2.25752529 7.67955022 -2.26282471 6.96466118 C-2.22827126 2.22827126 -2.22827126 2.22827126 0 0 Z " fill="#1D96C5" transform="translate(222,284)"/>
<path d="M0 0 C0.66 0 1.32 0 2 0 C2.2928186 1.05912598 2.2928186 1.05912598 2.59155273 2.13964844 C3.50321947 5.35493235 4.46945993 8.5512589 5.4375 11.75 C5.74365234 12.86117187 6.04980469 13.97234375 6.36523438 15.1171875 C8.08257848 21.03915103 8.08257848 21.03915103 12.01000977 25.56152344 C14.31886471 26.61084502 16.55301551 27.34056143 19 28 C20.38865029 28.48934452 21.77548328 28.98388678 23.16015625 29.484375 C24.45939086 29.91098935 25.76016735 30.33293879 27.0625 30.75 C27.73732422 30.97042969 28.41214844 31.19085938 29.10742188 31.41796875 C30.73689813 31.94957093 32.36824605 32.47543088 34 33 C34 33.66 34 34.32 34 35 C33.32420898 35.1952124 32.64841797 35.3904248 31.95214844 35.59155273 C28.87258581 36.50373167 25.81252021 37.46971434 22.75 38.4375 C21.68652344 38.74365234 20.62304688 39.04980469 19.52734375 39.36523438 C13.80443618 41.12193209 13.80443618 41.12193209 9.46972656 45.01000977 C8.4212871 47.31692374 7.67592442 49.55952778 7 52 C6.50952387 53.38825101 6.01493383 54.77505756 5.515625 56.16015625 C5.08901065 57.45939086 4.66706121 58.76016735 4.25 60.0625 C4.02957031 60.73732422 3.80914062 61.41214844 3.58203125 62.10742188 C3.05042907 63.73689813 2.52456912 65.36824605 2 67 C1.34 67 0.68 67 0 67 C-0.18997559 66.32420898 -0.37995117 65.64841797 -0.57568359 64.95214844 C-1.46742027 61.87102622 -2.42014508 58.81212095 -3.375 55.75 C-3.67277344 54.68652344 -3.97054688 53.62304688 -4.27734375 52.52734375 C-6.0714988 46.68657915 -6.0714988 46.68657915 -10.23486328 42.46972656 C-12.80180838 41.42916627 -15.31622834 40.67844446 -18 40 C-19.42296873 39.51594578 -20.84261387 39.02194636 -22.2578125 38.515625 C-23.54583268 38.09057834 -24.83488024 37.6686307 -26.125 37.25 C-27.13046875 36.91935547 -27.13046875 36.91935547 -28.15625 36.58203125 C-29.76989809 36.05183259 -31.38480779 35.52547587 -33 35 C-33 34.34 -33 33.68 -33 33 C-32.29391602 32.81002441 -31.58783203 32.62004883 -30.86035156 32.42431641 C-27.64356656 31.53311569 -24.44836144 30.58011709 -21.25 29.625 C-20.13882812 29.32722656 -19.02765625 29.02945313 -17.8828125 28.72265625 C-11.84201156 26.97125671 -11.84201156 26.97125671 -7.43847656 22.76513672 C-6.39720274 20.19643142 -5.66160334 17.68973868 -5 15 C-4.51707166 13.57664878 -4.02314439 12.15695694 -3.515625 10.7421875 C-3.09057834 9.45416732 -2.6686307 8.16511976 -2.25 6.875 C-2.02957031 6.2046875 -1.80914062 5.534375 -1.58203125 4.84375 C-1.05183259 3.23010191 -0.52547587 1.61519221 0 0 Z " fill="#DDDDDD" transform="translate(415,190)"/>
<path d="M0 0 C0.66 0 1.32 0 2 0 C2.2928186 1.05912598 2.2928186 1.05912598 2.59155273 2.13964844 C3.50321947 5.35493235 4.46945993 8.5512589 5.4375 11.75 C5.74365234 12.86117187 6.04980469 13.97234375 6.36523438 15.1171875 C8.08257848 21.03915103 8.08257848 21.03915103 12.01000977 25.56152344 C14.31886471 26.61084502 16.55301551 27.34056143 19 28 C20.38865029 28.48934452 21.77548328 28.98388678 23.16015625 29.484375 C24.45939086 29.91098935 25.76016735 30.33293879 27.0625 30.75 C27.73732422 30.97042969 28.41214844 31.19085938 29.10742188 31.41796875 C30.73689813 31.94957093 32.36824605 32.47543088 34 33 C34 33.66 34 34.32 34 35 C33.32420898 35.1952124 32.64841797 35.3904248 31.95214844 35.59155273 C28.87258581 36.50373167 25.81252021 37.46971434 22.75 38.4375 C21.68652344 38.74365234 20.62304688 39.04980469 19.52734375 39.36523438 C13.80443618 41.12193209 13.80443618 41.12193209 9.46972656 45.01000977 C8.4212871 47.31692374 7.67592442 49.55952778 7 52 C6.50952387 53.38825101 6.01493383 54.77505756 5.515625 56.16015625 C5.08901065 57.45939086 4.66706121 58.76016735 4.25 60.0625 C4.02957031 60.73732422 3.80914062 61.41214844 3.58203125 62.10742188 C3.05042907 63.73689813 2.52456912 65.36824605 2 67 C1.34 67 0.68 67 0 67 C-0.18997559 66.32420898 -0.37995117 65.64841797 -0.57568359 64.95214844 C-1.46742027 61.87102622 -2.42014508 58.81212095 -3.375 55.75 C-3.67277344 54.68652344 -3.97054687 53.62304688 -4.27734375 52.52734375 C-6.0714988 46.68657915 -6.0714988 46.68657915 -10.23486328 42.46972656 C-12.80180838 41.42916627 -15.31622834 40.67844446 -18 40 C-19.42296873 39.51594578 -20.84261387 39.02194636 -22.2578125 38.515625 C-23.54583268 38.09057834 -24.83488024 37.6686307 -26.125 37.25 C-27.13046875 36.91935547 -27.13046875 36.91935547 -28.15625 36.58203125 C-29.76989809 36.05183259 -31.38480779 35.52547587 -33 35 C-33 34.34 -33 33.68 -33 33 C-32.29391602 32.81002441 -31.58783203 32.62004883 -30.86035156 32.42431641 C-27.64356656 31.53311569 -24.44836144 30.58011709 -21.25 29.625 C-20.13882813 29.32722656 -19.02765625 29.02945313 -17.8828125 28.72265625 C-11.84201156 26.97125671 -11.84201156 26.97125671 -7.43847656 22.76513672 C-6.39720274 20.19643142 -5.66160334 17.68973868 -5 15 C-4.51707166 13.57664878 -4.02314439 12.15695694 -3.515625 10.7421875 C-3.09057834 9.45416732 -2.6686307 8.16511976 -2.25 6.875 C-2.02957031 6.2046875 -1.80914062 5.534375 -1.58203125 4.84375 C-1.05183259 3.23010191 -0.52547587 1.61519221 0 0 Z " fill="#DDDDDD" transform="translate(95,190)"/>
<path d="M0 0 C2.03704353 -0.0096611 4.07305876 -0.04064896 6.10986328 -0.07226562 C7.39763672 -0.07742188 8.68541016 -0.08257812 10.01220703 -0.08789062 C11.7857959 -0.10190918 11.7857959 -0.10190918 13.59521484 -0.11621094 C18.32147258 0.4079714 20.6756126 2.17966116 24.09057617 5.375 C26.46807613 9.33896356 26.36802513 12.5435065 26.30517578 17.08398438 C26.30663101 17.93069702 26.30808624 18.77740967 26.30958557 19.64978027 C26.30792999 21.43501232 26.29640686 23.22025913 26.27563477 25.00537109 C26.24667573 27.73141364 26.25503331 30.45551028 26.26806641 33.18164062 C26.26182847 34.91993129 26.2534371 36.65821583 26.24267578 38.39648438 C26.24561142 39.20807007 26.24854706 40.01965576 26.25157166 40.85583496 C26.15879642 46.446068 25.00679687 49.67623373 21.30908203 53.99023438 C16.81746011 57.73325265 9.7873056 56.4261961 4.30249023 56.42553711 C2.25044214 56.42773025 0.19892615 56.44591928 -1.85302734 56.46484375 C-3.7856543 56.46774414 -3.7856543 56.46774414 -5.75732422 56.47070312 C-6.94269775 56.47481201 -8.12807129 56.4789209 -9.34936523 56.4831543 C-12.19091797 56.24023438 -12.19091797 56.24023438 -14.19091797 54.24023438 C-13.63536241 49.68467882 -13.63536241 49.68467882 -12.19091797 48.24023438 C-10.13147418 48.09399276 -8.06734565 48.01281601 -6.00341797 47.95898438 C-4.74787109 47.92160156 -3.49232422 47.88421875 -2.19873047 47.84570312 C-0.19061994 47.79202876 1.8175298 47.74001551 3.82568359 47.68798828 C5.75775675 47.63634631 7.68967496 47.57900522 9.62158203 47.52148438 C10.78302734 47.49119141 11.94447266 47.46089844 13.14111328 47.4296875 C15.7289774 47.53875401 15.7289774 47.53875401 16.80908203 46.24023438 C17.04435976 43.89036175 17.2229462 41.53467399 17.37158203 39.17773438 C17.45537109 37.88738281 17.53916016 36.59703125 17.62548828 35.26757812 C17.71636719 33.76904297 17.71636719 33.76904297 17.80908203 32.24023438 C16.9107666 32.25070801 16.01245117 32.26118164 15.08691406 32.27197266 C11.75843756 32.30602908 8.43014581 32.33112056 5.1015625 32.35009766 C3.66012656 32.360164 2.21871108 32.37381818 0.77734375 32.39111328 C-1.2928573 32.41533449 -3.36278873 32.42671079 -5.43310547 32.43554688 C-7.30264893 32.45125732 -7.30264893 32.45125732 -9.20996094 32.46728516 C-12.19091797 32.24023438 -12.19091797 32.24023438 -14.19091797 30.24023438 C-13.63536241 25.68467882 -13.63536241 25.68467882 -12.19091797 24.24023438 C-9.97236533 24.15239896 -7.75103301 24.13328829 -5.53076172 24.14257812 C-4.53406212 24.14470055 -4.53406212 24.14470055 -3.51722717 24.14686584 C-1.38757898 24.15247919 0.74196543 24.16503384 2.87158203 24.17773438 C4.31233573 24.18274766 5.75309106 24.18731086 7.19384766 24.19140625 C10.73229305 24.20245293 14.27067742 24.21972646 17.80908203 24.24023438 C17.6688192 21.92738982 17.52172645 19.61495847 17.37158203 17.30273438 C17.29037109 16.01496094 17.20916016 14.7271875 17.12548828 13.40039062 C17.15989015 10.37999481 17.15989015 10.37999481 15.80908203 9.24023438 C13.76104292 9.10618708 11.70871926 9.03664871 9.65673828 8.99414062 C7.78018555 8.94483398 7.78018555 8.94483398 5.86572266 8.89453125 C3.20695342 8.83342506 0.54809401 8.77612182 -2.11083984 8.72265625 C-3.36316406 8.68849609 -4.61548828 8.65433594 -5.90576172 8.61914062 C-7.64007446 8.5815564 -7.64007446 8.5815564 -9.40942383 8.54321289 C-12.19091797 8.24023438 -12.19091797 8.24023438 -14.19091797 6.24023438 C-13.15554322 -2.24983857 -7.34607801 0.02111448 0 0 Z " fill="#222B42" transform="translate(410.19091796875,387.759765625)"/>
<path d="M0 0 C2.03704353 -0.0096611 4.07305876 -0.04064896 6.10986328 -0.07226562 C7.39763672 -0.07742188 8.68541016 -0.08257812 10.01220703 -0.08789062 C11.7857959 -0.10190918 11.7857959 -0.10190918 13.59521484 -0.11621094 C18.25631624 0.40074501 20.78617739 2.24705517 24.09423828 5.45898438 C26.32014781 9.06911555 26.30982743 11.5238745 26.24658203 15.74023438 C26.24529297 17.02929688 26.24400391 18.31835938 26.24267578 19.64648438 C25.64599658 24.59193358 23.63077746 28.05548819 19.80908203 31.24023438 C16.95078485 32.1930001 14.93659263 32.41626819 11.95751953 32.52148438 C11.02423828 32.55886719 10.09095703 32.59625 9.12939453 32.63476562 C7.15805035 32.70535753 5.18669607 32.77566782 3.21533203 32.84570312 C2.28462891 32.88308594 1.35392578 32.92046875 0.39501953 32.95898438 C-0.46043457 32.98927734 -1.31588867 33.01957031 -2.19726562 33.05078125 C-4.18955049 33.02651962 -4.18955049 33.02651962 -5.19091797 34.24023438 C-5.28965613 36.23823009 -5.32063596 38.23980596 -5.31591797 40.24023438 C-5.31849609 41.33335937 -5.32107422 42.42648437 -5.32373047 43.55273438 C-5.49639552 46.15853792 -5.49639552 46.15853792 -4.19091797 47.24023438 C-2.14287886 47.37428167 -0.09055519 47.44382004 1.96142578 47.48632812 C3.21246094 47.51919922 4.46349609 47.55207031 5.75244141 47.5859375 C8.41121064 47.64704369 11.07007005 47.70434693 13.72900391 47.7578125 C15.60749023 47.80905273 15.60749023 47.80905273 17.52392578 47.86132812 C19.25823853 47.89891235 19.25823853 47.89891235 21.02758789 47.93725586 C23.80908203 48.24023438 23.80908203 48.24023438 25.80908203 50.24023438 C25.25352648 54.79578993 25.25352648 54.79578993 23.80908203 56.24023438 C19.64455817 56.55561683 15.47612842 56.59716507 11.30078125 56.64526367 C9.90013836 56.66674989 8.49962632 56.70074196 7.09960938 56.74780273 C-6.00837655 57.18432135 -6.00837655 57.18432135 -10.58935547 53.40039062 C-14.85284218 48.97662763 -14.57434017 43.82242582 -14.65722656 37.94873047 C-14.57234652 33.73233975 -14.0804757 31.0804621 -11.31591797 27.86523438 C-8.01251742 24.75333531 -5.72488217 24.10986046 -1.21826172 23.95898438 C-0.23664063 23.92160156 0.74498047 23.88421875 1.75634766 23.84570312 C3.83707235 23.77525853 5.91780155 23.70494652 7.99853516 23.63476562 C8.97886719 23.59738281 9.95919922 23.56 10.96923828 23.52148438 C12.32480835 23.47604492 12.32480835 23.47604492 13.70776367 23.4296875 C15.79518491 23.46771671 15.79518491 23.46771671 16.80908203 22.24023438 C16.90782019 20.24223866 16.93880002 18.24066279 16.93408203 16.24023438 C16.93666016 15.14710938 16.93923828 14.05398438 16.94189453 12.92773438 C17.11455958 10.32193083 17.11455958 10.32193083 15.80908203 9.24023438 C13.76104292 9.10618708 11.70871926 9.03664871 9.65673828 8.99414062 C7.78018555 8.94483398 7.78018555 8.94483398 5.86572266 8.89453125 C3.20695342 8.83342506 0.54809401 8.77612182 -2.11083984 8.72265625 C-3.36316406 8.68849609 -4.61548828 8.65433594 -5.90576172 8.61914062 C-7.64007446 8.5815564 -7.64007446 8.5815564 -9.40942383 8.54321289 C-12.19091797 8.24023438 -12.19091797 8.24023438 -14.19091797 6.24023438 C-13.15554322 -2.24983857 -7.34607801 0.02111448 0 0 Z " fill="#222B42" transform="translate(138.19091796875,387.759765625)"/>
<path d="M0 0 C1.39895508 -0.01836914 1.39895508 -0.01836914 2.82617188 -0.03710938 C4.16325195 -0.04000977 4.16325195 -0.04000977 5.52734375 -0.04296875 C6.348396 -0.04707764 7.16944824 -0.05118652 8.01538086 -0.05541992 C10.0625 0.1875 10.0625 0.1875 12.0625 2.1875 C12.30300903 4.7817688 12.30300903 4.7817688 12.28955078 8.10595703 C12.28939972 9.34709259 12.28924866 10.58822815 12.28909302 11.86697388 C12.278879 13.2264217 12.268447 14.5858679 12.2578125 15.9453125 C12.25408284 17.33250729 12.25123565 18.71970471 12.24923706 20.10690308 C12.24159684 23.75990051 12.22194516 27.41273917 12.1998291 31.06567383 C12.17937896 34.79245862 12.17023713 38.51926904 12.16015625 42.24609375 C12.13869951 49.55996825 12.10455903 56.87371189 12.0625 64.1875 C13.04992187 64.16429687 14.03734375 64.14109375 15.0546875 64.1171875 C16.33601563 64.09914063 17.61734375 64.08109375 18.9375 64.0625 C20.21367187 64.03929687 21.48984375 64.01609375 22.8046875 63.9921875 C26.0625 64.1875 26.0625 64.1875 28.0625 66.1875 C27.50694444 70.74305556 27.50694444 70.74305556 26.0625 72.1875 C23.41963726 72.30086626 20.80388544 72.35167761 18.16015625 72.35546875 C17.36725693 72.35879715 16.5743576 72.36212555 15.75743103 72.36555481 C14.07698142 72.37062726 12.39652171 72.37296304 10.71606445 72.37280273 C8.13931741 72.37498786 5.56299924 72.39313609 2.98632812 72.41210938 C1.3567723 72.41504345 -0.27278556 72.41702815 -1.90234375 72.41796875 C-3.06333839 72.42874702 -3.06333839 72.42874702 -4.24778748 72.43974304 C-9.70867747 72.41632253 -9.70867747 72.41632253 -11.9375 70.1875 C-11.38194444 65.63194444 -11.38194444 65.63194444 -9.9375 64.1875 C-5.3175 64.1875 -0.6975 64.1875 4.0625 64.1875 C4.0625 45.7075 4.0625 27.2275 4.0625 8.1875 C-0.5575 8.1875 -5.1775 8.1875 -9.9375 8.1875 C-10.5975 7.5275 -11.2575 6.8675 -11.9375 6.1875 C-10.98106887 -1.6552353 -6.84894087 0.00471366 0 0 Z " fill="#202A41" transform="translate(271.9375,339.8125)"/>
<path d="M0 0 C4.55555556 0.55555556 4.55555556 0.55555556 6 2 C6.10600402 5.09434238 6.14677455 8.16648831 6.14526367 11.26147461 C6.15030159 12.71991035 6.15030159 12.71991035 6.15544128 14.20780945 C6.16498262 17.43933368 6.16689597 20.67080629 6.16796875 23.90234375 C6.17117907 26.13814821 6.17454296 28.37395246 6.17805481 30.60975647 C6.18405402 35.30323779 6.18589389 39.99670066 6.18530273 44.69018555 C6.18520105 50.71764108 6.19885576 56.74497896 6.21607494 62.77240658 C6.22716883 67.39193774 6.22922275 72.01144023 6.22869301 76.63098335 C6.22987698 78.85383065 6.23432192 81.0766786 6.24202538 83.29951286 C6.25177292 86.40280377 6.24896804 89.5058362 6.24291992 92.60913086 C6.24853943 93.53544312 6.25415894 94.46175537 6.25994873 95.4161377 C6.25575424 96.25885727 6.25155975 97.10157684 6.24723816 97.96983337 C6.24778293 98.70412536 6.24832769 99.43841734 6.24888897 100.19496059 C6 102 6 102 4 104 C-0.55555556 103.44444444 -0.55555556 103.44444444 -2 102 C-2.10600402 98.90565762 -2.14677455 95.83351169 -2.14526367 92.73852539 C-2.14862228 91.76623489 -2.1519809 90.7939444 -2.15544128 89.79219055 C-2.16498262 86.56066632 -2.16689597 83.32919371 -2.16796875 80.09765625 C-2.17117907 77.86185179 -2.17454296 75.62604754 -2.17805481 73.39024353 C-2.18405402 68.69676221 -2.18589389 64.00329934 -2.18530273 59.30981445 C-2.18520105 53.28235892 -2.19885576 47.25502104 -2.21607494 41.22759342 C-2.22716883 36.60806226 -2.22922275 31.98855977 -2.22869301 27.36901665 C-2.22987698 25.14616935 -2.23432192 22.9233214 -2.24202538 20.70048714 C-2.25177292 17.59719623 -2.24896804 14.4941638 -2.24291992 11.39086914 C-2.24853943 10.46455688 -2.25415894 9.53824463 -2.25994873 8.5838623 C-2.25575424 7.74114273 -2.25155975 6.89842316 -2.24723816 6.03016663 C-2.24805531 4.92872865 -2.24805531 4.92872865 -2.24888897 3.80503941 C-2 2 -2 2 0 0 Z " fill="#99A2B9" transform="translate(462,364)"/>
<path d="M0 0 C4.55555556 0.55555556 4.55555556 0.55555556 6 2 C6.10600402 5.09434238 6.14677455 8.16648831 6.14526367 11.26147461 C6.15030159 12.71991035 6.15030159 12.71991035 6.15544128 14.20780945 C6.16498262 17.43933368 6.16689597 20.67080629 6.16796875 23.90234375 C6.17117907 26.13814821 6.17454296 28.37395246 6.17805481 30.60975647 C6.18405402 35.30323779 6.18589389 39.99670066 6.18530273 44.69018555 C6.18520105 50.71764108 6.19885576 56.74497896 6.21607494 62.77240658 C6.22716883 67.39193774 6.22922275 72.01144023 6.22869301 76.63098335 C6.22987698 78.85383065 6.23432192 81.0766786 6.24202538 83.29951286 C6.25177292 86.40280377 6.24896804 89.5058362 6.24291992 92.60913086 C6.24853943 93.53544312 6.25415894 94.46175537 6.25994873 95.4161377 C6.25575424 96.25885727 6.25155975 97.10157684 6.24723816 97.96983337 C6.24778293 98.70412536 6.24832769 99.43841734 6.24888897 100.19496059 C6 102 6 102 4 104 C-0.55555556 103.44444444 -0.55555556 103.44444444 -2 102 C-2.10600402 98.90565762 -2.14677455 95.83351169 -2.14526367 92.73852539 C-2.14862228 91.76623489 -2.1519809 90.7939444 -2.15544128 89.79219055 C-2.16498262 86.56066632 -2.16689597 83.32919371 -2.16796875 80.09765625 C-2.17117907 77.86185179 -2.17454296 75.62604754 -2.17805481 73.39024353 C-2.18405402 68.69676221 -2.18589389 64.00329934 -2.18530273 59.30981445 C-2.18520105 53.28235892 -2.19885576 47.25502104 -2.21607494 41.22759342 C-2.22716883 36.60806226 -2.22922275 31.98855977 -2.22869301 27.36901665 C-2.22987698 25.14616935 -2.23432192 22.9233214 -2.24202538 20.70048714 C-2.25177292 17.59719623 -2.24896804 14.4941638 -2.24291992 11.39086914 C-2.24853943 10.46455688 -2.25415894 9.53824463 -2.25994873 8.5838623 C-2.25575424 7.74114273 -2.25155975 6.89842316 -2.24723816 6.03016663 C-2.24805531 4.92872865 -2.24805531 4.92872865 -2.24888897 3.80503941 C-2 2 -2 2 0 0 Z " fill="#D4DDF4" transform="translate(366,364)"/>
<path d="M0 0 C4.55555556 0.55555556 4.55555556 0.55555556 6 2 C6.10600402 5.09434238 6.14677455 8.16648831 6.14526367 11.26147461 C6.15030159 12.71991035 6.15030159 12.71991035 6.15544128 14.20780945 C6.16498262 17.43933368 6.16689597 20.67080629 6.16796875 23.90234375 C6.17117907 26.13814821 6.17454296 28.37395246 6.17805481 30.60975647 C6.18405402 35.30323779 6.18589389 39.99670066 6.18530273 44.69018555 C6.18520105 50.71764108 6.19885576 56.74497896 6.21607494 62.77240658 C6.22716883 67.39193774 6.22922275 72.01144023 6.22869301 76.63098335 C6.22987698 78.85383065 6.23432192 81.0766786 6.24202538 83.29951286 C6.25177292 86.40280377 6.24896804 89.5058362 6.24291992 92.60913086 C6.24853943 93.53544312 6.25415894 94.46175537 6.25994873 95.4161377 C6.25575424 96.25885727 6.25155975 97.10157684 6.24723816 97.96983337 C6.24778293 98.70412536 6.24832769 99.43841734 6.24888897 100.19496059 C6 102 6 102 4 104 C-0.55555556 103.44444444 -0.55555556 103.44444444 -2 102 C-2.10600402 98.90565762 -2.14677455 95.83351169 -2.14526367 92.73852539 C-2.14862228 91.76623489 -2.1519809 90.7939444 -2.15544128 89.79219055 C-2.16498262 86.56066632 -2.16689597 83.32919371 -2.16796875 80.09765625 C-2.17117907 77.86185179 -2.17454296 75.62604754 -2.17805481 73.39024353 C-2.18405402 68.69676221 -2.18589389 64.00329934 -2.18530273 59.30981445 C-2.18520105 53.28235892 -2.19885576 47.25502104 -2.21607494 41.22759342 C-2.22716883 36.60806226 -2.22922275 31.98855977 -2.22869301 27.36901665 C-2.22987698 25.14616935 -2.23432192 22.9233214 -2.24202538 20.70048714 C-2.25177292 17.59719623 -2.24896804 14.4941638 -2.24291992 11.39086914 C-2.24853943 10.46455688 -2.25415894 9.53824463 -2.25994873 8.5838623 C-2.25575424 7.74114273 -2.25155975 6.89842316 -2.24723816 6.03016663 C-2.24805531 4.92872865 -2.24805531 4.92872865 -2.24888897 3.80503941 C-2 2 -2 2 0 0 Z " fill="#99A2B9" transform="translate(190,364)"/>
<path d="M0 0 C4.55555556 0.55555556 4.55555556 0.55555556 6 2 C6.10600402 5.09434238 6.14677455 8.16648831 6.14526367 11.26147461 C6.15030159 12.71991035 6.15030159 12.71991035 6.15544128 14.20780945 C6.16498262 17.43933368 6.16689597 20.67080629 6.16796875 23.90234375 C6.17117907 26.13814821 6.17454296 28.37395246 6.17805481 30.60975647 C6.18405402 35.30323779 6.18589389 39.99670066 6.18530273 44.69018555 C6.18520105 50.71764108 6.19885576 56.74497896 6.21607494 62.77240658 C6.22716883 67.39193774 6.22922275 72.01144023 6.22869301 76.63098335 C6.22987698 78.85383065 6.23432192 81.0766786 6.24202538 83.29951286 C6.25177292 86.40280377 6.24896804 89.5058362 6.24291992 92.60913086 C6.24853943 93.53544312 6.25415894 94.46175537 6.25994873 95.4161377 C6.25575424 96.25885727 6.25155975 97.10157684 6.24723816 97.96983337 C6.24778293 98.70412536 6.24832769 99.43841734 6.24888897 100.19496059 C6 102 6 102 4 104 C-0.55555556 103.44444444 -0.55555556 103.44444444 -2 102 C-2.10600402 98.90565762 -2.14677455 95.83351169 -2.14526367 92.73852539 C-2.14862228 91.76623489 -2.1519809 90.7939444 -2.15544128 89.79219055 C-2.16498262 86.56066632 -2.16689597 83.32919371 -2.16796875 80.09765625 C-2.17117907 77.86185179 -2.17454296 75.62604754 -2.17805481 73.39024353 C-2.18405402 68.69676221 -2.18589389 64.00329934 -2.18530273 59.30981445 C-2.18520105 53.28235892 -2.19885576 47.25502104 -2.21607494 41.22759342 C-2.22716883 36.60806226 -2.22922275 31.98855977 -2.22869301 27.36901665 C-2.22987698 25.14616935 -2.23432192 22.9233214 -2.24202538 20.70048714 C-2.25177292 17.59719623 -2.24896804 14.4941638 -2.24291992 11.39086914 C-2.24853943 10.46455688 -2.25415894 9.53824463 -2.25994873 8.5838623 C-2.25575424 7.74114273 -2.25155975 6.89842316 -2.24723816 6.03016663 C-2.24805531 4.92872865 -2.24805531 4.92872865 -2.24888897 3.80503941 C-2 2 -2 2 0 0 Z " fill="#D4DDF4" transform="translate(94,364)"/>
<path d="M0 0 C4.55555556 0.55555556 4.55555556 0.55555556 6 2 C6.10573328 4.60612081 6.14678075 7.1858777 6.14526367 9.79272461 C6.15030159 11.01707466 6.15030159 11.01707466 6.15544128 12.26615906 C6.16498033 14.97823588 6.16689587 17.69025117 6.16796875 20.40234375 C6.17117926 22.2794243 6.17454317 24.15650459 6.17805481 26.03358459 C6.18405347 29.97381165 6.18589395 33.91401675 6.18530273 37.85424805 C6.18520107 42.91316633 6.19885482 47.9719444 6.21607494 53.03082943 C6.22717161 56.9091914 6.22922266 60.78751923 6.22869301 64.66589546 C6.2298766 66.53148444 6.23431943 68.39707419 6.24202538 70.26264763 C6.25177844 72.8678264 6.24896592 75.47269756 6.24291992 78.07788086 C6.24853943 78.8545813 6.25415894 79.63128174 6.25994873 80.43151855 C6.22831551 85.77168449 6.22831551 85.77168449 4 88 C-0.55555556 87.44444444 -0.55555556 87.44444444 -2 86 C-2.10573328 83.39387919 -2.14678075 80.8141223 -2.14526367 78.20727539 C-2.14862228 77.39104202 -2.1519809 76.57480865 -2.15544128 75.73384094 C-2.16498033 73.02176412 -2.16689587 70.30974883 -2.16796875 67.59765625 C-2.17117926 65.7205757 -2.17454317 63.84349541 -2.17805481 61.96641541 C-2.18405347 58.02618835 -2.18589395 54.08598325 -2.18530273 50.14575195 C-2.18520107 45.08683367 -2.19885482 40.0280556 -2.21607494 34.96917057 C-2.22717161 31.0908086 -2.22922266 27.21248077 -2.22869301 23.33410454 C-2.2298766 21.46851556 -2.23431943 19.60292581 -2.24202538 17.73735237 C-2.25177844 15.1321736 -2.24896592 12.52730244 -2.24291992 9.92211914 C-2.24853943 9.1454187 -2.25415894 8.36871826 -2.25994873 7.56848145 C-2.22831551 2.22831551 -2.22831551 2.22831551 0 0 Z " fill="#DB8E11" transform="translate(302,44)"/>
<path d="M0 0 C4.55555556 0.55555556 4.55555556 0.55555556 6 2 C6.10573328 4.60612081 6.14678075 7.1858777 6.14526367 9.79272461 C6.15030159 11.01707466 6.15030159 11.01707466 6.15544128 12.26615906 C6.16498033 14.97823588 6.16689587 17.69025117 6.16796875 20.40234375 C6.17117926 22.2794243 6.17454317 24.15650459 6.17805481 26.03358459 C6.18405347 29.97381165 6.18589395 33.91401675 6.18530273 37.85424805 C6.18520107 42.91316633 6.19885482 47.9719444 6.21607494 53.03082943 C6.22717161 56.9091914 6.22922266 60.78751923 6.22869301 64.66589546 C6.2298766 66.53148444 6.23431943 68.39707419 6.24202538 70.26264763 C6.25177844 72.8678264 6.24896592 75.47269756 6.24291992 78.07788086 C6.24853943 78.8545813 6.25415894 79.63128174 6.25994873 80.43151855 C6.22831551 85.77168449 6.22831551 85.77168449 4 88 C-0.55555556 87.44444444 -0.55555556 87.44444444 -2 86 C-2.10573328 83.39387919 -2.14678075 80.8141223 -2.14526367 78.20727539 C-2.14862228 77.39104202 -2.1519809 76.57480865 -2.15544128 75.73384094 C-2.16498033 73.02176412 -2.16689587 70.30974883 -2.16796875 67.59765625 C-2.17117926 65.7205757 -2.17454317 63.84349541 -2.17805481 61.96641541 C-2.18405347 58.02618835 -2.18589395 54.08598325 -2.18530273 50.14575195 C-2.18520107 45.08683367 -2.19885482 40.0280556 -2.21607494 34.96917057 C-2.22717161 31.0908086 -2.22922266 27.21248077 -2.22869301 23.33410454 C-2.2298766 21.46851556 -2.23431943 19.60292581 -2.24202538 17.73735237 C-2.25177844 15.1321736 -2.24896592 12.52730244 -2.24291992 9.92211914 C-2.24853943 9.1454187 -2.25415894 8.36871826 -2.25994873 7.56848145 C-2.22831551 2.22831551 -2.22831551 2.22831551 0 0 Z " fill="#FEC94C" transform="translate(206,44)"/>
</svg>
