<?xml version="1.0" encoding="UTF-8"?>
<svg version="1.1" xmlns="http://www.w3.org/2000/svg" width="203" height="146">
<path d="M0 0 C66.99 0 133.98 0 203 0 C203 48.18 203 96.36 203 146 C136.01 146 69.02 146 0 146 C0 97.82 0 49.64 0 0 Z " fill="#FEFEFE" transform="translate(0,0)"/>
<path d="M0 0 C0.495 8.415 0.495 8.415 1 17 C2.8975 17.0825 4.795 17.165 6.75 17.25 C21.93429515 18.43833614 34.64061036 24.92144612 45 36 C54.27185305 48.22910449 57.09843402 60.26550977 55.6796875 75.421875 C53.30063955 87.94605844 44.78723613 99.17035031 34.5 106.375 C20.42396408 115.01090419 3.76027773 117.59772992 -12.4921875 114.2890625 C-14.2789121 113.74958056 -16.06097386 113.19418806 -17.8359375 112.6171875 C-23.11565711 111.11141909 -27.6850305 113.23710892 -32.625 115 C-38.27311074 116.97790983 -43.52159689 117.576816 -49.48046875 117.82421875 C-51.93747933 117.71875309 -51.93747933 117.71875309 -53 119 C-53.23678716 121.69235776 -53.42198025 124.36498156 -53.5625 127.0625 C-53.62727539 128.20041992 -53.62727539 128.20041992 -53.69335938 129.36132812 C-53.79973633 131.24065438 -53.90039934 133.12030244 -54 135 C-58.2295868 133.48433193 -61.92536761 131.35841333 -65.6875 128.9375 C-66.30036865 128.54336914 -66.9132373 128.14923828 -67.54467773 127.74316406 C-73.19778818 124.01921355 -78.15432258 119.72499963 -83 115 C-83.886875 114.154375 -84.77375 113.30875 -85.6875 112.4375 C-86.450625 111.633125 -87.21375 110.82875 -88 110 C-88.54140625 109.4534375 -89.0828125 108.906875 -89.640625 108.34375 C-98.90751143 98.51279222 -104.61362146 85.27920318 -104.4375 71.75 C-104.42992676 70.92443604 -104.42235352 70.09887207 -104.41455078 69.24829102 C-104.01999751 54.44390344 -98.09907989 42.19214994 -87.42578125 32.0390625 C-77.34647798 23.56660468 -66.48150012 19.81990737 -53.5 19.875 C-52.601604 19.86968262 -51.70320801 19.86436523 -50.77758789 19.85888672 C-45.84459959 19.85977515 -41.30101299 20.22790933 -36.4375 21.125 C-32.79205051 21.48040594 -31.47809349 21.32986998 -28.4296875 19.2265625 C-26.62869475 17.52233951 -24.86853863 15.77425076 -23.14453125 13.9921875 C-19.51260055 10.34211529 -15.32063144 7.64231463 -11 4.875 C-10.2572583 4.38999023 -9.5145166 3.90498047 -8.74926758 3.40527344 C-3.39328707 0 -3.39328707 0 0 0 Z " fill="#A9D270" transform="translate(128,7)"/>
<path d="M0 0 C1.33949707 -0.0009668 1.33949707 -0.0009668 2.70605469 -0.00195312 C9.11434033 0.04925729 15.20907774 0.58753832 21.4375 2.1875 C20.90962891 2.86232422 20.90962891 2.86232422 20.37109375 3.55078125 C8.37994593 19.17371275 2.93050365 31.38647605 3.4375 51.1875 C3.705625 50.40375 3.97375 49.62 4.25 48.8125 C5.4375 46.1875 5.4375 46.1875 8.4375 44.1875 C11.57421875 43.9921875 11.57421875 43.9921875 15.125 44.0625 C16.30449219 44.08054688 17.48398438 44.09859375 18.69921875 44.1171875 C19.60285156 44.14039063 20.50648437 44.16359375 21.4375 44.1875 C21.7675 44.8475 22.0975 45.5075 22.4375 46.1875 C23.4275 45.5275 24.4175 44.8675 25.4375 44.1875 C28.3125 43.75 28.3125 43.75 31.4375 44.1875 C34.48319423 46.50487605 36.16931298 47.96575913 37 51.75 C36.2217913 55.12223771 35.31560459 56.2447794 32.4375 58.1875 C29.47543195 58.77752965 27.53524206 58.58086407 24.4375 58.1875 C22.4375 56.5625 22.4375 56.5625 21.4375 54.1875 C21.25 50.9375 21.25 50.9375 21.4375 48.1875 C20.7775 48.1875 20.1175 48.1875 19.4375 48.1875 C19.46070312 48.86296875 19.48390625 49.5384375 19.5078125 50.234375 C19.52585937 51.12640625 19.54390625 52.0184375 19.5625 52.9375 C19.58570312 53.81921875 19.60890625 54.7009375 19.6328125 55.609375 C19.42620725 58.33656426 18.91055841 59.90065408 17.4375 62.1875 C15.03204362 63.39022819 13.48753047 63.28821472 10.8125 63.25 C9.58660156 63.23646484 9.58660156 63.23646484 8.3359375 63.22265625 C7.70945313 63.21105469 7.08296875 63.19945312 6.4375 63.1875 C12.5657033 75.57429391 18.89545365 82.54699044 30.4375 90.1875 C22.92601389 96.37342973 13.39760123 97.61976151 3.95703125 98.01171875 C1.50002067 97.90625309 1.50002067 97.90625309 0.4375 99.1875 C0.20071284 101.87985776 0.01551975 104.55248156 -0.125 107.25 C-0.18977539 108.38791992 -0.18977539 108.38791992 -0.25585938 109.54882812 C-0.36223633 111.42815438 -0.46289934 113.30780244 -0.5625 115.1875 C-4.7920868 113.67183193 -8.48786761 111.54591333 -12.25 109.125 C-12.86286865 108.73086914 -13.4757373 108.33673828 -14.10717773 107.93066406 C-19.76028818 104.20671355 -24.71682258 99.91249963 -29.5625 95.1875 C-30.449375 94.341875 -31.33625 93.49625 -32.25 92.625 C-33.013125 91.820625 -33.77625 91.01625 -34.5625 90.1875 C-35.10390625 89.6409375 -35.6453125 89.094375 -36.203125 88.53125 C-45.47001143 78.70029222 -51.17612146 65.46670318 -51 51.9375 C-50.99242676 51.11193604 -50.98485352 50.28637207 -50.97705078 49.43579102 C-50.58249751 34.63140344 -44.66157989 22.37964994 -33.98828125 12.2265625 C-23.91011674 3.7550619 -12.98706592 -0.00955283 0 0 Z " fill="#61C5C1" transform="translate(74.5625,26.8125)"/>
<path d="M0 0 C9.63228637 0.8756624 18.57634399 8.12263568 24.828125 15.015625 C28.2095862 19.35345906 30.79349233 23.97170847 33 29 C33.4125 29.9075 33.825 30.815 34.25 31.75 C35.41580465 36.80182015 35.15031889 41.83905157 35 47 C34.0409375 47.1546875 34.0409375 47.1546875 33.0625 47.3125 C32.381875 47.539375 31.70125 47.76625 31 48 C30.67 48.99 30.34 49.98 30 51 C29.01 51 28.02 51 27 51 C26.97296619 49.06257659 26.95358875 47.12504521 26.9375 45.1875 C26.92589844 44.10855469 26.91429687 43.02960938 26.90234375 41.91796875 C27 39 27 39 28 36 C25.36 36 22.72 36 20 36 C20.24363281 36.81984375 20.24363281 36.81984375 20.4921875 37.65625 C21.07135992 40.3293535 21.13251118 42.7659306 21.125 45.5 C21.12886719 46.90765625 21.12886719 46.90765625 21.1328125 48.34375 C21 51 21 51 20 55 C24.62 55 29.24 55 34 55 C32.01531559 67.30504336 24.81661127 78.11548717 14.8125 85.625 C11.44704102 87.2703355 10.51314576 87.08056638 7 86 C-2.31366653 79.9955301 -9.61905797 72.16378551 -14 62 C-14 61.34 -14 60.68 -14 60 C-13.37351562 59.93941406 -12.74703125 59.87882812 -12.1015625 59.81640625 C-11.28429687 59.73261719 -10.46703125 59.64882812 -9.625 59.5625 C-8.81289062 59.48128906 -8.00078125 59.40007812 -7.1640625 59.31640625 C-4.95727195 59.10909886 -4.95727195 59.10909886 -3 58 C-2.30662208 54.9600352 -2.30662208 54.9600352 -1.875 51.4375 C-1.70742187 50.23996094 -1.53984375 49.04242188 -1.3671875 47.80859375 C-1.24601562 46.88175781 -1.12484375 45.95492187 -1 45 C-0.34 45 0.32 45 1 45 C1.13277344 45.56589844 1.26554687 46.13179687 1.40234375 46.71484375 C1.66724609 47.81505859 1.66724609 47.81505859 1.9375 48.9375 C2.19853516 50.03384766 2.19853516 50.03384766 2.46484375 51.15234375 C2.83887569 52.99969898 2.83887569 52.99969898 4 54 C9.22414701 54.45491118 9.22414701 54.45491118 14.0625 52.9375 C15.59987081 49.76026699 14.8466463 47.32611047 14 44 C10.51195905 41.67463937 9.09859246 41.66542102 5 42 C2.69769234 42.89831016 2.69769234 42.89831016 1 44 C1 43.01 1 42.02 1 41 C-1.10478604 41.11409682 -3.20884577 41.24165361 -5.3125 41.375 C-7.07013672 41.47941406 -7.07013672 41.47941406 -8.86328125 41.5859375 C-12.15699887 41.78613747 -12.15699887 41.78613747 -15 44 C-15.73343428 47.06556598 -15.73343428 47.06556598 -16 50 C-18.77740541 47.22259459 -18.29964728 45.50652015 -18.3125 41.625 C-18.02894867 25.29577939 -11.56421974 11.56421974 0 0 Z " fill="#40A255" transform="translate(95,30)"/>
<path d="M0 0 C1.75570312 0.04060547 1.75570312 0.04060547 3.546875 0.08203125 C4.43890625 0.11683594 5.3309375 0.15164062 6.25 0.1875 C6.58 0.8475 6.91 1.5075 7.25 2.1875 C8.24 1.5275 9.23 0.8675 10.25 0.1875 C13.125 -0.25 13.125 -0.25 16.25 0.1875 C19.29569423 2.50487605 20.98181298 3.96575913 21.8125 7.75 C21.0342913 11.12223771 20.12810459 12.2447794 17.25 14.1875 C14.28793195 14.77752965 12.34774206 14.58086407 9.25 14.1875 C7.25 12.5625 7.25 12.5625 6.25 10.1875 C6.0625 6.9375 6.0625 6.9375 6.25 4.1875 C5.59 4.1875 4.93 4.1875 4.25 4.1875 C4.27320312 4.86296875 4.29640625 5.5384375 4.3203125 6.234375 C4.34738281 7.57242188 4.34738281 7.57242188 4.375 8.9375 C4.39820312 9.81921875 4.42140625 10.7009375 4.4453125 11.609375 C4.23870725 14.33656426 3.72305841 15.90065408 2.25 18.1875 C-0.89341993 19.75920996 -4.30771451 19.41925783 -7.75 19.1875 C-8.74 18.8575 -9.73 18.5275 -10.75 18.1875 C-10.255 16.7025 -10.255 16.7025 -9.75 15.1875 C-7.44 15.1875 -5.13 15.1875 -2.75 15.1875 C-3.61625 15.06375 -3.61625 15.06375 -4.5 14.9375 C-7.55545009 13.91901664 -8.83676027 12.78403964 -10.75 10.1875 C-11.25 6.625 -11.25 6.625 -10.75 3.1875 C-7.4858367 -0.26680874 -4.58561183 -0.13756835 0 0 Z " fill="#F5FAF6" transform="translate(89.75,70.8125)"/>
<path d="M0 0 C2.31 0 4.62 0 7 0 C7 3.96 7 7.92 7 12 C7.33 10.35 7.66 8.7 8 7 C10.64 7 13.28 7 16 7 C16 8.32 16 9.64 16 11 C15.01 11.66 14.02 12.32 13 13 C13.66 13.5775 14.32 14.155 15 14.75 C17 17 17 17 17 21 C14.36 21 11.72 21 9 21 C9 19.02 9 17.04 9 15 C8.34 15 7.68 15 7 15 C7.33 16.98 7.66 18.96 8 21 C5.69 21 3.38 21 1 21 C1.33 15.39 1.66 9.78 2 4 C1.34 4 0.68 4 0 4 C0 2.68 0 1.36 0 0 Z " fill="#F8FBF4" transform="translate(158,64)"/>
<path d="M0 0 C2.10353495 -0.0810206 4.20795952 -0.13919907 6.3125 -0.1875 C7.48425781 -0.22230469 8.65601562 -0.25710937 9.86328125 -0.29296875 C13 0 13 0 14.875 1.15625 C16.41429601 3.67898514 16.51479095 5.75144609 16.6875 8.6875 C16.78611328 10.17830078 16.78611328 10.17830078 16.88671875 11.69921875 C16.92410156 12.45847656 16.96148437 13.21773437 17 14 C14.69 14 12.38 14 10 14 C10 10.7 10 7.4 10 4 C9.01 4 8.02 4 7 4 C7 5.98 7 7.96 7 10 C7.66 10 8.32 10 9 10 C9 11.32 9 12.64 9 14 C6.03 14 3.06 14 0 14 C0 12.68 0 11.36 0 10 C0.66 10 1.32 10 2 10 C2 8.02 2 6.04 2 4 C1.34 4 0.68 4 0 4 C0 2.68 0 1.36 0 0 Z " fill="#F3FAFA" transform="translate(61,71)"/>
<path d="M0 0 C2.29141286 -0.05384521 4.58318188 -0.09272087 6.875 -0.125 C8.78925781 -0.15980469 8.78925781 -0.15980469 10.7421875 -0.1953125 C14 0 14 0 16 2 C16.4140625 4.8203125 16.4140625 4.8203125 16.625 8.125 C16.69976562 9.22070312 16.77453125 10.31640625 16.8515625 11.4453125 C16.92503906 12.70988281 16.92503906 12.70988281 17 14 C14.69 14 12.38 14 10 14 C10 10.7 10 7.4 10 4 C9.01 4.495 9.01 4.495 8 5 C7.34444881 7.52733235 7.34444881 7.52733235 7 10 C7.66 10 8.32 10 9 10 C9 11.32 9 12.64 9 14 C6.36 14 3.72 14 1 14 C1.33 10.7 1.66 7.4 2 4 C1.34 4 0.68 4 0 4 C0 2.68 0 1.36 0 0 Z " fill="#F9FBF5" transform="translate(140,71)"/>
<path d="M0 0 C2.31 0 4.62 0 7 0 C7.33 0.66 7.66 1.32 8 2 C8.99 1.34 9.98 0.68 11 0 C13.875 -0.4375 13.875 -0.4375 17 0 C20.04569423 2.31737605 21.73181298 3.77825913 22.5625 7.5625 C21.7842913 10.93473771 20.87810459 12.0572794 18 14 C15.03793195 14.59002965 13.09774206 14.39336407 10 14 C7.53348693 12.17000644 7.122251 10.71027829 6.609375 7.73046875 C6.34082547 5.48666674 6.1397418 3.25514359 6 1 C4.02 1 2.04 1 0 1 C0 0.67 0 0.34 0 0 Z " fill="#F1F8F2" transform="translate(89,71)"/>
<path d="M0 0 C2.64 0 5.28 0 8 0 C7.67 4.95 7.34 9.9 7 15 C7.99 15 8.98 15 10 15 C10 14.01 10 13.02 10 12 C11.65 12 13.3 12 15 12 C15 14.31 15 16.62 15 19 C10.05 19 5.1 19 0 19 C0 12.73 0 6.46 0 0 Z " fill="#F5FAF6" transform="translate(115,66)"/>
<path d="M0 0 C2.64 0 5.28 0 8 0 C7.67 4.95 7.34 9.9 7 15 C8.32 15 9.64 15 11 15 C11 14.01 11 13.02 11 12 C12.32 12 13.64 12 15 12 C15 14.31 15 16.62 15 19 C10.05 19 5.1 19 0 19 C0 12.73 0 6.46 0 0 Z " fill="#F9FCFC" transform="translate(36,66)"/>
<path d="M0 0 C2.31 0 4.62 0 7 0 C7.33 4.62 7.66 9.24 8 14 C5.36 14 2.72 14 0 14 C0 12.68 0 11.36 0 10 C0.66 10 1.32 10 2 10 C2 8.02 2 6.04 2 4 C1.34 4 0.68 4 0 4 C0 2.68 0 1.36 0 0 Z " fill="#EFF9F8" transform="translate(52,71)"/>
<path d="M0 0 C2.31 0 4.62 0 7 0 C7.33 4.62 7.66 9.24 8 14 C5.69 14 3.38 14 1 14 C1.33 10.7 1.66 7.4 2 4 C1.34 4 0.68 4 0 4 C0 2.68 0 1.36 0 0 Z " fill="#F8FBF4" transform="translate(131,71)"/>
<path d="M0 0 C1.65 0.33 3.3 0.66 5 1 C4.67 2.32 4.34 3.64 4 5 C2.35 4.67 0.7 4.34 -1 4 C-0.67 2.68 -0.34 1.36 0 0 Z " fill="#F1F9F9" transform="translate(54,65)"/>
<path d="M0 0 C1.65 0.33 3.3 0.66 5 1 C4.67 2.32 4.34 3.64 4 5 C2.35 4.67 0.7 4.34 -1 4 C-0.67 2.68 -0.34 1.36 0 0 Z " fill="#F8FBF3" transform="translate(133,65)"/>
<path d="M0 0 C0.99 0 1.98 0 3 0 C3 1.98 3 3.96 3 6 C2.01 6.33 1.02 6.66 0 7 C-0.38133299 5.0085944 -0.71325582 3.00720923 -1 1 C-0.67 0.67 -0.34 0.34 0 0 Z " fill="#58AE6A" transform="translate(102,75)"/>
<path d="M0 0 C0.556875 0.33 1.11375 0.66 1.6875 1 C4.30284522 2.1309601 6.1806646 2.15662974 9 2 C8.67 2.99 8.34 3.98 8 5 C5.36 4.67 2.72 4.34 0 4 C0 2.68 0 1.36 0 0 Z " fill="#56AD6A" transform="translate(79,82)"/>
<path d="M0 0 C0.99 0 1.98 0 3 0 C3 1.98 3 3.96 3 6 C2.01 6 1.02 6 0 6 C0 4.02 0 2.04 0 0 Z " fill="#47A65B" transform="translate(85,75)"/>
</svg>
