<?xml version="1.0" encoding="UTF-8"?>
<svg version="1.1" xmlns="http://www.w3.org/2000/svg" width="512" height="512">
<path d="M0 0 C0.79664063 0.57621094 1.59328125 1.15242188 2.4140625 1.74609375 C28.39955272 21.42565882 44.57301951 48.41768764 49.05029297 80.71801758 C51.43562443 100.3403672 49.56568941 119.70617384 44.5012207 138.75366211 C42.83364882 145.03318766 42.83364882 145.03318766 45 151 C45.33 151.68320313 45.66 152.36640625 46 153.0703125 C46.33 153.74835938 46.66 154.42640625 47 155.125 C53.5899159 170.05066774 51.98243812 187.06727332 46.93359375 202.1953125 C42.2399219 214.30901344 35.11709269 224.64711661 23.08984375 230.1875 C15.79375514 233.02411015 8.76104914 233.26111941 1 233 C0.50371094 234.02738281 0.00742187 235.05476563 -0.50390625 236.11328125 C-10.66324092 256.94130418 -10.66324092 256.94130418 -16.7421875 262.51367188 C-21.99439343 267.33748169 -25.53728741 271.03165797 -26.04631042 278.35992432 C-26.09360368 282.17182778 -25.92102094 285.94637249 -25.6875 289.75 C-25.6321867 291.33316074 -25.58202065 292.91651004 -25.53710938 294.5 C-25.41722374 298.33808415 -25.22831273 302.16690067 -25 306 C-24.2972998 306.36125977 -23.59459961 306.72251953 -22.87060547 307.09472656 C-7.9092704 314.79552104 7.00321133 322.56514702 21.71630859 330.73388672 C23.79194171 331.88464931 25.87393398 333.02299092 27.95703125 334.16015625 C29.04371094 334.76730469 30.13039063 335.37445313 31.25 336 C32.58804688 336.7425 32.58804688 336.7425 33.953125 337.5 C36.24421396 339.17896596 37.09708212 340.32238146 38 343 C37.625 346.25 37.625 346.25 37 349 C37.886875 349.268125 38.77375 349.53625 39.6875 349.8125 C43 351 43 351 45.625 352.75 C46.40875 353.1625 47.1925 353.575 48 354 C49.90010348 353.17574711 49.90010348 353.17574711 52 352 C60.41097271 350.65940813 66.26227251 355.04069485 73.25 359.25 C74.49786283 359.98514331 75.74657034 360.71885461 76.99609375 361.45117188 C80.10160645 363.27673826 83.19471087 365.12221551 86.28442383 366.97436523 C88.80217979 368.47957269 91.33104431 369.96576787 93.859375 371.453125 C102.74708041 376.70364207 111.57304954 382.02944096 120 388 C120.53705566 388.37833984 121.07411133 388.75667969 121.62744141 389.14648438 C145.18692484 405.91009276 155.10795373 432.01459181 160.046875 459.6328125 C160.35144131 461.50397264 160.64850221 463.37637218 160.9375 465.25 C161.07824951 466.11898926 161.21899902 466.98797852 161.36401367 467.88330078 C162.10779387 473.19897417 161.98289504 476.9810001 160 482 C157.30061824 484.69938176 155.93311412 484.25146667 152.15564823 484.25447559 C150.90297722 484.26030779 149.65030621 484.26613998 148.35967547 484.27214891 C146.9566665 484.26851514 145.55365801 484.26469074 144.15065002 484.26069641 C142.67025669 484.26371424 141.18986492 484.26760186 139.70947593 484.27228898 C135.62659485 484.2826253 131.54380102 484.28037292 127.46091259 484.27610838 C123.06342982 484.27365132 118.66596863 484.28264257 114.26849365 484.29014587 C105.64768436 484.3029234 97.02690618 484.30468278 88.40608902 484.30234561 C81.40196268 484.3005657 74.39784582 484.30230504 67.39372063 484.30657005 C66.39850309 484.30716524 65.40328555 484.30776043 64.37790991 484.30837366 C62.35640717 484.30958535 60.33490443 484.31079949 58.31340169 484.31201603 C39.33724685 484.32290332 20.36110976 484.32072345 1.38495391 484.31463119 C-15.99170447 484.30946089 -33.36830681 484.32071834 -50.7449541 484.33972941 C-68.56872282 484.35908082 -86.39246498 484.36736856 -104.21624428 484.36360615 C-114.23038295 484.36169001 -124.24447392 484.36422171 -134.25860405 484.37832069 C-142.78358716 484.39020117 -151.3084932 484.39167703 -159.83347731 484.37953053 C-164.18621073 484.3736183 -168.53880294 484.37260663 -172.89152718 484.38453293 C-176.87195501 484.39531275 -180.85212242 484.39238366 -184.83253766 484.37827124 C-186.2766669 484.37560234 -187.72081603 484.37805885 -189.16492587 484.38600711 C-191.11986422 484.39602461 -193.07487528 484.38595335 -195.02980709 484.37473011 C-196.11814057 484.37478513 -197.20647406 484.37484014 -198.32778734 484.37489682 C-201 484 -201 484 -202.81063706 482.66407937 C-204 481 -204 481 -205 478 C-209.62 477.67 -214.24 477.34 -219 477 C-219.33 478.65 -219.66 480.3 -220 482 C-223.06539945 484.04359963 -223.67851731 484.25098266 -227.13023376 484.26069641 C-227.96999252 484.26778122 -228.80975128 484.27486603 -229.67495728 484.28216553 C-231.05196304 484.2784494 -231.05196304 484.2784494 -232.45678711 484.2746582 C-233.42615707 484.27976913 -234.39552704 484.28488007 -235.39427185 484.29014587 C-238.60535825 484.30406989 -241.81623071 484.30308299 -245.02734375 484.30078125 C-247.25549907 484.30466661 -249.48365364 484.30900094 -251.71180725 484.31376648 C-256.38496297 484.32123472 -261.05804314 484.320933 -265.73120117 484.31567383 C-271.7248435 484.30987815 -277.71817691 484.32680983 -283.71176815 484.3500185 C-288.31423252 484.36473797 -292.91662218 484.36562998 -297.51910591 484.36250877 C-299.72913792 484.36302288 -301.93917402 484.36827721 -304.14918327 484.37832069 C-307.23760019 484.39063311 -310.32541141 484.38392446 -313.41381836 484.37231445 C-314.32979797 484.37995819 -315.24577759 484.38760193 -316.18951416 484.39547729 C-322.35526786 484.34414852 -322.35526786 484.34414852 -325.56373596 482.6315155 C-328.37636381 479.43652781 -327.57082234 475.65193295 -327.44921875 471.60546875 C-325.3901947 445.96860063 -316.74571377 413.22942978 -296.47949219 395.68359375 C-251.19388305 358.76627008 -192.58849083 333.21726339 -141 306 C-140.72470221 301.37807747 -140.52701956 296.76106975 -140.39575195 292.1328125 C-140.34097171 290.5649088 -140.26630404 288.99755262 -140.17016602 287.43164062 C-139.70401488 279.63420351 -139.31193114 273.02823408 -144.71278381 266.90409851 C-146.18804198 265.4137152 -147.69345649 263.97265742 -149.23608398 262.55224609 C-152.69123642 259.36170077 -155.00524035 255.95865645 -157.375 251.9375 C-157.78218262 251.26847656 -158.18936523 250.59945313 -158.60888672 249.91015625 C-161.85820028 244.47598187 -164.6344135 238.87661489 -167 233 C-167.68964844 233.02320313 -168.37929687 233.04640625 -169.08984375 233.0703125 C-181.62320068 233.31100797 -191.68691771 230.74906717 -201.0546875 222.09765625 C-213.11327993 209.09471622 -217.53512226 191.49235034 -217.18359375 174.1640625 C-216.77468419 167.11689767 -215.87971517 161.27844616 -212.3125 155.125 C-210.16661202 151.13627563 -209.79344902 148.54589762 -210.2578125 144.0546875 C-210.3700415 142.91112793 -210.48227051 141.76756836 -210.59790039 140.58935547 C-210.7969397 138.81262451 -210.7969397 138.81262451 -211 137 C-211.1230249 135.85547363 -211.2460498 134.71094727 -211.37280273 133.53173828 C-211.88831626 128.83894698 -212.4261588 124.14907093 -212.98242188 119.4609375 C-215.34355144 98.47828852 -215.34355144 98.47828852 -212.96166992 94.0847168 C-211.625 92.6875 -211.625 92.6875 -209 91 C-208.34 91 -207.68 91 -207 91 C-207 86.71 -207 82.42 -207 78 C-208.98 77.505 -208.98 77.505 -211 77 C-213.57184069 74.32342372 -214.41368247 72.43772864 -214.375 68.75 C-213.45610767 43.57235004 -202.81604871 19.58059432 -185 2 C-184.29746094 1.29875 -183.59492188 0.5975 -182.87109375 -0.125 C-174.34589952 -8.11629317 -163.94406305 -12.39215931 -152.3125 -12.375 C-151.12309814 -12.37910889 -151.12309814 -12.37910889 -149.90966797 -12.38330078 C-144.10616415 -12.28758019 -139.43129112 -11.23805569 -134.1640625 -8.6796875 C-132.02281138 -7.77778839 -132.02281138 -7.77778839 -129.984375 -8.65234375 C-127.71725432 -10.19202216 -125.69431562 -11.89009104 -123.625 -13.6875 C-87.99802206 -42.50343804 -33.17655397 -24.85689506 0 0 Z " fill="#010101" transform="translate(339,28)"/>
<path d="M0 0 C0.14695313 0.59425781 0.29390625 1.18851562 0.4453125 1.80078125 C4.50362064 16.79786248 12.8617 28.57795613 26.3046875 36.53515625 C41.53355194 44.81171301 56.53728213 46.0922091 73.23828125 41.25390625 C87.47763886 36.50745371 98.00834085 27.23952477 105 14 C107.1027912 9.43540447 108.86174686 4.89895224 110 0 C115.72081286 1.60781015 120.59457756 4.37440656 125.75 7.25 C127.7043178 8.32311572 129.65874999 9.39602312 131.61328125 10.46875 C135.48781311 12.60558733 139.35401539 14.7565317 143.21401978 16.91949463 C144.97020628 17.90051728 146.72994877 18.87480271 148.49121094 19.84667969 C150.75253775 21.09556775 153.00738392 22.35627805 155.25488281 23.62988281 C162.71471628 27.85194301 162.71471628 27.85194301 171 28 C172.485 27.01 172.485 27.01 174 26 C177.4580783 26.19211546 179.70308785 27.38123322 182.5625 29.1875 C183.696875 29.785625 184.83125 30.38375 186 31 C188.0162233 30.28436734 188.0162233 30.28436734 190 29 C198.40545006 27.64717017 204.26844971 32.0444159 211.25 36.25 C212.49786283 36.98514331 213.74657034 37.71885461 214.99609375 38.45117188 C218.10160645 40.27673826 221.19471087 42.12221551 224.28442383 43.97436523 C226.80217979 45.47957269 229.33104431 46.96576787 231.859375 48.453125 C240.74708041 53.70364207 249.57304954 59.02944096 258 65 C258.53705566 65.37833984 259.07411133 65.75667969 259.62744141 66.14648438 C283.18692484 82.91009276 293.10795373 109.01459181 298.046875 136.6328125 C298.35144131 138.50397264 298.64850221 140.37637218 298.9375 142.25 C299.07824951 143.11898926 299.21899902 143.98797852 299.36401367 144.88330078 C300.10779387 150.19897417 299.98289504 153.9810001 298 159 C295.30061824 161.69938176 293.93311412 161.25146667 290.15564823 161.25447559 C288.90297722 161.26030779 287.65030621 161.26613998 286.35967547 161.27214891 C284.9566665 161.26851514 283.55365801 161.26469074 282.15065002 161.26069641 C280.67025669 161.26371424 279.18986492 161.26760186 277.70947593 161.27228898 C273.62659485 161.2826253 269.54380102 161.28037292 265.46091259 161.27610838 C261.06342982 161.27365132 256.66596863 161.28264257 252.26849365 161.29014587 C243.64768436 161.3029234 235.02690618 161.30468278 226.40608902 161.30234561 C219.40196268 161.3005657 212.39784582 161.30230504 205.39372063 161.30657005 C204.39850309 161.30716524 203.40328555 161.30776043 202.37790991 161.30837366 C200.35640717 161.30958535 198.33490443 161.31079949 196.31340169 161.31201603 C177.33724685 161.32290332 158.36110976 161.32072345 139.38495391 161.31463119 C122.00829553 161.30946089 104.63169319 161.32071834 87.2550459 161.33972941 C69.43127718 161.35908082 51.60753502 161.36736856 33.78375572 161.36360615 C23.76961705 161.36169001 13.75552608 161.36422171 3.74139595 161.37832069 C-4.78358716 161.39020117 -13.3084932 161.39167703 -21.83347731 161.37953053 C-26.18621073 161.3736183 -30.53880294 161.37260663 -34.89152718 161.38453293 C-38.87195501 161.39531275 -42.85212242 161.39238366 -46.83253766 161.37827124 C-48.2766669 161.37560234 -49.72081603 161.37805885 -51.16492587 161.38600711 C-53.11986422 161.39602461 -55.07487528 161.38595335 -57.02980709 161.37473011 C-58.11814057 161.37478513 -59.20647406 161.37484014 -60.32778734 161.37489682 C-63 161 -63 161 -64.81063706 159.66407937 C-66 158 -66 158 -67 155 C-67.97582031 154.99742187 -68.95164062 154.99484375 -69.95703125 154.9921875 C-71.86548828 154.93417969 -71.86548828 154.93417969 -73.8125 154.875 C-75.07707031 154.85179687 -76.34164062 154.82859375 -77.64453125 154.8046875 C-78.75183594 154.53914062 -79.85914062 154.27359375 -81 154 C-82.82421875 151.0078125 -82.82421875 151.0078125 -84 148 C-87.20362326 146.39818837 -90.69244334 146.81980984 -94.21337891 146.79467773 C-95.0622316 146.78477814 -95.91108429 146.77487854 -96.78565979 146.76467896 C-99.59926538 146.73302083 -102.41288788 146.70828951 -105.2265625 146.68359375 C-107.17427008 146.66302794 -109.12197316 146.64203157 -111.06967163 146.62062073 C-116.2021521 146.56536148 -121.33467311 146.51596921 -126.46722412 146.46777344 C-131.70214455 146.41758652 -136.93700594 146.36188581 -142.171875 146.30664062 C-152.44786626 146.19901194 -162.72390873 146.09757744 -173 146 C-172.85207615 144.58603737 -172.70148361 143.17235381 -172.54980469 141.75878906 C-172.46623718 140.97151428 -172.38266968 140.1842395 -172.29656982 139.37310791 C-169.62951398 118.03172111 -161.07231302 95.36968337 -144.05078125 81.6171875 C-125.87195495 67.95473678 -105.49935586 57.12080858 -85.72705078 45.97387695 C-84.05054497 45.0285021 -82.37486873 44.08165659 -80.69921875 43.13476562 C-66.5302031 35.13333737 -52.26855133 27.3154472 -37.94628906 19.59228516 C-33.01916982 16.92948505 -28.10316251 14.24637505 -23.1875 11.5625 C-22.32294189 11.09054199 -21.45838379 10.61858398 -20.56762695 10.13232422 C-19.31792114 9.45000732 -19.31792114 9.45000732 -18.04296875 8.75390625 C-17.22876465 8.31062988 -16.41456055 7.86735352 -15.57568359 7.41064453 C-13.70950925 6.38858241 -11.84849588 5.35707843 -9.99072266 4.31982422 C-8.99991699 3.76955566 -8.00911133 3.21928711 -6.98828125 2.65234375 C-6.08247314 2.14566162 -5.17666504 1.63897949 -4.2434082 1.11694336 C-2 0 -2 0 0 0 Z " fill="#8AC9FE" transform="translate(201,351)"/>
<path d="M0 0 C3.12074387 2.26963191 5.6562671 4.68631554 8.125 7.625 C33.36397324 36.82933209 75.66961378 61.02551023 113 70 C113.37251725 91.76073818 112.65966387 112.89220031 107 134 C106.78327637 134.81210938 106.56655273 135.62421875 106.34326172 136.4609375 C99.61731208 161.17820826 89.27331603 186.01736465 66.0625 199.5 C49.15890801 208.50401744 28.60327068 210.9967801 9.9375 206.4375 C-1.89488016 202.71056087 -11.31939349 196.79673503 -20 188 C-20.77085937 187.23945313 -21.54171875 186.47890625 -22.3359375 185.6953125 C-44.51017291 162.61291728 -51.54387564 125.27187001 -53.81542969 94.453125 C-53.9481922 92.68857768 -54.1024822 90.92560175 -54.27050781 89.1640625 C-55.91640164 70.73005163 -55.91640164 70.73005163 -51.6015625 65.375 C-48.69282871 62.48910593 -45.39315922 60.28023647 -42 58 C-40.56508254 56.70882211 -39.16366878 55.37857586 -37.8125 54 C-37.18601563 53.36191406 -36.55953125 52.72382813 -35.9140625 52.06640625 C-32.04649388 47.89101074 -28.50110381 43.48436835 -25 39 C-24.57847656 38.46552246 -24.15695313 37.93104492 -23.72265625 37.38037109 C-15.76015791 27.21164639 -9.36621842 16.3380507 -3.15405273 5.03027344 C-2.17604359 3.30970562 -1.09780978 1.64671467 0 0 Z " fill="#FCD0A2" transform="translate(226,97)"/>
<path d="M0 0 C24.12048335 16.90410923 41.91168265 38.72799425 47.625 68.0625 C50.33725479 87.97228534 50.1672459 110.20688525 42.625 129.0625 C38.335 128.7325 34.045 128.4025 29.625 128.0625 C29.33203125 126.07682292 29.0390625 124.09114583 28.74609375 122.10546875 C26.29027268 117.63022687 19.1896293 116.54239639 14.52612305 115.07348633 C-20.70494976 103.9566782 -51.81044417 84.50697617 -78.375 59.0625 C-79.12523437 58.35351562 -79.87546875 57.64453125 -80.6484375 56.9140625 C-85.31819633 52.39196403 -89.37597431 47.48958043 -93.39453125 42.3828125 C-95.34208468 39.88745707 -95.34208468 39.88745707 -98.375 38.0625 C-101.40059089 37.8316782 -101.40059089 37.8316782 -104.375 39.0625 C-105.96082733 41.43187587 -107.02076482 43.4165637 -108.125 46 C-108.80624115 47.46654697 -109.49129076 48.93132947 -110.1796875 50.39453125 C-110.53514648 51.16104004 -110.89060547 51.92754883 -111.25683594 52.71728516 C-123.10671634 77.57098629 -140.51236687 101.30043929 -162.25 118.3125 C-165.72650361 121.17550297 -166.67555731 123.74927005 -167.375 128.0625 C-167.97828125 128.12308594 -168.5815625 128.18367187 -169.203125 128.24609375 C-170.00234375 128.32988281 -170.8015625 128.41367188 -171.625 128.5 C-172.41390625 128.58121094 -173.2028125 128.66242188 -174.015625 128.74609375 C-176.20088881 129.03915065 -178.24388974 129.51006275 -180.375 130.0625 C-180.86342539 126.25112787 -181.34056422 122.43844867 -181.8125 118.625 C-182.02326172 116.92500854 -182.02326172 116.92500854 -182.23828125 115.19067383 C-183.19592749 107.2149939 -183.77854537 99.32118907 -183.96875 91.29296875 C-184.40389493 87.83272974 -184.80186937 86.39298892 -187.375 84.0625 C-189.025 83.7325 -190.675 83.4025 -192.375 83.0625 C-192.375 78.4425 -192.375 73.8225 -192.375 69.0625 C-190.395 68.0725 -188.415 67.0825 -186.375 66.0625 C-184.5444662 63.42315682 -184.07472005 61.01931501 -183.734375 57.859375 C-183.63680908 57.05185791 -183.53924316 56.24434082 -183.4387207 55.41235352 C-183.33519287 54.55440186 -183.23166504 53.6964502 -183.125 52.8125 C-180.37921813 32.82820362 -171.75037655 13.94896382 -155.79296875 0.9609375 C-147.97863104 -4.73286779 -141.12234063 -7.26788028 -131.375 -5.9375 C-126.6533854 -4.18319844 -122.55257232 -1.72254822 -118.375 1.0625 C-114.25533852 1.56084615 -112.21506549 1.71896627 -108.890625 -0.87890625 C-108.14296875 -1.74386719 -107.3953125 -2.60882813 -106.625 -3.5 C-77.37349558 -34.7840863 -31.50670173 -20.41051115 0 0 Z " fill="#935A43" transform="translate(324.375,36.9375)"/>
<path d="M0 0 C4.62692226 2.05199262 8.92067096 4.64207531 13.25 7.25 C14.49786283 7.98514331 15.74657034 8.71885461 16.99609375 9.45117188 C20.10160645 11.27673826 23.19471087 13.12221551 26.28442383 14.97436523 C28.80217979 16.47957269 31.33104431 17.96576787 33.859375 19.453125 C42.74708041 24.70364207 51.57304954 30.02944096 60 36 C60.53705566 36.37833984 61.07411133 36.75667969 61.62744141 37.14648438 C85.18692484 53.91009276 95.10795373 80.01459181 100.046875 107.6328125 C100.35144131 109.50397264 100.64850221 111.37637218 100.9375 113.25 C101.07824951 114.11898926 101.21899902 114.98797852 101.36401367 115.88330078 C102.10779387 121.19897417 101.98289504 124.9810001 100 130 C97.30061824 132.69938176 95.93311412 132.25146667 92.15564823 132.25447559 C90.90297722 132.26030779 89.65030621 132.26613998 88.35967547 132.27214891 C86.9566665 132.26851514 85.55365801 132.26469074 84.15065002 132.26069641 C82.67025669 132.26371424 81.18986492 132.26760186 79.70947593 132.27228898 C75.62659485 132.2826253 71.54380102 132.28037292 67.46091259 132.27610838 C63.06342982 132.27365132 58.66596863 132.28264257 54.26849365 132.29014587 C45.64768436 132.3029234 37.02690618 132.30468278 28.40608902 132.30234561 C21.40196268 132.3005657 14.39784582 132.30230504 7.39372063 132.30657005 C6.39850309 132.30716524 5.40328555 132.30776043 4.37790991 132.30837366 C2.35640717 132.30958535 0.33490443 132.31079949 -1.68659831 132.31201603 C-20.66275315 132.32290332 -39.63889024 132.32072345 -58.61504609 132.31463119 C-75.99170447 132.30946089 -93.36830681 132.32071834 -110.7449541 132.33972941 C-128.56872282 132.35908082 -146.39246498 132.36736856 -164.21624428 132.36360615 C-174.23038295 132.36169001 -184.24447392 132.36422171 -194.25860405 132.37832069 C-202.78358716 132.39020117 -211.3084932 132.39167703 -219.83347731 132.37953053 C-224.18621073 132.3736183 -228.53880294 132.37260663 -232.89152718 132.38453293 C-236.87195501 132.39531275 -240.85212242 132.39238366 -244.83253766 132.37827124 C-246.2766669 132.37560234 -247.72081603 132.37805885 -249.16492587 132.38600711 C-251.11986422 132.39602461 -253.07487528 132.38595335 -255.02980709 132.37473011 C-256.11814057 132.37478513 -257.20647406 132.37484014 -258.32778734 132.37489682 C-261 132 -261 132 -262.82235581 130.59376687 C-264.26651815 128.63930719 -264.78549889 127.43101258 -265 125 C-263.99353393 121.56124094 -262.84988357 119.19252575 -260 117 C-257.41525441 116.62740451 -257.41525441 116.62740451 -254.24286366 116.63085651 C-253.03511904 116.62488337 -251.82737442 116.61891022 -250.58303148 116.61275607 C-249.23592002 116.62131572 -247.8888103 116.63015252 -246.54170227 116.63923645 C-245.11605523 116.63792893 -243.69040888 116.63530351 -242.2647664 116.63146895 C-238.33790973 116.62474136 -234.41129722 116.63678769 -230.48447168 116.65180314 C-226.25340097 116.66472661 -222.02234466 116.66037666 -217.79125977 116.65809631 C-210.45754532 116.65652124 -203.12391079 116.66595487 -195.79021645 116.68280983 C-185.18686384 116.70716358 -174.58354997 116.71500138 -163.98017242 116.7187738 C-146.77801946 116.72534399 -129.57590911 116.74532051 -112.3737793 116.77368164 C-95.66089085 116.80120755 -78.94801396 116.82244831 -62.23510742 116.83520508 C-61.20538212 116.83599325 -60.17565681 116.83678142 -59.11472771 116.83759347 C-53.94903511 116.84150851 -48.78334242 116.84529965 -43.61764967 116.84902918 C-0.74507026 116.88014274 42.12746267 116.93299395 85 117 C84.24315169 113.37441313 83.47413303 109.75150609 82.703125 106.12890625 C82.49187988 105.11622681 82.28063477 104.10354736 82.06298828 103.06018066 C77.25215413 80.57808963 68.58465581 61.30799224 48.92919922 48.38696289 C32.29138843 37.68898032 15.30365762 27.48201205 -2.06835938 18.0222168 C-2.95587891 17.53277588 -3.84339844 17.04333496 -4.7578125 16.5390625 C-5.92014404 15.90798584 -5.92014404 15.90798584 -7.10595703 15.26416016 C-9 14 -9 14 -11 11 C-11.54169041 7.51066956 -11.59312786 4.18625571 -10 1 C-6.61250127 -0.69374937 -3.63482749 -0.69221464 0 0 Z " fill="#000000" transform="translate(399,380)"/>
<path d="M0 0 C149.16 0 298.32 0 452 0 C454 7 454 7 454 11 C453.27112963 11.00097681 452.54225926 11.00195362 451.79130191 11.00296003 C408.62760117 11.06118574 365.46395108 11.13494727 322.30031274 11.22898628 C317.12183959 11.24025494 311.94336618 11.25139331 306.76489258 11.26245117 C305.73391741 11.26465486 304.70294225 11.26685854 303.64072541 11.269129 C286.93002235 11.30453674 270.21931934 11.32938122 253.50859263 11.35034702 C236.37190997 11.37208142 219.23527616 11.40510926 202.09863502 11.44870156 C191.51768771 11.47525906 180.9368013 11.49292421 170.3558223 11.49934604 C163.10781765 11.50458742 155.85988974 11.5207621 148.61192616 11.54566566 C144.42529116 11.55972371 140.23879366 11.56883552 136.05213356 11.56500816 C132.22333336 11.56161394 128.39482754 11.57186939 124.5660877 11.59323552 C123.17708995 11.59853181 121.78806184 11.5987088 120.39906415 11.59339563 C118.51841856 11.58693165 116.63773539 11.60051421 114.75713634 11.61523914 C113.71024739 11.61713775 112.66335844 11.61903635 111.58474559 11.62099248 C108.99191182 11.80147915 108.99191182 11.80147915 107.20267898 13.27404755 C105.69216477 15.22366394 105.69216477 15.22366394 105 19 C100.05 19 95.1 19 90 19 C89.01 17.02 88.02 15.04 87 13 C83.79637674 11.39818837 80.30755666 11.81980984 76.78662109 11.79467773 C75.51334206 11.77982834 75.51334206 11.77982834 74.21434021 11.76467896 C71.40073462 11.73302083 68.58711212 11.70828951 65.7734375 11.68359375 C63.82572992 11.66302794 61.87802684 11.64203157 59.93032837 11.62062073 C54.7978479 11.56536148 49.66532689 11.51596921 44.53277588 11.46777344 C39.29785545 11.41758652 34.06299406 11.36188581 28.828125 11.30664062 C18.55213374 11.19901194 8.27609127 11.09757744 -2 11 C-1.85892253 9.54119891 -1.71197585 8.08296449 -1.5625 6.625 C-1.48128906 5.81289063 -1.40007813 5.00078125 -1.31640625 4.1640625 C-1 2 -1 2 0 0 Z " fill="#5FB6FB" transform="translate(30,486)"/>
<path d="M0 0 C1.01537842 0.41137207 2.03075684 0.82274414 3.0769043 1.24658203 C4.43013351 1.79209706 5.78340737 2.33750134 7.13671875 2.8828125 C7.80344604 3.15327393 8.47017334 3.42373535 9.15710449 3.70239258 C30.52260759 12.29568033 55.68856004 11.6074471 76.92578125 2.8828125 C77.95282166 2.4662439 77.95282166 2.4662439 79.00061035 2.04125977 C80.66845084 1.36422282 82.3344256 0.68259273 84 0 C84.12519644 4.88882486 84.21507557 9.77668253 84.2746582 14.66674805 C84.29953915 16.3241403 84.3334573 17.98142594 84.37719727 19.63842773 C84.71761544 32.88269708 83.41921964 44.13649078 75 55 C74.443125 55.825 73.88625 56.65 73.3125 57.5 C66.20822436 65.18029799 55.79837567 70.13324479 45.4765625 71.44921875 C32.24720278 71.87267508 21.87546546 67.73722187 12 59 C3.14859556 49.82979498 -0.18797674 38.44924918 -0.09765625 25.9765625 C-0.0962413 25.23038666 -0.09482635 24.48421082 -0.09336853 23.71542358 C-0.08780874 21.35190682 -0.07526389 18.98848773 -0.0625 16.625 C-0.0574798 15.01432429 -0.0529178 13.40364709 -0.04882812 11.79296875 C-0.03785251 7.86194201 -0.02061596 3.93098752 0 0 Z " fill="#FDBB85" transform="translate(214,310)"/>
<path d="M0 0 C3.941652 1.41378262 6.28200635 4.48924568 9.09936523 7.48779297 C15.5009819 14.23011802 21.55982092 17.98928367 30.99365234 18.55273438 C39.66367239 18.71709494 46.4822634 17.49992091 53.36328125 11.84765625 C55.31237109 9.93888769 57.18293719 7.96062405 59.05078125 5.97265625 C64.64777245 0.08740799 64.64777245 0.08740799 68.86328125 -0.08984375 C72.36328125 0.84765625 72.36328125 0.84765625 74.36328125 2.47265625 C75.72356542 5.70333115 75.96863241 7.35007178 75.36328125 10.84765625 C68.87598019 22.51529295 57.11284653 29.37773223 44.8828125 33.73046875 C32.22971831 37.00321807 20.38502146 34.43858657 9.17578125 28.09765625 C2.24458974 23.67776601 -4.89676826 18.32755723 -8.63671875 10.84765625 C-9.10692612 7.48903216 -8.9474548 5.58565436 -7.63671875 2.47265625 C-5.18083022 0.47724682 -3.17007356 -0.13329377 0 0 Z " fill="#050403" transform="translate(222.63671875,234.15234375)"/>
<path d="M0 0 C8.86036749 -0.61936549 8.86036749 -0.61936549 12.875 1.5625 C20.99855323 10.88069341 20.71796964 21.2422822 20 33 C18.90097688 40.83162142 16.31442343 47.39906825 12 54 C11.13375 55.36125 11.13375 55.36125 10.25 56.75 C5.79507658 61.20492342 1.08571497 64.12968947 -5.296875 64.13671875 C-6.51890625 64.09160156 -7.7409375 64.04648438 -9 64 C-8.86424561 63.35788574 -8.72849121 62.71577148 -8.58862305 62.05419922 C-4.26665123 41.45578762 -0.80978697 21.05446113 0 0 Z " fill="#FBBA84" transform="translate(354,181)"/>
<path d="M0 0 C1.23556641 0.01740234 1.23556641 0.01740234 2.49609375 0.03515625 C3.32238281 0.04417969 4.14867187 0.05320313 5 0.0625 C5.63808594 0.07410156 6.27617187 0.08570313 6.93359375 0.09765625 C8.92678242 14.08867963 8.92678242 14.08867963 9.24609375 20.97265625 C9.90660732 30.80696942 12.30369605 40.42850257 14.31591797 50.05566406 C15.26358878 54.72284914 16.10701495 59.4077074 16.93359375 64.09765625 C10.0720103 64.71029763 6.25795982 63.47047899 0.93359375 59.09765625 C-7.55177321 51.47490958 -11.42692398 41.33524789 -12.20507812 30.09448242 C-12.65261638 20.73676455 -13.04259333 12.05750821 -6.72265625 4.48828125 C-5.37890625 3.09765625 -5.37890625 3.09765625 -3.06640625 1.09765625 C-2.06640625 0.09765625 -2.06640625 0.09765625 0 0 Z " fill="#FAB983" transform="translate(150.06640625,180.90234375)"/>
<path d="M0 0 C3.67962688 1.4981926 5.54947039 3.59057546 8.0625 6.625 C19.42812179 19.48999535 36.0399467 28.88020963 53.33276367 30.26733398 C56.76881366 30.36447575 60.18804125 30.36098982 63.625 30.3125 C64.77484375 30.31572266 65.9246875 30.31894531 67.109375 30.32226562 C87.97134307 30.19158131 105.15646404 22.94992691 120.30859375 8.74609375 C122.26033036 6.75469922 123.98811084 4.82215454 125.72265625 2.66015625 C126.47417969 1.78230469 127.22570312 0.90445312 128 0 C128.66 0 129.32 0 130 0 C123.68157687 16.76927466 110.12225786 29.69460191 94 37 C74.84287505 44.18392186 53.4295446 44.73733509 34.546875 36.4921875 C26.9799385 32.70871925 20.91541493 28.01400518 15 22 C14.2059375 21.19304687 13.411875 20.38609375 12.59375 19.5546875 C0 6.16333333 0 6.16333333 0 0 Z " fill="#FAB983" transform="translate(191,263)"/>
<path d="M0 0 C3.41576045 0.49813173 4.81246717 0.7451519 7 3.4375 C7.53877754 7.97862497 7.29684027 11.07170157 5.5 15.25 C3.45276439 20.13037683 3.32353573 25.21906137 4 30.4375 C6.65786596 33.09536596 8.11253233 32.69388205 11.8125 32.8125 C15.64019587 33.08328424 17.75954906 33.31020244 21.1875 35.125 C23.47777096 38.04706984 24.07591541 39.71764503 24 43.4375 C22.22960551 46.18466387 20.93708156 47.96895922 18 49.4375 C9.9363396 50.34118608 1.99399874 48.59449493 -4.875 44.25 C-9.99251101 40.10033977 -11.71479931 36.106548 -12.4140625 29.5625 C-12.91008886 19.56365284 -11.82221447 10.01911832 -5.015625 2.140625 C-3 0.4375 -3 0.4375 0 0 Z " fill="#060504" transform="translate(250,178.5625)"/>
<path d="M0 0 C4.95 1.98 9.9 3.96 15 6 C38.22388541 13.49157594 61.99129964 8.80348015 84 0 C84 11.88 84 23.76 84 36 C83.67 36 83.34 36 83 36 C82.505 23.625 82.505 23.625 82 11 C78.37 12.65 74.74 14.3 71 16 C63.7961422 18.65652023 56.68792768 20.71227816 49 21 C47.15148437 21.09474609 47.15148437 21.09474609 45.265625 21.19140625 C29.41846838 21.75843501 16.09807907 18.13006298 2 11 C1.67 18.59 1.34 26.18 1 34 C0.67 34 0.34 34 0 34 C0 22.78 0 11.56 0 0 Z " fill="#F8A363" transform="translate(214,310)"/>
<path d="M0 0 C4.12098778 1.59219983 6.24017317 4.04599899 8.26953125 7.98046875 C10.19540171 13.30493415 9.60511725 18.27509633 7.3125 23.375 C5.38172326 26.75217744 3.75453003 28.63471635 0 30 C-2.79534251 30.49997996 -5.214832 30.59883937 -8 30 C-11.97133619 26.99943488 -14.26817374 23.64858629 -16 19 C-16.71990769 12.62367478 -15.54129841 8.34883614 -12 3 C-8.71824442 -0.75057781 -4.70070941 -0.6661684 0 0 Z " fill="#050403" transform="translate(306,161)"/>
<path d="M0 0 C4.03002555 1.90095545 5.64622947 3.38679775 7.875 7.25 C9.67251445 13.24171483 9.86334064 17.6508781 7.3125 23.3125 C5.38634659 26.72856998 3.78852162 28.62235578 0 30 C-4.19760406 30.67400553 -7.06035364 30.52202575 -10.8125 28.4375 C-15.09854594 23.66162024 -16.6312298 18.59608962 -16.42578125 12.28125 C-15.67698897 8.26937207 -13.62202231 5.07995297 -11 2 C-7.28056342 -0.47962439 -4.30988145 -0.64484969 0 0 Z " fill="#050403" transform="translate(213,161)"/>
<path d="M0 0 C0.33 0.66 0.66 1.32 1 2 C-3.20440038 11.49430048 -8.08189672 19.11689268 -18 23 C-20.82461522 23.37350284 -23.13842186 23.26014347 -26 23 C-25.34 19.7 -24.68 16.4 -24 13 C-22.370625 12.62875 -20.74125 12.2575 -19.0625 11.875 C-11.47073762 9.81074502 -5.23348234 5.91611048 0 0 Z " fill="#F6A061" transform="translate(371,222)"/>
<path d="M0 0 C2.98008441 1.38981515 5.48375899 3.05074464 8.125 5 C12.329802 7.88687898 15.8950411 8.86239861 20.93359375 9.3828125 C23 10 23 10 24.24609375 11.8203125 C25.28831768 14.8335817 25.63555926 17.8415136 26 21 C19.15122822 21.61149748 15.30695358 20.38354365 10 16 C4.88546872 11.20256966 2.03271417 6.69599963 0 0 Z " fill="#F8A161" transform="translate(141,224)"/>
</svg>
