<?xml version="1.0" encoding="UTF-8"?>
<!DOCTYPE svg PUBLIC "-//W3C//DTD SVG 1.1//EN" "http://www.w3.org/Graphics/SVG/1.1/DTD/svg11.dtd">
<svg xmlns="http://www.w3.org/2000/svg" version="1.1" width="411px" height="347px" style="shape-rendering:geometricPrecision; text-rendering:geometricPrecision; image-rendering:optimizeQuality; fill-rule:evenodd; clip-rule:evenodd" xmlns:xlink="http://www.w3.org/1999/xlink">
<g><path style="opacity:0.621" fill="#b5abb5" d="M 319.5,9.5 C 219.5,9.5 119.5,9.5 19.5,9.5C 19.5,11.5 19.5,13.5 19.5,15.5C 19.1667,15.5 18.8333,15.5 18.5,15.5C 18.5,13.1667 18.5,10.8333 18.5,8.5C 79.9678,8.12246 141.968,7.78913 204.5,7.5C 237.833,7.66667 271.167,7.83333 304.5,8C 309.684,8.17386 314.684,8.67386 319.5,9.5 Z"/></g>
<g><path style="opacity:0.983" fill="#574155" d="M 319.5,9.5 C 319.5,9.83333 319.5,10.1667 319.5,10.5C 319.5,12.1667 319.5,13.8333 319.5,15.5C 318.5,15.5 317.5,15.5 316.5,15.5C 315.032,14.2209 314.365,12.5542 314.5,10.5C 217.647,10.3584 120.647,10.525 23.5,11C 22.5301,12.6797 21.5301,14.1797 20.5,15.5C 20.1667,15.5 19.8333,15.5 19.5,15.5C 19.5,13.5 19.5,11.5 19.5,9.5C 119.5,9.5 219.5,9.5 319.5,9.5 Z"/></g>
<g><path style="opacity:1" fill="#56415f" d="M 316.5,15.5 C 217.833,15.5 119.167,15.5 20.5,15.5C 21.5301,14.1797 22.5301,12.6797 23.5,11C 120.647,10.525 217.647,10.3584 314.5,10.5C 314.365,12.5542 315.032,14.2209 316.5,15.5 Z"/></g>
<g><path style="opacity:0.008" fill="#fdfdfe" d="M 319.5,10.5 C 320.434,11.5676 320.768,12.901 320.5,14.5C 322.099,14.2322 323.432,14.5655 324.5,15.5C 324.167,15.5 323.833,15.5 323.5,15.5C 322.167,15.5 320.833,15.5 319.5,15.5C 319.5,13.8333 319.5,12.1667 319.5,10.5 Z"/></g>
<g><path style="opacity:1" fill="#8995b2" d="M 18.5,15.5 C 18.8333,15.5 19.1667,15.5 19.5,15.5C 19.8333,15.5 20.1667,15.5 20.5,15.5C 119.167,15.5 217.833,15.5 316.5,15.5C 317.5,15.5 318.5,15.5 319.5,15.5C 319.5,21.8333 319.5,28.1667 319.5,34.5C 316.405,40.0818 314.738,46.0818 314.5,52.5C 314.5,44.1667 314.5,35.8333 314.5,27.5C 314.607,25.6214 314.107,25.2881 313,26.5C 312.092,24.5614 310.592,23.5614 308.5,23.5C 261.838,22.1667 214.838,21.5001 167.5,21.5C 119.395,21.5143 71.3946,22.1809 23.5,23.5C 23.5,24.5 23.5,25.5 23.5,26.5C 21.8333,26.5 20.1667,26.5 18.5,26.5C 18.5,23.1667 18.5,19.8333 18.5,16.5C 17.5,16.5 16.5,16.5 15.5,16.5C 15.5,16.1667 15.5,15.8333 15.5,15.5C 16.5,14.1667 17.5,14.1667 18.5,15.5 Z"/></g>
<g><path style="opacity:1" fill="#6b7486" d="M 367.5,45.5 C 367.5,46.5 367.5,47.5 367.5,48.5C 371.042,48.1872 374.375,48.5206 377.5,49.5C 375.167,49.5 372.833,49.5 370.5,49.5C 369.167,49.5 367.833,49.5 366.5,49.5C 365.167,49.5 363.833,49.5 362.5,49.5C 362.5,52.1667 362.5,54.8333 362.5,57.5C 362.167,57.5 361.833,57.5 361.5,57.5C 361.5,55.1667 361.5,52.8333 361.5,50.5C 361.541,48.2547 362.375,47.5881 364,48.5C 365.039,47.2899 366.206,46.2899 367.5,45.5 Z"/></g>
<g><path style="opacity:1" fill="#09132b" d="M 366.5,49.5 C 366.5,52.1667 366.5,54.8333 366.5,57.5C 365.167,57.5 363.833,57.5 362.5,57.5C 362.5,54.8333 362.5,52.1667 362.5,49.5C 363.833,49.5 365.167,49.5 366.5,49.5 Z"/></g>
<g><path style="opacity:1" fill="#72a4c0" d="M 366.5,49.5 C 367.833,49.5 369.167,49.5 370.5,49.5C 370.5,52.1667 370.5,54.8333 370.5,57.5C 369.167,57.5 367.833,57.5 366.5,57.5C 366.5,54.8333 366.5,52.1667 366.5,49.5 Z"/></g>
<g><path style="opacity:1" fill="#9ad9e9" d="M 370.5,49.5 C 372.833,49.5 375.167,49.5 377.5,49.5C 377.5,52.1667 377.5,54.8333 377.5,57.5C 375.167,57.5 372.833,57.5 370.5,57.5C 370.5,54.8333 370.5,52.1667 370.5,49.5 Z"/></g>
<g><path style="opacity:1" fill="#333245" d="M 381.5,45.5 C 381.5,49.5 381.5,53.5 381.5,57.5C 380.167,57.5 378.833,57.5 377.5,57.5C 377.5,54.8333 377.5,52.1667 377.5,49.5C 374.375,48.5206 371.042,48.1872 367.5,48.5C 367.5,47.5 367.5,46.5 367.5,45.5C 372.167,44.1667 376.833,44.1667 381.5,45.5 Z"/></g>
<g><path style="opacity:0.035" fill="#f9f2f6" d="M 361.5,50.5 C 361.5,52.8333 361.5,55.1667 361.5,57.5C 359.833,57.5 358.167,57.5 356.5,57.5C 357.568,56.5655 358.901,56.2322 360.5,56.5C 360.205,54.2646 360.539,52.2646 361.5,50.5 Z"/></g>
<g><path style="opacity:1" fill="#d8f8fc" d="M 370.5,57.5 C 372.833,57.5 375.167,57.5 377.5,57.5C 378.833,57.5 380.167,57.5 381.5,57.5C 380.817,59.1765 379.483,59.8432 377.5,59.5C 377.5,61.5 377.5,63.5 377.5,65.5C 375.167,65.5 372.833,65.5 370.5,65.5C 370.5,62.8333 370.5,60.1667 370.5,57.5 Z"/></g>
<g><path style="opacity:1" fill="#1f1935" d="M 356.5,57.5 C 358.167,57.5 359.833,57.5 361.5,57.5C 361.5,60.1667 361.5,62.8333 361.5,65.5C 359.833,65.5 358.167,65.5 356.5,65.5C 356.5,62.8333 356.5,60.1667 356.5,57.5 Z"/></g>
<g><path style="opacity:1" fill="#84b4d3" d="M 361.5,57.5 C 361.833,57.5 362.167,57.5 362.5,57.5C 363.833,57.5 365.167,57.5 366.5,57.5C 367.833,57.5 369.167,57.5 370.5,57.5C 370.5,60.1667 370.5,62.8333 370.5,65.5C 370.5,68.5 370.5,71.5 370.5,74.5C 374.329,73.931 377.663,74.5977 380.5,76.5C 375.833,76.5 371.167,76.5 366.5,76.5C 366.5,72.8333 366.5,69.1667 366.5,65.5C 364.833,65.5 363.167,65.5 361.5,65.5C 361.5,62.8333 361.5,60.1667 361.5,57.5 Z"/></g>
<g><path style="opacity:1" fill="#21263d" d="M 383.5,57.5 C 384.5,57.5 385.5,57.5 386.5,57.5C 386.5,60.1667 386.5,62.8333 386.5,65.5C 385.167,65.5 383.833,65.5 382.5,65.5C 382.194,62.6146 382.527,59.9479 383.5,57.5 Z"/></g>
<g><path style="opacity:0.161" fill="#e5dfe8" d="M 391.5,65.5 C 392.479,68.6248 392.813,71.9581 392.5,75.5C 394.735,75.2053 396.735,75.5386 398.5,76.5C 398.167,76.5 397.833,76.5 397.5,76.5C 395.5,76.5 393.5,76.5 391.5,76.5C 391.5,73.1667 391.5,69.8333 391.5,66.5C 391.5,66.1667 391.5,65.8333 391.5,65.5 Z"/></g>
<g><path style="opacity:1" fill="#6f6789" d="M 319.5,15.5 C 320.833,15.5 322.167,15.5 323.5,15.5C 323.5,15.8333 323.5,16.1667 323.5,16.5C 322.5,16.5 321.5,16.5 320.5,16.5C 321.154,35.5299 320.487,54.1966 318.5,72.5C 227.833,72.5 137.167,72.5 46.5,72.5C 37.5,72.5 28.5,72.5 19.5,72.5C 119.332,71.5006 219.332,71.1672 319.5,71.5C 319.5,69.1667 319.5,66.8333 319.5,64.5C 319.5,54.5 319.5,44.5 319.5,34.5C 319.5,28.1667 319.5,21.8333 319.5,15.5 Z"/></g>
<g><path style="opacity:1" fill="#9bd3ea" d="M 381.5,45.5 C 382.225,49.3953 382.891,53.3953 383.5,57.5C 382.527,59.9479 382.194,62.6146 382.5,65.5C 381.167,69.1667 381.167,72.8333 382.5,76.5C 381.833,76.5 381.167,76.5 380.5,76.5C 377.663,74.5977 374.329,73.931 370.5,74.5C 370.5,71.5 370.5,68.5 370.5,65.5C 372.833,65.5 375.167,65.5 377.5,65.5C 377.5,63.5 377.5,61.5 377.5,59.5C 379.483,59.8432 380.817,59.1765 381.5,57.5C 381.5,53.5 381.5,49.5 381.5,45.5 Z"/></g>
<g><path style="opacity:1" fill="#5a638b" d="M 356.5,57.5 C 356.5,60.1667 356.5,62.8333 356.5,65.5C 358.167,65.5 359.833,65.5 361.5,65.5C 363.167,65.5 364.833,65.5 366.5,65.5C 366.5,69.1667 366.5,72.8333 366.5,76.5C 363.167,76.5 359.833,76.5 356.5,76.5C 356.813,72.9581 356.479,69.6248 355.5,66.5C 354.5,66.5 353.5,66.5 352.5,66.5C 352.5,66.1667 352.5,65.8333 352.5,65.5C 353.5,65.5 354.5,65.5 355.5,65.5C 355.194,62.6146 355.527,59.9479 356.5,57.5 Z"/></g>
<g><path style="opacity:0.978" fill="#1e162d" d="M 391.5,66.5 C 391.5,69.8333 391.5,73.1667 391.5,76.5C 393.5,76.5 395.5,76.5 397.5,76.5C 397.5,77.5 397.5,78.5 397.5,79.5C 394.918,79.0254 392.918,79.6921 391.5,81.5C 390.167,81.5 388.833,81.5 387.5,81.5C 387.5,76.5 387.5,71.5 387.5,66.5C 388.833,66.5 390.167,66.5 391.5,66.5 Z"/></g>
<g><path style="opacity:1" fill="#4e3b56" d="M 15.5,16.5 C 16.5,16.5 17.5,16.5 18.5,16.5C 18.5,19.8333 18.5,23.1667 18.5,26.5C 18.5,39.1667 18.5,51.8333 18.5,64.5C 18.1936,67.3854 18.5269,70.0521 19.5,72.5C 28.5,72.5 37.5,72.5 46.5,72.5C 51.2528,73.9843 56.2528,74.8177 61.5,75C 54.5,75.3333 47.5,75.6667 40.5,76C 133.5,76.6667 226.5,76.6667 319.5,76C 319.957,75.586 320.291,75.086 320.5,74.5C 319.757,73.8182 319.091,73.1515 318.5,72.5C 320.487,54.1966 321.154,35.5299 320.5,16.5C 321.5,16.5 322.5,16.5 323.5,16.5C 323.5,33.8333 323.5,51.1667 323.5,68.5C 322.471,70.9476 321.804,73.6143 321.5,76.5C 322.356,149.775 322.69,222.941 322.5,296C 321.86,300.268 321.193,304.435 320.5,308.5C 320.833,231.332 320.499,154.332 319.5,77.5C 219.167,77.5 118.833,77.5 18.5,77.5C 18.5,79.8333 18.5,82.1667 18.5,84.5C 18.5,158.167 18.5,231.833 18.5,305.5C 18.5,307.833 18.5,310.167 18.5,312.5C 18.5,312.833 18.5,313.167 18.5,313.5C 18.5,313.833 18.5,314.167 18.5,314.5C 17.5,314.5 16.5,314.5 15.5,314.5C 15.5,220.167 15.5,125.833 15.5,31.5C 15.5,26.5 15.5,21.5 15.5,16.5 Z"/></g>
<g><path style="opacity:1" fill="#51365a" d="M 46.5,72.5 C 137.167,72.5 227.833,72.5 318.5,72.5C 319.091,73.1515 319.757,73.8182 320.5,74.5C 320.291,75.086 319.957,75.586 319.5,76C 226.5,76.6667 133.5,76.6667 40.5,76C 47.5,75.6667 54.5,75.3333 61.5,75C 56.2528,74.8177 51.2528,73.9843 46.5,72.5 Z"/></g>
<g><path style="opacity:1" fill="#76779b" d="M 18.5,64.5 C 20.1667,64.5 21.8333,64.5 23.5,64.5C 122.167,64.5 220.833,64.5 319.5,64.5C 319.5,66.8333 319.5,69.1667 319.5,71.5C 219.332,71.1672 119.332,71.5006 19.5,72.5C 18.5269,70.0521 18.1936,67.3854 18.5,64.5 Z"/></g>
<g><path style="opacity:1" fill="#e2f1fa" d="M 314.5,27.5 C 314.5,35.8333 314.5,44.1667 314.5,52.5C 312.833,52.5 311.167,52.5 309.5,52.5C 309.5,54.1667 309.5,55.8333 309.5,57.5C 307.5,57.5 305.5,57.5 303.5,57.5C 303.5,55.8333 303.5,54.1667 303.5,52.5C 302.5,52.5 301.5,52.5 300.5,52.5C 300.5,51.1667 300.5,49.8333 300.5,48.5C 302.167,48.5 303.833,48.5 305.5,48.5C 305.082,55.8605 306.082,56.1939 308.5,49.5C 309.689,48.5713 311.022,48.238 312.5,48.5C 311.872,41.0869 312.539,34.0869 314.5,27.5 Z"/></g>
<g><path style="opacity:1" fill="#bcc7de" d="M 18.5,26.5 C 20.1667,26.5 21.8333,26.5 23.5,26.5C 23.5,39.1667 23.5,51.8333 23.5,64.5C 21.8333,64.5 20.1667,64.5 18.5,64.5C 18.5,51.8333 18.5,39.1667 18.5,26.5 Z"/></g>
<g><path style="opacity:1" fill="#90afce" d="M 308.5,23.5 C 310.592,23.5614 312.092,24.5614 313,26.5C 314.107,25.2881 314.607,25.6214 314.5,27.5C 312.539,34.0869 311.872,41.0869 312.5,48.5C 311.022,48.238 309.689,48.5713 308.5,49.5C 306.082,56.1939 305.082,55.8605 305.5,48.5C 303.833,48.5 302.167,48.5 300.5,48.5C 300.5,49.8333 300.5,51.1667 300.5,52.5C 301.5,52.5 302.5,52.5 303.5,52.5C 303.5,54.1667 303.5,55.8333 303.5,57.5C 305.5,57.5 307.5,57.5 309.5,57.5C 309.5,55.8333 309.5,54.1667 309.5,52.5C 311.167,52.5 312.833,52.5 314.5,52.5C 314.738,46.0818 316.405,40.0818 319.5,34.5C 319.5,44.5 319.5,54.5 319.5,64.5C 220.833,64.5 122.167,64.5 23.5,64.5C 23.5,51.8333 23.5,39.1667 23.5,26.5C 24.8333,26.5 26.1667,26.5 27.5,26.5C 27.5,25.5 27.5,24.5 27.5,23.5C 121.167,23.5 214.833,23.5 308.5,23.5 Z"/></g>
<g><path style="opacity:1" fill="#a4a9b6" d="M 31.5,53.5 C 39.1667,53.5 46.8333,53.5 54.5,53.5C 54.5,47.8333 54.5,42.1667 54.5,36.5C 53.1667,36.5 51.8333,36.5 50.5,36.5C 50.5,35.1667 50.5,33.8333 50.5,32.5C 45.1667,32.5 39.8333,32.5 34.5,32.5C 34.5,33.8333 34.5,35.1667 34.5,36.5C 33.1667,36.5 31.8333,36.5 30.5,36.5C 30.5614,34.4078 31.5614,32.9078 33.5,32C 41.4483,30.5224 48.7816,31.689 55.5,35.5C 56.6636,41.4724 56.8303,47.4724 56,53.5C 55.5,54 55,54.5 54.5,55C 50.6667,55.1667 46.8333,55.3333 43,55.5C 38.771,55.4898 34.9377,54.8232 31.5,53.5 Z"/></g>
<g><path style="opacity:1" fill="#8f6857" d="M 30.5,36.5 C 31.8333,36.5 33.1667,36.5 34.5,36.5C 34.5,36.8333 34.5,37.1667 34.5,37.5C 32.0442,41.8792 32.0442,46.5459 34.5,51.5C 40.7221,52.8087 46.8888,52.8087 53,51.5C 53.6667,47.1667 53.6667,42.8333 53,38.5C 52.3292,37.7476 51.4959,37.4142 50.5,37.5C 50.5,37.1667 50.5,36.8333 50.5,36.5C 51.8333,36.5 53.1667,36.5 54.5,36.5C 54.5,42.1667 54.5,47.8333 54.5,53.5C 46.8333,53.5 39.1667,53.5 31.5,53.5C 30.5111,48.0247 30.1778,42.358 30.5,36.5 Z"/></g>
<g><path style="opacity:1" fill="#8097b5" d="M 236.5,51.5 C 242.167,51.5 247.833,51.5 253.5,51.5C 253.5,45.8333 253.5,40.1667 253.5,34.5C 254.222,34.9175 254.722,35.5842 255,36.5C 255.499,42.1569 255.666,47.8236 255.5,53.5C 247.833,53.5 240.167,53.5 232.5,53.5C 232.5,46.5 232.5,39.5 232.5,32.5C 233.5,32.5 234.5,32.5 235.5,32.5C 235.177,39.0221 235.51,45.3554 236.5,51.5 Z"/></g>
<g><path style="opacity:1" fill="#bf773e" d="M 34.5,37.5 C 34.19,40.7131 34.5233,43.7131 35.5,46.5C 35.5,47.8333 35.5,49.1667 35.5,50.5C 40.8333,50.5 46.1667,50.5 51.5,50.5C 51.8064,47.6146 51.4731,44.9479 50.5,42.5C 50.5,40.8333 50.5,39.1667 50.5,37.5C 51.4959,37.4142 52.3292,37.7476 53,38.5C 53.6667,42.8333 53.6667,47.1667 53,51.5C 46.8888,52.8087 40.7221,52.8087 34.5,51.5C 32.0442,46.5459 32.0442,41.8792 34.5,37.5 Z"/></g>
<g><path style="opacity:1" fill="#d47825" d="M 50.5,42.5 C 51.4731,44.9479 51.8064,47.6146 51.5,50.5C 46.1667,50.5 40.8333,50.5 35.5,50.5C 35.5,49.1667 35.5,47.8333 35.5,46.5C 40.5,46.5 45.5,46.5 50.5,46.5C 50.5,45.1667 50.5,43.8333 50.5,42.5 Z"/></g>
<g><path style="opacity:1" fill="#bfd3e8" d="M 252.5,33.5 C 253.167,33.5 253.5,33.8333 253.5,34.5C 253.5,40.1667 253.5,45.8333 253.5,51.5C 247.833,51.5 242.167,51.5 236.5,51.5C 236.5,50.1667 236.5,48.8333 236.5,47.5C 238.14,44.5122 238.974,41.1789 239,37.5C 240.356,36.6198 241.856,36.2865 243.5,36.5C 243.5,38.8333 243.5,41.1667 243.5,43.5C 242.167,43.5 240.833,43.5 239.5,43.5C 239.5,44.5 239.5,45.5 239.5,46.5C 242.833,46.5 246.167,46.5 249.5,46.5C 249.5,45.5 249.5,44.5 249.5,43.5C 248.5,43.5 247.5,43.5 246.5,43.5C 246.5,41.1667 246.5,38.8333 246.5,36.5C 248.492,36.3285 250.158,36.9951 251.5,38.5C 252.452,36.9547 252.785,35.288 252.5,33.5 Z"/></g>
<g><path style="opacity:1" fill="#cadcea" d="M 123.5,52.5 C 117.355,53.4902 111.022,53.8235 104.5,53.5C 104.5,46.5 104.5,39.5 104.5,32.5C 111.167,32.5 117.833,32.5 124.5,32.5C 124.824,39.3543 124.491,46.021 123.5,52.5 Z"/></g>
<g><path style="opacity:1" fill="#d1e2ef" d="M 269.5,33.5 C 275.167,33.5 280.833,33.5 286.5,33.5C 286.5,39.5 286.5,45.5 286.5,51.5C 280.833,51.5 275.167,51.5 269.5,51.5C 269.5,45.5 269.5,39.5 269.5,33.5 Z"/></g>
<g><path style="opacity:1" fill="#fadb90" d="M 50.5,36.5 C 50.5,36.8333 50.5,37.1667 50.5,37.5C 50.5,39.1667 50.5,40.8333 50.5,42.5C 50.5,43.8333 50.5,45.1667 50.5,46.5C 45.5,46.5 40.5,46.5 35.5,46.5C 34.5233,43.7131 34.19,40.7131 34.5,37.5C 34.5,37.1667 34.5,36.8333 34.5,36.5C 39.7694,33.8829 45.1027,33.8829 50.5,36.5 Z"/></g>
<g><path style="opacity:1" fill="#f7fdfd" d="M 123.5,52.5 C 117.5,52.5 111.5,52.5 105.5,52.5C 105.5,46.1667 105.5,39.8333 105.5,33.5C 111.5,33.5 117.5,33.5 123.5,33.5C 123.5,39.8333 123.5,46.1667 123.5,52.5 Z"/></g>
<g><path style="opacity:1" fill="#dcebf5" d="M 252.5,33.5 C 252.785,35.288 252.452,36.9547 251.5,38.5C 250.158,36.9951 248.492,36.3285 246.5,36.5C 246.5,38.8333 246.5,41.1667 246.5,43.5C 247.5,43.5 248.5,43.5 249.5,43.5C 249.5,44.5 249.5,45.5 249.5,46.5C 246.167,46.5 242.833,46.5 239.5,46.5C 239.5,45.5 239.5,44.5 239.5,43.5C 240.833,43.5 242.167,43.5 243.5,43.5C 243.5,41.1667 243.5,38.8333 243.5,36.5C 241.856,36.2865 240.356,36.6198 239,37.5C 238.974,41.1789 238.14,44.5122 236.5,47.5C 236.5,42.5 236.5,37.5 236.5,32.5C 242.026,32.1786 247.36,32.5119 252.5,33.5 Z"/></g>
<g><path style="opacity:1" fill="#e4ddb8" d="M 50.5,36.5 C 45.1027,33.8829 39.7694,33.8829 34.5,36.5C 34.5,35.1667 34.5,33.8333 34.5,32.5C 39.8333,32.5 45.1667,32.5 50.5,32.5C 50.5,33.8333 50.5,35.1667 50.5,36.5 Z"/></g>
<g><path style="opacity:1" fill="#a8dfea" d="M 141.5,30.5 C 148.833,30.5 156.167,30.5 163.5,30.5C 163.5,37.8333 163.5,45.1667 163.5,52.5C 156.167,52.5 148.833,52.5 141.5,52.5C 141.5,45.1667 141.5,37.8333 141.5,30.5 Z"/></g>
<g><path style="opacity:1" fill="#9badbc" d="M 69.5,53.5 C 68.5,53.5 67.5,53.5 66.5,53.5C 66.7116,47.9632 66.3783,42.4632 65.5,37C 65.7809,34.7084 66.4476,32.5417 67.5,30.5C 77.0299,29.1768 86.5299,29.1768 96,30.5C 98.1489,34.087 97.8155,37.4203 95,40.5C 94.6667,44.8333 94.3333,49.1667 94,53.5C 85.735,54.8276 77.5683,54.8276 69.5,53.5 Z"/></g>
<g><path style="opacity:1" fill="#8c604e" d="M 88.5,37.5 C 88.5,37.1667 88.5,36.8333 88.5,36.5C 89.8333,36.5 91.1667,36.5 92.5,36.5C 92.5,42.1667 92.5,47.8333 92.5,53.5C 84.8333,53.5 77.1667,53.5 69.5,53.5C 69.5,52.8333 69.5,52.1667 69.5,51.5C 76.932,52.811 84.2653,52.811 91.5,51.5C 91.6657,47.1539 91.499,42.8206 91,38.5C 90.3292,37.7476 89.4959,37.4142 88.5,37.5 Z"/></g>
<g><path style="opacity:1" fill="#b06e42" d="M 69.5,45.5 C 69.8333,45.5 70.1667,45.5 70.5,45.5C 70.8333,45.5 71.1667,45.5 71.5,45.5C 71.2606,47.4672 71.5939,49.3005 72.5,51C 78.8246,51.4995 85.1579,51.6662 91.5,51.5C 84.2653,52.811 76.932,52.811 69.5,51.5C 69.5,49.5 69.5,47.5 69.5,45.5 Z"/></g>
<g><path style="opacity:1" fill="#d37b2e" d="M 88.5,37.5 C 89.4959,37.4142 90.3292,37.7476 91,38.5C 91.499,42.8206 91.6657,47.1539 91.5,51.5C 85.1579,51.6662 78.8246,51.4995 72.5,51C 71.5939,49.3005 71.2606,47.4672 71.5,45.5C 77.1667,45.5 82.8333,45.5 88.5,45.5C 88.5,42.8333 88.5,40.1667 88.5,37.5 Z"/></g>
<g><path style="opacity:1" fill="#fae09c" d="M 88.5,35.5 C 88.5,35.8333 88.5,36.1667 88.5,36.5C 88.5,36.8333 88.5,37.1667 88.5,37.5C 88.5,40.1667 88.5,42.8333 88.5,45.5C 82.8333,45.5 77.1667,45.5 71.5,45.5C 71.1667,45.5 70.8333,45.5 70.5,45.5C 70.2065,41.5633 70.5399,37.73 71.5,34C 77.4553,32.9579 83.122,33.4579 88.5,35.5 Z"/></g>
<g><path style="opacity:1" fill="#d8dabf" d="M 88.5,35.5 C 83.122,33.4579 77.4553,32.9579 71.5,34C 70.5399,37.73 70.2065,41.5633 70.5,45.5C 70.1667,45.5 69.8333,45.5 69.5,45.5C 69.5,41.1667 69.5,36.8333 69.5,32.5C 75.8333,32.5 82.1667,32.5 88.5,32.5C 88.5,33.5 88.5,34.5 88.5,35.5 Z"/></g>
<g><path style="opacity:1" fill="#d1dfec" d="M 308.5,23.5 C 214.833,23.5 121.167,23.5 27.5,23.5C 27.5,24.5 27.5,25.5 27.5,26.5C 26.1667,26.5 24.8333,26.5 23.5,26.5C 23.5,25.5 23.5,24.5 23.5,23.5C 71.3946,22.1809 119.395,21.5143 167.5,21.5C 214.838,21.5001 261.838,22.1667 308.5,23.5 Z"/></g>
<g><path style="opacity:1" fill="#95a7c4" d="M 386.5,57.5 C 387.314,59.631 387.814,61.9644 388,64.5C 389.145,64.6191 390.312,64.9524 391.5,65.5C 391.5,65.8333 391.5,66.1667 391.5,66.5C 390.167,66.5 388.833,66.5 387.5,66.5C 387.5,71.5 387.5,76.5 387.5,81.5C 381.591,82.4553 375.591,82.7886 369.5,82.5C 365.167,82.5 360.833,82.5 356.5,82.5C 356.5,80.5 356.5,78.5 356.5,76.5C 359.833,76.5 363.167,76.5 366.5,76.5C 366.5,78.1667 366.5,79.8333 366.5,81.5C 371.833,81.5 377.167,81.5 382.5,81.5C 382.5,79.8333 382.5,78.1667 382.5,76.5C 381.167,72.8333 381.167,69.1667 382.5,65.5C 383.833,65.5 385.167,65.5 386.5,65.5C 386.5,62.8333 386.5,60.1667 386.5,57.5 Z"/></g>
<g><path style="opacity:1" fill="#f1fafd" d="M 366.5,76.5 C 371.167,76.5 375.833,76.5 380.5,76.5C 381.167,76.5 381.833,76.5 382.5,76.5C 382.5,78.1667 382.5,79.8333 382.5,81.5C 377.167,81.5 371.833,81.5 366.5,81.5C 366.5,79.8333 366.5,78.1667 366.5,76.5 Z"/></g>
<g><path style="opacity:1" fill="#92a7c3" d="M 397.5,76.5 C 397.833,76.5 398.167,76.5 398.5,76.5C 399.738,76.81 399.738,77.31 398.5,78C 399.955,79.6257 401.622,80.7924 403.5,81.5C 403.167,81.5 402.833,81.5 402.5,81.5C 401.167,81.5 399.833,81.5 398.5,81.5C 398.5,82.5 398.5,83.5 398.5,84.5C 396.167,84.5 393.833,84.5 391.5,84.5C 391.5,83.5 391.5,82.5 391.5,81.5C 392.918,79.6921 394.918,79.0254 397.5,79.5C 397.5,78.5 397.5,77.5 397.5,76.5 Z"/></g>
<g><path style="opacity:1" fill="#f5f4f9" d="M 18.5,84.5 C 19.1667,84.5 19.8333,84.5 20.5,84.5C 21.8333,84.5 23.1667,84.5 24.5,84.5C 24.5,158.167 24.5,231.833 24.5,305.5C 22.8333,305.5 21.1667,305.5 19.5,305.5C 19.1667,305.5 18.8333,305.5 18.5,305.5C 18.5,231.833 18.5,158.167 18.5,84.5 Z"/></g>
<g><path style="opacity:1" fill="#7a8fb4" d="M 387.5,81.5 C 387.5,91.5 387.5,101.5 387.5,111.5C 387.5,128.5 387.5,145.5 387.5,162.5C 386.833,162.5 386.167,162.5 385.5,162.5C 385.274,141.989 385.607,121.489 386.5,101C 386.381,97.1453 386.048,93.312 385.5,89.5C 385.38,87.4115 384.38,86.0782 382.5,85.5C 378.366,84.5151 374.032,84.1818 369.5,84.5C 369.5,83.8333 369.5,83.1667 369.5,82.5C 375.591,82.7886 381.591,82.4553 387.5,81.5 Z"/></g>
<g><path style="opacity:0.557" fill="#a49ba7" d="M 352.5,65.5 C 352.5,65.8333 352.5,66.1667 352.5,66.5C 352.667,97.8351 352.5,129.168 352,160.5C 351.722,161.416 351.222,162.082 350.5,162.5C 350.333,131.498 350.5,100.498 351,69.5C 351.21,67.9419 351.71,66.6085 352.5,65.5 Z"/></g>
<g><path style="opacity:1" fill="#deeafa" d="M 391.5,84.5 C 393.833,84.5 396.167,84.5 398.5,84.5C 398.5,101.5 398.5,118.5 398.5,135.5C 397.167,135.5 395.833,135.5 394.5,135.5C 394.5,119.833 394.5,104.167 394.5,88.5C 393.5,88.5 392.5,88.5 391.5,88.5C 391.5,87.1667 391.5,85.8333 391.5,84.5 Z"/></g>
<g><path style="opacity:1" fill="#6177a3" d="M 356.5,82.5 C 360.833,82.5 365.167,82.5 369.5,82.5C 369.5,83.1667 369.5,83.8333 369.5,84.5C 368.504,84.4142 367.671,84.7476 367,85.5C 366.5,111.165 366.333,136.831 366.5,162.5C 364.833,162.5 363.167,162.5 361.5,162.5C 361.5,136.167 361.5,109.833 361.5,83.5C 359.585,83.7845 357.919,83.4511 356.5,82.5 Z"/></g>
<g><path style="opacity:1" fill="#271a33" d="M 402.5,81.5 C 402.833,113.174 402.5,144.84 401.5,176.5C 400.833,176.833 400.167,177.167 399.5,177.5C 398.526,175.257 398.192,172.924 398.5,170.5C 398.5,170.167 398.5,169.833 398.5,169.5C 398.5,167.167 398.5,164.833 398.5,162.5C 398.5,153.5 398.5,144.5 398.5,135.5C 398.5,118.5 398.5,101.5 398.5,84.5C 398.5,83.5 398.5,82.5 398.5,81.5C 399.833,81.5 401.167,81.5 402.5,81.5 Z"/></g>
<g><path style="opacity:0.905" fill="#bfb9c7" d="M 15.5,15.5 C 15.5,15.8333 15.5,16.1667 15.5,16.5C 15.5,21.5 15.5,26.5 15.5,31.5C 11.5422,30.8911 9.37557,32.5578 9,36.5C 8.12637,49.3186 7.62637,62.1519 7.5,75C 7.49607,116.791 7.66273,158.624 8,200.5C 8.2695,203.224 8.7695,205.891 9.5,208.5C 8.17956,215.128 8.17956,221.794 9.5,228.5C 8.86971,233.34 8.20304,238.173 7.5,243C 8.85234,245.261 9.51901,247.761 9.5,250.5C 8.71666,272.437 8.04999,294.27 7.5,316C 9.76442,319.797 10.9311,323.964 11,328.5C 12.3561,329.38 13.8561,329.714 15.5,329.5C 15.8333,331.5 16.1667,333.5 16.5,335.5C 42.6496,335.48 68.8163,335.813 95,336.5C 104.077,336.705 112.077,336.039 119,334.5C 123.849,335.55 128.182,336.216 132,336.5C 132.667,333.833 133.333,333.833 134,336.5C 134.667,333.833 135.333,333.833 136,336.5C 136.667,333.833 137.333,333.833 138,336.5C 138.667,333.833 139.333,333.833 140,336.5C 140.667,333.833 141.333,333.833 142,336.5C 142.333,335.833 142.667,335.167 143,334.5C 147.423,335.032 151.923,335.365 156.5,335.5C 157.478,335.023 158.311,334.357 159,333.5C 164.59,334.809 170.423,335.475 176.5,335.5C 221.151,337.163 265.818,337.829 310.5,337.5C 212.334,338.666 114.001,338.832 15.5,338C 14.565,335.619 14.2317,333.119 14.5,330.5C 12.8561,330.714 11.3561,330.38 10,329.5C 10.3156,325.863 8.98228,323.196 6,321.5C 5.33333,224.833 5.33333,128.167 6,31.5C 8.66667,30.8333 11.3333,30.1667 14,29.5C 14.1745,24.6486 14.6745,19.9819 15.5,15.5 Z"/></g>
<g><path style="opacity:0.915" fill="#504153" d="M 323.5,68.5 C 323.5,150.167 323.5,231.833 323.5,313.5C 322.5,313.5 321.5,313.5 320.5,313.5C 320.5,311.833 320.5,310.167 320.5,308.5C 321.193,304.435 321.86,300.268 322.5,296C 322.69,222.941 322.356,149.775 321.5,76.5C 321.804,73.6143 322.471,70.9476 323.5,68.5 Z"/></g>
<g><path style="opacity:0.427" fill="#b9b0b8" d="M 323.5,15.5 C 323.833,15.5 324.167,15.5 324.5,15.5C 325.664,113.43 325.831,211.43 325,309.5C 324.79,311.058 324.29,312.391 323.5,313.5C 323.5,231.833 323.5,150.167 323.5,68.5C 323.5,51.1667 323.5,33.8333 323.5,16.5C 323.5,16.1667 323.5,15.8333 323.5,15.5 Z"/></g>
<g><path style="opacity:1" fill="#75a0c2" d="M 382.5,85.5 C 384.38,86.0782 385.38,87.4115 385.5,89.5C 386.048,93.312 386.381,97.1453 386.5,101C 385.607,121.489 385.274,141.989 385.5,162.5C 384.5,162.5 383.5,162.5 382.5,162.5C 382.5,136.833 382.5,111.167 382.5,85.5 Z"/></g>
<g><path style="opacity:1" fill="#2a2045" d="M 387.5,81.5 C 388.833,81.5 390.167,81.5 391.5,81.5C 391.5,82.5 391.5,83.5 391.5,84.5C 391.5,85.8333 391.5,87.1667 391.5,88.5C 391.5,114.833 391.5,141.167 391.5,167.5C 390.921,148.725 389.587,130.059 387.5,111.5C 387.5,101.5 387.5,91.5 387.5,81.5 Z"/></g>
<g><path style="opacity:1" fill="#98d7f0" d="M 369.5,84.5 C 374.032,84.1818 378.366,84.5151 382.5,85.5C 382.5,111.167 382.5,136.833 382.5,162.5C 378.5,162.5 374.5,162.5 370.5,162.5C 369.536,136.526 369.203,110.526 369.5,84.5 Z"/></g>
<g><path style="opacity:1" fill="#65668a" d="M 391.5,88.5 C 392.5,88.5 393.5,88.5 394.5,88.5C 394.5,104.167 394.5,119.833 394.5,135.5C 394.5,144.5 394.5,153.5 394.5,162.5C 394.5,164.833 394.5,167.167 394.5,169.5C 395.833,169.5 397.167,169.5 398.5,169.5C 398.5,169.833 398.5,170.167 398.5,170.5C 396.167,170.5 393.833,170.5 391.5,170.5C 391.5,169.5 391.5,168.5 391.5,167.5C 391.5,141.167 391.5,114.833 391.5,88.5 Z"/></g>
<g><path style="opacity:1" fill="#b9f2fc" d="M 377.5,86.5 C 378.833,86.5 380.167,86.5 381.5,86.5C 381.5,110.167 381.5,133.833 381.5,157.5C 380.5,157.5 379.5,157.5 378.5,157.5C 377.762,133.841 377.428,110.174 377.5,86.5 Z"/></g>
<g><path style="opacity:1" fill="#6a95bc" d="M 369.5,84.5 C 369.203,110.526 369.536,136.526 370.5,162.5C 369.167,162.5 367.833,162.5 366.5,162.5C 366.333,136.831 366.5,111.165 367,85.5C 367.671,84.7476 368.504,84.4142 369.5,84.5 Z"/></g>
<g><path style="opacity:1" fill="#b6bbdc" d="M 394.5,135.5 C 395.833,135.5 397.167,135.5 398.5,135.5C 398.5,144.5 398.5,153.5 398.5,162.5C 397.167,162.5 395.833,162.5 394.5,162.5C 394.5,153.5 394.5,144.5 394.5,135.5 Z"/></g>
<g><path style="opacity:1" fill="#f7f5fe" d="M 394.5,162.5 C 395.833,162.5 397.167,162.5 398.5,162.5C 398.5,164.833 398.5,167.167 398.5,169.5C 397.167,169.5 395.833,169.5 394.5,169.5C 394.5,167.167 394.5,164.833 394.5,162.5 Z"/></g>
<g><path style="opacity:1" fill="#9995b8" d="M 361.5,162.5 C 363.167,162.5 364.833,162.5 366.5,162.5C 366.5,164.833 366.5,167.167 366.5,169.5C 371.833,169.5 377.167,169.5 382.5,169.5C 384.167,169.5 385.833,169.5 387.5,169.5C 387.5,169.833 387.5,170.167 387.5,170.5C 377.833,170.5 368.167,170.5 358.5,170.5C 358.5,167.833 358.5,165.167 358.5,162.5C 359.5,162.5 360.5,162.5 361.5,162.5 Z"/></g>
<g><path style="opacity:1" fill="#b2bfd8" d="M 382.5,162.5 C 383.5,162.5 384.5,162.5 385.5,162.5C 386.167,162.5 386.833,162.5 387.5,162.5C 387.5,164.833 387.5,167.167 387.5,169.5C 385.833,169.5 384.167,169.5 382.5,169.5C 382.5,167.167 382.5,164.833 382.5,162.5 Z"/></g>
<g><path style="opacity:1" fill="#f0f3f8" d="M 366.5,162.5 C 367.833,162.5 369.167,162.5 370.5,162.5C 374.5,162.5 378.5,162.5 382.5,162.5C 382.5,164.833 382.5,167.167 382.5,169.5C 377.167,169.5 371.833,169.5 366.5,169.5C 366.5,167.167 366.5,164.833 366.5,162.5 Z"/></g>
<g><path style="opacity:1" fill="#7f7387" d="M 402.5,81.5 C 402.833,81.5 403.167,81.5 403.5,81.5C 404.4,111.829 404.567,142.162 404,172.5C 404.143,176.466 402.309,178.466 398.5,178.5C 398.768,180.099 398.434,181.432 397.5,182.5C 395.833,182.5 394.167,182.5 392.5,182.5C 393.919,181.549 395.585,181.216 397.5,181.5C 397.5,180.167 397.5,178.833 397.5,177.5C 395.5,177.5 393.5,177.5 391.5,177.5C 391.5,175.167 391.5,172.833 391.5,170.5C 393.833,170.5 396.167,170.5 398.5,170.5C 398.192,172.924 398.526,175.257 399.5,177.5C 400.167,177.167 400.833,176.833 401.5,176.5C 402.5,144.84 402.833,113.174 402.5,81.5 Z"/></g>
<g><path style="opacity:1" fill="#3f3865" d="M 355.5,66.5 C 356.479,69.6248 356.813,72.9581 356.5,76.5C 356.5,78.5 356.5,80.5 356.5,82.5C 357.919,83.4511 359.585,83.7845 361.5,83.5C 361.5,109.833 361.5,136.167 361.5,162.5C 360.5,162.5 359.5,162.5 358.5,162.5C 358.5,165.167 358.5,167.833 358.5,170.5C 368.167,170.5 377.833,170.5 387.5,170.5C 388.067,172.698 388.067,175.031 387.5,177.5C 386.167,177.5 384.833,177.5 383.5,177.5C 383.5,176.167 383.5,174.833 383.5,173.5C 377.828,173.24 372.161,172.907 366.5,172.5C 366.5,174.167 366.5,175.833 366.5,177.5C 364.408,177.561 362.908,178.561 362,180.5C 361.5,212.498 361.333,244.498 361.5,276.5C 359.833,276.5 358.167,276.5 356.5,276.5C 356.525,244.341 356.525,212.341 356.5,180.5C 356.942,179.261 357.609,178.261 358.5,177.5C 358.5,176.167 358.5,174.833 358.5,173.5C 357.5,173.5 356.5,173.5 355.5,173.5C 355.5,137.833 355.5,102.167 355.5,66.5 Z"/></g>
<g><path style="opacity:1" fill="#2d1e45" d="M 358.5,177.5 C 357.609,178.261 356.942,179.261 356.5,180.5C 356.525,212.341 356.525,244.341 356.5,276.5C 356.167,276.5 355.833,276.5 355.5,276.5C 355.5,243.5 355.5,210.5 355.5,177.5C 356.5,177.5 357.5,177.5 358.5,177.5 Z"/></g>
<g><path style="opacity:1" fill="#21122d" d="M 352.5,66.5 C 353.5,66.5 354.5,66.5 355.5,66.5C 355.5,102.167 355.5,137.833 355.5,173.5C 356.5,173.5 357.5,173.5 358.5,173.5C 358.5,174.833 358.5,176.167 358.5,177.5C 357.5,177.5 356.5,177.5 355.5,177.5C 355.5,210.5 355.5,243.5 355.5,276.5C 355.027,277.906 354.027,278.573 352.5,278.5C 352.667,245.165 352.5,211.832 352,178.5C 351.617,177.944 351.117,177.611 350.5,177.5C 349.167,172.5 349.167,167.5 350.5,162.5C 351.222,162.082 351.722,161.416 352,160.5C 352.5,129.168 352.667,97.8351 352.5,66.5 Z"/></g>
<g><path style="opacity:1" fill="#7e8eb1" d="M 383.5,177.5 C 384.833,177.5 386.167,177.5 387.5,177.5C 387.5,210.5 387.5,243.5 387.5,276.5C 381.5,276.5 375.5,276.5 369.5,276.5C 368.833,276.5 368.167,276.5 367.5,276.5C 367.5,276.167 367.5,275.833 367.5,275.5C 368.5,275.5 369.5,275.5 370.5,275.5C 374.5,275.5 378.5,275.5 382.5,275.5C 383.822,275.67 384.989,275.337 386,274.5C 386.833,243.161 386.667,211.828 385.5,180.5C 384.081,179.995 383.415,178.995 383.5,177.5 Z"/></g>
<g><path style="opacity:1" fill="#739cc2" d="M 377.5,177.5 C 379.5,177.5 381.5,177.5 383.5,177.5C 383.415,178.995 384.081,179.995 385.5,180.5C 386.667,211.828 386.833,243.161 386,274.5C 384.989,275.337 383.822,275.67 382.5,275.5C 382.832,243.662 382.498,211.996 381.5,180.5C 380.167,180.5 378.833,180.5 377.5,180.5C 375.167,180.5 372.833,180.5 370.5,180.5C 372.508,178.917 374.841,177.917 377.5,177.5 Z"/></g>
<g><path style="opacity:1" fill="#c1c5d7" d="M 310.5,309.5 C 311.15,309.196 311.817,308.863 312.5,308.5C 313.202,301.809 313.868,295.143 314.5,288.5C 313.179,222.697 313.179,156.863 314.5,91C 314.457,87.8319 313.791,84.8319 312.5,82C 309.813,81.4626 307.313,81.9626 305,83.5C 275.565,82.5779 246.231,82.5779 217,83.5C 211.231,83.607 205.898,82.9403 201,81.5C 184.586,82.7899 168.086,83.4566 151.5,83.5C 127.65,83.1531 104.15,82.4864 81,81.5C 77.5344,82.202 74.0344,82.8687 70.5,83.5C 63.8805,82.8514 57.2138,82.518 50.5,82.5C 43.7963,82.5036 37.463,83.1702 31.5,84.5C 30.1682,156.334 30.1682,228.334 31.5,300.5C 32.2811,301.729 32.7811,303.062 33,304.5C 33.6708,305.252 34.5041,305.586 35.5,305.5C 35.6107,306.117 35.944,306.617 36.5,307C 124.277,307.173 211.61,307.673 298.5,308.5C 280.48,309.797 261.98,309.797 243,308.5C 230.239,308.484 217.572,309.15 205,310.5C 201,310.5 197,310.5 193,310.5C 192.161,309.376 190.994,308.709 189.5,308.5C 139.914,309.137 90.0805,309.47 40,309.5C 36.0379,309.27 32.8712,307.603 30.5,304.5C 29.7702,305.934 28.7702,307.1 27.5,308C 27.8333,308.333 28.1667,308.667 28.5,309C 24.3581,311.064 21.3581,309.897 19.5,305.5C 21.1667,305.5 22.8333,305.5 24.5,305.5C 24.5,231.833 24.5,158.167 24.5,84.5C 23.1667,84.5 21.8333,84.5 20.5,84.5C 20.7135,82.8561 20.3802,81.3561 19.5,80C 20.5,79.6667 21.5,79.3333 22.5,79C 120.5,78.3333 218.5,78.3333 316.5,79C 315.662,100.287 315.662,121.62 316.5,143C 315.74,155.436 315.074,167.936 314.5,180.5C 315.179,210.331 315.846,240.165 316.5,270C 316.325,272.823 315.658,275.49 314.5,278C 315.01,287.896 316.01,297.729 317.5,307.5C 316.262,309.637 314.429,310.971 312,311.5C 311.283,310.956 310.783,310.289 310.5,309.5 Z"/></g>
<g><path style="opacity:1" fill="#fbfdfd" d="M 311.5,304.5 C 219.668,305.499 127.668,305.833 35.5,305.5C 35.5759,303.696 35.2425,301.696 34.5,299.5C 122.271,299.193 209.937,299.527 297.5,300.5C 299.608,300.14 301.608,299.473 303.5,298.5C 214.169,297.667 124.835,297.167 35.5,297C 34.1723,280.196 34.1723,263.363 35.5,246.5C 34.7868,244.224 34.2868,241.891 34,239.5C 33.8325,252.865 33.1658,266.199 32,279.5C 31.6524,223.811 31.4857,168.145 31.5,112.5C 31.6667,104.833 31.8333,97.1667 32,89.5C 32.3095,88.2341 32.8095,87.0674 33.5,86C 125.974,85.5108 218.641,85.3441 311.5,85.5C 311.5,158.5 311.5,231.5 311.5,304.5 Z"/></g>
<g><path style="opacity:1" fill="#5a6d9a" d="M 383.5,177.5 C 381.5,177.5 379.5,177.5 377.5,177.5C 374.813,177.336 372.146,177.503 369.5,178C 368.333,178.5 367.5,179.333 367,180.5C 366.169,212.336 366.336,244.003 367.5,275.5C 367.5,275.833 367.5,276.167 367.5,276.5C 365.5,276.5 363.5,276.5 361.5,276.5C 361.333,244.498 361.5,212.498 362,180.5C 362.908,178.561 364.408,177.561 366.5,177.5C 366.5,175.833 366.5,174.167 366.5,172.5C 372.161,172.907 377.828,173.24 383.5,173.5C 383.5,174.833 383.5,176.167 383.5,177.5 Z"/></g>
<g><path style="opacity:1" fill="#1f1435" d="M 387.5,111.5 C 389.587,130.059 390.921,148.725 391.5,167.5C 391.5,168.5 391.5,169.5 391.5,170.5C 391.5,172.833 391.5,175.167 391.5,177.5C 393.5,177.5 395.5,177.5 397.5,177.5C 397.5,178.833 397.5,180.167 397.5,181.5C 395.585,181.216 393.919,181.549 392.5,182.5C 391.833,182.5 391.5,182.833 391.5,183.5C 390.668,212.664 390.168,241.997 390,271.5C 389.626,273.491 388.793,275.158 387.5,276.5C 387.5,243.5 387.5,210.5 387.5,177.5C 388.067,175.031 388.067,172.698 387.5,170.5C 387.5,170.167 387.5,169.833 387.5,169.5C 387.5,167.167 387.5,164.833 387.5,162.5C 387.5,145.5 387.5,128.5 387.5,111.5 Z"/></g>
<g><path style="opacity:0.481" fill="#a399a6" d="M 350.5,177.5 C 351.117,177.611 351.617,177.944 352,178.5C 352.5,211.832 352.667,245.165 352.5,278.5C 352.5,287.5 352.5,296.5 352.5,305.5C 354.099,305.232 355.432,305.566 356.5,306.5C 355.06,307.363 353.726,307.363 352.5,306.5C 351.117,263.511 350.45,220.511 350.5,177.5 Z"/></g>
<g><path style="opacity:1" fill="#83badd" d="M 370.5,180.5 C 372.833,180.5 375.167,180.5 377.5,180.5C 377.159,208.185 377.659,235.852 379,263.5C 379.471,265.246 380.138,266.913 381,268.5C 381.5,239.169 381.667,209.835 381.5,180.5C 382.498,211.996 382.832,243.662 382.5,275.5C 378.5,275.5 374.5,275.5 370.5,275.5C 370.5,243.833 370.5,212.167 370.5,180.5 Z"/></g>
<g><path style="opacity:0.236" fill="#cac0cb" d="M 392.5,182.5 C 394.167,182.5 395.833,182.5 397.5,182.5C 396.048,183.302 394.382,183.802 392.5,184C 392.995,186.662 393.328,189.329 393.5,192C 392.842,229.973 392.176,267.806 391.5,305.5C 391.5,264.833 391.5,224.167 391.5,183.5C 391.5,182.833 391.833,182.5 392.5,182.5 Z"/></g>
<g><path style="opacity:1" fill="#91ceee" d="M 377.5,180.5 C 378.833,180.5 380.167,180.5 381.5,180.5C 381.667,209.835 381.5,239.169 381,268.5C 380.138,266.913 379.471,265.246 379,263.5C 377.659,235.852 377.159,208.185 377.5,180.5 Z"/></g>
<g><path style="opacity:1" fill="#668eb7" d="M 377.5,177.5 C 374.841,177.917 372.508,178.917 370.5,180.5C 370.5,212.167 370.5,243.833 370.5,275.5C 369.5,275.5 368.5,275.5 367.5,275.5C 366.336,244.003 366.169,212.336 367,180.5C 367.5,179.333 368.333,178.5 369.5,178C 372.146,177.503 374.813,177.336 377.5,177.5 Z"/></g>
<g><path style="opacity:1" fill="#c4c8d5" d="M 310.5,309.5 C 308.599,309.433 306.766,309.767 305,310.5C 302.953,309.391 300.787,308.724 298.5,308.5C 211.61,307.673 124.277,307.173 36.5,307C 35.944,306.617 35.6107,306.117 35.5,305.5C 127.668,305.833 219.668,305.499 311.5,304.5C 312.499,231.335 312.833,158.002 312.5,84.5C 218.833,84.5 125.167,84.5 31.5,84.5C 37.463,83.1702 43.7963,82.5036 50.5,82.5C 57.2138,82.518 63.8805,82.8514 70.5,83.5C 74.0344,82.8687 77.5344,82.202 81,81.5C 104.15,82.4864 127.65,83.1531 151.5,83.5C 168.086,83.4566 184.586,82.7899 201,81.5C 205.898,82.9403 211.231,83.607 217,83.5C 246.231,82.5779 275.565,82.5779 305,83.5C 307.313,81.9626 309.813,81.4626 312.5,82C 313.791,84.8319 314.457,87.8319 314.5,91C 313.179,156.863 313.179,222.697 314.5,288.5C 313.868,295.143 313.202,301.809 312.5,308.5C 311.817,308.863 311.15,309.196 310.5,309.5 Z"/></g>
<g><path style="opacity:1" fill="#291525" d="M 391.5,183.5 C 391.5,224.167 391.5,264.833 391.5,305.5C 389.517,305.843 388.183,305.176 387.5,303.5C 388.825,299.724 389.491,295.557 389.5,291C 389.491,286.443 388.825,282.276 387.5,278.5C 387.5,277.833 387.5,277.167 387.5,276.5C 388.793,275.158 389.626,273.491 390,271.5C 390.168,241.997 390.668,212.664 391.5,183.5 Z"/></g>
<g><path style="opacity:1" fill="#5c3a40" d="M 369.5,276.5 C 375.5,276.5 381.5,276.5 387.5,276.5C 387.5,277.167 387.5,277.833 387.5,278.5C 387.5,278.833 387.5,279.167 387.5,279.5C 386.833,279.5 386.167,279.5 385.5,279.5C 384.5,279.5 383.5,279.5 382.5,279.5C 380.833,279.5 379.167,279.5 377.5,279.5C 376.167,279.5 374.833,279.5 373.5,279.5C 371.167,279.5 368.833,279.5 366.5,279.5C 364.833,279.5 363.167,279.5 361.5,279.5C 360.5,279.5 359.5,279.5 358.5,279.5C 362.066,278.097 365.733,277.097 369.5,276.5 Z"/></g>
<g><path style="opacity:1" fill="#fef1ba" d="M 373.5,279.5 C 374.833,279.5 376.167,279.5 377.5,279.5C 377.5,282.167 377.5,284.833 377.5,287.5C 376.167,287.5 374.833,287.5 373.5,287.5C 373.5,284.833 373.5,282.167 373.5,279.5 Z"/></g>
<g><path style="opacity:1" fill="#edb97b" d="M 366.5,279.5 C 368.833,279.5 371.167,279.5 373.5,279.5C 373.5,282.167 373.5,284.833 373.5,287.5C 372.5,287.5 371.5,287.5 370.5,287.5C 369.167,287.5 367.833,287.5 366.5,287.5C 366.5,284.833 366.5,282.167 366.5,279.5 Z"/></g>
<g><path style="opacity:1" fill="#d28756" d="M 382.5,279.5 C 383.5,279.5 384.5,279.5 385.5,279.5C 386.388,282.054 386.721,284.721 386.5,287.5C 385.167,287.5 383.833,287.5 382.5,287.5C 382.5,284.833 382.5,282.167 382.5,279.5 Z"/></g>
<g><path style="opacity:1" fill="#883531" d="M 361.5,281.5 C 361.5,283.5 361.5,285.5 361.5,287.5C 363.167,287.5 364.833,287.5 366.5,287.5C 367.833,287.5 369.167,287.5 370.5,287.5C 370.5,288.833 370.5,290.167 370.5,291.5C 369.167,291.5 367.833,291.5 366.5,291.5C 364.833,291.5 363.167,291.5 361.5,291.5C 361.5,295.167 361.5,298.833 361.5,302.5C 359.286,301.608 358.286,299.942 358.5,297.5C 358.86,294.921 359.526,292.421 360.5,290C 358.742,287.733 358.242,285.233 359,282.5C 359.671,281.748 360.504,281.414 361.5,281.5 Z"/></g>
<g><path style="opacity:1" fill="#c97c63" d="M 361.5,279.5 C 363.167,279.5 364.833,279.5 366.5,279.5C 366.5,282.167 366.5,284.833 366.5,287.5C 364.833,287.5 363.167,287.5 361.5,287.5C 361.5,285.5 361.5,283.5 361.5,281.5C 361.5,280.833 361.5,280.167 361.5,279.5 Z"/></g>
<g><path style="opacity:1" fill="#f7cf8e" d="M 377.5,279.5 C 379.167,279.5 380.833,279.5 382.5,279.5C 382.5,282.167 382.5,284.833 382.5,287.5C 380.833,287.5 379.167,287.5 377.5,287.5C 377.5,284.833 377.5,282.167 377.5,279.5 Z"/></g>
<g><path style="opacity:1" fill="#ad693c" d="M 370.5,287.5 C 371.5,287.5 372.5,287.5 373.5,287.5C 374.833,287.5 376.167,287.5 377.5,287.5C 379.167,287.5 380.833,287.5 382.5,287.5C 382.5,288.833 382.5,290.167 382.5,291.5C 378.5,291.5 374.5,291.5 370.5,291.5C 370.5,290.167 370.5,288.833 370.5,287.5 Z"/></g>
<g><path style="opacity:1" fill="#8f4437" d="M 385.5,279.5 C 386.167,279.5 386.833,279.5 387.5,279.5C 387.5,283.833 387.5,288.167 387.5,292.5C 385.883,291.962 384.216,291.629 382.5,291.5C 382.5,290.167 382.5,288.833 382.5,287.5C 383.833,287.5 385.167,287.5 386.5,287.5C 386.721,284.721 386.388,282.054 385.5,279.5 Z"/></g>
<g><path style="opacity:1" fill="#340509" d="M 387.5,278.5 C 388.825,282.276 389.491,286.443 389.5,291C 389.491,295.557 388.825,299.724 387.5,303.5C 387.5,303.167 387.5,302.833 387.5,302.5C 387.5,299.167 387.5,295.833 387.5,292.5C 387.5,288.167 387.5,283.833 387.5,279.5C 387.5,279.167 387.5,278.833 387.5,278.5 Z"/></g>
<g><path style="opacity:1" fill="#7a3a49" d="M 358.5,279.5 C 359.5,279.5 360.5,279.5 361.5,279.5C 361.5,280.167 361.5,280.833 361.5,281.5C 360.504,281.414 359.671,281.748 359,282.5C 358.242,285.233 358.742,287.733 360.5,290C 359.526,292.421 358.86,294.921 358.5,297.5C 358.286,299.942 359.286,301.608 361.5,302.5C 361.5,302.833 361.5,303.167 361.5,303.5C 359.833,303.5 358.167,303.5 356.5,303.5C 355.866,295.097 356.533,287.097 358.5,279.5 Z"/></g>
<g><path style="opacity:1" fill="#dc8d59" d="M 366.5,291.5 C 367.833,291.5 369.167,291.5 370.5,291.5C 370.5,294.833 370.5,298.167 370.5,301.5C 369.167,301.5 367.833,301.5 366.5,301.5C 366.5,298.167 366.5,294.833 366.5,291.5 Z"/></g>
<g><path style="opacity:1" fill="#f3f5fa" d="M 31.5,84.5 C 125.167,84.5 218.833,84.5 312.5,84.5C 312.833,158.002 312.499,231.335 311.5,304.5C 311.5,231.5 311.5,158.5 311.5,85.5C 218.641,85.3441 125.974,85.5108 33.5,86C 32.8095,87.0674 32.3095,88.2341 32,89.5C 31.8333,97.1667 31.6667,104.833 31.5,112.5C 31.4857,168.145 31.6524,223.811 32,279.5C 33.1658,266.199 33.8325,252.865 34,239.5C 34.2868,241.891 34.7868,244.224 35.5,246.5C 34.1723,263.363 34.1723,280.196 35.5,297C 124.835,297.167 214.169,297.667 303.5,298.5C 301.608,299.473 299.608,300.14 297.5,300.5C 209.937,299.527 122.271,299.193 34.5,299.5C 35.2425,301.696 35.5759,303.696 35.5,305.5C 34.5041,305.586 33.6708,305.252 33,304.5C 32.7811,303.062 32.2811,301.729 31.5,300.5C 30.1682,228.334 30.1682,156.334 31.5,84.5 Z"/></g>
<g><path style="opacity:1" fill="#acb9cb" d="M 279.5,274.5 C 279.5,280.167 279.5,285.833 279.5,291.5C 285.167,291.5 290.833,291.5 296.5,291.5C 296.5,285.833 296.5,280.167 296.5,274.5C 297.833,274.5 299.167,274.5 300.5,274.5C 300.5,281.167 300.5,287.833 300.5,294.5C 292.16,294.666 283.827,294.5 275.5,294C 274.522,287.59 274.189,281.09 274.5,274.5C 276.167,274.5 277.833,274.5 279.5,274.5 Z"/></g>
<g><path style="opacity:1" fill="#cbddea" d="M 279.5,274.5 C 285.167,274.5 290.833,274.5 296.5,274.5C 296.5,280.167 296.5,285.833 296.5,291.5C 290.833,291.5 285.167,291.5 279.5,291.5C 279.5,285.833 279.5,280.167 279.5,274.5 Z"/></g>
<g><path style="opacity:1" fill="#f3fbfc" d="M 282.5,279.5 C 286.833,279.5 291.167,279.5 295.5,279.5C 295.777,282.448 295.444,285.281 294.5,288C 292.255,287.805 290.422,286.638 289,284.5C 287.211,286.229 285.044,286.896 282.5,286.5C 282.5,284.167 282.5,281.833 282.5,279.5 Z"/></g>
<g><path style="opacity:1" fill="#cbd0dc" d="M 58.5,241.5 C 82.6609,240.502 106.994,240.169 131.5,240.5C 131.768,243.119 131.435,245.619 130.5,248C 106.169,248.5 81.8356,248.667 57.5,248.5C 57.1984,245.941 57.5318,243.607 58.5,241.5 Z"/></g>
<g><path style="opacity:1" fill="#bcc2d5" d="M 58.5,241.5 C 81.1564,242.218 103.823,242.718 126.5,243C 128.037,244.11 128.703,245.61 128.5,247.5C 105.167,247.5 81.8333,247.5 58.5,247.5C 58.5,245.5 58.5,243.5 58.5,241.5 Z"/></g>
<g><path style="opacity:1" fill="#bec6d6" d="M 57.5,221.5 C 82.1667,221.5 106.833,221.5 131.5,221.5C 131.5,223.833 131.5,226.167 131.5,228.5C 106.833,228.5 82.1667,228.5 57.5,228.5C 57.5,226.167 57.5,223.833 57.5,221.5 Z"/></g>
<g><path style="opacity:1" fill="#bdc3d6" d="M 58.5,203.5 C 84.1667,203.5 109.833,203.5 135.5,203.5C 135.5,205.5 135.5,207.5 135.5,209.5C 109.833,209.5 84.1667,209.5 58.5,209.5C 58.5,207.5 58.5,205.5 58.5,203.5 Z"/></g>
<g><path style="opacity:1" fill="#c3cadc" d="M 57.5,184.5 C 83.5021,184.333 109.502,184.5 135.5,185C 136.423,187.041 136.756,189.208 136.5,191.5C 110.498,191.667 84.4979,191.5 58.5,191C 57.5769,188.959 57.2436,186.792 57.5,184.5 Z"/></g>
<g><path style="opacity:1" fill="#dadeeb" d="M 272.5,169.5 C 272.5,167.5 272.5,165.5 272.5,163.5C 201.167,163.5 129.833,163.5 58.5,163.5C 58.5,165.5 58.5,167.5 58.5,169.5C 57.5318,167.393 57.1984,165.059 57.5,162.5C 129.5,162.5 201.5,162.5 273.5,162.5C 273.802,165.059 273.468,167.393 272.5,169.5 Z"/></g>
<g><path style="opacity:1" fill="#bdc2d7" d="M 272.5,169.5 C 201.167,169.5 129.833,169.5 58.5,169.5C 58.5,167.5 58.5,165.5 58.5,163.5C 129.833,163.5 201.167,163.5 272.5,163.5C 272.5,165.5 272.5,167.5 272.5,169.5 Z"/></g>
<g><path style="opacity:1" fill="#bfc5d9" d="M 58.5,143.5 C 129.833,143.5 201.167,143.5 272.5,143.5C 272.5,145.5 272.5,147.5 272.5,149.5C 201.167,149.5 129.833,149.5 58.5,149.5C 58.5,147.5 58.5,145.5 58.5,143.5 Z"/></g>
<g><path style="opacity:1" fill="#96b6ca" d="M 57.5,101.5 C 79.5,101.5 101.5,101.5 123.5,101.5C 123.5,108.833 123.5,116.167 123.5,123.5C 101.831,123.667 80.1641,123.5 58.5,123C 57.5201,115.921 57.1868,108.755 57.5,101.5 Z"/></g>
<g><path style="opacity:1" fill="#80b2cf" d="M 61.5,102.5 C 80.8668,102.107 100.2,102.607 119.5,104C 120,104.5 120.5,105 121,105.5C 121.829,110.533 121.662,115.533 120.5,120.5C 100.625,121.545 80.6245,121.712 60.5,121C 59.461,114.82 59.7943,108.654 61.5,102.5 Z"/></g>
<g><path style="opacity:1" fill="#9ad5ec" d="M 64.5,105.5 C 82.5,105.5 100.5,105.5 118.5,105.5C 118.5,109.5 118.5,113.5 118.5,117.5C 100.5,117.5 82.5,117.5 64.5,117.5C 64.5,113.5 64.5,109.5 64.5,105.5 Z"/></g>
<g><path style="opacity:1" fill="#b56246" d="M 366.5,291.5 C 366.5,294.833 366.5,298.167 366.5,301.5C 367.833,301.5 369.167,301.5 370.5,301.5C 370.5,301.833 370.5,302.167 370.5,302.5C 370.5,308.167 370.5,313.833 370.5,319.5C 369.5,319.5 368.5,319.5 367.5,319.5C 367.62,315.958 367.286,312.458 366.5,309C 369.468,303.795 367.801,301.629 361.5,302.5C 361.5,298.833 361.5,295.167 361.5,291.5C 363.167,291.5 364.833,291.5 366.5,291.5 Z"/></g>
<g><path style="opacity:1" fill="#915b4f" d="M 387.5,302.5 C 387.5,302.833 387.5,303.167 387.5,303.5C 388.183,305.176 389.517,305.843 391.5,305.5C 390.432,306.434 389.099,306.768 387.5,306.5C 387.802,309.059 387.468,311.393 386.5,313.5C 386.5,311.167 386.5,308.833 386.5,306.5C 385.178,306.67 384.011,306.337 383,305.5C 382.809,307.708 382.309,309.708 381.5,311.5C 381.5,308.5 381.5,305.5 381.5,302.5C 383.5,302.5 385.5,302.5 387.5,302.5 Z"/></g>
<g><path style="opacity:1" fill="#f7d48e" d="M 370.5,291.5 C 374.5,291.5 378.5,291.5 382.5,291.5C 382.813,295.042 382.479,298.375 381.5,301.5C 381.5,298.5 381.5,295.5 381.5,292.5C 379.833,292.5 378.167,292.5 376.5,292.5C 376.368,295.57 376.701,298.57 377.5,301.5C 377.5,304.833 377.5,308.167 377.5,311.5C 375.5,311.5 373.5,311.5 371.5,311.5C 371.928,308.436 372.594,305.436 373.5,302.5C 372.5,302.5 371.5,302.5 370.5,302.5C 370.5,302.167 370.5,301.833 370.5,301.5C 370.5,298.167 370.5,294.833 370.5,291.5 Z"/></g>
<g><path style="opacity:1" fill="#fdf7da" d="M 381.5,301.5 C 380.167,301.5 378.833,301.5 377.5,301.5C 376.701,298.57 376.368,295.57 376.5,292.5C 378.167,292.5 379.833,292.5 381.5,292.5C 381.5,295.5 381.5,298.5 381.5,301.5 Z"/></g>
<g><path style="opacity:1" fill="#c1c2dd" d="M 319.5,77.5 C 319.5,155.833 319.5,234.167 319.5,312.5C 317.167,312.5 314.833,312.5 312.5,312.5C 214.5,312.5 116.5,312.5 18.5,312.5C 18.5,310.167 18.5,307.833 18.5,305.5C 18.8333,305.5 19.1667,305.5 19.5,305.5C 21.3581,309.897 24.3581,311.064 28.5,309C 28.1667,308.667 27.8333,308.333 27.5,308C 28.7702,307.1 29.7702,305.934 30.5,304.5C 32.8712,307.603 36.0379,309.27 40,309.5C 90.0805,309.47 139.914,309.137 189.5,308.5C 190.994,308.709 192.161,309.376 193,310.5C 197,310.5 201,310.5 205,310.5C 217.572,309.15 230.239,308.484 243,308.5C 261.98,309.797 280.48,309.797 298.5,308.5C 300.787,308.724 302.953,309.391 305,310.5C 306.766,309.767 308.599,309.433 310.5,309.5C 310.783,310.289 311.283,310.956 312,311.5C 314.429,310.971 316.262,309.637 317.5,307.5C 316.01,297.729 315.01,287.896 314.5,278C 315.658,275.49 316.325,272.823 316.5,270C 315.846,240.165 315.179,210.331 314.5,180.5C 315.074,167.936 315.74,155.436 316.5,143C 315.662,121.62 315.662,100.287 316.5,79C 218.5,78.3333 120.5,78.3333 22.5,79C 21.5,79.3333 20.5,79.6667 19.5,80C 20.3802,81.3561 20.7135,82.8561 20.5,84.5C 19.8333,84.5 19.1667,84.5 18.5,84.5C 18.5,82.1667 18.5,79.8333 18.5,77.5C 118.833,77.5 219.167,77.5 319.5,77.5 Z"/></g>
<g><path style="opacity:0.533" fill="#7d717b" d="M 356.5,306.5 C 357.468,308.607 357.802,310.941 357.5,313.5C 359.099,313.232 360.432,313.566 361.5,314.5C 359.833,314.5 358.167,314.5 356.5,314.5C 356.5,311.833 356.5,309.167 356.5,306.5 Z"/></g>
<g><path style="opacity:1" fill="#d19064" d="M 382.5,291.5 C 384.216,291.629 385.883,291.962 387.5,292.5C 387.5,295.833 387.5,299.167 387.5,302.5C 385.5,302.5 383.5,302.5 381.5,302.5C 381.5,305.5 381.5,308.5 381.5,311.5C 380.178,311.33 379.011,311.663 378,312.5C 377.502,315.482 377.335,318.482 377.5,321.5C 376.167,321.5 374.833,321.5 373.5,321.5C 373.5,323.167 373.5,324.833 373.5,326.5C 372.5,326.5 371.5,326.5 370.5,326.5C 370.5,324.833 370.5,323.167 370.5,321.5C 370.5,320.833 370.5,320.167 370.5,319.5C 370.5,313.833 370.5,308.167 370.5,302.5C 371.5,302.5 372.5,302.5 373.5,302.5C 372.594,305.436 371.928,308.436 371.5,311.5C 373.5,311.5 375.5,311.5 377.5,311.5C 377.5,308.167 377.5,304.833 377.5,301.5C 378.833,301.5 380.167,301.5 381.5,301.5C 382.479,298.375 382.813,295.042 382.5,291.5 Z"/></g>
<g><path style="opacity:1" fill="#361515" d="M 386.5,313.5 C 384.219,313.923 382.552,313.256 381.5,311.5C 382.309,309.708 382.809,307.708 383,305.5C 384.011,306.337 385.178,306.67 386.5,306.5C 386.5,308.833 386.5,311.167 386.5,313.5 Z"/></g>
<g><path style="opacity:1" fill="#7c7395" d="M 18.5,313.5 C 18.5,313.167 18.5,312.833 18.5,312.5C 116.5,312.5 214.5,312.5 312.5,312.5C 215.764,313.168 118.931,313.834 22,314.5C 20.9887,313.663 19.8221,313.33 18.5,313.5 Z"/></g>
<g><path style="opacity:1" fill="#86403c" d="M 361.5,302.5 C 367.801,301.629 369.468,303.795 366.5,309C 367.286,312.458 367.62,315.958 367.5,319.5C 368.5,319.5 369.5,319.5 370.5,319.5C 370.5,320.167 370.5,320.833 370.5,321.5C 369.178,321.67 368.011,321.337 367,320.5C 366.818,317.774 366.318,315.107 365.5,312.5C 364.264,311.754 362.93,311.421 361.5,311.5C 361.5,308.833 361.5,306.167 361.5,303.5C 361.5,303.167 361.5,302.833 361.5,302.5 Z"/></g>
<g><path style="opacity:0.035" fill="#ecebf1" d="M 320.5,313.5 C 321.5,313.5 322.5,313.5 323.5,313.5C 322.791,314.404 321.791,314.737 320.5,314.5C 320.81,317.713 320.477,320.713 319.5,323.5C 319.5,323.167 319.5,322.833 319.5,322.5C 319.5,320.833 319.5,319.167 319.5,317.5C 319.232,315.901 319.566,314.568 320.5,313.5 Z"/></g>
<g><path style="opacity:1" fill="#7b668a" d="M 319.5,77.5 C 320.499,154.332 320.833,231.332 320.5,308.5C 320.5,310.167 320.5,311.833 320.5,313.5C 319.566,314.568 319.232,315.901 319.5,317.5C 219.5,317.5 119.5,317.5 19.5,317.5C 19.1667,317.5 18.8333,317.5 18.5,317.5C 18.5,316.5 18.5,315.5 18.5,314.5C 18.5,314.167 18.5,313.833 18.5,313.5C 19.8221,313.33 20.9887,313.663 22,314.5C 118.931,313.834 215.764,313.168 312.5,312.5C 314.833,312.5 317.167,312.5 319.5,312.5C 319.5,234.167 319.5,155.833 319.5,77.5 Z"/></g>
<g><path style="opacity:1" fill="#280e35" d="M 19.5,317.5 C 119.5,317.5 219.5,317.5 319.5,317.5C 319.5,319.167 319.5,320.833 319.5,322.5C 219.5,322.5 119.5,322.5 19.5,322.5C 19.5,320.833 19.5,319.167 19.5,317.5 Z"/></g>
<g><path style="opacity:1" fill="#7d4c3a" d="M 381.5,311.5 C 382.552,313.256 384.219,313.923 386.5,313.5C 385.432,314.434 384.099,314.768 382.5,314.5C 382.167,314.5 381.833,314.5 381.5,314.5C 380.5,314.5 379.5,314.5 378.5,314.5C 378.5,316.833 378.5,319.167 378.5,321.5C 378.167,321.5 377.833,321.5 377.5,321.5C 377.335,318.482 377.502,315.482 378,312.5C 379.011,311.663 380.178,311.33 381.5,311.5 Z"/></g>
<g><path style="opacity:0.776" fill="#2b1b18" d="M 381.5,314.5 C 381.5,316.833 381.5,319.167 381.5,321.5C 380.5,321.5 379.5,321.5 378.5,321.5C 378.5,319.167 378.5,316.833 378.5,314.5C 379.5,314.5 380.5,314.5 381.5,314.5 Z"/></g>
<g><path style="opacity:0.314" fill="#c2babb" d="M 381.5,314.5 C 381.833,314.5 382.167,314.5 382.5,314.5C 382.5,317.167 382.5,319.833 382.5,322.5C 381.5,322.5 380.5,322.5 379.5,322.5C 379.802,325.059 379.468,327.393 378.5,329.5C 378.5,326.833 378.5,324.167 378.5,321.5C 379.5,321.5 380.5,321.5 381.5,321.5C 381.5,319.167 381.5,316.833 381.5,314.5 Z"/></g>
<g><path style="opacity:1" fill="#3e2b4c" d="M 18.5,317.5 C 18.8333,317.5 19.1667,317.5 19.5,317.5C 19.5,319.167 19.5,320.833 19.5,322.5C 119.5,322.5 219.5,322.5 319.5,322.5C 319.5,322.833 319.5,323.167 319.5,323.5C 219.167,323.5 118.833,323.5 18.5,323.5C 18.5,321.5 18.5,319.5 18.5,317.5 Z"/></g>
<g><path style="opacity:1" fill="#a99db7" d="M 15.5,31.5 C 15.5,125.833 15.5,220.167 15.5,314.5C 16.5,314.5 17.5,314.5 18.5,314.5C 18.5,315.5 18.5,316.5 18.5,317.5C 18.5,319.5 18.5,321.5 18.5,323.5C 118.833,323.5 219.167,323.5 319.5,323.5C 319.723,326.114 318.556,327.781 316,328.5C 315.126,332.182 313.293,335.182 310.5,337.5C 265.818,337.829 221.151,337.163 176.5,335.5C 170.423,335.475 164.59,334.809 159,333.5C 158.311,334.357 157.478,335.023 156.5,335.5C 151.923,335.365 147.423,335.032 143,334.5C 142.667,335.167 142.333,335.833 142,336.5C 141.333,333.833 140.667,333.833 140,336.5C 139.333,333.833 138.667,333.833 138,336.5C 137.333,333.833 136.667,333.833 136,336.5C 135.333,333.833 134.667,333.833 134,336.5C 133.333,333.833 132.667,333.833 132,336.5C 128.182,336.216 123.849,335.55 119,334.5C 112.077,336.039 104.077,336.705 95,336.5C 68.8163,335.813 42.6496,335.48 16.5,335.5C 16.1667,333.5 15.8333,331.5 15.5,329.5C 13.8561,329.714 12.3561,329.38 11,328.5C 10.9311,323.964 9.76442,319.797 7.5,316C 8.04999,294.27 8.71666,272.437 9.5,250.5C 9.51901,247.761 8.85234,245.261 7.5,243C 8.20304,238.173 8.86971,233.34 9.5,228.5C 8.17956,221.794 8.17956,215.128 9.5,208.5C 8.7695,205.891 8.2695,203.224 8,200.5C 7.66273,158.624 7.49607,116.791 7.5,75C 7.62637,62.1519 8.12637,49.3186 9,36.5C 9.37557,32.5578 11.5422,30.8911 15.5,31.5 Z"/></g>
<g><path style="opacity:0.91" fill="#361927" d="M 355.5,276.5 C 355.833,276.5 356.167,276.5 356.5,276.5C 358.167,276.5 359.833,276.5 361.5,276.5C 363.5,276.5 365.5,276.5 367.5,276.5C 368.167,276.5 368.833,276.5 369.5,276.5C 365.733,277.097 362.066,278.097 358.5,279.5C 356.533,287.097 355.866,295.097 356.5,303.5C 358.167,303.5 359.833,303.5 361.5,303.5C 361.5,306.167 361.5,308.833 361.5,311.5C 362.93,311.421 364.264,311.754 365.5,312.5C 366.318,315.107 366.818,317.774 367,320.5C 368.011,321.337 369.178,321.67 370.5,321.5C 370.5,323.167 370.5,324.833 370.5,326.5C 371.5,326.5 372.5,326.5 373.5,326.5C 373.5,324.833 373.5,323.167 373.5,321.5C 374.833,321.5 376.167,321.5 377.5,321.5C 377.833,321.5 378.167,321.5 378.5,321.5C 378.5,324.167 378.5,326.833 378.5,329.5C 376.833,329.5 375.167,329.5 373.5,329.5C 373.5,331.5 373.5,333.5 373.5,335.5C 372.5,335.5 371.5,335.5 370.5,335.5C 370.5,333.5 370.5,331.5 370.5,329.5C 369.5,329.5 368.5,329.5 367.5,329.5C 366.686,327.369 366.186,325.036 366,322.5C 364.887,323.711 363.72,323.711 362.5,322.5C 361.52,319.914 361.187,317.247 361.5,314.5C 360.432,313.566 359.099,313.232 357.5,313.5C 357.802,310.941 357.468,308.607 356.5,306.5C 355.432,305.566 354.099,305.232 352.5,305.5C 352.5,296.5 352.5,287.5 352.5,278.5C 354.027,278.573 355.027,277.906 355.5,276.5 Z"/></g>
<g><path style="opacity:0.047" fill="#e8ddea" d="M 367.5,329.5 C 368.5,329.5 369.5,329.5 370.5,329.5C 370.5,331.5 370.5,333.5 370.5,335.5C 369.842,333.361 368.842,331.361 367.5,329.5 Z"/></g>
<g><path style="opacity:0.306" fill="#cdc4cc" d="M 378.5,329.5 C 377.432,330.434 376.099,330.768 374.5,330.5C 374.5,332.5 374.5,334.5 374.5,336.5C 372.901,336.768 371.568,336.434 370.5,335.5C 371.5,335.5 372.5,335.5 373.5,335.5C 373.5,333.5 373.5,331.5 373.5,329.5C 375.167,329.5 376.833,329.5 378.5,329.5 Z"/></g>
</svg>
