<?xml version="1.0" encoding="UTF-8"?>
<svg version="1.1" xmlns="http://www.w3.org/2000/svg" width="512" height="512">
<path d="M0 0 C0.69334251 -0.00410527 1.38668503 -0.00821054 2.10103792 -0.0124402 C4.44767305 -0.0238394 6.7940756 -0.02085858 9.14073372 -0.01802826 C10.83077998 -0.02319216 12.52082379 -0.02921752 14.21086419 -0.03603506 C18.87328053 -0.05222154 23.53563537 -0.05575677 28.19807649 -0.05723 C33.21931322 -0.06092303 38.24051772 -0.07601353 43.26173592 -0.08950043 C54.24913449 -0.11670034 65.2365185 -0.12872146 76.22394514 -0.13752174 C83.07949287 -0.14304057 89.93503494 -0.15151412 96.79057884 -0.16053009 C115.75740073 -0.18491899 134.72421806 -0.20551743 153.6910553 -0.21228027 C154.90569942 -0.21271941 156.12034354 -0.21315854 157.37179507 -0.21361098 C158.5894057 -0.21404753 159.80701634 -0.21448409 161.06152427 -0.21493387 C163.52901832 -0.21582082 165.99651238 -0.21671394 168.46400642 -0.21761322 C169.68797824 -0.21805608 170.91195005 -0.21849894 172.17301191 -0.21895522 C192.01602001 -0.22685514 211.85888137 -0.26177357 231.70183276 -0.30833226 C252.05570463 -0.35570583 272.40950279 -0.3806815 292.76343071 -0.38301611 C304.1989809 -0.38485258 315.6343399 -0.39643133 327.06983757 -0.43265533 C336.80549235 -0.46338531 346.5408969 -0.47374118 356.27659093 -0.45717913 C361.24729301 -0.4493404 366.21749063 -0.45134849 371.18813133 -0.47929382 C375.73442974 -0.50462062 380.27984077 -0.50251314 384.8261366 -0.4781124 C386.47486684 -0.47417178 388.12365832 -0.48047765 389.77230226 -0.49780113 C392.0067033 -0.51980179 394.23792069 -0.50515747 396.472229 -0.48101807 C397.71510866 -0.48221224 398.95798832 -0.48340642 400.23853099 -0.48463678 C403.36195564 0.26285553 403.36195564 0.26285553 405.72713387 3.14967966 C407.12748503 5.81635532 408.24103434 8.26381522 409.11195564 11.13785553 C409.35429939 11.9190274 409.59664314 12.70019928 409.84633064 13.50504303 C410.10156502 14.37516022 410.10156502 14.37516022 410.36195564 15.26285553 C410.92068367 15.27220123 411.4794117 15.28154694 412.05507088 15.29117584 C414.63735887 15.34554541 417.21796162 15.42905262 419.79945564 15.51285553 C421.11719978 15.53412506 421.11719978 15.53412506 422.46156502 15.55582428 C431.39195585 15.885359 439.7906969 19.03745251 446.36195564 25.26285553 C454.11931677 34.91487168 455.33084747 44.25338155 454.36195564 56.26285553 C453.48975244 59.63851766 452.21536348 62.32422863 450.36195564 65.26285553 C450.01133064 65.88418365 449.66070564 66.50551178 449.29945564 67.14566803 C445.04185678 73.9755662 438.06040616 78.26894791 430.36195564 80.26285553 C426.90755174 80.62747709 423.45750999 80.76903484 419.98695564 80.88785553 C419.06011971 80.9265274 418.13328377 80.96519928 417.17836189 81.00504303 C414.90641794 81.09873144 412.63446968 81.18444901 410.36195564 81.26285553 C410.03582283 82.1780899 409.70969002 83.09332428 409.37367439 84.03629303 C408.93668221 85.22480865 408.49969002 86.41332428 408.04945564 87.63785553 C407.40556892 89.41289459 407.40556892 89.41289459 406.74867439 91.22379303 C405.36195564 94.26285553 405.36195564 94.26285553 402.36195564 96.26285553 C399.45106697 96.48990631 399.45106697 96.48990631 395.94398689 96.45816803 C394.06356697 96.44850006 394.06356697 96.44850006 392.14515877 96.43863678 C390.17966072 96.41350006 390.17966072 96.41350006 388.17445564 96.38785553 C386.83917577 96.37782192 385.50388875 96.36869673 384.16859627 96.36051178 C380.89953549 96.33690845 377.63083537 96.30398147 374.36195564 96.26285553 C374.37083809 96.9466629 374.37972054 97.63047028 374.38887215 98.33499908 C374.47758958 105.4729753 374.53779147 112.61079404 374.58168221 119.74918365 C374.59949213 122.410958 374.62901849 125.07186581 374.66371346 127.73355865 C374.71241112 131.56635133 374.73496681 135.39855916 374.75258064 139.23160553 C374.77322578 140.41524689 374.79387093 141.59888824 374.81514168 142.81839752 C374.8176804 152.2343645 372.79708251 158.14200068 366.23695564 165.13785553 C365.46222908 165.97832428 364.68750252 166.81879303 363.88929939 167.68473053 C362.15782657 169.45099337 360.37547764 171.16838471 358.55336189 172.84098053 C357.64457283 173.68144928 356.73578377 174.52191803 355.79945564 175.38785553 C354.52908455 176.50547272 354.52908455 176.50547272 353.23304939 177.64566803 C351.20043353 180.48878417 350.45628256 182.57401623 350.66542244 186.09928131 C352.19291472 190.84398394 356.43414548 193.90999958 360.04945564 197.13785553 C361.69038092 198.6220705 363.31952377 200.11942375 364.93617439 201.63004303 C365.66409187 202.28085846 366.39200935 202.93167389 367.14198494 203.602211 C375.47263578 213.58653222 375.05397483 223.37323074 374.9295826 235.75748444 C374.92817061 237.72937738 374.92896704 239.70127295 374.93179512 241.67316437 C374.93322479 247.0032135 374.90390754 252.33269559 374.86892533 257.66261339 C374.837587 263.2412758 374.8347252 268.81995241 374.82879829 274.39868927 C374.81328183 284.95243934 374.77228299 295.50592924 374.72205085 306.05956495 C374.66608905 318.07887841 374.63865367 330.09820455 374.61357367 342.11761594 C374.5613653 366.83283982 374.47346567 391.54783307 374.36195564 416.26285553 C375.64827888 416.21572418 375.64827888 416.21572418 376.96058846 416.16764069 C380.1510896 416.06520926 383.3407517 415.99008293 386.5323658 415.93326569 C387.91187845 415.90314249 389.29120031 415.86223278 390.67006111 415.81021881 C392.65505656 415.73723051 394.64146496 415.70656155 396.62758064 415.67691803 C398.41857185 415.62978668 398.41857185 415.62978668 400.24574471 415.58170319 C403.36195564 416.26285553 403.36195564 416.26285553 405.71742439 419.13980865 C407.1238801 421.81073819 408.23922556 424.25784627 409.11195564 427.13785553 C409.35429939 427.9190274 409.59664314 428.70019928 409.84633064 429.50504303 C410.10156502 430.37516022 410.10156502 430.37516022 410.36195564 431.26285553 C411.20004768 431.27687408 411.20004768 431.27687408 412.05507088 431.29117584 C414.63735887 431.34554541 417.21796162 431.42905262 419.79945564 431.51285553 C420.67795174 431.52703522 421.55644783 431.5412149 422.46156502 431.55582428 C431.39195585 431.885359 439.7906969 435.03745251 446.36195564 441.26285553 C454.11931677 450.91487168 455.33084747 460.25338155 454.36195564 472.26285553 C453.48975244 475.63851766 452.21536348 478.32422863 450.36195564 481.26285553 C450.01133064 481.88418365 449.66070564 482.50551178 449.29945564 483.14566803 C445.04185678 489.9755662 438.06040616 494.26894791 430.36195564 496.26285553 C426.90755174 496.62747709 423.45750999 496.76903484 419.98695564 496.88785553 C419.06011971 496.9265274 418.13328377 496.96519928 417.17836189 497.00504303 C414.90641794 497.09873144 412.63446968 497.18444901 410.36195564 497.26285553 C410.03582283 498.1780899 409.70969002 499.09332428 409.37367439 500.03629303 C408.93668221 501.22480865 408.49969002 502.41332428 408.04945564 503.63785553 C407.62019783 504.8212149 407.19094002 506.00457428 406.74867439 507.22379303 C405.36195564 510.26285553 405.36195564 510.26285553 402.36195564 512.26285553 C399.37144285 512.51815653 399.37144285 512.51815653 395.61648083 512.52571106 C394.92367284 512.52981633 394.23086486 512.53392159 393.51706269 512.53815126 C391.178267 512.54952717 388.83970552 512.54657248 386.50088692 512.54373932 C384.8141024 512.54890453 383.12732034 512.55493026 381.44054168 512.56174612 C376.79178621 512.57791685 372.14309244 512.58146695 367.49431217 512.58294106 C362.48604472 512.58663676 357.4778095 512.60172854 352.46956062 512.61521149 C341.51321202 512.6423993 330.55687803 512.65443038 319.6005013 512.6632328 C312.76387676 512.66875315 305.92725791 512.67722693 299.09063721 512.68624115 C280.17438709 512.71062749 261.25814153 512.73122707 242.34187603 512.73799133 C240.52516394 512.73865003 240.52516394 512.73865003 238.6717506 512.73932204 C237.45766301 512.73975859 236.24357542 512.74019515 234.9926973 512.74064493 C232.5323687 512.74153187 230.0720401 512.742425 227.6117115 512.74332428 C225.78108796 512.74398857 225.78108796 512.74398857 223.91348212 512.74466628 C204.12550291 512.75256722 184.33767079 512.78748994 164.54974843 512.83404332 C144.25008548 512.88141661 123.95049643 512.90639251 103.65077728 512.90872717 C92.24654091 512.91056354 80.84249624 512.92214023 69.43831253 512.95836639 C59.73013014 512.98909584 50.0221987 512.99945248 40.31397695 512.98289019 C35.35744424 512.97505154 30.40141744 512.97705922 25.44494629 513.00500488 C20.9116399 513.03033185 16.37922342 513.02822409 11.8459196 513.00382346 C10.20192983 512.9998829 8.55787864 513.00618847 6.91397543 513.02351218 C4.68597894 513.0455134 2.46117511 513.03086826 0.2332716 513.00672913 C-1.62567813 513.00852039 -1.62567813 513.00852039 -3.5221824 513.01034784 C-6.63804436 512.26285553 -6.63804436 512.26285553 -9.00207192 509.3760314 C-10.4034696 506.70923987 -11.51696648 504.26241253 -12.38804436 501.38785553 C-12.63038811 500.60668365 -12.87273186 499.82551178 -13.12241936 499.02066803 C-13.29257561 498.4405899 -13.46273186 497.86051178 -13.63804436 497.26285553 C-14.4761364 497.24883698 -14.4761364 497.24883698 -15.33115959 497.23453522 C-17.91344759 497.18016565 -20.49405034 497.09665844 -23.07554436 497.01285553 C-23.95404045 496.99867584 -24.83253654 496.98449615 -25.73765373 496.96988678 C-34.66804456 496.64035206 -43.06678561 493.48825855 -49.63804436 487.26285553 C-57.28087194 477.75334656 -58.8499688 468.15486414 -57.63804436 456.26285553 C-55.68566347 447.68790994 -50.94014564 441.24410141 -43.63804436 436.45035553 C-37.08549841 432.45057227 -30.75922688 431.89450087 -23.26304436 431.63785553 C-22.33620842 431.59918365 -21.40937248 431.56051178 -20.45445061 431.52066803 C-18.18250666 431.42697962 -15.9105584 431.34126205 -13.63804436 431.26285553 C-13.30030998 430.34762115 -12.96257561 429.43238678 -12.61460686 428.48941803 C-12.16859123 427.3009024 -11.72257561 426.11238678 -11.26304436 424.88785553 C-10.60175529 423.11281647 -10.60175529 423.11281647 -9.92710686 421.30191803 C-8.63804436 418.26285553 -8.63804436 418.26285553 -6.63804436 416.26285553 C-3.7488842 416.03580475 -3.7488842 416.03580475 -0.09898186 416.06754303 C1.20297127 416.07398834 2.50492439 416.08043365 3.84633064 416.08707428 C5.2265416 416.10378624 6.60674993 416.12071614 7.98695564 416.13785553 C9.37497016 416.14788547 10.76299153 416.1570113 12.15101814 416.16519928 C15.5548359 416.1888369 18.95831071 416.22178686 22.36195564 416.26285553 C22.35642488 415.23617327 22.35089413 414.209491 22.34519577 413.15169716 C22.211917 388.15438959 22.11336261 363.15712818 22.05108261 338.15954018 C22.02016283 326.07080318 21.97801782 313.98230111 21.90931892 301.8937149 C21.84945988 291.35559647 21.81079285 280.81764819 21.79742467 270.27936447 C21.78961202 264.7008742 21.77128905 259.12287065 21.7275753 253.54453659 C21.68673187 248.28971797 21.67431045 243.03558477 21.68330956 237.78062248 C21.68166417 235.85616641 21.66979941 233.9316865 21.64672279 232.00736809 C21.4341694 213.36223473 21.4341694 213.36223473 28.36195564 205.26285553 C29.0661866 204.41400787 29.77041756 203.56516022 30.49598885 202.6905899 C31.1285157 202.08537506 31.76104256 201.48016022 32.41273689 200.85660553 C33.11076424 200.17598053 33.80879158 199.49535553 34.52797127 198.79410553 C35.59048103 197.78863678 35.59048103 197.78863678 36.67445564 196.76285553 C38.10999165 195.37945148 39.54368413 193.99413104 40.97523689 192.60660553 C41.6021241 192.01041412 42.22901131 191.41422272 42.8748951 190.7999649 C44.99630568 188.60715568 45.3691456 187.22634911 45.96742439 184.18863678 C45.03456055 178.14006801 41.08833135 175.43543529 36.67445564 171.45035553 C35.03346608 169.95701617 33.40432367 168.45054675 31.78773689 166.93082428 C31.05981941 166.2736441 30.33190193 165.61646393 29.58192635 164.9393692 C22.82812213 156.79662691 21.64555011 149.40822518 21.87367439 139.03629303 C21.88074913 137.80746399 21.88782387 136.57863495 21.89511299 135.31256866 C21.92291208 131.42035612 21.98562847 127.52962707 22.04945564 123.63785553 C22.074557 120.98553268 22.09736693 118.33318709 22.11781502 115.68082428 C22.17269152 109.20766912 22.25617368 102.73536835 22.36195564 96.26285553 C21.50440681 96.29427643 20.64685799 96.32569733 19.76332283 96.35807037 C16.57282169 96.4605018 13.38315958 96.53562813 10.19154549 96.59244537 C8.81203284 96.62256857 7.43271097 96.66347828 6.05385017 96.71549225 C4.06885472 96.78848055 2.08244632 96.81914951 0.09633064 96.84879303 C-1.0976635 96.88021393 -2.29165764 96.91163483 -3.52183342 96.94400787 C-6.63804436 96.26285553 -6.63804436 96.26285553 -8.94956779 93.53092194 C-10.35642115 90.80794058 -11.50221039 88.31110761 -12.38804436 85.38785553 C-12.63038811 84.60668365 -12.87273186 83.82551178 -13.12241936 83.02066803 C-13.29257561 82.4405899 -13.46273186 81.86051178 -13.63804436 81.26285553 C-14.19677238 81.25350983 -14.75550041 81.24416412 -15.33115959 81.23453522 C-17.91344759 81.18016565 -20.49405034 81.09665844 -23.07554436 81.01285553 C-23.95404045 80.99867584 -24.83253654 80.98449615 -25.73765373 80.96988678 C-34.66804456 80.64035206 -43.06678561 77.48825855 -49.63804436 71.26285553 C-57.28087194 61.75334656 -58.8499688 52.15486414 -57.63804436 40.26285553 C-55.68566347 31.68790994 -50.94014564 25.24410141 -43.63804436 20.45035553 C-37.08549841 16.45057227 -30.75922688 15.89450087 -23.26304436 15.63785553 C-21.87279045 15.57984772 -21.87279045 15.57984772 -20.45445061 15.52066803 C-18.18250666 15.42697962 -15.9105584 15.34126205 -13.63804436 15.26285553 C-13.30030998 14.34762115 -12.96257561 13.43238678 -12.61460686 12.48941803 C-11.94558342 10.70664459 -11.94558342 10.70664459 -11.26304436 8.88785553 C-10.82218498 7.70449615 -10.38132561 6.52113678 -9.92710686 5.30191803 C-7.59846985 -0.18802013 -5.65778223 0.01135147 0 0 Z " fill="#2C3A47" transform="translate(57.638044357299805,-0.26285552978515625)"/>
<path d="M0 0 C105.6 0 211.2 0 320 0 C320 52.64575646 320 52.64575646 315.34594727 57.84936523 C314.75869873 58.41341064 314.1714502 58.97745605 313.56640625 59.55859375 C312.91736328 60.19216797 312.26832031 60.82574219 311.59960938 61.47851562 C310.24551755 62.78067679 308.89135132 64.08276059 307.53710938 65.38476562 C300.8513701 71.91147839 296.17907797 77.96357247 295.5 87.625 C296.03993134 102.1599517 307.55338173 111.17580399 317.42114258 120.40283203 C320.7179978 123.73792201 320.13724107 127.26905251 320.12025452 131.681427 C320.12111053 132.48157227 320.12196655 133.28171753 320.12284851 134.10610962 C320.12451094 136.8105081 320.11896836 139.51484541 320.11352539 142.21923828 C320.11321924 144.18189428 320.11335224 146.14455039 320.11389065 148.10720634 C320.11411703 153.37793263 320.10830811 158.64863635 320.10128021 163.9193573 C320.0955984 168.85956903 320.09531781 173.79977518 320.09460449 178.73999023 C320.08935066 193.20166316 320.07538959 207.66333186 320.0625 222.125 C320.041875 254.42375 320.02125 286.7225 320 320 C214.4 320 108.8 320 0 320 C-0.144375 287.825 -0.28875 255.65 -0.4375 222.5 C-0.50122803 212.34025391 -0.56495605 202.18050781 -0.63061523 191.71289062 C-0.66223145 179.30761719 -0.66223145 179.30761719 -0.66810608 173.50036621 C-0.67462858 169.44377857 -0.70086231 165.38783199 -0.73902893 161.3314209 C-0.78708893 156.15485115 -0.80143049 150.97921184 -0.79150593 145.80243969 C-0.79358075 143.90408209 -0.80743676 142.00569156 -0.83450592 140.10752583 C-1.05157455 124.14262458 -1.05157455 124.14262458 3.36973572 118.99157715 C5.2155447 117.35561371 5.2155447 117.35561371 7 116 C8.42505859 114.63101563 8.42505859 114.63101563 9.87890625 113.234375 C10.76449219 112.41453125 11.65007812 111.5946875 12.5625 110.75 C19.05172726 104.43666876 24.15031738 97.10477182 24.625 87.8125 C23.58669971 73.96113235 12.36266328 65.16040003 2.96875 56.12890625 C-9.75193596 42.37340258 0 18.73578748 0 0 Z " fill="#F7EEB9" transform="translate(96,96)"/>
<path d="M0 0 C14.19 0 28.38 0 43 0 C43.061875 3.3825 43.12375 6.765 43.1875 10.25 C43.58996642 21.69382584 45.36355643 31.76525148 54 40 C62.42349122 46.23897586 70.55890143 48.16666903 81 47 C89.50657 44.49982545 96.62527198 40.97741391 101.1875 33.125 C101.67605469 32.30257812 102.16460937 31.48015625 102.66796875 30.6328125 C107.96008498 20.17273526 106.39444967 13.32210717 107 0 C162.44 0 217.88 0 275 0 C275.33 7.26 275.66 14.52 276 22 C279.23048534 32.05039884 282.805999 38.35687824 291.83984375 43.921875 C299.63300455 47.81140914 307.97123117 48.47801051 316.3359375 46.01953125 C323.59248185 43.10795481 329.16881519 40.04187842 333.1875 33.125 C333.67605469 32.30257812 334.16460937 31.48015625 334.66796875 30.6328125 C339.96008498 20.17273526 338.39444967 13.32210717 339 0 C355.83 0 372.66 0 390 0 C392.75990028 11.03960112 394.21384688 20.06931268 394.3125 31.25 C394.35600586 32.82394531 394.35600586 32.82394531 394.40039062 34.4296875 C394.48323227 45.10988687 392.33547791 52.90647991 390 64 C261.3 64 132.6 64 0 64 C-4.27488316 44.76302578 -8.34697069 26.15737024 -2 7 C-1.34 4.69 -0.68 2.38 0 0 Z " fill="#E9B443" transform="translate(61,16)"/>
<path d="M0 0 C1.71918606 0.01492794 3.43840624 0.02631236 5.15763855 0.03430176 C9.67457666 0.06479354 14.18944434 0.1433274 18.70556641 0.23193359 C23.31709787 0.31389113 27.92896521 0.35033416 32.54101562 0.390625 C41.5842412 0.47632744 50.62593257 0.61279599 59.66796875 0.78125 C60.15534918 2.70686634 60.64112598 4.63288861 61.1262207 6.55908203 C61.39690872 7.6315921 61.66759674 8.70410217 61.94648743 9.80911255 C63.65313188 16.83962286 63.91026189 23.70770704 63.98046875 30.90625 C64.00947266 31.84339844 64.03847656 32.78054688 64.06835938 33.74609375 C64.16189807 44.72609718 61.83331321 53.4131916 59.66796875 64.78125 C-69.03203125 64.78125 -197.73203125 64.78125 -330.33203125 64.78125 C-334.9860853 41.51097973 -334.9860853 41.51097973 -334.83203125 31.59375 C-334.8475 30.58634766 -334.86296875 29.57894531 -334.87890625 28.54101562 C-334.84634778 22.04966997 -333.84570755 16.13506313 -332.29882812 9.8659668 C-332.11044373 9.08512474 -331.92205933 8.30428268 -331.72796631 7.49977875 C-331.26714642 5.59251162 -330.80021733 3.68672229 -330.33203125 1.78125 C-320.39651042 1.57252676 -310.46151263 1.41271061 -300.52424431 1.31494045 C-295.90957981 1.26800899 -291.29641719 1.20438326 -286.68261719 1.10229492 C-282.22803177 1.00434874 -277.77488847 0.95066193 -273.31930923 0.92735481 C-271.62147436 0.91075143 -269.92371671 0.87832502 -268.22649765 0.82967949 C-254.89048383 0.46272065 -254.89048383 0.46272065 -251.04107666 3.71951294 C-249.51808864 6.01629177 -248.46052818 8.27528018 -247.33203125 10.78125 C-229.12835473 31.94960218 -191.15755604 36.02944738 -165.33203125 38.78125 C-164.52950928 38.87696289 -163.7269873 38.97267578 -162.90014648 39.07128906 C-153.51116222 40.08749568 -144.07739492 40.02497645 -134.64453125 40.03125 C-133.7316333 40.03192474 -132.81873535 40.03259949 -131.87817383 40.03329468 C-117.48381776 40.0164258 -103.52662322 39.32263983 -89.33203125 36.78125 C-87.79554932 36.52384033 -87.79554932 36.52384033 -86.22802734 36.26123047 C-63.80949857 32.46659521 -38.08099343 26.55428654 -22.33203125 8.78125 C-22.10066971 8.13212143 -21.86930817 7.48299286 -21.63093567 6.81419373 C-18.00717918 -2.26555276 -8.21033782 -0.20851276 0 0 Z " fill="#E9B443" transform="translate(391.33203125,431.21875)"/>
<path d="M0 0 C5.39392361 4.38843611 8.95831257 10.47445089 12.8125 16.1875 C13.50537109 17.19748047 14.19824219 18.20746094 14.91210938 19.24804688 C20 26.74203356 20 26.74203356 20 29 C25.97139214 26.80556614 31.86978716 24.56452975 37.625 21.8515625 C38.41213379 21.48417969 39.19926758 21.11679688 40.01025391 20.73828125 C41.56117802 20.00813321 43.10550193 19.26376106 44.64208984 18.50390625 C49.50450582 16.22691466 52.61228981 15.59568456 58 17 C60.5 18.375 60.5 18.375 62 21 C62.00740955 28.04055016 60.52668247 34.940501 58.875 41.75 C58.42765805 43.65217284 57.98109224 45.55452831 57.53515625 47.45703125 C57.29168457 48.48779785 57.04821289 49.51856445 56.79736328 50.58056641 C55.90503958 54.40723075 55.04097494 58.23960515 54.18359375 62.07421875 C54.02872498 62.76591156 53.8738562 63.45760437 53.71429443 64.17025757 C53.09444859 66.93950649 52.47489656 69.70881816 51.85760498 72.4786377 C51.42392614 74.42238779 50.98739517 76.36550084 50.55078125 78.30859375 C50.29981689 79.43064209 50.04885254 80.55269043 49.7902832 81.70874023 C49.52948975 82.79485596 49.26869629 83.88097168 49 85 C48.74114014 86.21051025 48.48228027 87.42102051 48.21557617 88.66821289 C46.7431154 92.70409803 45.64358037 93.76361472 42 96 C39.07391744 96.57091463 36.20818309 96.5470416 33.23413086 96.51757812 C32.36200455 96.5245874 31.48987823 96.53159668 30.59132385 96.53881836 C27.71550432 96.55638911 24.84067286 96.54477994 21.96484375 96.53125 C19.96374828 96.53394493 17.9626541 96.53782737 15.96156311 96.54284668 C11.771042 96.54874027 7.58086226 96.54018222 3.39038086 96.52148438 C-1.98232429 96.49868028 -7.35423083 96.51182817 -12.72690678 96.53577423 C-16.85760016 96.5502233 -20.98810395 96.54563055 -25.11880302 96.53526306 C-27.09996065 96.53259408 -29.08113547 96.53587155 -31.06227303 96.54518127 C-33.82982165 96.55533375 -36.59607344 96.53986491 -39.36352539 96.51757812 C-40.18285553 96.52567505 -41.00218567 96.53377197 -41.84634399 96.54211426 C-45.46513163 96.48809062 -47.56068446 96.33499789 -50.48190308 94.10743713 C-52.1528662 91.78778964 -52.8639426 90.01999514 -53.53515625 87.24609375 C-53.77379395 86.27397949 -54.01243164 85.30186523 -54.25830078 84.30029297 C-54.50306152 83.21119629 -54.74782227 82.12209961 -55 81 C-55.27183105 79.79102051 -55.54366211 78.58204102 -55.82373047 77.33642578 C-56.72520348 73.2513837 -57.58379872 69.15774856 -58.4375 65.0625 C-58.74545946 63.59243438 -59.05348409 62.1223824 -59.36157227 60.65234375 C-59.9672551 57.75843905 -60.57035799 54.8640115 -61.171875 51.96923828 C-61.88359077 48.54844709 -62.61152904 45.1313099 -63.34375 41.71484375 C-63.70894732 39.97669139 -64.07358872 38.23842207 -64.4375 36.5 C-64.68294556 35.37476929 -64.68294556 35.37476929 -64.93334961 34.22680664 C-65.96412187 29.20401953 -66.58488904 24.12362801 -66 19 C-64.375 16.9375 -64.375 16.9375 -62 16 C-57.21835503 15.61876873 -54.16316682 16.52432724 -49.8671875 18.58984375 C-48.73152344 19.12673828 -47.59585938 19.66363281 -46.42578125 20.21679688 C-45.25402344 20.78462891 -44.08226562 21.35246094 -42.875 21.9375 C-40.54047284 23.05373567 -38.20459093 24.1671436 -35.8671875 25.27734375 C-34.83706543 25.77484131 -33.80694336 26.27233887 -32.74560547 26.78491211 C-30.46926366 27.79232392 -28.42907207 28.50946542 -26 29 C-25.74025391 28.28811523 -25.48050781 27.57623047 -25.21289062 26.84277344 C-22.97784253 21.604267 -19.61722121 16.99866408 -16.5 12.25 C-15.81035156 11.18394531 -15.12070313 10.11789063 -14.41015625 9.01953125 C-13.74886719 8.00761719 -13.08757812 6.99570313 -12.40625 5.953125 C-11.80103516 5.02661133 -11.19582031 4.10009766 -10.57226562 3.14550781 C-7.68458923 -0.79500463 -4.66781195 -0.47469274 0 0 Z " fill="#2E3B47" transform="translate(259,128)"/>
<path d="M0 0 C130.68 0 261.36 0 396 0 C394.515 7.92 394.515 7.92 393 16 C264.3 16 135.6 16 3 16 C0 3 0 3 0 0 Z " fill="#D6A843" transform="translate(58,480)"/>
<path d="M0 0 C105.6 0 211.2 0 320 0 C320 5.28 320 10.56 320 16 C214.4 16 108.8 16 0 16 C0 10.72 0 5.44 0 0 Z " fill="#E4DEAF" transform="translate(96,400)"/>
<path d="M0 0 C105.6 0 211.2 0 320 0 C320 5.28 320 10.56 320 16 C214.4 16 108.8 16 0 16 C0 10.72 0 5.44 0 0 Z " fill="#E4DEAF" transform="translate(96,96)"/>
<path d="M0 0 C0.86318856 -0.00438225 1.72637711 -0.00876451 2.61572289 -0.01327956 C5.52525051 -0.02669721 8.43474783 -0.03285306 11.34429932 -0.03897095 C13.42350401 -0.04686956 15.50270732 -0.05513836 17.58190918 -0.06375122 C24.42489304 -0.0899986 31.26788311 -0.1052813 38.11090088 -0.11953735 C40.46401219 -0.12489587 42.81712346 -0.13027337 45.17023468 -0.13566971 C54.95649052 -0.15730217 64.74274469 -0.17603995 74.5290184 -0.1872921 C88.56726679 -0.20353769 102.60523866 -0.23672634 116.64338279 -0.29369295 C126.50670497 -0.33235741 136.36995309 -0.35192065 146.23334908 -0.35721266 C152.12793839 -0.36087082 158.02223296 -0.37294164 163.91674042 -0.4053154 C169.46208385 -0.43533439 175.00695324 -0.44172973 180.55236053 -0.42993164 C182.58813237 -0.42971039 184.6239258 -0.43805766 186.65962219 -0.45558548 C189.43869396 -0.47821213 192.21603739 -0.47001247 194.99511719 -0.45410156 C195.80115694 -0.46798365 196.60719669 -0.48186574 197.43766189 -0.49616849 C201.46407441 -0.43935135 204.04820258 -0.02788124 207.28708267 2.469244 C209.75152588 5.15390015 209.75152588 5.15390015 209.93902588 8.71640015 C208.50970571 12.85390591 207.4579088 13.8821387 203.75152588 16.15390015 C200.75448009 16.5395205 198.12886087 16.69493508 195.13555908 16.66183472 C194.26910169 16.66807468 193.40264429 16.67431464 192.50993061 16.68074369 C189.60711249 16.69669617 186.70513145 16.68406061 183.80230713 16.67147827 C181.72103383 16.67689838 179.63976437 16.68402041 177.5585022 16.69271851 C171.90565475 16.71096787 166.25309903 16.70387755 160.60024643 16.69120216 C154.68753008 16.68108292 148.7748389 16.69046485 142.86212158 16.69674683 C132.93230703 16.70402635 123.00261144 16.69442745 113.07281494 16.67538452 C101.58870441 16.65361528 90.10487792 16.66066643 78.62077427 16.68269014 C68.76502582 16.70083538 58.90936293 16.70340673 49.05360317 16.69293547 C43.16531658 16.68669575 37.27716354 16.68587814 31.3888855 16.69908142 C25.85335604 16.71062646 20.3181932 16.70263853 14.7827034 16.67950439 C12.74975824 16.67421014 10.71678229 16.67574327 8.68384933 16.68455505 C5.91131231 16.69546571 3.13995432 16.68180114 0.36749268 16.66183472 C-0.84286667 16.67521905 -0.84286667 16.67521905 -2.07767773 16.68887377 C-5.80451579 16.6367177 -8.02669134 16.29181256 -11.2205658 14.30574799 C-13.83730877 11.52907774 -14.32616095 9.96055463 -14.24847412 6.15390015 C-10.2391241 -0.06750507 -6.94472979 0.00424165 0 0 Z " fill="#E4DEAF" transform="translate(158.24847412109375,351.8460998535156)"/>
<path d="M0 0 C0.86318856 -0.00438225 1.72637711 -0.00876451 2.61572289 -0.01327956 C5.52525051 -0.02669721 8.43474783 -0.03285306 11.34429932 -0.03897095 C13.42350401 -0.04686956 15.50270732 -0.05513836 17.58190918 -0.06375122 C24.42489304 -0.0899986 31.26788311 -0.1052813 38.11090088 -0.11953735 C40.46401219 -0.12489587 42.81712346 -0.13027337 45.17023468 -0.13566971 C54.95649052 -0.15730217 64.74274469 -0.17603995 74.5290184 -0.1872921 C88.56726679 -0.20353769 102.60523866 -0.23672634 116.64338279 -0.29369295 C126.50670497 -0.33235741 136.36995309 -0.35192065 146.23334908 -0.35721266 C152.12793839 -0.36087082 158.02223296 -0.37294164 163.91674042 -0.4053154 C169.46208385 -0.43533439 175.00695324 -0.44172973 180.55236053 -0.42993164 C182.58813237 -0.42971039 184.6239258 -0.43805766 186.65962219 -0.45558548 C189.43869396 -0.47821213 192.21603739 -0.47001247 194.99511719 -0.45410156 C195.80115694 -0.46798365 196.60719669 -0.48186574 197.43766189 -0.49616849 C201.46407441 -0.43935135 204.04820258 -0.02788124 207.28708267 2.469244 C209.75152588 5.15390015 209.75152588 5.15390015 209.93902588 8.71640015 C208.50970571 12.85390591 207.4579088 13.8821387 203.75152588 16.15390015 C200.75448009 16.5395205 198.12886087 16.69493508 195.13555908 16.66183472 C194.26910169 16.66807468 193.40264429 16.67431464 192.50993061 16.68074369 C189.60711249 16.69669617 186.70513145 16.68406061 183.80230713 16.67147827 C181.72103383 16.67689838 179.63976437 16.68402041 177.5585022 16.69271851 C171.90565475 16.71096787 166.25309903 16.70387755 160.60024643 16.69120216 C154.68753008 16.68108292 148.7748389 16.69046485 142.86212158 16.69674683 C132.93230703 16.70402635 123.00261144 16.69442745 113.07281494 16.67538452 C101.58870441 16.65361528 90.10487792 16.66066643 78.62077427 16.68269014 C68.76502582 16.70083538 58.90936293 16.70340673 49.05360317 16.69293547 C43.16531658 16.68669575 37.27716354 16.68587814 31.3888855 16.69908142 C25.85335604 16.71062646 20.3181932 16.70263853 14.7827034 16.67950439 C12.74975824 16.67421014 10.71678229 16.67574327 8.68384933 16.68455505 C5.91131231 16.69546571 3.13995432 16.68180114 0.36749268 16.66183472 C-0.84286667 16.67521905 -0.84286667 16.67521905 -2.07767773 16.68887377 C-5.80451579 16.6367177 -8.02669134 16.29181256 -11.2205658 14.30574799 C-13.83730877 11.52907774 -14.32616095 9.96055463 -14.24847412 6.15390015 C-10.2391241 -0.06750507 -6.94472979 0.00424165 0 0 Z " fill="#E4DEAF" transform="translate(158.24847412109375,303.8460998535156)"/>
<path d="M0 0 C0.86318856 -0.00438225 1.72637711 -0.00876451 2.61572289 -0.01327956 C5.52525051 -0.02669721 8.43474783 -0.03285306 11.34429932 -0.03897095 C13.42350401 -0.04686956 15.50270732 -0.05513836 17.58190918 -0.06375122 C24.42489304 -0.0899986 31.26788311 -0.1052813 38.11090088 -0.11953735 C40.46401219 -0.12489587 42.81712346 -0.13027337 45.17023468 -0.13566971 C54.95649052 -0.15730217 64.74274469 -0.17603995 74.5290184 -0.1872921 C88.56726679 -0.20353769 102.60523866 -0.23672634 116.64338279 -0.29369295 C126.50670497 -0.33235741 136.36995309 -0.35192065 146.23334908 -0.35721266 C152.12793839 -0.36087082 158.02223296 -0.37294164 163.91674042 -0.4053154 C169.46208385 -0.43533439 175.00695324 -0.44172973 180.55236053 -0.42993164 C182.58813237 -0.42971039 184.6239258 -0.43805766 186.65962219 -0.45558548 C189.43869396 -0.47821213 192.21603739 -0.47001247 194.99511719 -0.45410156 C195.80115694 -0.46798365 196.60719669 -0.48186574 197.43766189 -0.49616849 C201.46407441 -0.43935135 204.04820258 -0.02788124 207.28708267 2.469244 C209.75152588 5.15390015 209.75152588 5.15390015 209.93902588 8.71640015 C208.50970571 12.85390591 207.4579088 13.8821387 203.75152588 16.15390015 C200.75448009 16.5395205 198.12886087 16.69493508 195.13555908 16.66183472 C194.26910169 16.66807468 193.40264429 16.67431464 192.50993061 16.68074369 C189.60711249 16.69669617 186.70513145 16.68406061 183.80230713 16.67147827 C181.72103383 16.67689838 179.63976437 16.68402041 177.5585022 16.69271851 C171.90565475 16.71096787 166.25309903 16.70387755 160.60024643 16.69120216 C154.68753008 16.68108292 148.7748389 16.69046485 142.86212158 16.69674683 C132.93230703 16.70402635 123.00261144 16.69442745 113.07281494 16.67538452 C101.58870441 16.65361528 90.10487792 16.66066643 78.62077427 16.68269014 C68.76502582 16.70083538 58.90936293 16.70340673 49.05360317 16.69293547 C43.16531658 16.68669575 37.27716354 16.68587814 31.3888855 16.69908142 C25.85335604 16.71062646 20.3181932 16.70263853 14.7827034 16.67950439 C12.74975824 16.67421014 10.71678229 16.67574327 8.68384933 16.68455505 C5.91131231 16.69546571 3.13995432 16.68180114 0.36749268 16.66183472 C-0.84286667 16.67521905 -0.84286667 16.67521905 -2.07767773 16.68887377 C-5.80451579 16.6367177 -8.02669134 16.29181256 -11.2205658 14.30574799 C-13.83730877 11.52907774 -14.32616095 9.96055463 -14.24847412 6.15390015 C-10.2391241 -0.06750507 -6.94472979 0.00424165 0 0 Z " fill="#E4DEAF" transform="translate(158.24847412109375,255.84609985351563)"/>
<path d="M0 0 C65.34 0 130.68 0 198 0 C177.86721208 20.13278792 137.77034117 23.06834156 110.8046875 23.203125 C109.86217133 23.21009399 108.91965515 23.21706299 107.94857788 23.22424316 C104.92400599 23.24153941 101.89961929 23.24796257 98.875 23.25 C97.84354858 23.25100708 96.81209717 23.25201416 95.74938965 23.25305176 C80.62667204 23.24304801 65.8943398 22.86557768 51 20 C49.78256104 19.77521973 49.78256104 19.77521973 48.54052734 19.54589844 C32.05061758 16.43110096 12.17502152 12.17502152 0 0 Z " fill="#F77E50" transform="translate(157,432)"/>
<path d="M0 0 C0.66 0 1.32 0 2 0 C3.44873047 1.88012695 3.44873047 1.88012695 5.1171875 4.48828125 C5.72433594 5.42220703 6.33148438 6.35613281 6.95703125 7.31835938 C8.2280814 9.3025955 9.49891736 11.28696886 10.76953125 13.27148438 C11.37925781 14.20927734 11.98898437 15.14707031 12.6171875 16.11328125 C13.17003418 16.97735596 13.72288086 17.84143066 14.29248047 18.73168945 C16.02429285 21.03227121 17.54610773 22.50530083 20 24 C26.33944829 23.87024521 32.09577361 20.3672685 37.71875 17.70703125 C38.49734375 17.34738281 39.2759375 16.98773438 40.078125 16.6171875 C40.78356445 16.28315918 41.48900391 15.94913086 42.21582031 15.60498047 C42.80459961 15.40533691 43.39337891 15.20569336 44 15 C44.99 15.495 44.99 15.495 46 16 C44.7412502 21.67935471 43.47773421 27.35761936 42.2097168 33.03491211 C41.77870394 34.96788529 41.34901337 36.90115379 40.9206543 38.8347168 C40.30601821 41.60804009 39.68669149 44.38027926 39.06640625 47.15234375 C38.87470352 48.02213364 38.68300079 48.89192352 38.48548889 49.78807068 C37.11387171 55.88612829 37.11387171 55.88612829 36 57 C33.79132169 57.09432985 31.57958479 57.11742431 29.36889648 57.11352539 C28.67624695 57.11367142 27.98359741 57.11381744 27.2699585 57.1139679 C24.97030554 57.11326874 22.67073263 57.10547628 20.37109375 57.09765625 C18.78068588 57.09579208 17.19027743 57.09436817 15.59986877 57.09336853 C11.4060407 57.08954329 7.21224705 57.07971295 3.01843262 57.06866455 C-1.25788914 57.05845057 -5.53421644 57.05387094 -9.81054688 57.04882812 C-18.20704708 57.03809069 -26.60351926 57.02101419 -35 57 C-35.64260938 54.45831599 -36.28336948 51.9161891 -36.9230957 49.3737793 C-37.10356697 48.66076408 -37.28403824 47.94774887 -37.46997833 47.21312714 C-38.91828106 41.44790925 -40.12997836 35.66233489 -41.1875 29.8125 C-41.51422966 28.04815981 -41.84104951 26.28383632 -42.16796875 24.51953125 C-42.31282715 23.72885254 -42.45768555 22.93817383 -42.60693359 22.12353516 C-43.04737959 19.74403247 -43.51409402 17.3706322 -44 15 C-41.13551937 15.62712774 -38.71595403 16.52691442 -36.1015625 17.84765625 C-35.37453125 18.20537109 -34.6475 18.56308594 -33.8984375 18.93164062 C-32.38750482 19.68321281 -30.87964692 20.44099961 -29.375 21.20507812 C-25.16319195 23.26261333 -21.78755319 24.87610844 -17 24 C-14.02839079 21.38788338 -11.92604817 18.5761792 -9.8359375 15.234375 C-9.27132812 14.34492188 -8.70671875 13.45546875 -8.125 12.5390625 C-6.94909161 10.66495851 -5.77463407 8.78994347 -4.6015625 6.9140625 C-4.03953125 6.02976563 -3.4775 5.14546875 -2.8984375 4.234375 C-2.38974121 3.42194336 -1.88104492 2.60951172 -1.35693359 1.77246094 C-0.90914551 1.18754883 -0.46135742 0.60263672 0 0 Z " fill="#E8B443" transform="translate(255,151)"/>
<path d="M0 0 C55.44 0 110.88 0 168 0 C168 3.96 168 7.92 168 12 C112.56 12 57.12 12 0 12 C0 8.04 0 4.08 0 0 Z " fill="#D5A744" transform="translate(168,16)"/>
<path d="M0 0 C10.56 0 21.12 0 32 0 C32.061875 3.17625 32.12375 6.3525 32.1875 9.625 C32.22846802 11.1092749 32.22846802 11.1092749 32.27026367 12.62353516 C32.32674429 18.63234406 31.71632298 23.02194798 27.5 27.64453125 C22.09279135 31.85483174 17.72106323 32.82862423 11 32 C5.6964772 29.29820537 1.90167702 25.70503105 0 20 C-0.08106686 18.44578271 -0.10756898 16.88832973 -0.09765625 15.33203125 C-0.09515869 14.52741455 -0.09266113 13.72279785 -0.09008789 12.89379883 C-0.08098389 11.87697021 -0.07187988 10.8601416 -0.0625 9.8125 C-0.041875 6.574375 -0.02125 3.33625 0 0 Z " fill="#F57D50" transform="translate(352,16)"/>
<path d="M0 0 C10.56 0 21.12 0 32 0 C32.061875 3.17625 32.12375 6.3525 32.1875 9.625 C32.22846802 11.1092749 32.22846802 11.1092749 32.27026367 12.62353516 C32.32674429 18.63234406 31.71632298 23.02194798 27.5 27.64453125 C22.09279135 31.85483174 17.72106323 32.82862423 11 32 C5.6964772 29.29820537 1.90167702 25.70503105 0 20 C-0.08106686 18.44578271 -0.10756898 16.88832973 -0.09765625 15.33203125 C-0.09515869 14.52741455 -0.09266113 13.72279785 -0.09008789 12.89379883 C-0.08098389 11.87697021 -0.07187988 10.8601416 -0.0625 9.8125 C-0.041875 6.574375 -0.02125 3.33625 0 0 Z " fill="#F57D50" transform="translate(120,16)"/>
<path d="M0 0 C0 10.56 0 21.12 0 32 C-15.89189189 32 -15.89189189 32 -20 28 C-24.3022759 23.23261319 -25.36282503 19.56252705 -25.28125 13.28125 C-24.69180611 8.50020514 -21.85179203 5.75038822 -18.375 2.6875 C-11.71714776 -2.04307922 -11.76096868 0 0 0 Z " fill="#F37D50" transform="translate(41,448)"/>
<path d="M0 0 C0 10.56 0 21.12 0 32 C-15.89189189 32 -15.89189189 32 -20 28 C-24.3022759 23.23261319 -25.36282503 19.56252705 -25.28125 13.28125 C-24.69180611 8.50020514 -21.85179203 5.75038822 -18.375 2.6875 C-11.71714776 -2.04307922 -11.76096868 0 0 0 Z " fill="#F37D50" transform="translate(41,32)"/>
<path d="M0 0 C14.91891892 0 14.91891892 0 20 4 C24.45169869 8.92029855 25.3562802 11.95206792 25.28125 18.4609375 C24.73281999 23.4120418 21.99954217 26.09797414 18.4375 29.3125 C12.20705761 33.6258832 8.95103437 32 0 32 C0 21.44 0 10.88 0 0 Z " fill="#F37D50" transform="translate(471,448)"/>
<path d="M0 0 C14.91891892 0 14.91891892 0 20 4 C24.45169869 8.92029855 25.3562802 11.95206792 25.28125 18.4609375 C24.73281999 23.4120418 21.99954217 26.09797414 18.4375 29.3125 C12.20705761 33.6258832 8.95103437 32 0 32 C0 21.44 0 10.88 0 0 Z " fill="#F37D50" transform="translate(471,32)"/>
<path d="M0 0 C16.83 0 33.66 0 51 0 C51.66 3.96 52.32 7.92 53 12 C35.51 12 18.02 12 0 12 C0 8.04 0 4.08 0 0 Z " fill="#D4A644" transform="translate(400,16)"/>
<path d="M0 0 C14.19 0 28.38 0 43 0 C43 3.96 43 7.92 43 12 C27.82 12 12.64 12 -3 12 C-2 7 -2 7 0 0 Z " fill="#D4A644" transform="translate(61,16)"/>
<path d="M0 0 C10.56 0 21.12 0 32 0 C32 3.96 32 7.92 32 12 C21.44 12 10.88 12 0 12 C0 8.04 0 4.08 0 0 Z " fill="#E37750" transform="translate(352,16)"/>
<path d="M0 0 C10.56 0 21.12 0 32 0 C32 3.96 32 7.92 32 12 C21.44 12 10.88 12 0 12 C0 8.04 0 4.08 0 0 Z " fill="#E37750" transform="translate(120,16)"/>
<path d="M0 0 C4.0743356 0.84881992 5.54405875 2.30225596 8 5.625 C8.54667869 8.97340698 8.34038506 10.83785954 7 13.9375 C4.40901272 16.12364552 2.3589241 16.64982904 -0.9921875 16.921875 C-3 16.625 -3 16.625 -6 14 C-8 10.625 -8 10.625 -8.625 8.0625 C-7.4306804 3.40465357 -4.64467442 0.9676405 0 0 Z " fill="#F88254" transform="translate(356,175.375)"/>
<path d="M0 0 C2.4375 1.6875 2.4375 1.6875 4 4 C4.47974051 7.28964918 4.31791752 9.26481573 3 12.3125 C0.41033469 14.49753011 -1.63692256 15.02888308 -4.98828125 15.2890625 C-7 15 -7 15 -10.0625 12.5 C-11.95158523 9.76210282 -12.0026165 8.84562654 -12.0625 5.3125 C-11 2 -11 2 -9.375 0 C-5.87599825 -1.47326389 -3.62561724 -0.97114747 0 0 Z " fill="#F88254" transform="translate(160,177)"/>
</svg>
