<?xml version="1.0" encoding="UTF-8"?>
<svg version="1.1" xmlns="http://www.w3.org/2000/svg" width="512" height="512">
<path d="M0 0 C1.09521027 -0.00445668 1.09521027 -0.00445668 2.21254599 -0.0090034 C4.65982621 -0.01767702 7.10705744 -0.01919751 9.55435181 -0.02069092 C11.30873214 -0.02531997 13.06311147 -0.03034475 14.81748962 -0.03573608 C19.58403215 -0.04885215 24.3505606 -0.0553033 29.11711836 -0.05974674 C32.09484134 -0.06267826 35.07256048 -0.06678318 38.05028152 -0.07125092 C47.36639493 -0.08492268 56.68249955 -0.09459137 65.9986223 -0.09845281 C76.75401394 -0.10293533 87.5092786 -0.1204936 98.26463163 -0.1494534 C106.57811569 -0.17106173 114.89156401 -0.18115661 123.20507586 -0.18249393 C128.17064522 -0.1835424 133.13609517 -0.18945952 138.10163498 -0.20731354 C142.77198473 -0.22377989 147.4421251 -0.22595671 152.11249352 -0.21717453 C153.82574334 -0.21640343 155.53900435 -0.22075645 157.25222588 -0.23063278 C159.59296069 -0.24333443 161.9329519 -0.23748565 164.27368164 -0.22705078 C165.58296316 -0.22851734 166.89224468 -0.2299839 168.2412014 -0.2314949 C173.70865491 0.34578717 177.61675416 2.38824767 181.07632446 6.64044189 C181.56745728 7.22825439 182.05859009 7.81606689 182.56460571 8.42169189 C184.88770986 11.75122227 184.89258168 14.73488433 184.90426636 18.66188049 C184.9099765 19.81007263 184.91568665 20.95826477 184.92156982 22.14125061 C184.92268768 23.40208969 184.92380554 24.66292877 184.92495728 25.9619751 C184.92958631 27.30242042 184.93461109 28.64286442 184.94000244 29.98330688 C184.95312057 33.62597741 184.9595703 37.26862951 184.9640131 40.91131997 C184.96694489 43.18767498 184.97104991 45.46402495 184.97551727 47.74037743 C184.98919092 54.86415309 184.99885811 61.98791725 185.00271916 69.11170512 C185.00719915 77.33207111 185.02474474 85.55227076 185.05371976 93.77258617 C185.07534468 100.12852993 185.08542388 106.48442692 185.08676028 112.84040707 C185.08780777 116.63564174 185.09370349 120.43072001 185.1115799 124.22591591 C185.12807461 127.79725306 185.13020945 131.36831649 185.12144089 134.93967819 C185.12030501 136.87082155 185.13401176 138.80195587 185.14819336 140.73304749 C185.11503684 147.61929 184.9208489 152.7179404 180.04507446 158.00372314 C179.45726196 158.48196533 178.86944946 158.96020752 178.26382446 159.45294189 C177.67601196 159.94407471 177.08819946 160.43520752 176.48257446 160.94122314 C172.26205944 163.88599158 167.60317847 163.22844753 162.69692993 163.15533447 C160.77073623 163.135894 158.84453757 163.11694037 156.91833496 163.09840393 C155.89490871 163.0872436 154.87148247 163.07608326 153.8170433 163.06458473 C147.23335713 163.00339469 140.64932352 163.00327885 134.06539726 162.99197865 C128.29340898 162.9785976 122.5230782 162.94410462 116.75161743 162.862854 C111.15831455 162.78531806 105.56752626 162.76765736 99.9737587 162.78867149 C97.85528603 162.78623661 95.73671782 162.76290521 93.61874008 162.71705055 C78.73561107 162.41113537 69.75567664 164.90780322 58.40879726 174.73513317 C56.22651581 176.59946744 53.90989878 178.23993449 51.55288696 179.87481689 C50.16462496 180.87969213 48.77659391 181.88488652 47.38882446 182.89044189 C46.64189331 183.42628906 45.89496216 183.96213623 45.12539673 184.51422119 C41.86314726 186.86003308 38.63021047 189.21530581 35.50210571 191.73809814 C30.68908904 195.54420757 27.05300613 198.35592722 20.70913696 197.74200439 C17.42111777 196.72522737 15.77432169 194.84204754 13.76382446 192.14044189 C12.6846522 188.90292512 12.64956845 186.56292418 12.66616821 183.15997314 C12.6710022 181.41490479 12.6710022 181.41490479 12.67593384 179.63458252 C12.68431274 178.41964111 12.69269165 177.20469971 12.70132446 175.95294189 C12.70583618 174.72639893 12.7103479 173.49985596 12.71499634 172.23614502 C12.72679381 169.20419521 12.74325526 166.17234283 12.76382446 163.14044189 C12.14338257 163.14567871 11.52294067 163.15091553 10.88369751 163.15631104 C8.07291679 163.17709655 5.26215225 163.19010706 2.45132446 163.20294189 C1.47485962 163.2113208 0.49839478 163.21969971 -0.50765991 163.22833252 C-1.91434937 163.2331665 -1.91434937 163.2331665 -3.34945679 163.23809814 C-4.64556885 163.24595337 -4.64556885 163.24595337 -5.96786499 163.25396729 C-8.23617554 163.14044189 -8.23617554 163.14044189 -11.23617554 162.14044189 C-11.27581421 162.69804199 -11.31545288 163.25564209 -11.35629272 163.83013916 C-14.22857148 202.45118012 -14.22857148 202.45118012 -26.23617554 213.14044189 C-25.11082397 213.34346924 -25.11082397 213.34346924 -23.96273804 213.55059814 C-13.80199857 215.68768063 -5.46883571 220.03721085 0.51382446 228.77325439 C5.81546958 238.81324483 7.07732298 247.8085102 4.20132446 258.57794189 C0.85594649 268.68425856 -4.9239228 275.09059896 -14.23617554 280.14044189 C-19.08612047 282.31796819 -23.02006623 282.19383094 -28.23617554 282.14044189 C-28.2257019 282.72422607 -28.21522827 283.30801025 -28.20443726 283.90948486 C-28.16229446 286.6114249 -28.13666749 289.31329541 -28.11117554 292.01544189 C-28.09441772 292.93325439 -28.07765991 293.85106689 -28.06039429 294.79669189 C-27.96824083 307.88248248 -30.61135591 317.62634171 -39.86117554 327.14044189 C-44.26420944 331.37235639 -48.89633892 335.25841396 -53.69320679 339.03497314 C-56.34732278 341.15739325 -56.34732278 341.15739325 -58.93539429 343.90216064 C-61.23617554 346.14044189 -61.23617554 346.14044189 -63.23617554 346.14044189 C-64.91492211 366.44710142 -63.6917625 385.04626538 -56.23617554 404.14044189 C-56.03298706 404.96955078 -55.82979858 405.79865967 -55.62045288 406.65289307 C-53.60223886 410.27962722 -50.67629834 410.85080445 -46.90414429 411.97247314 C-46.16483673 412.20987717 -45.42552917 412.44728119 -44.66381836 412.69187927 C-43.07891422 413.19883538 -41.49121706 413.69712587 -39.90112305 414.18756104 C-36.5739607 415.21545219 -33.26223408 416.28918257 -29.9490509 417.3611145 C-28.30483192 417.89274724 -26.65994437 418.42231677 -25.01438904 418.94979858 C-1.73147635 426.41699768 22.75080975 435.38680113 41.76382446 451.14044189 C42.2978186 451.57711182 42.83181274 452.01378174 43.38198853 452.46368408 C54.21390036 461.42468797 61.32537129 471.38662921 64.76382446 485.14044189 C64.76382446 488.77044189 64.76382446 492.40044189 64.76382446 496.14044189 C-59.31617554 496.14044189 -183.39617554 496.14044189 -311.23617554 496.14044189 C-311.23617554 480.8233035 -306.56641479 469.12049584 -295.79867554 458.07794189 C-273.5107715 436.26606259 -242.954418 426.24234568 -214.04867554 416.57794189 C-213.25619415 416.3121936 -212.46371277 416.04644531 -211.6472168 415.77264404 C-209.37285648 415.01280195 -207.09616067 414.26052782 -204.81820679 413.51153564 C-204.14104614 413.28596481 -203.4638855 413.06039398 -202.76620483 412.82798767 C-198.94391474 411.58505225 -195.21691845 410.69482969 -191.23617554 410.14044189 C-191.06601929 409.56938721 -190.89586304 408.99833252 -190.72055054 408.40997314 C-190.47820679 407.59915283 -190.23586304 406.78833252 -189.98617554 405.95294189 C-189.71418335 405.03899658 -189.44219116 404.12505127 -189.16195679 403.18341064 C-188.53339075 401.11736448 -187.88418793 399.05750685 -187.21664429 397.00372314 C-183.54444095 385.60201314 -182.06461426 375.22361136 -181.98617554 363.26544189 C-181.97215698 361.76618164 -181.97215698 361.76618164 -181.95785522 360.2366333 C-181.94997247 351.39459 -181.94997247 351.39459 -186.23226929 343.90216064 C-187.03793335 343.21766846 -187.84359741 342.53317627 -188.67367554 341.82794189 C-189.56570679 341.05966064 -190.45773804 340.29137939 -191.37680054 339.49981689 C-194.20525418 337.16595624 -197.06179073 334.87061204 -199.92367554 332.57794189 C-208.52168999 325.570803 -214.94469636 318.26389141 -217.23617554 307.14044189 C-217.31677551 305.18870919 -217.34379796 303.23443772 -217.33383179 301.28106689 C-217.3289978 299.6085083 -217.3289978 299.6085083 -217.32406616 297.90216064 C-217.3114978 296.16385986 -217.3114978 296.16385986 -217.29867554 294.39044189 C-217.29416382 293.21610596 -217.2896521 292.04177002 -217.28500366 290.83184814 C-217.27322648 287.93466117 -217.2567788 285.03757736 -217.23617554 282.14044189 C-219.06535522 282.18491455 -219.06535522 282.18491455 -220.93148804 282.23028564 C-230.02496101 282.21228273 -236.58723425 277.78379406 -243.03305054 271.65216064 C-250.09110577 263.60547711 -251.63104507 255.20182508 -251.50180054 244.80841064 C-250.74294252 234.32947417 -246.01219879 227.03452002 -238.23617554 220.14044189 C-231.55385092 215.49697351 -226.3649977 213.98411839 -218.23617554 214.14044189 C-218.81625366 212.98930908 -219.39633179 211.83817627 -219.99398804 210.65216064 C-227.09508958 196.28853428 -233.41034071 181.20316602 -235.23617554 165.14044189 C-235.36894897 164.00735596 -235.50172241 162.87427002 -235.63851929 161.70684814 C-237.44699841 142.17933766 -233.58522061 124.62309489 -221.17367554 109.07794189 C-216.11663764 103.51066475 -208.95825364 98.20900035 -202.06039429 95.18731689 C-199.4756991 93.70402287 -198.372398 91.74130484 -196.73617554 89.26544189 C-182.80019097 69.62136032 -162.29604356 56.92169497 -138.56820679 52.44903564 C-113.85726584 48.78720709 -85.07111161 52.15440097 -63.23617554 65.14044189 C-62.90023804 67.87872314 -62.90023804 67.87872314 -63.23617554 71.14044189 C-65.57211304 73.37091064 -65.57211304 73.37091064 -68.61117554 75.32794189 C-72.98010523 78.15436373 -72.98010523 78.15436373 -76.23617554 82.14044189 C-76.23617554 83.46044189 -76.23617554 84.78044189 -76.23617554 86.14044189 C-75.01543335 86.63673096 -73.79469116 87.13302002 -72.53695679 87.64434814 C-55.30644485 94.71984877 -39.13344086 102.19103654 -26.53207397 116.32281494 C-25.72622864 117.22460983 -24.9203833 118.12640472 -24.09011841 119.05552673 C-23.47831726 119.74354874 -22.86651611 120.43157074 -22.23617554 121.14044189 C-22.2339757 120.32432938 -22.2339757 120.32432938 -22.23173141 119.49172974 C-22.19461393 106.22824437 -22.13528331 92.96501669 -22.0522728 79.70173645 C-22.01279534 73.2875772 -21.98060793 66.87355531 -21.96517944 60.45928955 C-21.95001501 54.26698929 -21.91557224 48.07506663 -21.86786652 41.88293457 C-21.85305071 39.5227385 -21.84513441 37.16248852 -21.84429169 34.80224609 C-21.841921 31.49139335 -21.81483111 28.18158322 -21.78207397 24.87091064 C-21.78710434 23.89914383 -21.7921347 22.92737701 -21.7973175 21.92616272 C-21.69471383 15.2054551 -20.4743926 9.62999436 -15.7890892 4.58103943 C-10.67518789 0.04282526 -6.64059567 0.015096 0 0 Z " fill="#FCD6AC" transform="translate(319.2361755371094,7.85955810546875)"/>
<path d="M0 0 C1.09521027 -0.00445668 1.09521027 -0.00445668 2.21254599 -0.0090034 C4.65982621 -0.01767702 7.10705744 -0.01919751 9.55435181 -0.02069092 C11.30873214 -0.02531997 13.06311147 -0.03034475 14.81748962 -0.03573608 C19.58403215 -0.04885215 24.3505606 -0.0553033 29.11711836 -0.05974674 C32.09484134 -0.06267826 35.07256048 -0.06678318 38.05028152 -0.07125092 C47.36639493 -0.08492268 56.68249955 -0.09459137 65.9986223 -0.09845281 C76.75401394 -0.10293533 87.5092786 -0.1204936 98.26463163 -0.1494534 C106.57811569 -0.17106173 114.89156401 -0.18115661 123.20507586 -0.18249393 C128.17064522 -0.1835424 133.13609517 -0.18945952 138.10163498 -0.20731354 C142.77198473 -0.22377989 147.4421251 -0.22595671 152.11249352 -0.21717453 C153.82574334 -0.21640343 155.53900435 -0.22075645 157.25222588 -0.23063278 C159.59296069 -0.24333443 161.9329519 -0.23748565 164.27368164 -0.22705078 C165.58296316 -0.22851734 166.89224468 -0.2299839 168.2412014 -0.2314949 C173.70865491 0.34578717 177.61675416 2.38824767 181.07632446 6.64044189 C181.56745728 7.22825439 182.05859009 7.81606689 182.56460571 8.42169189 C184.88770986 11.75122227 184.89258168 14.73488433 184.90426636 18.66188049 C184.9099765 19.81007263 184.91568665 20.95826477 184.92156982 22.14125061 C184.92324661 24.03250923 184.92324661 24.03250923 184.92495728 25.9619751 C184.92958631 27.30242042 184.93461109 28.64286442 184.94000244 29.98330688 C184.95312057 33.62597741 184.9595703 37.26862951 184.9640131 40.91131997 C184.96694489 43.18767498 184.97104991 45.46402495 184.97551727 47.74037743 C184.98919092 54.86415309 184.99885811 61.98791725 185.00271916 69.11170512 C185.00719915 77.33207111 185.02474474 85.55227076 185.05371976 93.77258617 C185.07534468 100.12852993 185.08542388 106.48442692 185.08676028 112.84040707 C185.08780777 116.63564174 185.09370349 120.43072001 185.1115799 124.22591591 C185.12807461 127.79725306 185.13020945 131.36831649 185.12144089 134.93967819 C185.12030501 136.87082155 185.13401176 138.80195587 185.14819336 140.73304749 C185.11503684 147.61929 184.9208489 152.7179404 180.04507446 158.00372314 C179.45726196 158.48196533 178.86944946 158.96020752 178.26382446 159.45294189 C177.67601196 159.94407471 177.08819946 160.43520752 176.48257446 160.94122314 C172.26205944 163.88599158 167.60317847 163.22844753 162.69692993 163.15533447 C160.77073623 163.135894 158.84453757 163.11694037 156.91833496 163.09840393 C155.89490871 163.0872436 154.87148247 163.07608326 153.8170433 163.06458473 C147.23335713 163.00339469 140.64932352 163.00327885 134.06539726 162.99197865 C128.29340898 162.9785976 122.5230782 162.94410462 116.75161743 162.862854 C111.15831455 162.78531806 105.56752626 162.76765736 99.9737587 162.78867149 C97.85528603 162.78623661 95.73671782 162.76290521 93.61874008 162.71705055 C78.73561107 162.41113537 69.75567664 164.90780322 58.40879726 174.73513317 C56.22651581 176.59946744 53.90989878 178.23993449 51.55288696 179.87481689 C50.16462496 180.87969213 48.77659391 181.88488652 47.38882446 182.89044189 C46.64189331 183.42628906 45.89496216 183.96213623 45.12539673 184.51422119 C41.86314726 186.86003308 38.63021047 189.21530581 35.50210571 191.73809814 C30.68908904 195.54420757 27.05300613 198.35592722 20.70913696 197.74200439 C17.42111777 196.72522737 15.77432169 194.84204754 13.76382446 192.14044189 C12.6846522 188.90292512 12.64956845 186.56292418 12.66616821 183.15997314 C12.66939087 181.99659424 12.67261353 180.83321533 12.67593384 179.63458252 C12.6885022 177.81217041 12.6885022 177.81217041 12.70132446 175.95294189 C12.70583618 174.72639893 12.7103479 173.49985596 12.71499634 172.23614502 C12.72679381 169.20419521 12.74325526 166.17234283 12.76382446 163.14044189 C12.14861938 163.15091553 11.53341431 163.16138916 10.89956665 163.17218018 C8.10436103 163.21382884 5.3092208 163.23979606 2.51382446 163.26544189 C1.06169556 163.29057861 1.06169556 163.29057861 -0.41976929 163.31622314 C-1.82162476 163.32589111 -1.82162476 163.32589111 -3.25180054 163.33575439 C-4.11063843 163.34622803 -4.96947632 163.35670166 -5.8543396 163.36749268 C-8.4152115 163.12337512 -10.03128582 162.43034701 -12.23617554 161.14044189 C-12.25035522 160.07567627 -12.26453491 159.01091064 -12.27914429 157.91387939 C-12.56059927 147.70108435 -13.28899037 136.55021417 -19.7953949 128.12025452 C-21.95908727 123.64532081 -21.66216637 119.41966493 -21.64022827 114.51031494 C-21.64709152 113.43978882 -21.65395477 112.3692627 -21.661026 111.26629639 C-21.67932369 107.72811611 -21.67545141 104.19037809 -21.66976929 100.65216064 C-21.67433031 98.18982295 -21.67963565 95.72748654 -21.68565369 93.26515198 C-21.69459115 88.10284252 -21.69215508 82.94068771 -21.68222046 77.77838135 C-21.67074226 71.17079924 -21.69092211 64.56375244 -21.7201376 57.95624065 C-21.73850832 52.86978272 -21.73820512 47.78345278 -21.73250008 42.69696999 C-21.73234691 40.26137352 -21.73838773 37.82576836 -21.75079155 35.39020348 C-21.76571186 31.97938137 -21.75501479 28.56954429 -21.73788452 25.15875244 C-21.74755249 24.1574379 -21.75722046 23.15612335 -21.7671814 22.12446594 C-21.6957164 15.3098595 -20.54518738 9.70328781 -15.78891659 4.58216381 C-10.67714148 0.04163063 -6.63973556 0.01509405 0 0 Z " fill="#3B97D3" transform="translate(319.2361755371094,7.85955810546875)"/>
<path d="M0 0 C1.4296875 1.34765625 1.4296875 1.34765625 2.875 3.0625 C17.10130235 17.86636591 41.1843357 23.7139627 61.015625 24.16796875 C62.76036568 24.18281199 64.50519693 24.18910648 66.25 24.1875 C67.62925659 24.1862915 67.62925659 24.1862915 69.03637695 24.18505859 C76.18024306 24.12106682 82.99063063 23.4098165 90 22 C90.80695313 21.87882812 91.61390625 21.75765625 92.4453125 21.6328125 C107.48248164 19.20105908 121.81950062 12.32046097 133 2 C133.66 1.01 134.32 0.02 135 -1 C140.12094186 -0.4030194 144.8201565 0.73584431 149.71484375 2.37109375 C150.80129684 2.72762276 150.80129684 2.72762276 151.90969849 3.09135437 C154.25512008 3.86519927 156.59667173 4.64987641 158.9375 5.4375 C159.7400119 5.70632996 160.5425238 5.97515991 161.36935425 6.25213623 C186.40142091 14.66400786 212.49790996 23.83404887 233 41 C233.89203125 41.72960937 234.7840625 42.45921875 235.703125 43.2109375 C245.6533036 51.70135936 251.82653072 61.30612289 255 74 C255 77.63 255 81.26 255 85 C130.92 85 6.84 85 -121 85 C-121 69.6828616 -116.33023925 57.98005394 -105.5625 46.9375 C-79.92548441 21.84803941 -43.44745449 11.84823035 -10.24853516 1.05639648 C-3.23517203 -1.22429059 -3.23517203 -1.22429059 0 0 Z " fill="#E54C3C" transform="translate(129,419)"/>
<path d="M0 0 C0.3359375 2.73828125 0.3359375 2.73828125 0 6 C-2.3359375 8.23046875 -2.3359375 8.23046875 -5.375 10.1875 C-9.7439297 13.01392183 -9.7439297 13.01392183 -13 17 C-13 18.32 -13 19.64 -13 21 C-11.77925781 21.49628906 -10.55851563 21.99257812 -9.30078125 22.50390625 C14.42397051 32.24618764 36.98332229 43.69679977 47.625 68.421875 C55.58468192 89.13513818 53.06841676 116.20300964 44.546875 136.453125 C42.21864187 141.32124882 40.14150843 145.43462883 36 149 C35.34 149 34.68 149 34 149 C33.88785156 147.69289062 33.88785156 147.69289062 33.7734375 146.359375 C32.59822826 135.7133619 29.95173519 126.48324023 22.1875 118.75 C18.62820714 115.95680256 15.94235473 115.31212656 11.46875 115.65625 C9.50976401 115.9290202 7.55321189 116.21926065 5.59765625 116.515625 C-21.19900544 119.85663702 -44.18026662 115.02065954 -68.22583008 103.69604492 C-96.36142405 89.2043746 -96.36142405 89.2043746 -126.953125 88.86328125 C-136.67167621 93.09696149 -142.12677891 101.4648828 -146 111 C-150.47707869 123.63842004 -152.32468215 135.67135825 -153 149 C-153.66 149 -154.32 149 -155 149 C-162.80084731 133.5196519 -170.02116651 117.40872497 -172 100 C-172.13277344 98.86691406 -172.26554687 97.73382813 -172.40234375 96.56640625 C-174.21082287 77.03889576 -170.34904508 59.48265299 -157.9375 43.9375 C-152.8804621 38.37022285 -145.7220781 33.06855845 -138.82421875 30.046875 C-136.23952356 28.56358097 -135.13622247 26.60086294 -133.5 24.125 C-119.56401543 4.48091843 -99.05986802 -8.21874692 -75.33203125 -12.69140625 C-50.6210903 -16.3532348 -21.83493607 -12.98604093 0 0 Z " fill="#CB8252" transform="translate(256,73)"/>
<path d="M0 0 C4.67413444 3.41197944 9.10753799 6.88584475 13.3125 10.875 C27.05548382 23.47906251 37.52031548 28.70232858 56.01318359 28.46655273 C58.49514672 28.4375567 60.97497044 28.44598287 63.45703125 28.45898438 C82.49020129 28.4364328 92.46899648 22.36619508 106.40625 9.41015625 C109.86842026 6.19304925 113.4265089 3.09224731 117 0 C117.99 0.495 117.99 0.495 119 1 C118.9278125 1.68964844 118.855625 2.37929688 118.78125 3.08984375 C118.6884375 4.02957031 118.595625 4.96929687 118.5 5.9375 C118.4071875 6.85402344 118.314375 7.77054687 118.21875 8.71484375 C117.71271179 16.31445332 118.11241457 23.5881959 119.1875 31.125 C119.31697021 32.03644775 119.44644043 32.94789551 119.57983398 33.88696289 C120.98206228 42.99864715 123.44480048 51.70562659 127.46484375 60.03515625 C128 63 128 63 126.00390625 66.08984375 C118.26716085 74.1194298 108.38327093 79.30004571 98 83 C97.20851563 83.29519531 96.41703125 83.59039062 95.6015625 83.89453125 C68.97595131 93.37698576 36.77625314 91.03973579 11.3203125 79.3671875 C-5.84813605 70.68197235 -5.84813605 70.68197235 -8.69946289 63.15307617 C-9.07126652 60.48943997 -8.55699252 58.95729106 -7.63671875 56.4375 C-7.32669922 55.55707031 -7.01667969 54.67664063 -6.69726562 53.76953125 C-6.36404297 52.85558594 -6.03082031 51.94164062 -5.6875 51 C-1.06564774 38.3107463 0.30808705 26.7421072 0.125 13.25 C0.11597656 11.96867187 0.10695312 10.68734375 0.09765625 9.3671875 C0.07435327 6.24458779 0.04164054 3.12239975 0 0 Z " fill="#F8C694" transform="translate(137,355)"/>
<path d="M0 0 C4.75790128 3.07129295 7.97022479 7.15209916 10.97265625 11.90234375 C11.59720703 12.88654297 11.59720703 12.88654297 12.234375 13.890625 C16.38764241 21.62881797 16.010513 30.52060976 14.3828125 38.9609375 C11.83344547 47.24344329 6.55923176 53.9972945 -0.765625 58.63671875 C-7.10423982 61.90234375 -7.10423982 61.90234375 -10.02734375 61.90234375 C-9.96933594 62.69898437 -9.91132813 63.495625 -9.8515625 64.31640625 C-9.43647684 74.06498956 -9.43647684 74.06498956 -12.02734375 77.65234375 C-14.92550676 79.82596601 -15.68932418 80.31123596 -19.08984375 80.52734375 C-23.02734375 79.90234375 -23.02734375 79.90234375 -25.23828125 78.4765625 C-27.98576849 74.52330029 -27.64781933 70.7926867 -27.58984375 66.08984375 C-27.61369141 65.21263672 -27.63753906 64.33542969 -27.66210938 63.43164062 C-27.64825473 57.25708828 -26.4338696 53.32176597 -22.02734375 48.90234375 C-20.03515625 47.484375 -20.03515625 47.484375 -18.15234375 46.71484375 C-17.46914063 46.40675781 -16.7859375 46.09867188 -16.08203125 45.78125 C-15.40398437 45.49121094 -14.7259375 45.20117188 -14.02734375 44.90234375 C-8.92574205 42.66135677 -5.89972859 40.25990071 -3.6875 35.1171875 C-2.07524836 29.70803554 -2.16080273 25.5159029 -4.83984375 20.52734375 C-5.56171875 19.66109375 -6.28359375 18.79484375 -7.02734375 17.90234375 C-7.70796875 17.03609375 -7.70796875 17.03609375 -8.40234375 16.15234375 C-12.74232001 12.81390048 -17.73352792 12.42968162 -23.02734375 12.90234375 C-27.90051287 14.65668463 -31.55661792 17.30875602 -34.02734375 21.90234375 C-34.58363033 23.92939777 -35.07957053 25.97359062 -35.52734375 28.02734375 C-36.37318739 31.81014447 -36.82284157 33.64671603 -39.27734375 36.71484375 C-43.05110361 38.34442187 -45.11796795 38.11069627 -49.02734375 36.90234375 C-51.74605445 34.7413173 -52.81505881 33.13666032 -53.40625 29.69921875 C-53.85597302 20.47264329 -50.7156564 13.5127471 -44.77734375 6.58984375 C-32.16107211 -6.60648635 -16.10998006 -8.72235915 0 0 Z " fill="#E9EEF0" transform="translate(420.02734375,39.09765625)"/>
<path d="M0 0 C3.64597987 1.96321993 5.19307024 2.49515036 9.25 1.75 C10.58648308 0.93386894 11.89765568 0.07550821 13.1875 -0.8125 C16.25038378 -2.8680874 17.12828649 -3.24594288 21 -3.375 C24.96113582 -2.0038376 26.31082186 -0.9667581 28.25 2.75 C28.32522747 6.96273829 27.76884403 9.05280333 25.25 12.4375 C21.49645553 15.33085719 17.62256148 16.99753921 13.25 18.75 C12.26 19.245 12.26 19.245 11.25 19.75 C2.14128173 20.69979797 -4.47166072 18.89326968 -11.8125 13.5 C-15.57974198 11.25568563 -18.46117016 10.85253862 -22.75 11.75 C-24.76254782 13.06431695 -26.76310269 14.39721885 -28.75 15.75 C-32.3125 16.375 -32.3125 16.375 -35.75 15.75 C-38.75 13.1875 -38.75 13.1875 -40.75 9.75 C-41.0118502 6.08409715 -40.74674846 3.97237347 -38.38671875 1.078125 C-26.82102985 -9.66334239 -12.67479548 -7.78276916 0 0 Z " fill="#F09473" transform="translate(202.75,313.25)"/>
<path d="M0 0 C4.0046518 0.80093036 5.11349652 1.6687113 8.125 4.25 C11.30258816 6.92871767 13.29880789 8.27729786 17.5 8.375 C22.39827536 7.94906301 25.41356934 6.3091691 28.625 2.5625 C30.75 0.75 30.75 0.75 34.1875 0.1875 C37.75 0.75 37.75 0.75 40.6875 2.8125 C42.75 5.75 42.75 5.75 43.375 9.1875 C42.45146987 14.45162173 39.97679538 17.12479854 35.8125 20.1640625 C27.30427775 25.67507009 19.77540717 26.73914603 9.75 25.75 C2.70448708 23.66519829 -2.61846346 19.37299696 -7.25 13.75 C-8.69430855 10.86138291 -8.62688506 8.95352299 -8.25 5.75 C-5.74995877 2.26509404 -4.19401394 0.96784937 0 0 Z " fill="#A66B44" transform="translate(136.25,204.25)"/>
<path d="M0 0 C2.13671875 1.57421875 2.13671875 1.57421875 4.375 3.5 C8.28482596 6.78372095 10.8186758 7.92782035 15.92578125 7.5 C19.90946627 6.53971435 22.86354992 4.44639101 25.375 1.25 C27.76538647 -0.58875882 30.13114137 -0.47462517 33.05859375 -0.33984375 C35 0 35 0 37.5 1.5 C39.18685152 4.3114192 39.75862898 6.55636679 39.5625 9.84765625 C38.15219051 15.24404883 34.08468366 18.59087668 29.61328125 21.61328125 C21.34957707 25.99835596 12.10802527 26.72045456 3.1015625 24.18359375 C-3.20203492 21.40031304 -8.4209283 16.91104477 -12 11 C-12.27696598 6.7762688 -11.69230982 5.03846473 -9.375 1.5625 C-5.86933426 -0.74385904 -4.14502589 -0.74746369 0 0 Z " fill="#A66B44" transform="translate(225,205)"/>
<path d="M0 0 C1.485 -0.05607422 1.485 -0.05607422 3 -0.11328125 C11.22075987 -0.21219414 11.22075987 -0.21219414 14.91015625 2.6796875 C17.25 5.375 17.25 5.375 17.9375 8.875 C17.03725715 13.45805451 16.04848099 14.6347333 12.25 17.375 C8.21675169 18.09507387 4.27355446 18.02733007 0.1875 17.9375 C-0.90111328 17.94845703 -1.98972656 17.95941406 -3.11132812 17.97070312 C-11.09654571 17.89699342 -11.09654571 17.89699342 -14.02905273 15.55444336 C-16.45984438 12.47603834 -16.75 10.26836946 -16.75 6.375 C-12.30593533 -0.67420603 -7.66764425 0.10813344 0 0 Z " fill="#F9C795" transform="translate(195.75,340.625)"/>
<path d="M0 0 C1.71123047 -0.03577148 1.71123047 -0.03577148 3.45703125 -0.07226562 C11.76589486 -0.05762015 11.76589486 -0.05762015 15.2421875 2.87890625 C16.93347622 6.48733901 17.20307439 8.6252834 16.5 12.5625 C13.83215644 15.57641851 12.10649858 17.26070494 8.11914062 18.00976562 C5.375144 18.16300445 2.68425922 18.14637051 -0.0625 18.0625 C-0.99513672 18.06507813 -1.92777344 18.06765625 -2.88867188 18.0703125 C-7.84113223 17.99971435 -11.55088444 17.87819306 -15.5 14.5625 C-17.5 11.5625 -17.5 11.5625 -17.375 8.125 C-15.08089157 -1.21529859 -8.10537431 -0.07784823 0 0 Z " fill="#F9C795" transform="translate(196.5,281.4375)"/>
<path d="M0 0 C4.53809159 0.89141085 5.7624308 1.95994397 8.5 5.6875 C9.10793153 9.31239404 8.97237325 12.83767284 8.8125 16.5 C8.78994141 17.47904297 8.76738281 18.45808594 8.74414062 19.46679688 C8.68541964 21.8743573 8.59574426 24.28112754 8.5 26.6875 C2.89 26.6875 -2.72 26.6875 -8.5 26.6875 C-8.6354964 23.47774078 -8.73434038 20.27374371 -8.8125 17.0625 C-8.8753418 15.70705078 -8.8753418 15.70705078 -8.93945312 14.32421875 C-9.02049711 9.88300842 -9.01316055 6.66850084 -6.19921875 3.08203125 C-3.5 0.6875 -3.5 0.6875 0 0 Z " fill="#C13A2B" transform="translate(76.5,477.3125)"/>
<path d="M0 0 C2.6796875 1.84765625 2.6796875 1.84765625 5 5 C5.60943245 8.62461714 5.47237088 12.1502271 5.3125 15.8125 C5.28994141 16.79154297 5.26738281 17.77058594 5.24414062 18.77929688 C5.18541964 21.1868573 5.09574426 23.59362754 5 26 C-0.61 26 -6.22 26 -12 26 C-12.1081697 22.76993266 -12.18739234 19.54350246 -12.25 16.3125 C-12.28351563 15.40048828 -12.31703125 14.48847656 -12.3515625 13.54882812 C-12.41507561 9.18230205 -12.43722486 6.71274879 -10.109375 2.91796875 C-6.73631108 -0.14902085 -4.53597296 -0.53364388 0 0 Z " fill="#C13A2B" transform="translate(319,478)"/>
<path d="M0 0 C3.50677532 2.70931621 4.84992515 4.18783024 5.6640625 8.59375 C5.64472656 10.52734375 5.64472656 10.52734375 5.625 12.5 C5.63789063 13.7890625 5.65078125 15.078125 5.6640625 16.40625 C4.8498711 20.8124623 3.51493808 22.29856287 0 25 C-3.80595431 25.53416903 -5.99445927 25.55569356 -9.375 23.6875 C-13.27042866 19.64224716 -12.38869662 13.59814797 -12.33984375 8.34375 C-12 5 -12 5 -9.9375 1.625 C-6.20282869 -0.44098839 -4.20689051 -0.75123045 0 0 Z " fill="#3E98D2" transform="translate(157,239)"/>
<path d="M0 0 C4.14781623 0.74068147 5.63841142 1.54625882 8.5 4.625 C9.21167204 7.4769376 9.15436416 10.20024377 9.0625 13.125 C9.07345703 13.88425781 9.08441406 14.64351562 9.09570312 15.42578125 C9.04721918 19.11702586 8.90530768 21.06040109 6.7109375 24.1171875 C4.00374137 25.96343787 1.73728881 26.32685534 -1.52734375 26.11328125 C-4.28061107 25.43177944 -6.0243084 24.11544143 -7.6484375 21.80078125 C-9.75345282 16.42237054 -9.79656535 9.80644009 -7.61328125 4.44921875 C-5.43372262 1.41521521 -3.62677892 0.64763909 0 0 Z " fill="#4098D1" transform="translate(238.5,238.375)"/>
<path d="M0 0 C3.88265681 0.72799815 5.46228253 1.50231129 8 4.5625 C8.71534153 7.70654141 8.71534153 10.41845859 8 13.5625 C5.46228253 16.62268871 3.88265681 17.39700185 0 18.125 C-4.13607554 17.34948584 -5.54999553 15.94927089 -8 12.5625 C-8.625 9.0625 -8.625 9.0625 -8 5.5625 C-5.54999553 2.17572911 -4.13607554 0.77551416 0 0 Z " fill="#E7EDF0" transform="translate(401,127.4375)"/>
</svg>
