<?xml version="1.0" encoding="UTF-8"?>
<svg version="1.1" xmlns="http://www.w3.org/2000/svg" width="512" height="512">
<path d="M0 0 C1.17369141 -0.02513672 1.17369141 -0.02513672 2.37109375 -0.05078125 C5.08175408 0.39857955 5.90970635 1.15426487 7.5625 3.3125 C8.7202506 6.78575181 8.63116652 9.67317448 8.5625 13.3125 C10.2640625 13.4053125 10.2640625 13.4053125 12 13.5 C19.57192516 14.43977795 27.36974859 19.25051784 32.0546875 25.2109375 C36.94629269 32.1467956 40.67811129 38.88050791 40.60400391 47.49047852 C40.59801178 48.39290787 40.59201965 49.29533722 40.58584595 50.22511292 C40.57814178 50.91395065 40.57043762 51.60278839 40.5625 52.3125 C41.38776184 52.30583817 42.21302368 52.29917633 43.06329346 52.29231262 C50.88851231 52.23188739 58.71365139 52.18636729 66.53905106 52.15706348 C70.56096706 52.14149101 74.58268825 52.12040932 78.60449219 52.08618164 C82.49487946 52.05328433 86.38508085 52.03558391 90.27559662 52.02786827 C91.75056631 52.02237867 93.22552729 52.01166101 94.70041656 51.99530983 C109.00355152 51.84322794 121.04371369 53.24926376 131.75390625 63.38671875 C139.87855511 71.96024324 142.77050962 80.42826554 142.625 92.125 C142.62048828 92.81787109 142.61597656 93.51074219 142.61132812 94.22460938 C142.59963156 95.92061068 142.58169924 97.61656703 142.5625 99.3125 C143.58601563 99.27898437 144.60953125 99.24546875 145.6640625 99.2109375 C156.12473251 99.48345997 165.71284423 103.85631883 173.3046875 110.9375 C181.00353802 119.21089161 182.7516744 128.54971681 182.8125 139.4375 C182.8434375 140.78714844 182.8434375 140.78714844 182.875 142.1640625 C182.94227098 153.8692122 179.43447062 162.61470505 171.5625 171.3125 C162.60116757 179.10928527 154.23358853 181.690328 142.5625 182.3125 C142.60890625 183.25609375 142.6553125 184.1996875 142.703125 185.171875 C143.03476024 196.96861418 141.52785281 206.95452051 133.609375 216.27734375 C124.71226549 225.12351561 115.71223602 228.61465331 103.27035427 228.66055965 C101.11624723 228.65215982 98.96258316 228.62908685 96.80859375 228.60546875 C95.2968844 228.59986328 93.78516954 228.59559768 92.27345276 228.59260559 C88.32291223 228.58123155 84.37271033 228.55183001 80.42230225 228.51849365 C76.3798887 228.48763087 72.33741965 228.47406586 68.29492188 228.45898438 C60.38394298 228.42695178 52.47330282 228.37424625 44.5625 228.3125 C44.5625 236.2325 44.5625 244.1525 44.5625 252.3125 C49.16421143 252.29678955 49.16421143 252.29678955 53.85888672 252.28076172 C64.01690214 252.24756021 74.17492 252.22550565 84.33297539 252.20887566 C90.4892655 252.19845707 96.64549981 252.18433301 102.80175781 252.16162109 C108.74750438 252.13982412 114.69319741 252.1279169 120.63898087 252.12274551 C122.90266894 252.11906206 125.16635422 252.11186928 127.43001938 252.10103989 C130.61079902 252.08643394 133.79135996 252.08452587 136.97216797 252.08544922 C137.89934128 252.07825867 138.82651459 252.07106812 139.78178406 252.06365967 C149.31937766 252.09344368 157.20395138 253.66886188 165.5625 258.3125 C165.57708252 257.52601074 165.59166504 256.73952148 165.60668945 255.92919922 C165.68139363 252.34815042 165.77798207 248.76801089 165.875 245.1875 C165.89755859 243.95 165.92011719 242.7125 165.94335938 241.4375 C165.97880859 240.23867187 166.01425781 239.03984375 166.05078125 237.8046875 C166.07696533 236.70495605 166.10314941 235.60522461 166.13012695 234.47216797 C166.80106892 229.56910137 168.46081486 226.30670366 172.125 223 C175.59807518 220.59556333 177.37478791 220.18032485 181.55957031 220.13549805 C183.12194427 220.11624519 183.12194427 220.11624519 184.71588135 220.09660339 C186.41112946 220.08552299 186.41112946 220.08552299 188.140625 220.07421875 C189.29995544 220.066147 190.45928589 220.05807526 191.65374756 220.04975891 C194.11176046 220.03590865 196.56979267 220.02519073 199.02783203 220.01733398 C202.78324986 220.00013397 206.53778469 219.95625609 210.29296875 219.91210938 C212.67968102 219.90198159 215.06640078 219.89346575 217.453125 219.88671875 C219.13622772 219.86045662 219.13622772 219.86045662 220.85333252 219.83366394 C226.89532951 219.85043155 230.95441283 219.97199956 235.5625 224.3125 C240.52023933 229.65788575 240.14593157 235.00513242 240.09375 241.9140625 C240.0975769 243.02808441 240.10140381 244.14210632 240.10534668 245.28988647 C240.10806229 247.63825385 240.10072582 249.98665166 240.08398438 252.33496094 C240.06253087 255.93232368 240.0838204 259.52769834 240.109375 263.125 C240.10673246 265.40885858 240.101609 267.69271592 240.09375 269.9765625 C240.10184692 271.05265778 240.10994385 272.12875305 240.11828613 273.23745728 C240.09937317 274.73954239 240.09937317 274.73954239 240.08007812 276.27197266 C240.07689575 277.1510025 240.07371338 278.03003235 240.07043457 278.93569946 C239.39221125 282.10933961 238.08883794 283.33732729 235.5625 285.3125 C234.5725 285.3125 233.5825 285.3125 232.5625 285.3125 C232.59548902 288.08657649 232.66259079 290.85255929 232.75 293.625 C232.75580078 294.41068359 232.76160156 295.19636719 232.76757812 296.00585938 C232.8522609 298.21702061 232.97731383 300.17705386 233.5625 302.3125 C235.93090588 304.30157452 235.93090588 304.30157452 238.5625 305.3125 C239.76188606 307.71127211 239.70828823 309.24744983 239.73950195 311.92651367 C239.75233719 312.88478561 239.76517242 313.84305756 239.77839661 314.83036804 C239.78947701 316.38966789 239.78947701 316.38966789 239.80078125 317.98046875 C239.808853 319.04864334 239.81692474 320.11681793 239.82524109 321.21736145 C239.83909096 323.48286309 239.84980906 325.74838567 239.85766602 328.01391602 C239.87484421 331.46866842 239.91871925 334.92245544 239.96289062 338.37695312 C239.97302048 340.57811796 239.98153567 342.77929094 239.98828125 344.98046875 C240.00578934 346.00988083 240.02329742 347.03929291 240.04133606 348.09989929 C240.02242011 354.39773728 239.30713393 358.18819619 235.5625 363.3125 C229.52549403 367.95635075 222.75343449 367.4718223 215.4765625 367.48046875 C214.50141693 367.48379715 213.52627136 367.48712555 212.52157593 367.49055481 C210.4623054 367.49560855 208.40302672 367.49796362 206.34375 367.49780273 C203.20559085 367.49998741 200.06778443 367.51815476 196.9296875 367.53710938 C194.92448036 367.54004404 192.91927156 367.54202835 190.9140625 367.54296875 C189.9815567 367.55015427 189.0490509 367.55733978 188.08828735 367.56474304 C176.23702164 367.52350892 176.23702164 367.52350892 171.6015625 363.69140625 C171.13492187 363.09199219 170.66828125 362.49257813 170.1875 361.875 C169.70539063 361.27816406 169.22328125 360.68132812 168.7265625 360.06640625 C166.46794525 356.66332187 166.38718013 353.52135517 166.24609375 349.55078125 C166.20419922 348.43251953 166.16230469 347.31425781 166.11914062 346.16210938 C166.07982422 344.99486328 166.04050781 343.82761719 166 342.625 C165.95681641 341.44615234 165.91363281 340.26730469 165.86914062 339.05273438 C165.76298824 336.13944117 165.66093758 333.22606243 165.5625 330.3125 C164.65757812 330.72822266 164.65757812 330.72822266 163.734375 331.15234375 C162.93515625 331.51457031 162.1359375 331.87679688 161.3125 332.25 C160.52359375 332.60964844 159.7346875 332.96929687 158.921875 333.33984375 C153.04240105 335.76366662 149.45371099 335.3125 142.5625 335.3125 C142.8925 348.8425 143.2225 362.3725 143.5625 376.3125 C147.8525 376.9725 152.1425 377.6325 156.5625 378.3125 C160.28125 379.6796875 160.28125 379.6796875 163.0625 381.1875 C164.0009375 381.67992187 164.939375 382.17234375 165.90625 382.6796875 C170.29234515 385.37584599 173.79531036 388.15453064 176.6875 392.4375 C177.16445313 393.12070312 177.64140625 393.80390625 178.1328125 394.5078125 C183.00645957 404.06868297 183.00737649 413.65199866 182.9609375 424.125 C182.96296313 425.74585094 182.96587861 427.36670098 182.96963501 428.98754883 C182.9740354 432.36971796 182.96770161 435.75164794 182.95361328 439.13378906 C182.93652265 443.44408715 182.94637619 447.7538246 182.96433067 452.06410217 C182.9752307 455.40665829 182.97169384 458.749084 182.9639473 462.09164429 C182.96196243 463.67988147 182.96434352 465.26813095 182.97138596 466.85635376 C183.02202568 481.48236928 180.94791953 491.89693065 170.97265625 503.09765625 C159.8536573 513.7273105 146.06605285 513.04379653 131.7421875 512.94140625 C129.63094969 512.94223644 127.51971195 512.94470147 125.40847778 512.94871521 C121.00242458 512.9515609 116.59688317 512.93698982 112.19091797 512.90942383 C106.56452439 512.87530163 100.93904249 512.88138529 95.3126049 512.9000864 C90.95948788 512.91069012 86.60658039 512.90168862 82.25348282 512.88670158 C80.17960356 512.88154691 78.10570218 512.88196831 76.03182602 512.88824654 C73.12735182 512.89374136 70.22415278 512.87318918 67.31982422 512.84594727 C66.05552582 512.85573608 66.05552582 512.85573608 64.76568604 512.86572266 C54.01645032 512.69563513 45.66624018 507.92563222 37.91015625 500.79296875 C26.22135777 488.56880546 27.96405396 473.27384295 28.25 457.5625 C28.353125 449.56 28.45625 441.5575 28.5625 433.3125 C9.4225 433.3125 -9.7175 433.3125 -29.4375 433.3125 C-29.27981052 448.94327777 -29.27981052 448.94327777 -29.07714844 464.57348633 C-29.06544912 466.55549246 -29.05526026 468.53750832 -29.046875 470.51953125 C-29.02641113 471.52125366 -29.00594727 472.52297607 -28.98486328 473.55505371 C-28.9791659 485.26460595 -32.89790031 494.68057655 -41.09765625 502.99609375 C-47.13307633 508.50908567 -54.18350811 512.39925077 -62.4822998 512.46640015 C-63.27821533 512.47500061 -64.07413086 512.48360107 -64.89416504 512.49246216 C-66.19082092 512.49885208 -66.19082092 512.49885208 -67.51367188 512.50537109 C-68.43132324 512.51354858 -69.34897461 512.52172607 -70.29443359 512.53015137 C-73.33169919 512.55496231 -76.36891803 512.57151447 -79.40625 512.5859375 C-80.96696983 512.59392302 -80.96696983 512.59392302 -82.55921936 512.60206985 C-88.07137311 512.62878853 -93.58350437 512.64816366 -99.09570312 512.66259766 C-103.64278396 512.6759103 -108.18941322 512.70371584 -112.73632812 512.74462891 C-118.23936855 512.79413903 -123.74200091 512.81874177 -129.24525452 512.82582474 C-131.33427892 512.83250801 -133.42329527 512.84765307 -135.51219177 512.87171555 C-150.37829992 513.03312963 -162.28444501 512.29465989 -173.53515625 501.41015625 C-183.25996987 490.68690181 -183.89813047 478.54488924 -183.8359375 464.71875 C-183.83796323 463.12031929 -183.8408788 461.52188949 -183.84463501 459.92346191 C-183.84903493 456.58836997 -183.84270317 453.25352057 -183.82861328 449.91845703 C-183.81152266 445.66869035 -183.82137646 441.41949229 -183.83933067 437.1697464 C-183.85023201 433.87351284 -183.84669326 430.5774115 -183.8389473 427.28117371 C-183.83696278 425.7152652 -183.83934223 424.14934423 -183.84638596 422.58345032 C-183.89559718 408.57253051 -182.28491846 398.67373752 -172.46875 388.21484375 C-164.16431013 380.16615656 -155.82698507 377.57799834 -144.4375 376.3125 C-144.1075 362.7825 -143.7775 349.2525 -143.4375 335.3125 C-146.7375 335.3125 -150.0375 335.3125 -153.4375 335.3125 C-156.75 334.47265625 -156.75 334.47265625 -159.4375 333.375 C-160.345 333.01535156 -161.2525 332.65570313 -162.1875 332.28515625 C-163.621112 331.66541773 -165.04055499 331.0109725 -166.4375 330.3125 C-166.45208252 331.03840332 -166.46666504 331.76430664 -166.48168945 332.51220703 C-166.55644859 335.82115732 -166.6530179 339.12912952 -166.75 342.4375 C-166.77255859 343.57960938 -166.79511719 344.72171875 -166.81835938 345.8984375 C-167.03215777 352.58449629 -167.30551134 357.70985731 -171.8671875 362.95703125 C-178.03629914 367.94234039 -183.93251212 367.47144913 -191.5234375 367.48046875 C-192.49858307 367.48379715 -193.47372864 367.48712555 -194.47842407 367.49055481 C-196.5376946 367.49560855 -198.59697328 367.49796362 -200.65625 367.49780273 C-203.79440915 367.49998741 -206.93221557 367.51815476 -210.0703125 367.53710938 C-212.07551964 367.54004404 -214.08072844 367.54202835 -216.0859375 367.54296875 C-217.0184433 367.55015427 -217.9509491 367.55733978 -218.91171265 367.56474304 C-225.49457371 367.54183929 -231.02924873 367.34613441 -236.25 362.9375 C-239.46641607 359.07780072 -240.68484965 356.45910686 -240.7121582 351.42382812 C-240.72169022 350.45602417 -240.73122223 349.48822021 -240.74104309 348.49108887 C-240.74013168 347.45246704 -240.73922028 346.41384521 -240.73828125 345.34375 C-240.74256638 344.27129028 -240.7468515 343.19883057 -240.75126648 342.09387207 C-240.75700625 339.82772528 -240.75751265 337.56156006 -240.75317383 335.29541016 C-240.75001187 331.82552763 -240.77348512 328.356496 -240.79882812 324.88671875 C-240.80110091 322.68489691 -240.80180471 320.48307278 -240.80078125 318.28125 C-240.809991 317.24262817 -240.81920074 316.20400635 -240.82868958 315.13391113 C-240.82246078 314.16610718 -240.81623199 313.19830322 -240.80981445 312.20117188 C-240.81044388 311.3516394 -240.8110733 310.50210693 -240.8117218 309.62683105 C-240.34872646 306.76349042 -239.42045512 305.4059415 -237.4375 303.3125 C-236.4475 302.9825 -235.4575 302.6525 -234.4375 302.3125 C-234.1075 296.7025 -233.7775 291.0925 -233.4375 285.3125 C-235.0875 284.9825 -236.7375 284.6525 -238.4375 284.3125 C-240.59977113 281.06909331 -240.69558121 280.13611301 -240.72802734 276.38549805 C-240.74078705 275.38403244 -240.75354675 274.38256683 -240.76669312 273.35075378 C-240.76891876 272.26949722 -240.77114441 271.18824066 -240.7734375 270.07421875 C-240.7800943 268.96069534 -240.7867511 267.84717194 -240.79360962 266.6999054 C-240.80374171 264.34202732 -240.80842647 261.98412053 -240.80810547 259.6262207 C-240.81247041 256.02441875 -240.84876323 252.42385002 -240.88671875 248.82226562 C-240.89258844 246.53125419 -240.89655681 244.24023693 -240.8984375 241.94921875 C-240.91280853 240.87403488 -240.92717957 239.79885101 -240.94198608 238.69108582 C-240.90582746 232.75056693 -240.66759686 228.86084453 -236.4375 224.3125 C-231.04260851 219.26294895 -225.46149219 219.73021921 -218.46875 219.78125 C-216.73824402 219.77550964 -216.73824402 219.77550964 -214.97277832 219.76965332 C-212.5386467 219.76693675 -210.10448576 219.77427995 -207.67041016 219.79101562 C-203.95018263 219.81242701 -200.2318864 219.7912033 -196.51171875 219.765625 C-194.14322492 219.76826832 -191.77473228 219.77339338 -189.40625 219.78125 C-188.29672974 219.77315308 -187.18720947 219.76505615 -186.04406738 219.75671387 C-179.86700285 219.83151062 -176.12701031 220.15738475 -171.4375 224.3125 C-167.76996297 228.48590421 -167.30007206 232.06566449 -167.12109375 237.51171875 C-167.07919922 238.72021484 -167.03730469 239.92871094 -166.99414062 241.17382812 C-166.95482422 242.43646484 -166.91550781 243.69910156 -166.875 245 C-166.83181641 246.27423828 -166.78863281 247.54847656 -166.74414062 248.86132812 C-166.6379514 252.01160852 -166.53590467 255.16196839 -166.4375 258.3125 C-165.96183594 258.04695313 -165.48617187 257.78140625 -164.99609375 257.5078125 C-151.2890624 250.59118894 -134.68028102 252.04027201 -119.75390625 252.1171875 C-117.6005822 252.12092614 -115.44725643 252.12376908 -113.29393005 252.12576294 C-107.67657625 252.13333246 -102.05932888 252.15292213 -96.4420166 252.1751709 C-90.68987466 252.19577473 -84.93771522 252.20479549 -79.18554688 252.21484375 C-67.93614406 252.2361755 -56.68684761 252.27130172 -45.4375 252.3125 C-45.4375 244.3925 -45.4375 236.4725 -45.4375 228.3125 C-47.43981689 228.33344727 -49.44213379 228.35439453 -51.50512695 228.37597656 C-58.15861839 228.4425822 -64.81212547 228.4865684 -71.46586323 228.51974869 C-75.49573373 228.54052623 -79.52525948 228.56866097 -83.55493164 228.61425781 C-87.45181297 228.65807062 -91.34836502 228.68171083 -95.24547386 228.69200897 C-96.7240841 228.69933741 -98.20267856 228.71364622 -99.68114662 228.73542023 C-111.80745483 228.906728 -121.84020375 227.36291567 -131.3671875 219.35546875 C-139.52422563 211.30616509 -143.50298689 202.697745 -143.63305664 191.26635742 C-143.62148147 188.27961309 -143.54494902 185.29719511 -143.4375 182.3125 C-144.02015625 182.29832031 -144.6028125 182.28414062 -145.203125 182.26953125 C-156.24541126 181.62713409 -166.6459939 177.26819493 -174.4375 169.3125 C-183.78759007 157.32933859 -184.67492206 145.00998054 -183.4375 130.3125 C-181.40353038 120.0617554 -175.11077035 111.12753353 -166.4375 105.3125 C-160.22888472 102.04944936 -154.29675006 99.1315125 -147.1875 99.25 C-145.33125 99.2809375 -145.33125 99.2809375 -143.4375 99.3125 C-143.47230469 98.34570312 -143.50710937 97.37890625 -143.54296875 96.3828125 C-143.8162522 83.23917994 -141.89990611 73.13025878 -132.55078125 63.3359375 C-121.11312917 52.77464776 -108.63044163 52.00792788 -93.68359375 52.1171875 C-92.171882 52.12092449 -90.66016781 52.12376821 -89.14845276 52.12576294 C-85.19799946 52.13334547 -81.24769668 52.15294674 -77.29730225 52.1751709 C-73.25486282 52.19574622 -69.21239873 52.20478948 -65.16992188 52.21484375 C-57.25904604 52.23619853 -49.34829182 52.27026825 -41.4375 52.3125 C-41.44733414 51.62914581 -41.45716827 50.94579163 -41.46730042 50.24172974 C-41.47877357 48.89448318 -41.47877357 48.89448318 -41.49047852 47.52001953 C-41.50031265 46.63041534 -41.51014679 45.74081116 -41.52027893 44.82424927 C-41.22718324 35.93088851 -35.62055693 28.25987987 -29.4375 22.3125 C-28.0453125 20.95125 -28.0453125 20.95125 -26.625 19.5625 C-21.10406032 15.66536611 -15.06965018 13.49470146 -8.4375 12.3125 C-8.31632813 11.61382812 -8.19515625 10.91515625 -8.0703125 10.1953125 C-7.81894531 8.83019531 -7.81894531 8.83019531 -7.5625 7.4375 C-7.31886719 6.08011719 -7.31886719 6.08011719 -7.0703125 4.6953125 C-5.93799777 0.43165825 -4.06639909 0.02003152 0 0 Z " fill="#010101" transform="translate(256.4375,-0.3125)"/>
<path d="M0 0 C0.89715798 -0.00453111 1.79431595 -0.00906223 2.71866053 -0.01373065 C5.7193686 -0.02637227 8.71989511 -0.02475442 11.72062683 -0.02310181 C13.87437167 -0.0290872 16.02811437 -0.03589277 18.18185425 -0.04345703 C24.02903568 -0.06112308 29.87615857 -0.06581267 35.72336411 -0.0670886 C39.37752977 -0.06851041 43.03168055 -0.07278058 46.68584251 -0.07808304 C59.43703023 -0.09658528 72.18817614 -0.1047534 84.93937683 -0.10317993 C96.82046556 -0.10197847 108.70137264 -0.12308139 120.5824154 -0.15466726 C130.78727218 -0.18082903 140.99206962 -0.19154727 151.19695967 -0.19026911 C157.28993884 -0.18975945 163.38275656 -0.19544499 169.47570229 -0.21662521 C175.20738889 -0.23600574 180.93876003 -0.23613307 186.67045784 -0.22159195 C188.77107454 -0.21950255 190.87171097 -0.22421252 192.97229385 -0.23631287 C195.84623735 -0.25179257 198.71909675 -0.242439 201.59301758 -0.22705078 C202.83156808 -0.24248147 202.83156808 -0.24248147 204.0951398 -0.25822389 C210.70031268 -0.18039362 216.85861267 1.42524126 221.84872657 5.95885336 C228.28982639 12.85885975 229.43277727 19.62277802 229.37516785 28.74154663 C229.38305328 30.28684303 229.38305328 30.28684303 229.39109802 31.86335754 C229.4042604 35.25601536 229.39557167 38.64820074 229.38542175 42.04086304 C229.38744387 44.40826507 229.39035646 46.7756665 229.39411926 49.14306641 C229.3985378 54.10092102 229.39212767 59.05861327 229.37809753 64.01644897 C229.36102489 70.35700633 229.37083797 76.69718215 229.38881493 83.03772545 C229.39968131 87.92605436 229.39619296 92.81429359 229.38843155 97.70262527 C229.38643647 100.03970002 229.38886438 102.37678302 229.39587021 104.71384811 C229.40352943 107.98762158 229.3918166 111.26078693 229.37516785 114.53451538 C229.38124054 115.49168961 229.38731323 116.44886383 229.39356995 117.43504333 C229.32132622 125.14297546 228.1369418 133.12708938 222.56809998 138.93108559 C212.90968239 147.09426371 201.75564371 145.97752613 189.81510925 145.91439819 C187.66239178 145.92118007 185.50968012 145.9300864 183.35697937 145.94094849 C177.53049404 145.96368025 171.70445298 145.95493054 165.87796021 145.93905306 C159.77008397 145.92636245 153.66224485 145.93814296 147.55436707 145.94598389 C137.298764 145.95507121 127.04334118 145.94311647 116.7877655 145.91928101 C104.94403259 145.89207168 93.10073009 145.90088648 81.2570076 145.92841303 C71.07410635 145.9511291 60.8913344 145.95429191 50.70841599 145.94121969 C44.632784 145.93343899 38.5573541 145.93234577 32.48173523 145.94890213 C26.76876759 145.9633838 21.05635295 145.95325702 15.34344482 145.92443085 C13.25132158 145.91783986 11.15915151 145.91968351 9.06704712 145.93074417 C-11.91462852 146.03141396 -11.91462852 146.03141396 -19.01301575 140.26742554 C-26.33390664 132.63914527 -27.31234474 125.01318164 -27.31941223 114.80917358 C-27.32773575 113.78058228 -27.33605927 112.75199097 -27.34463501 111.69223022 C-27.36865668 108.30449598 -27.37749744 104.91695457 -27.3841095 101.52914429 C-27.39308143 99.16413823 -27.40220338 96.79913274 -27.41146851 94.43412781 C-27.42793954 89.48051578 -27.43565526 84.52697119 -27.43855286 79.57333374 C-27.44393603 73.24170209 -27.48162258 66.91070856 -27.52729702 60.57925701 C-27.55711175 55.69518241 -27.56427738 50.81126072 -27.56527901 45.92710304 C-27.56947211 43.59361662 -27.58186956 41.26012936 -27.60279655 38.92673302 C-27.6298026 35.65530462 -27.62485723 32.38534588 -27.61238098 29.11386108 C-27.62721527 28.16028214 -27.64204956 27.20670319 -27.65733337 26.22422791 C-27.57506494 18.60758819 -25.4499666 12.02221627 -20.22824764 6.31760693 C-14.22429779 0.68619668 -7.92504688 -0.02948788 0 0 Z " fill="#F17B7A" transform="translate(155.0130157470703,67.73257446289063)"/>
<path d="M0 0 C83.82 0 167.64 0 254 0 C254 35.97 254 71.94 254 109 C222.125 109.375 222.125 109.375 212.11767578 109.47802734 C209.47687807 109.51325905 206.83608946 109.54918312 204.1953125 109.5859375 C203.52233124 109.59146637 202.84934998 109.59699524 202.15597534 109.60269165 C188.89135955 109.71654848 176.82714083 110.17285917 166.95703125 120.04296875 C159.6051936 128.89966016 157.91110013 137.53339924 156 149 C136.86 149 117.72 149 98 149 C96.68 143.39 95.36 137.78 94 132 C89.10584757 122.3115758 82.57360194 115.39974836 72.28100586 111.4284668 C65.5124177 109.23590835 58.50183264 109.51771196 51.46484375 109.48828125 C49.50278992 109.46332581 49.50278992 109.46332581 47.50109863 109.43786621 C42.64672687 109.38032896 37.79208382 109.34787976 32.9375 109.3125 C22.068125 109.209375 11.19875 109.10625 0 109 C0 73.03 0 37.06 0 0 Z " fill="#F17B7A" transform="translate(129,268)"/>
<path d="M0 0 C0.74617584 0.0028299 1.49235168 0.00565979 2.26113892 0.00857544 C4.62478238 0.01969563 6.98803518 0.04478429 9.3515625 0.0703125 C10.96223408 0.08035288 12.57291165 0.08947688 14.18359375 0.09765625 C18.11473194 0.1196081 22.04558117 0.15408065 25.9765625 0.1953125 C25.48285156 1.02675781 24.98914063 1.85820313 24.48046875 2.71484375 C23.51947266 4.34486328 23.51947266 4.34486328 22.5390625 6.0078125 C21.58193359 7.62623047 21.58193359 7.62623047 20.60546875 9.27734375 C18.17077023 13.6387821 17.85659119 16.68165323 17.87890625 21.61328125 C17.88212891 22.86689453 17.88535156 24.12050781 17.88867188 25.41210938 C17.89705078 26.72244141 17.90542969 28.03277344 17.9140625 29.3828125 C17.91907933 30.71809731 17.92364191 32.05338391 17.92773438 33.38867188 C17.93953555 36.65759723 17.95599953 39.92643241 17.9765625 43.1953125 C18.21600586 42.66784424 18.45544922 42.14037598 18.70214844 41.59692383 C22.19721074 34.21009443 27.20862695 28.54499413 34.8515625 25.1953125 C42.32831462 22.9210718 49.89192491 23.30771681 56.84765625 26.87890625 C64.19598494 31.42273518 69.40733407 36.79546064 71.9765625 45.1953125 C73.5353818 54.66722212 71.50266938 62.38132698 65.9765625 70.1953125 C63.52715072 72.69915566 61.02329136 74.48602564 57.9765625 76.1953125 C56.9246875 76.8140625 55.8728125 77.4328125 54.7890625 78.0703125 C47.37736646 80.25737035 39.80898321 80.44435893 32.6640625 77.2578125 C25.72474295 73.28440115 20.8118802 67.61880157 17.9765625 60.1953125 C17.88356786 69.0362877 17.81264907 77.87709254 17.76931381 86.7184515 C17.74850693 90.82460336 17.72031711 94.93041871 17.67480469 99.03637695 C17.63109842 103.00457087 17.6073736 106.97244266 17.59705353 110.94085884 C17.5897063 112.44903186 17.57535949 113.95718877 17.55364227 115.46522331 C17.37754712 127.39245742 17.37754712 127.39245742 21.9765625 138.1953125 C22.50682289 139.04622278 23.03708328 139.89713306 23.58341217 140.77382851 C26.24994863 143.47193539 27.63179857 143.7904805 31.36108708 143.86689216 C32.0731521 143.8562189 32.78521712 143.84554564 33.51885986 143.83454895 C34.2818183 143.84290463 35.04477674 143.8512603 35.83085513 143.85986918 C38.38932784 143.88182982 40.94636934 143.86818361 43.50488281 143.85473633 C45.33797294 143.86318748 47.17105408 143.87383063 49.00411987 143.88650513 C53.98318777 143.91470462 58.96182566 143.91217045 63.94094944 143.90421128 C69.14337616 143.90109101 74.34566476 143.9261065 79.54803467 143.94816589 C89.40064815 143.98565393 99.25312359 143.9977567 109.10580134 144.0007903 C120.32219236 144.00547596 131.53844464 144.03838349 142.75477457 144.07368815 C165.82868706 144.14568223 188.90254677 144.18214895 211.9765625 144.1953125 C211.9765625 144.5253125 211.9765625 144.8553125 211.9765625 145.1953125 C183.46488346 145.31216201 154.95324035 145.40030881 126.44137001 145.45437336 C113.20253109 145.48014474 99.96384103 145.51527524 86.72509766 145.57250977 C75.18496328 145.62237694 63.64493672 145.65461126 52.10469759 145.66575497 C45.99531796 145.67226801 39.88624678 145.687554 33.77696609 145.72396278 C28.0231818 145.75797419 22.26983215 145.76835485 16.51595688 145.76085091 C14.40768317 145.76222313 12.29939448 145.77212456 10.19120789 145.79133987 C-10.94224573 145.97446718 -10.94224573 145.97446718 -18.0234375 140.1953125 C-25.3430292 132.56472071 -26.32276534 124.94273484 -26.32983398 114.73706055 C-26.3381575 113.70846924 -26.34648102 112.67987793 -26.35505676 111.62011719 C-26.37907843 108.23238295 -26.38791919 104.84484153 -26.39453125 101.45703125 C-26.40350318 99.09202519 -26.41262513 96.7270197 -26.42189026 94.36201477 C-26.43836129 89.40840274 -26.44607701 84.45485815 -26.44897461 79.5012207 C-26.45435779 73.16958905 -26.49204434 66.83859552 -26.53771877 60.50714397 C-26.5675335 55.62306938 -26.57469913 50.73914768 -26.57570076 45.85499001 C-26.57989386 43.52150359 -26.59229131 41.18801633 -26.61321831 38.85461998 C-26.64022435 35.58319158 -26.63527898 32.31323284 -26.62280273 29.04174805 C-26.63763702 28.0881691 -26.65247131 27.13459015 -26.66775513 26.15211487 C-26.58548669 18.53547516 -24.46038835 11.95010323 -19.2386694 6.24549389 C-13.56484566 0.92372574 -7.63977576 -0.11064629 0 0 Z " fill="#EA6160" transform="translate(154.0234375,67.8046875)"/>
<path d="M0 0 C13.86 0 27.72 0 42 0 C42 31.68 42 63.36 42 96 C49.92 96 57.84 96 66 96 C81.58200525 99.14153332 93.66342606 105.98868983 102.6875 119.125 C108.49649526 128.67582554 110.59147513 137.90984134 110 149 C106.04 149 102.08 149 98 149 C97.79246094 147.90042969 97.58492188 146.80085937 97.37109375 145.66796875 C94.63870757 132.15911273 90.61249072 122.90799942 79.0390625 114.65625 C70.10004644 109.78460114 61.44984028 109.53004137 51.46484375 109.48828125 C49.50278992 109.46332581 49.50278992 109.46332581 47.50109863 109.43786621 C42.64672687 109.38032896 37.79208382 109.34787976 32.9375 109.3125 C22.068125 109.209375 11.19875 109.10625 0 109 C0 73.03 0 37.06 0 0 Z " fill="#ED6160" transform="translate(129,268)"/>
<path d="M0 0 C13.86 0 27.72 0 42 0 C42 38.28 42 76.56 42 116 C28.14 116 14.28 116 0 116 C-0.05607422 111.28783203 -0.05607422 111.28783203 -0.11328125 106.48046875 C-0.1594756 103.44223006 -0.21071689 100.4041156 -0.26245117 97.3659668 C-0.29573128 95.25243664 -0.32375353 93.13881694 -0.34643555 91.02514648 C-0.37992472 87.98903194 -0.43223764 84.95374025 -0.48828125 81.91796875 C-0.49467117 80.97100632 -0.5010611 80.02404388 -0.50764465 79.04838562 C-0.52743881 78.16769913 -0.54723297 77.28701263 -0.56762695 76.37963867 C-0.57873001 75.60464523 -0.58983307 74.82965179 -0.60127258 74.03117371 C-1.11138108 71.43260909 -1.89330531 70.57579054 -4 69 C-5.32 68.67 -6.64 68.34 -8 68 C-8 62.06 -8 56.12 -8 50 C-6.02 49.01 -4.04 48.02 -2 47 C-0.42926468 45.42926468 -0.83630693 43.84637782 -0.79467773 41.66381836 C-0.77473251 40.7429393 -0.75478729 39.82206024 -0.73423767 38.87327576 C-0.70916893 37.37172691 -0.70916893 37.37172691 -0.68359375 35.83984375 C-0.66281265 34.82024063 -0.64203156 33.80063751 -0.62062073 32.75013733 C-0.55501148 29.47932952 -0.49618766 26.20843863 -0.4375 22.9375 C-0.39432558 20.72590272 -0.35071166 18.51431397 -0.30664062 16.30273438 C-0.19848797 10.86857363 -0.09949927 5.43435376 0 0 Z " fill="#DCEDF3" transform="translate(31,235)"/>
<path d="M0 0 C13.86 0 27.72 0 42 0 C42.05607422 4.92873047 42.05607422 4.92873047 42.11328125 9.95703125 C42.15947312 13.13426427 42.21071534 16.31137838 42.26245117 19.48852539 C42.29573508 21.69906406 42.32375612 23.90968843 42.34643555 26.12036133 C42.37991759 29.29545666 42.43223052 32.46976417 42.48828125 35.64453125 C42.49467117 36.63524124 42.5010611 37.62595123 42.50764465 38.64668274 C42.53733589 40.02777473 42.53733589 40.02777473 42.56762695 41.43676758 C42.58428154 42.65255241 42.58428154 42.65255241 42.60127258 43.89289856 C43.10339835 46.54641543 43.84488672 47.40234528 46 49 C47.32 49.33 48.64 49.66 50 50 C50 55.61 50 61.22 50 67 C48.02 67.99 46.04 68.98 44 70 C42.84708316 72.30583369 42.84602662 73.69866887 42.79467773 76.26611328 C42.77473251 77.14687531 42.75478729 78.02763733 42.73423767 78.93508911 C42.70916893 80.36327469 42.70916893 80.36327469 42.68359375 81.8203125 C42.66281265 82.79410858 42.64203156 83.76790466 42.62062073 84.77120972 C42.55511402 87.88906647 42.49623503 91.00700903 42.4375 94.125 C42.39431585 96.23568604 42.3507016 98.34636333 42.30664062 100.45703125 C42.19862023 105.63793407 42.09955507 110.81889984 42 116 C28.14 116 14.28 116 0 116 C0 77.72 0 39.44 0 0 Z " fill="#DDEEF4" transform="translate(439,235)"/>
<path d="M0 0 C1.21566147 -0.00861557 2.43132294 -0.01723114 3.68382263 -0.02610779 C6.99824055 -0.04484468 10.31165305 -0.04568914 13.62604594 -0.03678632 C16.40174318 -0.03165297 19.17735205 -0.03898793 21.95304018 -0.04625839 C28.50555688 -0.06322181 35.0578405 -0.05972785 41.61035156 -0.04296875 C48.35090871 -0.02605067 55.09081807 -0.04188499 61.83130449 -0.07419163 C67.63712703 -0.1009554 73.44274877 -0.10814535 79.24862677 -0.09967655 C82.7080569 -0.09476697 86.16709756 -0.09685485 89.6264782 -0.11746407 C93.48691707 -0.13936457 97.34658525 -0.12034588 101.20703125 -0.09765625 C102.34029846 -0.10934845 103.47356567 -0.12104065 104.64117432 -0.13308716 C113.1687714 -0.03138265 118.85841131 2.13661654 125.22680664 7.81469727 C125.8468457 8.54688477 126.46688477 9.27907227 127.10571289 10.03344727 C128.0628418 11.13172852 128.0628418 11.13172852 129.03930664 12.25219727 C134.01453329 19.21990078 133.43510717 27.35593245 132.66821289 35.53344727 C130.56848402 42.5357989 125.56064043 47.44369247 119.66821289 51.53344727 C112.83891038 55.09833991 106.6533743 56.14112001 99.02368164 56.09985352 C97.56446037 56.10915138 97.56446037 56.10915138 96.07575989 56.11863708 C94.03798414 56.12568807 92.00015021 56.12264471 89.96240234 56.10986328 C86.84569437 56.09590239 83.73193819 56.13025209 80.61547852 56.16821289 C78.62654549 56.16916336 76.63760872 56.16730915 74.64868164 56.16235352 C73.72153854 56.17561172 72.79439545 56.18886993 71.8391571 56.20252991 C67.30106146 56.13702511 65.29100272 56.00687781 61.57958984 53.18554688 C59.66821289 50.53344727 59.66821289 50.53344727 59.10571289 47.47094727 C59.82854822 43.69614053 60.53076204 42.7681494 63.66821289 40.53344727 C67.00722078 39.95438397 70.31048018 40.02418997 73.69165039 40.06469727 C74.67058258 40.05764771 75.64951477 40.05059814 76.65811157 40.04333496 C80.84195477 40.0138393 85.02533329 40.03046458 89.20922852 40.04272461 C92.2661513 40.04510836 95.32232111 40.02416739 98.37915039 40.00219727 C99.7903566 40.01917664 99.7903566 40.01917664 101.23007202 40.03649902 C106.87464195 39.9932039 110.23642842 39.38717289 114.66821289 35.53344727 C117.4918986 31.29791871 117.33475046 27.50867412 116.66821289 22.53344727 C114.87174435 19.59921531 113.72410579 18.06139371 110.66821289 16.53344727 C109.08316115 16.43243787 107.4939335 16.3940192 105.90568542 16.38627625 C104.90046341 16.37912094 103.89524139 16.37196564 102.85955811 16.36459351 C101.19899384 16.36056015 101.19899384 16.36056015 99.50488281 16.35644531 C98.34219376 16.34987411 97.1795047 16.34330292 95.98158264 16.33653259 C92.12061505 16.31676552 88.25968639 16.30513001 84.39868164 16.29516602 C83.08284906 16.29109049 81.76701649 16.28701496 80.4113102 16.28281593 C74.16692937 16.2637635 67.92256038 16.2495327 61.67815608 16.24120396 C54.47025302 16.23143141 47.26265705 16.20511208 40.0548622 16.16470307 C34.48366192 16.13454128 28.91254966 16.11973504 23.34126931 16.11642295 C20.01376959 16.11407242 16.68667302 16.10314139 13.35924339 16.07996178 C9.64582036 16.05569925 5.93320405 16.0565122 2.21972656 16.06347656 C1.11875641 16.0506665 0.01778625 16.03785645 -1.11654663 16.0246582 C-7.10379949 16.04465446 -7.10379949 16.04465446 -12.49125671 18.43782043 C-15.64339533 22.02684362 -15.61702441 24.65066372 -15.54272461 29.27954102 C-15.24622575 32.44768625 -14.43565073 34.14906849 -12.33178711 36.53344727 C-7.0071761 39.97850716 -2.38494656 39.94557802 3.73852539 39.90454102 C5.70597514 39.92191284 7.67342302 39.93949732 9.64086914 39.95727539 C12.72635206 39.96737154 15.81171799 39.97093708 18.8972168 39.96923828 C21.88633944 39.97280185 24.87456252 40.00010791 27.86352539 40.02954102 C28.78650421 40.02135849 29.70948303 40.01317596 30.66043091 40.00474548 C37.0319837 40.07898925 37.0319837 40.07898925 40.24975586 42.37744141 C42.19733591 45.33769604 42.24737118 47.05849756 41.66821289 50.53344727 C39.80111379 52.83620283 38.31173548 54.21168597 35.66821289 55.53344727 C34.2767956 55.64266929 32.88044427 55.69241512 31.48486328 55.71044922 C30.61958511 55.72328445 29.75430695 55.73611969 28.86280823 55.74934387 C27.45357338 55.76042427 27.45357338 55.76042427 26.01586914 55.77172852 C24.56101357 55.78383614 24.56101357 55.78383614 23.07676697 55.79618835 C21.01636547 55.81004165 18.95594091 55.82075821 16.89550781 55.82861328 C13.77436204 55.84570819 10.65430844 55.8895686 7.53344727 55.93383789 C-4.12162283 56.02475948 -13.58894027 55.77894343 -23.70678711 49.40844727 C-30.35926267 42.12240261 -32.02976926 35.30465045 -31.85302734 25.65600586 C-31.4233084 16.8952211 -28.49171004 12.28069541 -22.50366211 6.17407227 C-15.10051882 0.58176978 -9.05122696 -0.05202824 0 0 Z " fill="#060404" transform="translate(205.331787109375,294.466552734375)"/>
<path d="M0 0 C1.50566528 -0.0129007 1.50566528 -0.0129007 3.04174805 -0.02606201 C4.14721985 -0.03032196 5.25269165 -0.03458191 6.3916626 -0.03897095 C8.13328674 -0.05123718 8.13328674 -0.05123718 9.91009521 -0.06375122 C13.76625039 -0.08863682 17.62236868 -0.1051292 21.47857666 -0.11953735 C22.79316109 -0.12486103 24.10774551 -0.13018471 25.46216583 -0.13566971 C30.98668858 -0.15729986 36.51120841 -0.1760356 42.03576279 -0.1872921 C49.95030192 -0.20352467 57.86434959 -0.23668313 65.77870345 -0.29369295 C71.34482126 -0.33241853 76.91080777 -0.35192793 82.47705674 -0.35721266 C85.80077203 -0.36086317 89.12384337 -0.37535423 92.4474411 -0.4053154 C96.15839651 -0.43686021 99.86810884 -0.43701882 103.5791626 -0.42959595 C104.67653748 -0.44600128 105.77391235 -0.46240662 106.90454102 -0.47930908 C115.21638872 -0.4111927 115.21638872 -0.4111927 118.9107666 2.56536865 C122.54107456 6.59255015 122.64160979 9.31949569 122.59576416 14.60702515 C122.02035947 18.77551243 120.33054703 20.34813163 117.24420166 23.15390015 C114.29993289 24.93032076 112.12848166 25.40642269 108.70684814 25.42514038 C107.81589951 25.435327 106.92495087 25.44551361 106.00700378 25.45600891 C105.05274002 25.45814896 104.09847626 25.460289 103.11529541 25.4624939 C101.09120384 25.48764219 99.06711537 25.51304038 97.04302979 25.53866577 C93.85431642 25.56747277 90.66565651 25.59149426 87.47686768 25.61019897 C84.39773596 25.6317911 81.3192167 25.67121246 78.24029541 25.7124939 C76.80586342 25.71266762 76.80586342 25.71266762 75.342453 25.71284485 C74.45465652 25.72618362 73.56686005 25.7395224 72.65216064 25.75326538 C71.87146713 25.75833603 71.09077362 25.76340668 70.28642273 25.76863098 C67.69855125 26.25683821 66.84063296 27.09174132 65.24420166 29.15390015 C64.74920166 30.63890015 64.74920166 30.63890015 64.24420166 32.15390015 C58.30420166 32.15390015 52.36420166 32.15390015 46.24420166 32.15390015 C45.58420166 30.50390015 44.92420166 28.85390015 44.24420166 27.15390015 C41.948772 26.00618532 40.62615396 26.01802972 38.07330322 25.9961853 C37.21190735 25.98592316 36.35051147 25.97566101 35.4630127 25.96508789 C34.5297113 25.95778656 33.59640991 25.95048523 32.63482666 25.94296265 C30.6634643 25.91488663 28.69211024 25.88622212 26.72076416 25.85702515 C23.60911353 25.81581123 20.4976168 25.77892912 17.38580322 25.75253296 C14.38515018 25.72486398 11.38520542 25.67898333 8.38482666 25.63046265 C7.45962219 25.62720978 6.53441772 25.62395691 5.58117676 25.62060547 C-0.45278977 25.50623362 -4.77660456 24.61943982 -9.56829834 20.65390015 C-12.19751141 17.3327889 -12.14160103 13.49691306 -12.11517334 9.4468689 C-11.50541472 5.55634379 -9.56745018 3.8316638 -6.75579834 1.15390015 C-4.31562374 -0.06618715 -2.72848892 0.0173703 0 0 Z " fill="#EAF6FB" transform="translate(200.75579833984375,309.8460998535156)"/>
<path d="M0 0 C40.92 0 81.84 0 124 0 C124 8.25 124 16.5 124 25 C83.08 25 42.16 25 0 25 C0 16.75 0 8.5 0 0 Z " fill="#548EB5" transform="translate(300,432)"/>
<path d="M0 0 C40.92 0 81.84 0 124 0 C124 8.25 124 16.5 124 25 C83.08 25 42.16 25 0 25 C0 16.75 0 8.5 0 0 Z " fill="#548EB5" transform="translate(88,432)"/>
<path d="M0 0 C40.92 0 81.84 0 124 0 C122.88253032 10.05722715 121.45251772 15.48259549 113.87890625 21.7734375 C108.86073218 25.04933492 104.15987965 25.29707883 98.29760742 25.29052734 C96.99905571 25.30060318 96.99905571 25.30060318 95.67427063 25.31088257 C92.81794462 25.32984951 89.96185378 25.33378622 87.10546875 25.3359375 C85.11395675 25.34236673 83.12244569 25.34909518 81.13093567 25.35610962 C76.95730399 25.36807941 72.78375506 25.37179079 68.61010742 25.37060547 C63.27372471 25.37040239 57.93787521 25.39769453 52.60161877 25.43214989 C48.48795659 25.45443737 44.37442231 25.45844243 40.26070595 25.45738602 C38.29400102 25.45973957 36.32729244 25.46854919 34.3606472 25.48405075 C31.60358218 25.50374645 28.84766141 25.49785857 26.09057617 25.48583984 C25.28562714 25.49707886 24.4806781 25.50831787 23.65133667 25.51989746 C17.13110047 25.44802512 12.13155306 23.47325016 7.01171875 19.4296875 C2.15796364 13.73117855 0 7.48133318 0 0 Z " fill="#538DB4" transform="translate(88,472)"/>
<path d="M0 0 C0.87589279 -0.00700928 1.75178558 -0.01401855 2.65422058 -0.02124023 C5.52697187 -0.03873274 8.39872444 -0.02722872 11.27148438 -0.01367188 C13.28112984 -0.0163693 15.29077402 -0.02025381 17.30041504 -0.02526855 C21.50330078 -0.03115177 25.70584545 -0.02263855 29.90869141 -0.00390625 C35.28203737 0.01888243 40.65458402 0.00575304 46.0279007 -0.01819611 C50.17504848 -0.03268586 54.32200838 -0.02803351 58.46916199 -0.01768494 C60.44980465 -0.01502644 62.43046465 -0.01825639 64.41108704 -0.02760315 C67.18467053 -0.03782117 69.95697959 -0.02219467 72.73046875 0 C73.54005539 -0.00809692 74.34964203 -0.01619385 75.1837616 -0.02453613 C82.33968809 0.08095502 87.55003292 2.25382559 92.67773438 7.26757812 C96.97328716 13.64954226 97.86523438 17.67371863 97.86523438 25.51757812 C57.27523437 25.51757812 16.68523437 25.51757812 -25.13476562 25.51757812 C-22.60411167 9.06832744 -22.60411167 9.06832744 -17.13476562 4.51757812 C-11.42077938 0.92988961 -6.67690382 -0.06677776 0 0 Z " fill="#538DB4" transform="translate(325.134765625,391.482421875)"/>
<path d="M0 0 C40.59 0 81.18 0 123 0 C123 12.69480519 123 12.69480519 118.1953125 17.98828125 C111.84555819 23.77494414 106.89414183 25.30013456 98.29760742 25.29052734 C96.99905571 25.30060318 96.99905571 25.30060318 95.67427063 25.31088257 C92.81794462 25.32984951 89.96185378 25.33378622 87.10546875 25.3359375 C85.11395675 25.34236673 83.12244569 25.34909518 81.13093567 25.35610962 C76.95730399 25.36807941 72.78375506 25.37179079 68.61010742 25.37060547 C63.27372471 25.37040239 57.93787521 25.39769453 52.60161877 25.43214989 C48.48795659 25.45443737 44.37442231 25.45844243 40.26070595 25.45738602 C38.29400102 25.45973957 36.32729244 25.46854919 34.3606472 25.48405075 C31.60358218 25.50374645 28.84766141 25.49785857 26.09057617 25.48583984 C25.28562714 25.49707886 24.4806781 25.50831787 23.65133667 25.51989746 C17.14120082 25.44813646 12.05076018 23.51732667 7.01171875 19.359375 C1.85441041 13.09149584 0 8.17513783 0 0 Z " fill="#538DB4" transform="translate(300,472)"/>
<path d="M0 0 C0.86394882 -0.00671722 1.72789764 -0.01343445 2.61802673 -0.02035522 C5.47498325 -0.03935558 8.33170493 -0.04326095 11.1887207 -0.04541016 C13.17926632 -0.05183844 15.16981098 -0.05856683 17.16035461 -0.06558228 C21.33576648 -0.0775614 25.5110956 -0.08126262 29.68652344 -0.08007812 C35.02171598 -0.07987531 40.35637362 -0.10713613 45.69143963 -0.14162254 C49.80514431 -0.16392991 53.91872128 -0.16791443 58.03248024 -0.16685867 C59.99835866 -0.16921044 61.96424082 -0.17800993 63.93005943 -0.19352341 C66.68942314 -0.21325381 69.44764678 -0.20731709 72.20703125 -0.1953125 C73.00995605 -0.20655151 73.81288086 -0.21779053 74.64013672 -0.22937012 C81.22291576 -0.15707623 87.37613773 1.48104171 92.31627941 6.03032875 C98.17034541 12.44958654 98.42700195 16.20675837 98.42700195 25.29052734 C58.16700195 25.29052734 17.90700195 25.29052734 -23.57299805 25.29052734 C-23.57299805 17.12926725 -23.40876986 12.30429321 -17.8894043 6.52880859 C-12.05413697 1.34608729 -7.86401356 -0.00876669 0 0 Z " fill="#538DB4" transform="translate(112.572998046875,391.70947265625)"/>
<path d="M0 0 C6.27 0 12.54 0 19 0 C19.02578125 3.04605469 19.0515625 6.09210938 19.078125 9.23046875 C19.11655602 12.18604712 19.1617129 15.14145166 19.20751953 18.09692383 C19.23571564 20.14827146 19.25693693 22.19972747 19.27099609 24.2512207 C19.29244424 27.20320054 19.33910448 30.1538793 19.390625 33.10546875 C19.39185364 34.02023483 19.39308228 34.93500092 19.39434814 35.87748718 C19.48908321 40.01169545 19.66566531 42.42860905 21.78808594 46.0559082 C24.04000362 48.33462044 24.04000362 48.33462044 28 49 C28 54.61 28 60.22 28 66 C26.02 66.99 24.04 67.98 22 69 C20.84708316 71.30583369 20.84602662 72.69866887 20.79467773 75.26611328 C20.77473251 76.14687531 20.75478729 77.02763733 20.73423767 77.93508911 C20.70916893 79.36327469 20.70916893 79.36327469 20.68359375 80.8203125 C20.66281265 81.79410858 20.64203156 82.76790466 20.62062073 83.77120972 C20.55511402 86.88906647 20.49623503 90.00700903 20.4375 93.125 C20.39431585 95.23568604 20.3507016 97.34636333 20.30664062 99.45703125 C20.19862023 104.63793407 20.09955507 109.81889984 20 115 C13.4 115 6.8 115 0 115 C0 77.05 0 39.1 0 0 Z " fill="#ECF8FD" transform="translate(461,236)"/>
<path d="M0 0 C7.44335922 3.82154579 13.03212445 8.92581787 16.45703125 16.640625 C18.84542481 24.44925418 18.15708419 31.4802618 14.8125 38.875 C11.83309357 44.188859 8.59976584 47.47121897 3.3125 50.4375 C2.260625 51.05625 1.20875 51.675 0.125 52.3125 C-7.28669604 54.49955785 -14.85507929 54.68654643 -22 51.5 C-28.88321228 47.53150302 -34.93426751 41.32639504 -37.28515625 33.59765625 C-38.80147688 25.45663381 -38.08214085 18.51559412 -33.6875 11.4375 C-25.981523 0.47355298 -13.0805278 -5.32320609 0 0 Z " fill="#040202" transform="translate(208.6875,93.5625)"/>
<path d="M0 0 C6.13924894 4.854023 10.11286351 10.65721948 11.28125 18.484375 C11.61159828 26.78570754 9.3932941 33.20612008 5.21484375 40.27734375 C-2.16062216 47.26462725 -9.73184036 49.96732411 -19.734375 49.8671875 C-27.33952727 49.11274252 -33.59083958 45.11800672 -38.6875 39.52734375 C-43.97804468 32.34230695 -45.45767486 24.2855944 -44.16015625 15.52734375 C-41.58960145 6.97530567 -35.80895973 0.84951134 -28.1875 -3.6328125 C-18.37938008 -7.96288597 -8.54708587 -5.82685601 0 0 Z " fill="#040202" transform="translate(326.16015625,97.47265625)"/>
<path d="M0 0 C6.27 0 12.54 0 19 0 C19 37.95 19 75.9 19 115 C12.73 115 6.46 115 0 115 C0 77.05 0 39.1 0 0 Z " fill="#EEFAFF" transform="translate(54,236)"/>
<path d="M0 0 C0.96669868 -0.00021904 0.96669868 -0.00021904 1.95292664 -0.0004425 C4.06850634 0.00025033 6.18399636 0.00801308 8.29956055 0.01586914 C9.77215019 0.01773556 11.24474045 0.0191584 12.71733093 0.02015686 C16.58230318 0.02396443 20.4472375 0.0337796 24.31219482 0.04486084 C28.26045214 0.05511289 32.20871562 0.0596626 36.15698242 0.06469727 C43.89593396 0.07540352 51.63484647 0.09298598 59.3737793 0.11352539 C59.3737793 4.40352539 59.3737793 8.69352539 59.3737793 13.11352539 C57.45710449 13.13334473 55.54042969 13.15316406 53.56567383 13.17358398 C47.1993605 13.2416348 40.83319844 13.31842988 34.46705818 13.40105247 C30.61113129 13.45078188 26.75522874 13.49711183 22.89916992 13.53540039 C19.17077293 13.57255098 15.44259204 13.61898699 11.71438217 13.6715889 C10.29923203 13.6899761 8.88403584 13.70514043 7.46881485 13.71686935 C-5.775959 13.83046318 -17.81557478 14.30287947 -27.66918945 24.15649414 C-34.89707917 32.86386662 -37.08899986 42.09677603 -38.6262207 53.11352539 C-42.5862207 53.11352539 -46.5462207 53.11352539 -50.6262207 53.11352539 C-51.32112662 39.21540715 -47.05433416 27.00152263 -38.0637207 16.42602539 C-27.96763846 5.80410553 -14.60581506 -0.02792699 0 0 Z " fill="#EC6161" transform="translate(323.626220703125,363.886474609375)"/>
<path d="M0 0 C19.14 0 38.28 0 58 0 C58 8.25 58 16.5 58 25 C38.86 25 19.72 25 0 25 C0 16.75 0 8.5 0 0 Z " fill="#437C98" transform="translate(227,228)"/>
<path d="M0 0 C40.92 0 81.84 0 124 0 C124 8.25 124 16.5 124 25 C123.67 25 123.34 25 123 25 C123 17.08 123 9.16 123 1 C96.6 1 70.2 1 43 1 C43 8.92 43 16.84 43 25 C28.81 25 14.62 25 0 25 C0 16.75 0 8.5 0 0 Z " fill="#427894" transform="translate(300,432)"/>
<path d="M0 0 C40.92 0 81.84 0 124 0 C124 8.25 124 16.5 124 25 C123.67 25 123.34 25 123 25 C123 17.08 123 9.16 123 1 C96.6 1 70.2 1 43 1 C43 8.92 43 16.84 43 25 C28.81 25 14.62 25 0 25 C0 16.75 0 8.5 0 0 Z " fill="#427894" transform="translate(88,432)"/>
<path d="M0 0 C0.68505615 -0.00846954 1.3701123 -0.01693909 2.07592773 -0.02566528 C4.33539509 -0.04902116 6.59418094 -0.05005786 8.85375977 -0.04882812 C10.42790498 -0.05593054 12.00204761 -0.06362966 13.57618713 -0.07189941 C16.87394407 -0.08534089 20.17146163 -0.08691455 23.46923828 -0.08105469 C27.69078512 -0.07515839 31.91118196 -0.10574727 36.13250637 -0.14617157 C39.38310409 -0.17204876 42.63342488 -0.17492604 45.8841114 -0.17127991 C47.44022576 -0.17297113 48.99635291 -0.18261402 50.55236626 -0.20042419 C52.73100133 -0.22261728 54.90730889 -0.21291455 57.0859375 -0.1953125 C58.324077 -0.19736694 59.56221649 -0.19942139 60.83787537 -0.20153809 C65.02825598 0.5948902 66.54029381 2.07159366 69.10766602 5.41992188 C69.10766602 8.86654656 68.91979188 11.20522618 66.98130798 14.10461426 C64.10277549 16.1253609 61.61320876 15.81689511 58.12939453 15.83984375 C57.07035919 15.85254807 57.07035919 15.85254807 55.9899292 15.86550903 C53.65529382 15.88891445 51.32131611 15.88990041 48.98657227 15.88867188 C47.36376175 15.89577144 45.74095376 15.90347014 44.1181488 15.91174316 C40.71606469 15.92519614 37.31421266 15.92675319 33.91210938 15.92089844 C29.55256637 15.91500194 25.19413689 15.9455867 20.8348093 15.98601532 C17.48302716 16.01186721 14.13151402 16.01477207 10.77964592 16.01112366 C9.17246642 16.01281734 7.56527482 16.02248379 5.95819283 16.04026794 C3.70981511 16.06240999 1.4637021 16.05278362 -0.78466797 16.03515625 C-2.06357407 16.03721069 -3.34248016 16.03926514 -4.66014099 16.04138184 C-7.89233398 15.41992188 -7.89233398 15.41992188 -10.33656311 13.10803223 C-11.89233398 10.41992188 -11.89233398 10.41992188 -11.89233398 6.79492188 C-9.98621859 0.36178242 -6.25226698 0.04254195 0 0 Z " fill="#060303" transform="translate(227.892333984375,170.580078125)"/>
<path d="M0 0 C40.92 0 81.84 0 124 0 C124 1.98 124 3.96 124 6 C123.67 6 123.34 6 123 6 C123 4.35 123 2.7 123 1 C96.6 1 70.2 1 43 1 C44.42171101 8.81941056 45.31349503 13.5342159 49 20 C49.495 21.06927734 49.495 21.06927734 50 22.16015625 C50.86580856 24.17135677 50.86580856 24.17135677 53 25 C48.01958936 25.09948577 43.03976748 25.17175686 38.05859375 25.21972656 C36.36708489 25.2397406 34.67564433 25.26696073 32.984375 25.30175781 C30.54149446 25.35073065 28.09953489 25.37307033 25.65625 25.390625 C24.53700134 25.42159271 24.53700134 25.42159271 23.3951416 25.45318604 C16.98238301 25.4558764 12.03640458 23.39810342 7.01171875 19.4296875 C2.15796364 13.73117855 0 7.48133318 0 0 Z " fill="#427A96" transform="translate(88,472)"/>
<path d="M0 0 C0.96873047 -0.03738281 1.93746094 -0.07476563 2.93554688 -0.11328125 C10.53755635 -0.20580064 15.31583443 1.58352182 20.83422852 6.81860352 C26.24207257 12.78840286 26.3125 17.37727585 26.3125 25.375 C9.1525 25.375 -8.0075 25.375 -25.6875 25.375 C-25.6875 17.25694568 -25.29743297 12.26094394 -19.74609375 6.28515625 C-13.27826124 0.4605336 -8.47885196 0.12167955 0 0 Z " fill="#528BB1" transform="translate(255.6875,27.625)"/>
<path d="M0 0 C40.59 0 81.18 0 123 0 C123 0.33 123 0.66 123 1 C96.6 1 70.2 1 43 1 C44.1874195 10.8872254 44.1874195 10.8872254 48.0625 18.625 C48.58972656 19.42164063 49.11695313 20.21828125 49.66015625 21.0390625 C50.10230469 21.68617188 50.54445313 22.33328125 51 23 C51.495 23.99 51.495 23.99 52 25 C47.16200639 25.09951569 42.32461975 25.17177037 37.48583984 25.21972656 C35.8428305 25.23973571 34.19989141 25.26695213 32.55712891 25.30175781 C30.18374212 25.35075305 27.81130351 25.37307504 25.4375 25.390625 C24.35106201 25.42159271 24.35106201 25.42159271 23.24267578 25.45318604 C16.91517945 25.45591654 11.89361811 23.38766131 7.01171875 19.359375 C1.85441041 13.09149584 0 8.17513783 0 0 Z " fill="#437A96" transform="translate(300,472)"/>
<path d="M0 0 C0 17.16 0 34.32 0 52 C-9.29287427 51.07071257 -12.51332603 50.70402823 -19 45 C-25.66778208 36.6225302 -25.79703528 28.23030099 -25 18 C-23.43736725 11.20675822 -19.7663647 6.78759113 -14 3 C-8.61608248 0.11575847 -6.4496553 0 0 0 Z " fill="#528BB1" transform="translate(113,268)"/>
<path d="M0 0 C10.11815833 1.01181583 14.46583863 1.58284385 21 9 C26.15853363 16.36933376 25.77313669 25.33553711 25 34 C23.29356695 39.93042875 20.40536367 44.73979017 15.10546875 48.0390625 C10.49575442 50.14293954 5.10846128 52 0 52 C0 34.84 0 17.68 0 0 Z " fill="#528BB2" transform="translate(399,268)"/>
<path d="M0 0 C7.95679618 0 11.96502024 0.3202442 17.73046875 5.578125 C24.23514322 12.70917553 25.58123155 18.88200306 25.34765625 28.41796875 C24.71624515 34.92363148 23.20318063 41.46840651 18.1875 46 C11.50332878 50.19398979 8.20824541 51 0 51 C0 34.17 0 17.34 0 0 Z " fill="#528CB2" transform="translate(399,115)"/>
<path d="M0 0 C0 16.83 0 33.66 0 51 C-8.535269 51 -12.76014874 49.37287734 -18.875 43.5625 C-24.40697077 38.01766418 -24.39073058 32.13423081 -24.4375 24.6875 C-24.48680664 23.31948242 -24.48680664 23.31948242 -24.53710938 21.92382812 C-24.58851718 15.40438429 -23.29749493 10.98383425 -19 6 C-12.60931813 0.36992473 -8.81720639 0 0 0 Z " fill="#538CB3" transform="translate(113,115)"/>
<path d="M0 0 C1.18160706 0.00848969 1.18160706 0.00848969 2.38708496 0.01715088 C4.87329034 0.03932598 7.35798928 0.08948163 9.84375 0.140625 C11.54164567 0.16071461 13.23956421 0.17896104 14.9375 0.1953125 C19.07348639 0.2391281 23.2083639 0.30801895 27.34375 0.390625 C26.62058594 1.46376953 26.62058594 1.46376953 25.8828125 2.55859375 C25.25117188 3.55503906 24.61953125 4.55148437 23.96875 5.578125 C23.34226562 6.54105469 22.71578125 7.50398438 22.0703125 8.49609375 C19.56325878 13.69291288 19.56325878 13.69291288 18.34375 25.390625 C4.15375 25.390625 -10.03625 25.390625 -24.65625 25.390625 C-22.12559605 8.94137432 -22.12559605 8.94137432 -16.65625 4.390625 C-11.0710707 0.90454251 -6.5255151 -0.18054994 0 0 Z " fill="#437C97" transform="translate(324.65625,391.609375)"/>
<path d="M0 0 C0.81559387 0.0028299 1.63118774 0.00565979 2.47149658 0.00857544 C5.06969028 0.01974692 7.66753595 0.04484575 10.265625 0.0703125 C12.02994293 0.08034623 13.79426628 0.08947139 15.55859375 0.09765625 C19.87773773 0.11967631 24.19662241 0.15418517 28.515625 0.1953125 C28.10352783 0.73365723 27.69143066 1.27200195 27.2668457 1.82666016 C26.72632568 2.53870605 26.18580566 3.25075195 25.62890625 3.984375 C25.09305908 4.68771973 24.55721191 5.39106445 24.00512695 6.11572266 C19.46310783 12.4571288 19.31823721 17.16919042 18.515625 25.1953125 C4.655625 25.1953125 -9.204375 25.1953125 -23.484375 25.1953125 C-23.484375 17.0340524 -23.32014681 12.20907837 -17.80078125 6.43359375 C-11.97777468 1.26176211 -7.85651323 -0.10282869 0 0 Z " fill="#437C98" transform="translate(112.484375,391.8046875)"/>
<path d="M0 0 C3.78580423 2.03850997 7.05061257 4.10122513 9 8 C9.51513791 13.40894804 9.41328621 16.57536972 6 21 C3.06904376 24.41944895 0.70823406 24.93033763 -3.8125 25.375 C-7.06504073 25.33906032 -8.83212381 24.78680009 -11.375 22.75 C-14.82177446 19.13909342 -15.82522878 17.57294101 -16.375 12.625 C-15.92515417 8.27649031 -14.79790424 6.32723747 -12 3 C-8.07324125 -0.18385844 -4.98824428 -0.6125914 0 0 Z " fill="#E8F3F8" transform="translate(202,107)"/>
<path d="M0 0 C4.33729795 2.25205855 7.13397371 4.4386024 9 9 C9.59554195 13.10262231 9.93026368 15.47588875 7.7578125 19.03515625 C4.17147411 23.37980002 1.97852703 24.80539078 -3.8125 25.375 C-7.06504073 25.33906032 -8.83212381 24.78680009 -11.375 22.75 C-14.82177446 19.13909342 -15.82522878 17.57294101 -16.375 12.625 C-15.92515417 8.27649031 -14.79790424 6.32723747 -12 3 C-8.07324125 -0.18385844 -4.98824428 -0.6125914 0 0 Z " fill="#E8F4F9" transform="translate(313,107)"/>
</svg>
