<?xml version="1.0" encoding="UTF-8"?>
<svg version="1.1" xmlns="http://www.w3.org/2000/svg" width="512" height="512">
<path d="M0 0 C1.54849057 1.45108552 3.09080413 2.90880927 4.625 4.375 C5.24890625 4.93574219 5.8728125 5.49648438 6.515625 6.07421875 C11.88007259 11.06412158 15.93895889 17.06564652 19.625 23.375 C19.625 24.035 19.625 24.695 19.625 25.375 C20.285 25.375 20.945 25.375 21.625 25.375 C21.88539063 24.65441406 22.14578125 23.93382812 22.4140625 23.19140625 C28.76421423 8.42218238 43.3151866 -3.42726026 56.625 -11.625 C57.18493652 -11.97014648 57.74487305 -12.31529297 58.32177734 -12.67089844 C73.29321851 -21.7174714 90.39591568 -26.98574076 107.625 -29.625 C108.429375 -29.75519531 109.23375 -29.88539062 110.0625 -30.01953125 C147.45124659 -34.88785763 185.2221033 -24.09119492 215.11743164 -1.61157227 C245.80311452 22.16034792 264.46024414 56.09161362 273.625 93.375 C273.80434082 94.06722656 273.98368164 94.75945312 274.16845703 95.47265625 C284.99085705 138.71926763 271.71300675 182.54468378 249.75683594 219.73046875 C236.38876754 241.82644958 220.02307376 262.03269066 202.67578125 281.10546875 C200.77271912 283.21152418 198.91346179 285.34820469 197.0625 287.5 C194.12988111 290.87285036 191.02720954 294.02114251 187.8125 297.125 C186.00588657 298.98323096 184.33350912 300.87109375 182.65234375 302.83984375 C177.97014127 308.22818174 172.90955908 313.24015733 167.85522461 318.27514648 C166.19073723 319.9342732 164.53166553 321.59868051 162.87304688 323.26367188 C157.82466272 328.31488579 152.74256774 333.26949593 147.30834961 337.90991211 C144.77980504 340.11060768 142.46706914 342.47649546 140.125 344.875 C136.48940864 348.55988963 132.77887033 352.08235904 128.83984375 355.44140625 C126.51185058 357.47378124 124.25379362 359.56856124 121.99584961 361.67797852 C116.63906563 366.68049222 111.1904896 371.46743075 105.46875 376.0546875 C103.45391087 377.69866338 101.48366247 379.35591071 99.53125 381.0703125 C90.43733153 389.05267692 80.91206215 396.34428521 71.16210938 403.50683594 C68.68770299 405.32882955 66.22604817 407.16699956 63.765625 409.0078125 C48.79204908 420.13126292 34.02692573 429.19393054 14.625 427.375 C-1.90741533 424.79181011 -14.36508746 415.17605524 -27.375 405.375 C-28.13103516 404.8073291 -28.88707031 404.2396582 -29.66601562 403.65478516 C-38.39376421 397.08630424 -47.00130123 390.39179284 -55.375 383.375 C-55.8901416 382.94477539 -56.4052832 382.51455078 -56.93603516 382.07128906 C-63.44369417 376.63118728 -69.85530169 371.10826013 -76.1328125 365.40234375 C-78.08708424 363.63532801 -80.06559737 361.90586471 -82.0625 360.1875 C-86.10031561 356.66883211 -90.01911891 353.02535942 -93.9375 349.375 C-94.56293701 348.79339111 -95.18837402 348.21178223 -95.83276367 347.61254883 C-98.89238171 344.75227015 -101.90109929 341.85954524 -104.83984375 338.875 C-107.14385564 336.550828 -109.50542637 334.36831728 -111.99609375 332.24609375 C-117.49525446 327.49675838 -122.57676804 322.32247662 -127.70239258 317.17797852 C-129.433947 315.441064 -131.17078359 313.70956111 -132.90820312 311.97851562 C-138.10749214 306.78201997 -143.21682449 301.57497897 -147.98999023 295.97827148 C-149.84517505 293.83073074 -151.83891469 291.85030664 -153.875 289.875 C-157.92355131 285.86727442 -161.67891841 281.70634562 -165.375 277.375 C-166.29097395 276.32231352 -167.20770388 275.27028457 -168.125 274.21875 C-174.84575758 266.48824489 -181.26098012 258.59500932 -187.375 250.375 C-187.86581055 249.72080078 -188.35662109 249.06660156 -188.86230469 248.39257812 C-201.35769484 231.68534618 -212.52113238 214.28719934 -221.375 195.375 C-221.84292969 194.41722656 -222.31085938 193.45945313 -222.79296875 192.47265625 C-237.76136709 161.10810466 -239.99984335 122.88908501 -231.375 89.375 C-231.19839844 88.64442383 -231.02179688 87.91384766 -230.83984375 87.16113281 C-221.28146749 48.13109642 -196.54944127 11.624163 -162.19921875 -9.5859375 C-112.67947388 -39.22939289 -44.50498469 -39.41870073 0 0 Z " fill="#EB4653" transform="translate(235.375,57.625)"/>
<path d="M0 0 C12.33108103 8.85986519 21.2982081 20.54939688 25.140625 35.42578125 C27.65257733 51.86976548 25.10049857 67.92239299 15.50390625 81.7265625 C9.555347 89.26698972 3.13993223 94.85495759 -5.4375 99.1875 C-6.31019531 99.67476563 -7.18289062 100.16203125 -8.08203125 100.6640625 C-15.72685473 104.32784671 -22.80250093 104.64967752 -31.1875 104.6875 C-32.25299072 104.69378418 -33.31848145 104.70006836 -34.41625977 104.70654297 C-50.06790599 104.4551011 -62.64798882 97.31893231 -73.4375 86.1875 C-82.42494112 75.89924503 -88.04682243 64.19289642 -87.8125 50.4375 C-87.80162354 49.56279053 -87.79074707 48.68808105 -87.77954102 47.78686523 C-87.42919656 33.43596316 -83.3170399 19.59694159 -73.28125 8.8671875 C-52.22464609 -10.31573556 -24.7678997 -15.69665644 0 0 Z " fill="#F2F1F1" transform="translate(203.4375,160.8125)"/>
<path d="M0 0 C7.22485706 6.50363665 12.34289332 13.10854344 16.23046875 22.0078125 C16.57980469 22.6884375 16.92914063 23.3690625 17.2890625 24.0703125 C22.92357857 35.66666092 21.49928542 51.58268744 17.49291992 63.44384766 C11.86865701 78.6009213 1.37653598 89.06578114 -12.90820312 96.15673828 C-20.76283291 99.74819151 -27.65444022 100.47566977 -36.26953125 100.3828125 C-37.34589844 100.39441406 -38.42226563 100.40601563 -39.53125 100.41796875 C-53.57108017 100.36666608 -66.40973899 94.4353509 -76.64453125 84.8203125 C-88.71717744 71.69102875 -93.75334109 56.87115827 -93.0859375 39.27734375 C-92.14361291 24.00087742 -85.41098051 12.68699739 -74.76953125 2.0078125 C-74.228125 1.44320312 -73.68671875 0.87859375 -73.12890625 0.296875 C-52.9240372 -18.98959091 -20.69069455 -16.91876262 0 0 Z " fill="#F2F1F1" transform="translate(375.76953125,164.9921875)"/>
<path d="M0 0 C2.88525567 1.87080505 5.47788107 4.05987554 8.125 6.25 C21.46175978 17.05217195 37.91124986 24.63310851 55.3359375 24.60546875 C56.4084375 24.62029297 57.4809375 24.63511719 58.5859375 24.65039062 C60.81236962 24.67504226 63.0391028 24.68038871 65.265625 24.66601562 C71.83999268 24.79608405 75.95037014 25.57788781 81.06103516 29.82543945 C84.90524872 34.11283146 84.9970935 38.18337496 84.87109375 43.7421875 C84.25125109 49.28154086 82.06992926 52.28750256 77.6875 55.8125 C61.29382953 63.92232 39.15986699 59.78254237 22.5625 54.5 C5.47003615 48.53168672 -13.32201983 37.82288224 -22.625 21.671875 C-24.25204263 17.32266489 -24.19380106 13.03780635 -23.4375 8.5 C-18.70809177 -0.95881645 -9.68379693 -4.22565684 0 0 Z " fill="#821122" transform="translate(321.4375,78.5)"/>
<path d="M0 0 C3.99766287 4.3051754 4.4426212 7.80437203 4.43359375 13.4375 C2.66819178 23.87086661 -7.37570556 32.04755561 -15.3671875 38.1328125 C-35.69670236 52.55048031 -61.17494815 60.01810481 -86.03222656 56.2253418 C-92.60221826 55.05562243 -97.88818168 53.47795992 -102 48 C-104.7223123 43.50307456 -104.62277453 39.11621097 -104 34 C-102.4719519 29.15965602 -99.59476325 26.23452919 -95.14770508 23.81201172 C-90.94432208 22.22278222 -86.56509371 22.49595117 -82.125 22.5 C-58.70563229 21.97023416 -39.60281624 14.34842339 -21.7109375 -0.7578125 C-15.12598531 -6.20415624 -6.43266356 -5.21127175 0 0 Z " fill="#821122" transform="translate(210,81)"/>
<path d="M0 0 C7.46960068 5.65965897 17.11067985 13.77475898 18.5 23.5 C18 27 18 27 15.9375 29.9375 C12.19398553 32.56592505 10.52213483 32.43598018 6 32 C3.23187323 30.97738664 0.70490928 29.61211938 -1.875 28.1875 C-3.28818189 27.4450493 -4.70353554 26.70671675 -6.12109375 25.97265625 C-6.79253418 25.62477051 -7.46397461 25.27688477 -8.15576172 24.91845703 C-13.89669267 22.05939134 -19.99317402 20.66801764 -26.25 19.4296875 C-28 19 -28 19 -29 18 C-31.1126656 17.89966731 -33.22870423 17.86918498 -35.34375 17.8671875 C-36.6534375 17.86589844 -37.963125 17.86460937 -39.3125 17.86328125 C-40.34503906 17.86642334 -40.34503906 17.86642334 -41.3984375 17.86962891 C-43.46361899 17.87490702 -45.52857596 17.86972253 -47.59375 17.86328125 C-64.72762379 17.85119931 -78.53117371 21.10924625 -93.54516602 29.40844727 C-97.54315911 31.55337288 -100.46037131 32.5558729 -105 32 C-108.04846239 29.94022812 -108.87988129 28.33366307 -110.125 24.875 C-109.89847205 17.8526336 -105.54321767 12.41115601 -100.875 7.375 C-74.30423619 -17.22755909 -30.10918769 -19.3018396 0 0 Z " fill="#7E0E20" transform="translate(302,308)"/>
<path d="M0 0 C0.99 0.66 1.98 1.32 3 2 C2.0925 2.66 1.185 3.32 0.25 4 C-4.40756334 7.9070555 -6.63085422 12.46212276 -7.5 18.4375 C-6.67089356 24.34488337 -4.80771855 29.23747442 -0.5 33.4375 C5.16350266 36.97718916 9.3168198 37.80278441 16 37 C21.95396974 35.21177701 25.05948411 32.39094579 28 27 C28.66 27.33 29.32 27.66 30 28 C30.56884719 40.59364471 29.96908859 51.02200795 21.625 61.22265625 C14.3441877 69.18604471 6.38820059 73.3381291 -4.42578125 74.19140625 C-14.76085498 74.64457073 -23.10147688 71.56357663 -31 64.90625 C-38.81615192 57.4564802 -43.00454001 48.85417377 -43.47216797 37.97607422 C-43.56584234 30.90448099 -42.77762669 25.09422007 -39 19 C-38.443125 17.989375 -37.88625 16.97875 -37.3125 15.9375 C-27.71933282 3.75158493 -15.60653082 -1.97419498 0 0 Z " fill="#7C0F20" transform="translate(346,172)"/>
<path d="M0 0 C0.99 0.66 1.98 1.32 3 2 C2.0925 2.66 1.185 3.32 0.25 4 C-4.40756334 7.9070555 -6.63085422 12.46212276 -7.5 18.4375 C-6.67089356 24.34488337 -4.80771855 29.23747442 -0.5 33.4375 C5.16350266 36.97718916 9.3168198 37.80278441 16 37 C21.95396974 35.21177701 25.05948411 32.39094579 28 27 C28.66 27.33 29.32 27.66 30 28 C30.56884719 40.59364471 29.96908859 51.02200795 21.625 61.22265625 C14.3441877 69.18604471 6.38820059 73.3381291 -4.42578125 74.19140625 C-14.76085498 74.64457073 -23.10147688 71.56357663 -31 64.90625 C-38.81615192 57.4564802 -43.00454001 48.85417377 -43.47216797 37.97607422 C-43.56584234 30.90448099 -42.77762669 25.09422007 -39 19 C-38.443125 17.989375 -37.88625 16.97875 -37.3125 15.9375 C-27.71933282 3.75158493 -15.60653082 -1.97419498 0 0 Z " fill="#7C0F20" transform="translate(179,172)"/>
<path d="M0 0 C-1.051875 0.61875 -1.051875 0.61875 -2.125 1.25 C-8.38470281 5.06025388 -13.34832254 9.03587796 -18.5 14.25 C-19.13808594 14.88035156 -19.77617187 15.51070312 -20.43359375 16.16015625 C-24.74487029 20.48906582 -28.4284622 25.05173896 -32 30 C-33.28632223 31.67079492 -34.57685493 33.33837431 -35.875 35 C-36.47054687 35.763125 -37.06609375 36.52625 -37.6796875 37.3125 C-38.11539063 37.869375 -38.55109375 38.42625 -39 39 C-39.72265625 37.45703125 -39.72265625 37.45703125 -40 35 C-38.91455576 32.42023144 -37.79846557 30.11369894 -36.4375 27.6875 C-36.06399414 27.01251465 -35.69048828 26.3375293 -35.30566406 25.64208984 C-29.60679494 15.55778194 -12.9171151 -4.30570503 0 0 Z " fill="#DAD4D4" transform="translate(158,155)"/>
<path d="M0 0 C-1.051875 0.61875 -1.051875 0.61875 -2.125 1.25 C-8.38470281 5.06025388 -13.34832254 9.03587796 -18.5 14.25 C-19.13808594 14.88035156 -19.77617187 15.51070312 -20.43359375 16.16015625 C-24.74487029 20.48906582 -28.4284622 25.05173896 -32 30 C-33.28632223 31.67079492 -34.57685493 33.33837431 -35.875 35 C-36.47054688 35.763125 -37.06609375 36.52625 -37.6796875 37.3125 C-38.11539062 37.869375 -38.55109375 38.42625 -39 39 C-40.39010821 34.82967537 -39.04881284 33.33215222 -37.125 29.4375 C-33.69675076 22.66513033 -29.46015815 17.30274819 -24 12 C-23.45988281 11.43925781 -22.91976563 10.87851563 -22.36328125 10.30078125 C-18.6449042 6.73226323 -14.30788826 4.40501422 -9.75 2.0625 C-9.13487549 1.74321533 -8.51975098 1.42393066 -7.88598633 1.0949707 C-3.36883652 -1.12294551 -3.36883652 -1.12294551 0 0 Z " fill="#D9D5D5" transform="translate(325,155)"/>
<path d="M0 0 C1.30310976 3.90932927 0.41923843 4.92180986 -1.375 8.5625 C-5.41104105 16.33282202 -10.83102276 22.92332607 -18 28 C-16.63646441 24.90166913 -15.11352207 22.96411736 -12.625 20.6875 C-7.37185614 15.57603844 -4.82179127 9.66968845 -2 3 C-1.34 2.01 -0.68 1.02 0 0 Z " fill="#D3C3C5" transform="translate(225,226)"/>
<path d="M0 0 C1 3 1 3 -0.109375 5.84765625 C-0.65078125 6.90855469 -1.1921875 7.96945313 -1.75 9.0625 C-2.28109375 10.12597656 -2.8121875 11.18945312 -3.359375 12.28515625 C-5 15 -5 15 -8 17 C-7.35001982 13.49010705 -5.84608407 11.02757788 -4 8 C-3.32650839 6.33607955 -2.6590841 4.66967972 -2 3 C-1.34 2.01 -0.68 1.02 0 0 Z " fill="#D3C9CA" transform="translate(392,226)"/>
<path d="M0 0 C-3.55639236 2.30119506 -6.94718288 3.77472971 -11 5 C-11.33 4.34 -11.66 3.68 -12 3 C-10.5682384 2.30062798 -9.12932968 1.61587282 -7.6875 0.9375 C-6.48673828 0.36322266 -6.48673828 0.36322266 -5.26171875 -0.22265625 C-3 -1 -3 -1 0 0 Z " fill="#D5BFC1" transform="translate(325,155)"/>
<path d="M0 0 C-3.55639236 2.30119506 -6.94718288 3.77472971 -11 5 C-11.33 4.34 -11.66 3.68 -12 3 C-10.5682384 2.30062798 -9.12932968 1.61587282 -7.6875 0.9375 C-6.48673828 0.36322266 -6.48673828 0.36322266 -5.26171875 -0.22265625 C-3 -1 -3 -1 0 0 Z " fill="#D6C4C6" transform="translate(158,155)"/>
<path d="M0 0 C1 3 1 3 0.25 5.125 C-1 7 -1 7 -4 8 C-2.87548273 5.0280615 -1.77706209 2.66559313 0 0 Z " fill="#D4CECE" transform="translate(225,226)"/>
</svg>
