<?xml version="1.0" encoding="UTF-8"?>
<svg version="1.1" xmlns="http://www.w3.org/2000/svg" width="512" height="512">
<path d="M0 0 C4.59552972 4.00437429 8.81093337 8.40385009 12.55078125 13.22265625 C12.55078125 13.88265625 12.55078125 14.54265625 12.55078125 15.22265625 C15.25454447 12.59841547 17.73046289 10.00235124 20.05078125 7.03515625 C31.40146029 -6.26052406 49.17458731 -15.30478494 66.55078125 -16.77734375 C82.99024024 -17.70830759 98.13713105 -14.39159867 110.86328125 -3.52734375 C123.0985191 8.177635 129.38937547 22.95707848 129.94921875 39.87109375 C129.96203112 42.11325825 129.95384286 44.35563074 129.92578125 46.59765625 C129.9105542 48.37245361 129.9105542 48.37245361 129.89501953 50.18310547 C129.74089987 58.88190601 129.05556527 66.84817081 126.55078125 75.22265625 C126.25276611 76.22184082 126.25276611 76.22184082 125.94873047 77.24121094 C120.11628549 96.29823341 110.15070709 113.60273597 96.55078125 128.22265625 C94.13863764 129.42872805 93.07491348 129.1153386 90.42578125 128.84765625 C85.34825307 128.81479199 82.6551211 130.54982935 79.0546875 134.0234375 C76.87551182 137.21012817 76.88396952 139.91578735 77.171875 143.6953125 C75.57178785 150.20635894 66.81046841 154.1746626 61.42578125 157.47265625 C60.73613281 157.90578125 60.04648437 158.33890625 59.3359375 158.78515625 C55.83146686 160.95618586 52.46239521 162.85283035 48.55078125 164.22265625 C48.7115918 164.79725586 48.87240234 165.37185547 49.03808594 165.96386719 C58.14134547 206.07022776 36.79959776 257.66598887 15.93652344 291.06689453 C7.54069055 304.12806514 -1.83197943 316.38489915 -12.296875 327.8515625 C-14.21777252 329.96768736 -16.08911307 332.11574894 -17.94921875 334.28515625 C-24.24709789 341.49935499 -31.1462756 348.04123651 -38.44921875 354.22265625 C-39.27421875 354.93679688 -40.09921875 355.6509375 -40.94921875 356.38671875 C-61.64261892 374.03359056 -84.45932142 388.49609366 -108.44921875 401.22265625 C-109.24247559 401.64724121 -110.03573242 402.07182617 -110.85302734 402.50927734 C-122.01822153 408.43989475 -133.45220132 413.67455973 -145.12322998 418.52108765 C-146.53464513 419.10787815 -147.94408696 419.69944075 -149.35137939 420.29605103 C-159.67249675 424.65223081 -166.78168636 427.11670488 -177.65234375 423.08984375 C-180.00932114 422.11154866 -182.35793965 421.11294728 -184.69921875 420.09765625 C-185.97232221 419.55631902 -187.24560055 419.01539291 -188.51904297 418.47485352 C-215.49261583 406.93069919 -240.97514072 393.4238065 -265.44921875 377.22265625 C-265.6208252 377.88475098 -265.79243164 378.5468457 -265.96923828 379.22900391 C-267.79959822 386.13252559 -269.92186861 392.87293096 -272.32421875 399.59765625 C-272.65035156 400.55542969 -272.97648437 401.51320313 -273.3125 402.5 C-276.0375827 410.12386949 -279.06885075 414.43785215 -286.44921875 418.22265625 C-291.35625018 420.02190111 -296.17404108 419.64038687 -301.07421875 418.03515625 C-310.19510117 413.13690458 -313.00772857 404.9788141 -315.89453125 395.58203125 C-316.11166275 394.88849045 -316.32879425 394.19494965 -316.55250549 393.48039246 C-318.38487655 387.62756092 -318.38487655 387.62756092 -319.21484375 384.75683594 C-321.41672727 376.27444469 -321.41672727 376.27444469 -326.54492188 369.52539062 C-329.15982764 368.45497391 -331.69179442 367.83747173 -334.44921875 367.22265625 C-336.75393731 366.43267942 -339.05045519 365.61851755 -341.33984375 364.78515625 C-345.04271767 363.49271846 -348.74728027 362.20616945 -352.45703125 360.93359375 C-353.65585937 360.51335937 -354.8546875 360.093125 -356.08984375 359.66015625 C-357.16782227 359.28761719 -358.24580078 358.91507812 -359.35644531 358.53125 C-364.89396222 356.18825263 -368.91704378 353.61550178 -371.69140625 348.13671875 C-374.09307327 342.07065257 -373.61909719 337.51138995 -371.62890625 331.49609375 C-368.41706611 325.30638858 -365.08184924 322.56028233 -358.57421875 320.16015625 C-357.930896 319.9182959 -357.28757324 319.67643555 -356.62475586 319.42724609 C-349.6346145 316.83441595 -342.54798418 314.49828885 -335.44921875 312.22265625 C-339.87008936 305.18146829 -344.40897624 298.23429405 -349.07177734 291.35131836 C-354.52158135 283.25382327 -354.52158135 283.25382327 -354.19921875 278.66015625 C-353.44921875 275.22265625 -353.44921875 275.22265625 -351.44921875 272.22265625 C-351.81015625 271.52398437 -352.17109375 270.8253125 -352.54296875 270.10546875 C-353.00703125 269.19539063 -353.47109375 268.2853125 -353.94921875 267.34765625 C-354.6453125 265.99027344 -354.6453125 265.99027344 -355.35546875 264.60546875 C-356.44921875 262.22265625 -356.44921875 262.22265625 -356.44921875 260.22265625 C-357.52171875 260.30515625 -358.59421875 260.38765625 -359.69921875 260.47265625 C-363.44921875 260.22265625 -363.44921875 260.22265625 -365.54711914 258.54785156 C-367.63937354 255.99020416 -368.57510649 253.89245753 -369.6328125 250.76953125 C-370.00083984 249.68647705 -370.36886719 248.60342285 -370.74804688 247.48754883 C-371.12380859 246.32763428 -371.49957031 245.16771973 -371.88671875 243.97265625 C-372.27923828 242.77858154 -372.67175781 241.58450684 -373.07617188 240.35424805 C-378.36457506 223.80394991 -382.54810166 206.43410198 -382.65234375 188.98046875 C-382.65804382 188.21322479 -382.6637439 187.44598083 -382.6696167 186.65548706 C-382.679006 185.03694 -382.68557631 183.41837434 -382.68945312 181.79980469 C-382.69905686 179.38830689 -382.73009521 176.97770114 -382.76171875 174.56640625 C-382.94996815 146.96837341 -376.04460136 119.93979187 -358.44921875 98.22265625 C-357.835625 97.44535156 -357.22203125 96.66804688 -356.58984375 95.8671875 C-341.54688427 77.80942003 -318.02313227 67.07272276 -294.90576172 64.43359375 C-260.66494536 61.49341632 -228.30158294 70.93078423 -201.19921875 92.22265625 C-188.7702928 102.71898173 -178.45545031 114.05069838 -169.53979492 127.6730957 C-168.40121587 129.38484556 -168.40121587 129.38484556 -166.44921875 131.22265625 C-165.90394531 130.41183594 -165.35867187 129.60101563 -164.796875 128.765625 C-148.40409247 104.5989456 -127.87847415 84.29060141 -100.44921875 73.22265625 C-100.59359375 72.50207031 -100.73796875 71.78148437 -100.88671875 71.0390625 C-104.63329092 49.36618322 -104.79340764 25.28081512 -92.44921875 6.22265625 C-82.60067002 -6.5452238 -70.98539295 -13.68302826 -55.09375 -16.4609375 C-34.47113996 -18.92833988 -16.24930892 -12.40273503 0 0 Z " fill="#ED586A" transform="translate(382.44921875,64.77734375)"/>
<path d="M0 0 C4.59552972 4.00437429 8.81093337 8.40385009 12.55078125 13.22265625 C12.55078125 13.88265625 12.55078125 14.54265625 12.55078125 15.22265625 C15.25454447 12.59841547 17.73046289 10.00235124 20.05078125 7.03515625 C31.40146029 -6.26052406 49.17458731 -15.30478494 66.55078125 -16.77734375 C82.99024024 -17.70830759 98.13713105 -14.39159867 110.86328125 -3.52734375 C123.0985191 8.177635 129.38937547 22.95707848 129.94921875 39.87109375 C129.96203112 42.11325825 129.95384286 44.35563074 129.92578125 46.59765625 C129.9105542 48.37245361 129.9105542 48.37245361 129.89501953 50.18310547 C129.74089987 58.88190601 129.05556527 66.84817081 126.55078125 75.22265625 C126.25276611 76.22184082 126.25276611 76.22184082 125.94873047 77.24121094 C120.11628549 96.29823341 110.15070709 113.60273597 96.55078125 128.22265625 C94.13863764 129.42872805 93.07491348 129.1153386 90.42578125 128.84765625 C85.34825307 128.81479199 82.6551211 130.54982935 79.0546875 134.0234375 C76.87551182 137.21012817 76.88396952 139.91578735 77.171875 143.6953125 C75.57178785 150.20635894 66.81046841 154.1746626 61.42578125 157.47265625 C60.73613281 157.90578125 60.04648437 158.33890625 59.3359375 158.78515625 C55.83146686 160.95618586 52.46239521 162.85283035 48.55078125 164.22265625 C48.7115918 164.79725586 48.87240234 165.37185547 49.03808594 165.96386719 C58.14134547 206.07022776 36.79959776 257.66598887 15.93652344 291.06689453 C7.54069055 304.12806514 -1.83197943 316.38489915 -12.296875 327.8515625 C-14.21777252 329.96768736 -16.08911307 332.11574894 -17.94921875 334.28515625 C-24.24709789 341.49935499 -31.1462756 348.04123651 -38.44921875 354.22265625 C-39.27421875 354.93679688 -40.09921875 355.6509375 -40.94921875 356.38671875 C-61.64261892 374.03359056 -84.45932142 388.49609366 -108.44921875 401.22265625 C-109.24247559 401.64724121 -110.03573242 402.07182617 -110.85302734 402.50927734 C-122.01822153 408.43989475 -133.45220132 413.67455973 -145.12322998 418.52108765 C-146.53464513 419.10787815 -147.94408696 419.69944075 -149.35137939 420.29605103 C-159.67249675 424.65223081 -166.78168636 427.11670488 -177.65234375 423.08984375 C-180.00932114 422.11154866 -182.35793965 421.11294728 -184.69921875 420.09765625 C-185.97232221 419.55631902 -187.24560055 419.01539291 -188.51904297 418.47485352 C-215.49261583 406.93069919 -240.97514072 393.4238065 -265.44921875 377.22265625 C-265.6208252 377.88475098 -265.79243164 378.5468457 -265.96923828 379.22900391 C-267.79959822 386.13252559 -269.92186861 392.87293096 -272.32421875 399.59765625 C-272.65035156 400.55542969 -272.97648437 401.51320313 -273.3125 402.5 C-276.0375827 410.12386949 -279.06885075 414.43785215 -286.44921875 418.22265625 C-291.35625018 420.02190111 -296.17404108 419.64038687 -301.07421875 418.03515625 C-310.19510117 413.13690458 -313.00772857 404.9788141 -315.89453125 395.58203125 C-316.11166275 394.88849045 -316.32879425 394.19494965 -316.55250549 393.48039246 C-318.38487655 387.62756092 -318.38487655 387.62756092 -319.21484375 384.75683594 C-321.41672727 376.27444469 -321.41672727 376.27444469 -326.54492188 369.52539062 C-329.15982764 368.45497391 -331.69179442 367.83747173 -334.44921875 367.22265625 C-336.75393731 366.43267942 -339.05045519 365.61851755 -341.33984375 364.78515625 C-345.04271767 363.49271846 -348.74728027 362.20616945 -352.45703125 360.93359375 C-353.65585937 360.51335937 -354.8546875 360.093125 -356.08984375 359.66015625 C-357.16782227 359.28761719 -358.24580078 358.91507812 -359.35644531 358.53125 C-364.89396222 356.18825263 -368.91704378 353.61550178 -371.69140625 348.13671875 C-374.09307327 342.07065257 -373.61909719 337.51138995 -371.62890625 331.49609375 C-368.41706611 325.30638858 -365.08184924 322.56028233 -358.57421875 320.16015625 C-357.930896 319.9182959 -357.28757324 319.67643555 -356.62475586 319.42724609 C-349.6346145 316.83441595 -342.54798418 314.49828885 -335.44921875 312.22265625 C-339.87008936 305.18146829 -344.40897624 298.23429405 -349.07177734 291.35131836 C-354.48719287 283.30491878 -354.48719287 283.30491878 -354.32421875 278.66015625 C-353.44921875 275.22265625 -353.44921875 275.22265625 -351.76171875 273.28515625 C-348.66277395 271.86131675 -346.82739063 271.67111798 -343.44921875 272.22265625 C-339.12093251 275.93362954 -336.39432042 280.20332373 -333.51171875 285.03515625 C-330.07946575 290.66717722 -326.54900373 296.04398049 -322.44921875 301.22265625 C-319.12799859 294.10899085 -316.53245246 286.87522461 -314.09375 279.41992188 C-311.31918291 271.21548932 -308.04930132 265.17006813 -300.07421875 260.97265625 C-294.02625581 259.24466684 -289.42483512 260.32039361 -283.7578125 262.56640625 C-277.13479491 267.3179451 -275.04688129 272.94409519 -273.35546875 280.640625 C-270.02670928 297.36141828 -270.02670928 297.36141828 -260.46496582 310.78833008 C-251.54950739 316.12849423 -240.8570647 318.67582808 -230.7036438 320.50543213 C-223.83538216 321.86116332 -219.46610007 325.29492531 -215.51171875 331.03515625 C-213.0077596 338.54703369 -214.32518536 343.97094142 -217.76953125 350.9609375 C-222.57306717 357.42895448 -230.28846091 359.10649093 -237.63671875 361.47265625 C-238.72919922 361.83617187 -239.82167969 362.1996875 -240.94726562 362.57421875 C-249.02699131 365.22265625 -249.02699131 365.22265625 -252.44921875 365.22265625 C-252.44921875 365.88265625 -252.44921875 366.54265625 -252.44921875 367.22265625 C-251.80210937 367.444375 -251.155 367.66609375 -250.48828125 367.89453125 C-246.34916855 369.70339798 -242.65730134 372.09446353 -238.82421875 374.47265625 C-218.23305443 386.9901687 -196.78287084 397.25120273 -174.44921875 406.22265625 C-173.5886084 406.59704834 -172.72799805 406.97144043 -171.84130859 407.35717773 C-164.05039588 410.17599643 -155.44890288 404.99345328 -148.44921875 401.91015625 C-147.83761902 401.64355194 -147.22601929 401.37694763 -146.59588623 401.1022644 C-114.83484066 387.25344401 -84.03289993 370.67208601 -57.44921875 348.22265625 C-56.45148438 347.39636719 -55.45375 346.57007813 -54.42578125 345.71875 C-39.54746875 333.41023491 -39.54746875 333.41023491 -26.29296875 319.43359375 C-24.84824794 317.70115311 -23.35974745 316.00520489 -21.85546875 314.32421875 C-2.71592844 292.8562437 11.89620562 268.30230962 21.55078125 241.22265625 C21.8638623 240.36236816 22.17694336 239.50208008 22.49951172 238.61572266 C30.31707943 216.85222258 33.37576406 195.2992588 32.55078125 172.22265625 C31.39320313 172.73957031 30.235625 173.25648438 29.04296875 173.7890625 C27.50424762 174.45521616 25.9651658 175.1205371 24.42578125 175.78515625 C23.66523438 176.12740234 22.9046875 176.46964844 22.12109375 176.82226562 C15.2267973 179.76422833 11.13419499 179.03728069 4.14819336 176.25683594 C-19.7867685 166.29805397 -41.31719222 153.7451163 -60.44921875 136.22265625 C-61.88201172 134.91554687 -61.88201172 134.91554687 -63.34375 133.58203125 C-76.14081325 121.35250586 -86.53024535 106.55421963 -93.44921875 90.22265625 C-93.44921875 89.56265625 -93.44921875 88.90265625 -93.44921875 88.22265625 C-123.06187213 101.99061717 -144.67516655 123.18331543 -159.31640625 152.5234375 C-160.75511336 154.68149817 -162.24530756 155.86640321 -164.44921875 157.22265625 C-167.88671875 157.41015625 -167.88671875 157.41015625 -171.44921875 156.22265625 C-173.47163801 153.56157827 -174.89725097 151.1560459 -176.44921875 148.22265625 C-193.46003953 118.34999537 -216.65419655 94.99043631 -250.29956055 84.80834961 C-260.90865906 81.91780704 -270.89225893 80.69807681 -281.88671875 80.78515625 C-282.90694626 80.79071533 -282.90694626 80.79071533 -283.94778442 80.79638672 C-304.68106732 80.95716886 -322.98801125 87.03408755 -338.44921875 101.22265625 C-339.21621094 101.898125 -339.98320312 102.57359375 -340.7734375 103.26953125 C-354.26418067 115.82119043 -361.15972645 133.42454228 -364.44921875 151.22265625 C-364.65417969 152.20363281 -364.85914063 153.18460938 -365.0703125 154.1953125 C-370.37002137 183.69093357 -365.00598485 214.35864186 -354.57421875 242.09765625 C-352.71061328 247.13964386 -351.55834464 250.87741156 -352.44921875 256.22265625 C-354.01171875 258.72265625 -354.01171875 258.72265625 -356.44921875 260.22265625 C-359.94921875 260.72265625 -359.94921875 260.72265625 -363.44921875 260.22265625 C-366.84769759 257.46370825 -368.24236331 254.87489726 -369.6328125 250.76953125 C-370.00083984 249.68647705 -370.36886719 248.60342285 -370.74804688 247.48754883 C-371.12380859 246.32763428 -371.49957031 245.16771973 -371.88671875 243.97265625 C-372.27923828 242.77858154 -372.67175781 241.58450684 -373.07617188 240.35424805 C-378.36457506 223.80394991 -382.54810166 206.43410198 -382.65234375 188.98046875 C-382.65804382 188.21322479 -382.6637439 187.44598083 -382.6696167 186.65548706 C-382.679006 185.03694 -382.68557631 183.41837434 -382.68945312 181.79980469 C-382.69905686 179.38830689 -382.73009521 176.97770114 -382.76171875 174.56640625 C-382.94996815 146.96837341 -376.04460136 119.93979187 -358.44921875 98.22265625 C-357.835625 97.44535156 -357.22203125 96.66804688 -356.58984375 95.8671875 C-341.54688427 77.80942003 -318.02313227 67.07272276 -294.90576172 64.43359375 C-260.66494536 61.49341632 -228.30158294 70.93078423 -201.19921875 92.22265625 C-188.7702928 102.71898173 -178.45545031 114.05069838 -169.53979492 127.6730957 C-168.40121587 129.38484556 -168.40121587 129.38484556 -166.44921875 131.22265625 C-165.90394531 130.41183594 -165.35867187 129.60101563 -164.796875 128.765625 C-148.40409247 104.5989456 -127.87847415 84.29060141 -100.44921875 73.22265625 C-100.59359375 72.50207031 -100.73796875 71.78148437 -100.88671875 71.0390625 C-104.63329092 49.36618322 -104.79340764 25.28081512 -92.44921875 6.22265625 C-82.60067002 -6.5452238 -70.98539295 -13.68302826 -55.09375 -16.4609375 C-34.47113996 -18.92833988 -16.24930892 -12.40273503 0 0 Z " fill="#020001" transform="translate(382.44921875,64.77734375)"/>
<path d="M0 0 C10.77927289 7.19152085 17.72209962 16.65160942 23.5859375 28.0390625 C24.52336234 29.92271645 24.52336234 29.92271645 26.62890625 30.75390625 C29.54467535 31.17092747 29.54467535 31.17092747 32.62890625 30.75390625 C35.9280343 28.00035385 37.67507473 25.03945482 39.62890625 21.25390625 C47.49140402 7.56548127 59.9298678 -2.31048186 74.94140625 -7.24609375 C87.41545263 -10.06103342 101.08663043 -9.46931194 112.15234375 -2.703125 C121.75067799 4.26443656 127.13969368 13.632045 130.24609375 25.015625 C133.83963648 50.72045617 126.47023917 76.01232888 111.69140625 97.078125 C108.72891406 100.92150976 105.57256651 104.58641671 102.31640625 108.18359375 C100.23523399 111.35352742 100.23925966 113.02304012 100.62890625 116.75390625 C101.01369141 118.04361328 101.01369141 118.04361328 101.40625 119.359375 C101.47972656 120.14957031 101.55320312 120.93976563 101.62890625 121.75390625 C99.7578125 123.9921875 99.7578125 123.9921875 97.19140625 126.06640625 C95.92490234 127.11248047 95.92490234 127.11248047 94.6328125 128.1796875 C93.97152344 128.69917969 93.31023437 129.21867188 92.62890625 129.75390625 C91.94828125 129.40328125 91.26765625 129.05265625 90.56640625 128.69140625 C86.7779379 127.48232061 84.48079585 127.8067896 80.62890625 128.75390625 C77.5864818 130.47345342 77.5864818 130.47345342 74.69140625 132.75390625 C64.14955419 140.4184709 52.80259249 146.37738689 41.00390625 151.87890625 C40.1627124 152.28173828 39.32151855 152.68457031 38.45483398 153.09960938 C33.75633931 155.22794288 30.72389681 156.43452243 25.62890625 154.75390625 C22.46784718 153.556331 19.39099933 152.22032058 16.31640625 150.81640625 C15.43629883 150.41526611 14.55619141 150.01412598 13.64941406 149.60083008 C-21.00384992 133.48774865 -52.05826033 107.50100256 -65.8515625 70.94921875 C-72.43276968 52.57443196 -74.07379221 33.2848961 -67.37109375 14.75390625 C-61.98071615 3.70630068 -54.57843057 -2.53413137 -43.37109375 -7.24609375 C-28.72636407 -11.44908234 -12.80646172 -7.43781401 0 0 Z " fill="#ED586A" transform="translate(366.37109375,72.24609375)"/>
<path d="M0 0 C0.78898682 0.00902344 1.57797363 0.01804687 2.39086914 0.02734375 C13.85378154 0.36562828 22.65328772 4.76930557 31.1875 12.4375 C31.6825 13.9225 31.6825 13.9225 32.1875 15.4375 C33.239375 14.53257813 33.239375 14.53257813 34.3125 13.609375 C39.63884808 9.12250569 44.65127671 4.96553827 51.1875 2.4375 C52.07308594 2.08300781 52.95867187 1.72851562 53.87109375 1.36328125 C62.69891403 -1.10102194 74.6576796 -1.10346051 82.94921875 2.9921875 C92.29420665 9.02647288 97.90120232 15.89707191 100.79296875 26.69921875 C103.56755416 45.95648977 99.05355175 63.36530952 88.203125 79.36328125 C86.28886617 81.82501811 84.29761825 84.14214236 82.1875 86.4375 C81.51203125 87.19289063 80.8365625 87.94828125 80.140625 88.7265625 C69.79545512 99.71358599 56.64703041 106.94657824 43.1875 113.4375 C42.259375 113.9015625 41.33125 114.365625 40.375 114.84375 C33.98876932 117.44865988 29.18162662 115.75960721 22.96484375 113.21484375 C0.09528835 102.71174429 -21.4977459 86.71750243 -30.8125 62.4375 C-35.73916406 47.44682809 -37.40098147 32.31273611 -30.8125 17.4375 C-26.368875 9.45738055 -19.53117358 4.09931998 -10.99804688 1.04174805 C-7.33185409 0.02813912 -3.78515863 -0.0521585 0 0 Z " fill="#EC586A" transform="translate(158.8125,21.5625)"/>
<path d="M0 0 C2.04755101 -0.00959153 4.09404638 -0.04059725 6.14135742 -0.07226562 C16.21255867 -0.15322359 27.15037756 0.21303041 36.1472168 5.24023438 C35.0334668 5.46710938 33.9197168 5.69398438 32.7722168 5.92773438 C23.57970773 8.26233985 16.35661861 13.26137981 9.1472168 19.24023438 C8.32350586 19.87058594 7.49979492 20.5009375 6.65112305 21.15039062 C-14.18261006 38.53891981 -27.10617228 70.816836 -29.64331055 97.27001953 C-30.04784161 103.00606253 -30.03728637 108.74229906 -30.0402832 114.49023438 C-30.0525293 115.71097656 -30.06477539 116.93171875 -30.07739258 118.18945312 C-30.09541598 129.54419938 -29.02099863 140.72897646 -25.6652832 151.61523438 C-25.45605225 152.31293945 -25.24682129 153.01064453 -25.03125 153.72949219 C-22.97632445 160.31649356 -20.28085741 166.58568139 -17.40356445 172.84960938 C-16.1351009 175.62297553 -14.95404949 178.39755688 -13.8527832 181.24023438 C-14.37227539 181.50835937 -14.89176758 181.77648437 -15.42700195 182.05273438 C-16.12438477 182.44460938 -16.82176758 182.83648437 -17.5402832 183.24023438 C-18.22477539 183.61148438 -18.90926758 183.98273438 -19.61450195 184.36523438 C-26.59000046 190.20858391 -28.8265004 199.2658447 -31.5402832 207.61523438 C-32.30979266 209.9581045 -33.08428231 212.29934664 -33.86450195 214.63867188 C-34.19925537 215.66653809 -34.53400879 216.6944043 -34.87890625 217.75341797 C-35.8527832 220.24023438 -35.8527832 220.24023438 -37.8527832 222.24023438 C-44.1014262 213.93551215 -50.04235068 205.62937269 -55.29418945 196.65429688 C-56.62657205 194.1413182 -56.62657205 194.1413182 -58.8527832 193.24023438 C-61.1857698 193.20001047 -63.51984986 193.19703191 -65.8527832 193.24023438 C-66.88851216 191.49900888 -67.9059084 189.74686843 -68.9152832 187.99023438 C-69.48375977 187.01570312 -70.05223633 186.04117188 -70.63793945 185.03710938 C-71.8527832 182.24023438 -71.8527832 182.24023438 -71.66137695 180.00585938 C-70.8527832 178.24023438 -70.8527832 178.24023438 -68.8527832 176.24023438 C-68.1036213 169.12319627 -70.194775 163.49919616 -72.6027832 156.86523438 C-75.89967735 147.38575877 -78.65940587 138.03281517 -80.49438477 128.16455078 C-80.81764967 126.42887371 -81.17312683 124.69927105 -81.5324707 122.97070312 C-86.7029203 94.24991801 -83.25866591 61.09743793 -67.7590332 35.97851562 C-64.51954781 31.32507452 -60.85375754 27.24781098 -56.8527832 23.24023438 C-56.09223633 22.46808594 -55.33168945 21.6959375 -54.5480957 20.90039062 C-39.43091084 6.40276252 -20.68342174 0.05833848 0 0 Z " fill="#EC394E" transform="translate(97.852783203125,144.759765625)"/>
<path d="M0 0 C0.78898682 0.00902344 1.57797363 0.01804687 2.39086914 0.02734375 C13.85378154 0.36562828 22.65328772 4.76930557 31.1875 12.4375 C31.6825 13.9225 31.6825 13.9225 32.1875 15.4375 C33.239375 14.53257813 33.239375 14.53257813 34.3125 13.609375 C39.63884808 9.12250569 44.65127671 4.96553827 51.1875 2.4375 C52.07308594 2.08300781 52.95867187 1.72851562 53.87109375 1.36328125 C62.69891403 -1.10102194 74.6576796 -1.10346051 82.94921875 2.9921875 C92.29420665 9.02647288 97.90120232 15.89707191 100.79296875 26.69921875 C103.56755416 45.95648977 99.05355175 63.36530952 88.203125 79.36328125 C86.28886617 81.82501811 84.29761825 84.14214236 82.1875 86.4375 C81.51203125 87.19289063 80.8365625 87.94828125 80.140625 88.7265625 C69.79545512 99.71358599 56.64703041 106.94657824 43.1875 113.4375 C42.259375 113.9015625 41.33125 114.365625 40.375 114.84375 C33.98876932 117.44865988 29.18162662 115.75960721 22.96484375 113.21484375 C0.09528835 102.71174429 -21.4977459 86.71750243 -30.8125 62.4375 C-35.73916406 47.44682809 -37.40098147 32.31273611 -30.8125 17.4375 C-26.368875 9.45738055 -19.53117358 4.09931998 -10.99804688 1.04174805 C-7.33185409 0.02813912 -3.78515863 -0.0521585 0 0 Z M-15.1875 21.875 C-20.45576037 30.18264136 -20.18100034 41.03861304 -18.42578125 50.52832031 C-16.30364982 58.85980829 -12.20292625 65.83586461 -6.8125 72.4375 C-5.82636719 73.68466797 -5.82636719 73.68466797 -4.8203125 74.95703125 C3.01118366 84.29458437 12.8925039 90.45271947 23.5625 96.0625 C24.21613525 96.41779785 24.86977051 96.7730957 25.54321289 97.13916016 C30.21307213 99.48271014 33.16930709 99.80005569 38.1875 98.4375 C41.04349619 97.282465 43.73313866 95.90986768 46.4375 94.4375 C47.18112793 94.03740723 47.92475586 93.63731445 48.69091797 93.22509766 C55.18321261 89.62951667 60.71943304 85.47633303 66.1875 80.4375 C66.83976562 79.86515625 67.49203125 79.2928125 68.1640625 78.703125 C78.07666917 69.53287214 85.30859018 55.72074484 86.4609375 42.23828125 C86.69707898 34.12772967 85.97989909 28.13372887 81.1875 21.4375 C76.83216853 17.08216853 72.14049159 15.15419255 66 15 C58.15450165 15.16894747 52.09737165 18.36275233 46.4375 23.6875 C43.89560013 26.37160405 42.11377207 29.19209704 40.25 32.375 C38.72969942 34.72014451 37.80632511 36.13823212 35.28125 37.359375 C32.75878143 37.68923627 31.49524538 37.53770419 29.1875 36.4375 C27.06466616 34.09536514 25.44504644 31.66185051 23.7734375 28.98046875 C19.66693397 22.39590274 13.47537813 17.94573575 6.1875 15.4375 C-2.32881645 14.34272688 -9.11423457 15.6419118 -15.1875 21.875 Z " fill="#010000" transform="translate(158.8125,21.5625)"/>
<path d="M0 0 C2.49975586 0.11621094 2.49975586 0.11621094 5 1 C6.18969727 2.76660156 6.18969727 2.76660156 7.00390625 5.140625 C7.32504395 6.04619141 7.64618164 6.95175781 7.97705078 7.88476562 C8.31462402 8.91279297 8.65219727 9.94082031 9 11 C9.57790283 12.70446289 9.57790283 12.70446289 10.16748047 14.44335938 C11.65448754 18.85792998 13.1370235 23.27411475 14.57006836 27.70654297 C17.89503261 39.40945352 17.89503261 39.40945352 26.45019531 47.28027344 C35.07395739 51.07611642 44.20124511 53.82343769 53.19360352 56.625 C55.12862667 57.23095221 57.05476778 57.8650445 58.98046875 58.5 C60.68046021 59.04140625 60.68046021 59.04140625 62.41479492 59.59375 C65 61 65 61 65.8762207 63.65625 C65.93749146 64.81640625 65.93749146 64.81640625 66 66 C61.9875672 68.64343379 57.85487422 70.22028163 53.3203125 71.70703125 C51.81880482 72.21619098 50.31750918 72.72597635 48.81640625 73.23632812 C46.47309757 74.02633131 44.12848037 74.81135328 41.77978516 75.58520508 C27.93535385 79.79154732 27.93535385 79.79154732 18.28515625 90.0234375 C17.67994141 91.68246094 17.67994141 91.68246094 17.0625 93.375 C16.83143555 93.99205811 16.60037109 94.60911621 16.36230469 95.24487305 C13.60069369 102.76729258 11.15446586 110.41853297 8.71508789 118.05029297 C8.39145264 119.0507666 8.06781738 120.05124023 7.734375 121.08203125 C7.44788086 121.98155518 7.16138672 122.8810791 6.86621094 123.80786133 C6 126 6 126 4 128 C1.50024414 127.88574219 1.50024414 127.88574219 -1 127 C-2.18969727 125.21582031 -2.18969727 125.21582031 -3.00390625 122.828125 C-3.32504395 121.92255859 -3.64618164 121.01699219 -3.97705078 120.08398438 C-4.31462402 119.06626953 -4.65219727 118.04855469 -5 117 C-5.80058222 114.70305562 -6.60137424 112.40618436 -7.40234375 110.109375 C-8.68057782 106.40745058 -9.95286055 102.70432196 -11.20117188 98.9921875 C-14.41548617 88.97803459 -14.41548617 88.97803459 -21.79541016 81.94262695 C-29.43992991 78.28278858 -37.76345578 75.93900561 -45.80249023 73.27905273 C-47.73119923 72.63900814 -49.65669605 71.98995428 -51.58203125 71.33984375 C-52.71874268 70.96206787 -53.8554541 70.58429199 -55.02661133 70.19506836 C-57.78572772 69.0861206 -59.74392251 67.91020762 -62 66 C-61.9140625 63.67578125 -61.9140625 63.67578125 -61 61 C-58.7200709 59.75785376 -56.81609304 58.97014052 -54.375 58.1875 C-53.68365967 57.94596191 -52.99231934 57.70442383 -52.2800293 57.45556641 C-49.86031841 56.61504911 -47.43125678 55.80649438 -45 55 C-41.96263982 53.98113547 -38.92729268 52.95700965 -35.89501953 51.9230957 C-33.86986584 51.23451778 -31.84094234 50.55691079 -29.80810547 49.89135742 C-28.86725098 49.57400635 -27.92639648 49.25665527 -26.95703125 48.9296875 C-26.12147705 48.65366699 -25.28592285 48.37764648 -24.42504883 48.09326172 C-19.24208122 45.75667368 -16.54543855 42.9650139 -14.51171875 37.6953125 C-14.09970215 36.63473633 -13.68768555 35.57416016 -13.26318359 34.48144531 C-10.78443008 27.64978217 -8.44490232 20.77640954 -6.14868164 13.88183594 C-5.50642677 11.95862231 -4.85684559 10.03786012 -4.20703125 8.1171875 C-3.8303833 6.98909668 -3.45373535 5.86100586 -3.06567383 4.69873047 C-2 2 -2 2 0 0 Z " fill="#EEF1F3" transform="translate(87,340)"/>
<path d="M0 0 C1.19882812 0.00483398 1.19882812 0.00483398 2.421875 0.00976562 C3.246875 0.01814453 4.071875 0.02652344 4.921875 0.03515625 C5.76234375 0.03966797 6.6028125 0.04417969 7.46875 0.04882812 C9.53648901 0.06057664 11.60419124 0.07851103 13.671875 0.09765625 C14.166875 1.08765625 14.166875 1.08765625 14.671875 2.09765625 C14.17558594 2.43796875 13.67929687 2.77828125 13.16796875 3.12890625 C5.05108103 8.92008231 -0.08899949 15.12048104 -4.578125 23.97265625 C-4.90748047 24.62024902 -5.23683594 25.2678418 -5.57617188 25.93505859 C-10.2751907 35.61417252 -11.81579356 44.28782756 -11.703125 55.03515625 C-11.71472656 56.13794922 -11.72632813 57.24074219 -11.73828125 58.37695312 C-11.71224695 65.73164306 -10.63003125 72.12271786 -8.328125 79.09765625 C-7.9244873 80.3511084 -7.9244873 80.3511084 -7.51269531 81.62988281 C1.16717141 107.39717343 26.59251768 131.7729067 45.01489258 151.01123047 C48.671875 154.88376299 48.671875 154.88376299 48.671875 157.09765625 C20.52305358 149.09367827 -8.14794402 121.97163802 -22.328125 97.09765625 C-33.93066032 76.0978191 -40.50835435 52.49993475 -34.23706055 28.71826172 C-31.14564814 18.34598184 -25.21734121 10.01149889 -15.8046875 4.6640625 C-10.48680621 1.91155209 -6.04513844 -0.04317956 0 0 Z " fill="#EA394E" transform="translate(331.328125,63.90234375)"/>
<path d="M0 0 C1.65 1.65 3.3 3.3 5 5 C5.65742188 5.64582031 6.31484375 6.29164063 6.9921875 6.95703125 C7.61351562 7.56933594 8.23484375 8.18164062 8.875 8.8125 C9.79925781 9.71935547 9.79925781 9.71935547 10.7421875 10.64453125 C12.64541027 12.63007334 14.45558414 14.65062646 16.2578125 16.7265625 C20.0658804 21.10762005 24.01395362 25.34355244 28 29.5625 C28.67289063 30.27857422 29.34578125 30.99464844 30.0390625 31.73242188 C33.85347153 35.77878821 37.7239422 39.73329369 41.75 43.57006836 C43 45 43 45 43 47 C35.04321895 44.60101344 27.7102911 41.19529835 20.25 37.5625 C19.61604309 37.25553192 18.98208618 36.94856384 18.32891846 36.6322937 C6.58284221 30.93298464 -4.81627255 24.74225638 -16 18 C-16.64243652 17.61666504 -17.28487305 17.23333008 -17.94677734 16.83837891 C-24.74067172 12.76724975 -24.74067172 12.76724975 -27 11 C-27 10.34 -27 9.68 -27 9 C-18.09 6.03 -9.18 3.06 0 0 Z " fill="#E9394D" transform="translate(157,421)"/>
<path d="M0 0 C0.99386719 0.00902344 1.98773438 0.01804688 3.01171875 0.02734375 C4.15060547 0.04474609 4.15060547 0.04474609 5.3125 0.0625 C5.3125 0.3925 5.3125 0.7225 5.3125 1.0625 C3.7346875 1.2790625 3.7346875 1.2790625 2.125 1.5 C-1.43653379 2.5144975 -2.63938733 3.99268819 -4.4375 7.1875 C-5.21122353 8.80133918 -5.96234835 10.42626038 -6.6875 12.0625 C-7.00847656 12.6709375 -7.32945312 13.279375 -7.66015625 13.90625 C-11.47517021 21.99762845 -10.89363482 32.49466176 -8.125 40.8125 C-4.15834077 50.15067695 1.75517679 57.91087112 8.40454102 65.47216797 C11.37157207 68.85497834 13.89867001 72.28064458 16.3125 76.0625 C1.06215482 70.55923361 -10.16290424 56.66415109 -16.9375 42.4375 C-19.47395411 36.09636471 -20.08942102 30.07014184 -20.1875 23.3125 C-20.20603027 22.52045166 -20.22456055 21.72840332 -20.24365234 20.91235352 C-20.17426192 14.40802156 -18.52114144 8.93270455 -13.87109375 4.22265625 C-13.29488281 3.86042969 -12.71867188 3.49820313 -12.125 3.125 C-11.25681641 2.55458984 -11.25681641 2.55458984 -10.37109375 1.97265625 C-6.83715292 0.06219636 -3.93515153 -0.0462959 0 0 Z " fill="#E7394D" transform="translate(159.6875,36.9375)"/>
</svg>
