<?xml version="1.0" encoding="UTF-8"?>
<svg version="1.1" xmlns="http://www.w3.org/2000/svg" width="512" height="512">
<path d="M0 0 C1.9480957 -0.02416992 1.9480957 -0.02416992 3.93554688 -0.04882812 C35.24316268 -0.06439631 63.10932774 13.32880209 85.4375 34.625 C108.56630771 58.60163791 119.44273076 90.54691625 118.96484375 123.57421875 C118.59359184 134.27772541 116.55433779 144.7898137 114.6875 155.3125 C114.45932464 156.64371571 114.23213925 157.97510141 114.00585938 159.30664062 C108.06043302 194.18996917 98.53986097 222.92278942 71.6875 247.3125 C71.0275 247.6425 70.3675 247.9725 69.6875 248.3125 C71.15812325 253.20209718 73.20167072 257.51538221 75.56640625 262.01171875 C75.93853745 262.72858353 76.31066864 263.4454483 76.69407654 264.18403625 C77.87527104 266.45819317 79.06222465 268.72927426 80.25 271 C81.4405702 273.28182602 82.62985756 275.5642978 83.81663513 277.84809875 C84.55323141 279.26502208 85.29212933 280.6807518 86.03358459 282.09513855 C88.86571581 287.53413771 89.80341599 291.16895268 89.6875 297.3125 C90.77998047 297.69728516 90.77998047 297.69728516 91.89453125 298.08984375 C100.53873895 301.87395146 107.84795445 309.94578477 114.6875 316.3125 C115.42742187 316.98667969 116.16734375 317.66085937 116.9296875 318.35546875 C136.53033718 336.944697 146.91824367 361.08159018 151.6875 387.3125 C151.6875 412.7225 151.6875 438.1325 151.6875 464.3125 C51.3675 464.3125 -48.9525 464.3125 -152.3125 464.3125 C-152.3125 353.87049709 -152.3125 353.87049709 -115.5625 316.125 C-115.06339111 315.60341309 -114.56428223 315.08182617 -114.05004883 314.54443359 C-111.13204195 311.64382501 -108.21919105 309.20895377 -104.71533203 307.05200195 C-95.41582573 301.18166262 -91.27438592 296.30399803 -88.68896484 285.55761719 C-88.35292916 283.99721995 -88.0191438 282.43633657 -87.6875 280.875 C-87.30507101 279.2622059 -86.91782454 277.65054686 -86.52587891 276.04003906 C-85.7658448 272.89224806 -85.03531533 269.73974034 -84.32421875 266.58056641 C-83.48410113 262.92587281 -82.4596008 259.36498997 -81.3125 255.79296875 C-78.38826648 247.82720721 -78.38826648 247.82720721 -79.44921875 239.8359375 C-81.35051881 237.86185858 -81.35051881 237.86185858 -83.72265625 236.26171875 C-86.91622453 233.85811306 -89.04958231 230.9933686 -91.3125 227.75 C-91.73305664 227.1506665 -92.15361328 226.55133301 -92.58691406 225.93383789 C-105.88088588 206.56854291 -110.52810929 186.22734278 -114.3125 163.3125 C-114.54745058 161.9193934 -114.78264502 160.5263279 -115.01806641 159.13330078 C-121.61783868 119.79248383 -121.65697028 83.39860235 -98.20703125 49.24609375 C-96.32395317 46.8443235 -94.36241036 44.57265758 -92.3125 42.3125 C-91.62800781 41.49910156 -90.94351563 40.68570313 -90.23828125 39.84765625 C-67.51409365 13.37010193 -34.38841732 -0.08457555 0 0 Z " fill="#E67D99" transform="translate(256.3125,23.6875)"/>
<path d="M0 0 C10.33444601 1.77025233 19.61161549 12.96542545 27 20 C28.06347656 20.96679688 28.06347656 20.96679688 29.1484375 21.953125 C48.36281448 39.99111156 58.37153095 64.54342025 63 90 C63 115.41 63 140.82 63 167 C-37.32 167 -137.64 167 -241 167 C-241 56.37893845 -241 56.37893845 -204.25 18.8125 C-197.45123255 12.02229163 -189.90696583 6.4263491 -182 1 C-180.72967229 4.81098314 -181.45989165 6.60578068 -182.4765625 10.4765625 C-182.72473473 11.43333641 -182.72473473 11.43333641 -182.97792053 12.40943909 C-183.5185815 14.48358945 -184.07146819 16.55425086 -184.625 18.625 C-185.00021012 20.0523709 -185.37496496 21.47986156 -185.74926758 22.9074707 C-187.79891396 30.6865712 -189.93834276 38.43314145 -192.27807617 46.13037109 C-194.08635422 52.12859874 -195.56931691 58.19528593 -197.05541992 64.2800293 C-198.78257403 71.28597855 -200.75028632 78.20753976 -202.76708984 85.13476562 C-204.74279559 91.97169728 -206.48790506 98.84895195 -208.17578125 105.76171875 C-209.48068107 111.05660071 -210.93023365 116.27722598 -212.5 121.5 C-215.27184434 130.92427074 -217.61746551 140.46986205 -220 150 C-172.975 150.495 -172.975 150.495 -125 151 C-125 109.09 -125 67.18 -125 24 C-120.38 24.66 -115.76 25.32 -111 26 C-107.63655639 26.1987907 -104.35188609 26.34755314 -100.9921875 26.37109375 C-99.67084808 26.38803535 -99.67084808 26.38803535 -98.32281494 26.40531921 C-95.50666209 26.43252206 -92.69127822 26.43923944 -89.875 26.4375 C-88.903349 26.43723816 -87.931698 26.43697632 -86.93060303 26.43670654 C-64.41823306 26.36509497 -44.02728896 22.96075293 -22.625 16 C-21.97871643 15.79103088 -21.33243286 15.58206177 -20.66656494 15.36676025 C-8.99276336 11.60807137 -8.99276336 11.60807137 -1.125 2.6875 C-0.568125 1.3571875 -0.568125 1.3571875 0 0 Z " fill="#3472C7" transform="translate(345,321)"/>
<path d="M0 0 C0.6585498 0.22993652 1.31709961 0.45987305 1.99560547 0.69677734 C24.27352939 8.75790577 40.45339177 26.28260921 51 47 C52.61039398 50.61237313 53.84859325 54.22032652 55 58 C55.39989136 59.24632202 55.39989136 59.24632202 55.80786133 60.51782227 C58.68768903 70.92824957 58.45370293 81.36489389 58.39111328 92.09179688 C58.3750682 95.36110385 58.39100613 98.62916862 58.41015625 101.8984375 C58.44072179 130.61912565 51.28518526 154.09730379 30.91796875 175.15234375 C12.38160874 192.5194343 -11.48568419 200.165295 -36.65234375 199.40625 C-59.93262516 198.05837773 -80.52779254 186.22108464 -96.375 169.625 C-105.2053298 159.390503 -111.25607459 147.95032144 -115 135 C-115.26925293 134.0912915 -115.53850586 133.18258301 -115.81591797 132.24633789 C-118.5752395 121.46430132 -118.52391675 110.69470587 -118.50097656 99.62524414 C-118.50000688 96.33585266 -118.54169343 93.04882074 -118.5859375 89.75976562 C-118.74072661 62.59925758 -110.96871264 39.82893851 -92.25 19.8125 C-67.18018638 -4.06823155 -32.46943899 -11.38948833 0 0 Z " fill="#FCC7A7" transform="translate(286,89)"/>
<path d="M0 0 C1.010625 0.78375 2.02125 1.5675 3.0625 2.375 C14.49552333 10.87441805 25.69891992 17.80472036 39 23 C39.80695313 23.32613281 40.61390625 23.65226562 41.4453125 23.98828125 C43.61410806 24.79230242 45.75996498 25.42180914 48 26 C49.0621875 26.27714844 50.124375 26.55429687 51.21875 26.83984375 C82.59720082 33.87406258 113.11158082 26.817484 140 10 C140.74378906 9.39671875 141.48757813 8.7934375 142.25390625 8.171875 C142.83011719 7.78515625 143.40632812 7.3984375 144 7 C147.41371967 8.13790656 147.53213059 8.43433098 149.06884766 11.46240234 C149.44578766 12.19341156 149.82272766 12.92442078 150.21109009 13.67758179 C150.60807098 14.47233917 151.00505188 15.26709656 151.4140625 16.0859375 C151.82917084 16.89866119 152.24427917 17.71138489 152.67196655 18.54873657 C153.99889308 21.15290755 155.31177027 23.76389995 156.625 26.375 C157.51737419 28.12803965 158.41059314 29.88064956 159.3046875 31.6328125 C160.93794726 34.84570742 162.57118397 38.05857958 164.18994141 41.27880859 C164.67933701 42.25024307 164.67933701 42.25024307 165.17861938 43.24130249 C167.08913014 47.33198889 167.44095253 50.51698263 167 55 C164.24455207 61.12829913 160.32660707 65.50535558 154.12280273 68.29272461 C128.06815319 77.3578997 103.69504818 82.4300749 76 82.4375 C75.04575134 82.43808411 74.09150269 82.43866821 73.1083374 82.43927002 C47.75063371 82.37531685 47.75063371 82.37531685 41 79 C41 120.91 41 162.82 41 206 C9.32 206 -22.36 206 -55 206 C-49.33231995 182.19574379 -49.33231995 182.19574379 -47 174.4375 C-44.98742015 167.57540047 -43.132602 160.69730418 -41.4375 153.75 C-39.95991709 147.6984159 -38.37131433 141.71097956 -36.5625 135.75 C-34.4809491 128.88557353 -32.70887556 121.9660338 -31 115 C-29.29111813 108.03394049 -27.51868993 101.11455007 -25.4375 94.25 C-22.89160648 85.84539825 -20.78010902 77.35003659 -18.69213867 68.82202148 C-15.3381186 55.14684758 -11.80416861 41.523879 -8.19897461 27.9128418 C-7.30062341 24.51761363 -6.40715759 21.12112074 -5.51367188 17.72460938 C-4.94300716 15.56762925 -4.37205466 13.41072524 -3.80078125 11.25390625 C-3.53413162 10.23744522 -3.26748199 9.22098419 -2.99275208 8.17372131 C-2.7454686 7.24442307 -2.49818512 6.31512482 -2.2434082 5.35766602 C-2.02675003 4.53766617 -1.81009186 3.71766632 -1.58686829 2.87281799 C-1 1 -1 1 0 0 Z " fill="#DB6482" transform="translate(179,266)"/>
<path d="M0 0 C23.33505886 20.00147902 40.24053639 45.87954238 44 77 C44.26172555 82.97475177 44.23401208 88.93877442 44.1953125 94.91796875 C44.19157473 96.62860447 44.18873138 98.33924235 44.18673706 100.04988098 C44.17916066 104.51651084 44.15956483 108.98300724 44.1373291 113.44958496 C44.11311004 118.82789604 44.10406111 124.20625216 44.09242249 129.58460236 C44.07313601 137.7231606 44.03477197 145.86142693 44 154 C29.48 154 14.96 154 0 154 C0 103.18 0 52.36 0 0 Z " fill="#3166B7" transform="translate(364,334)"/>
<path d="M0 0 C1.27032771 3.81098314 0.54010835 5.60578068 -0.4765625 9.4765625 C-0.72473473 10.43333641 -0.72473473 10.43333641 -0.97792053 11.40943909 C-1.5185815 13.48358945 -2.07146819 15.55425086 -2.625 17.625 C-3.00021012 19.0523709 -3.37496496 20.47986156 -3.74926758 21.9074707 C-5.79891396 29.6865712 -7.93834276 37.43314145 -10.27807617 45.13037109 C-12.08635422 51.12859874 -13.56931691 57.19528593 -15.05541992 63.2800293 C-16.78257403 70.28597855 -18.75028632 77.20753976 -20.76708984 84.13476562 C-22.74279559 90.97169728 -24.48790506 97.84895195 -26.17578125 104.76171875 C-27.64968483 110.74236597 -29.3306366 116.63543058 -31.11425781 122.5300293 C-33.72946738 131.27191641 -35.83107892 140.13840815 -38 149 C-26.615 149.495 -26.615 149.495 -15 150 C-15 155.28 -15 160.56 -15 166 C-29.52 166 -44.04 166 -59 166 C-59.16043524 147.50538236 -59.16043524 147.50538236 -59.1953125 139.5078125 C-59.21905163 134.09033164 -59.24686436 128.67312588 -59.30175781 123.25585938 C-59.34582025 118.8791443 -59.36926165 114.50272498 -59.37950897 110.1258049 C-59.38679376 108.47156504 -59.40101189 106.8173379 -59.42292023 105.16322708 C-59.84186744 72.16297586 -46.56213348 43.29570218 -23.99731445 19.59863281 C-16.66549349 12.10392802 -8.63069884 5.92302861 0 0 Z " fill="#3166B7" transform="translate(163,322)"/>
<path d="M0 0 C0.6585498 0.22993652 1.31709961 0.45987305 1.99560547 0.69677734 C22.08916974 7.96750879 39.34211901 23.97690107 49 43 C49 43.66 49 44.32 49 45 C44.20714107 43.15589047 39.59587912 40.95630938 34.96679688 38.7421875 C26.40269836 34.69531815 17.93688221 31.4728777 8.6875 29.375 C7.76235596 29.16335205 6.83721191 28.9517041 5.8840332 28.73364258 C3.25870727 28.14260543 0.63026644 27.56857664 -2 27 C-3.1240625 26.74863281 -4.248125 26.49726562 -5.40625 26.23828125 C-27.27184897 22.09439757 -52.92958316 24.01116877 -74 31 C-75.01449219 31.27457031 -76.02898437 31.54914063 -77.07421875 31.83203125 C-86.62029644 34.45510655 -95.28674445 38.73697325 -104.12158203 43.1237793 C-106 44 -106 44 -109 45 C-107.63490179 40.08415454 -105.42035681 36.26796681 -102.4375 32.1875 C-101.99059814 31.57366455 -101.54369629 30.9598291 -101.08325195 30.32739258 C-77.55594032 -1.35727459 -36.85189236 -12.92674622 0 0 Z " fill="#FEFDFD" transform="translate(286,89)"/>
<path d="M0 0 C6 1 6 1 8 2 C8 62.06 8 122.12 8 184 C5.36 184 2.72 184 0 184 C0 123.28 0 62.56 0 0 Z " fill="#D2506A" transform="translate(212,288)"/>
<path d="M0 0 C15.84 0 31.68 0 48 0 C46.75699588 9.94403299 44.51731965 14.39970263 36.99609375 20.5546875 C31.30036761 24.67879449 24.79569847 24.74646046 18 24 C10.8797165 22.12226152 6.21578623 16.78914186 2 11 C0.06496581 6.80742593 0 4.744186 0 0 Z " fill="#E62727" transform="translate(232,240)"/>
<path d="M0 0 C4.20227546 0.87547405 5.42604064 2.17880192 8 5.625 C8.74073147 9.30536864 8.69848177 12.88232864 8.625 16.625 C8.65400391 18.10226563 8.65400391 18.10226563 8.68359375 19.609375 C8.65122384 24.40012201 8.57748466 26.85182286 5.6484375 30.7734375 C3 32.625 3 32.625 0 33.25 C-4.20227546 32.37452595 -5.42604064 31.07119808 -8 27.625 C-8.74073147 23.94463136 -8.69848177 20.36767136 -8.625 16.625 C-8.64433594 15.64015625 -8.66367188 14.6553125 -8.68359375 13.640625 C-8.65122384 8.84987799 -8.57748466 6.39817714 -5.6484375 2.4765625 C-3 0.625 -3 0.625 0 0 Z " fill="#EDB494" transform="translate(256,191.375)"/>
<path d="M0 0 C4.08998175 1.80720124 6.66247347 4.19069751 9 8 C9.62819266 13.0255413 9.03320735 15.95572354 6 20 C3.24705395 23.21177039 0.96958591 23.86947882 -3.25 24.4375 C-8.1843364 23.86182742 -10.79803186 21.71753928 -14 18 C-15.23534045 14.29397865 -15.45528745 11.90246386 -15 8 C-10.91704021 1.64314568 -7.65816344 -0.51919752 0 0 Z " fill="#302F2E" transform="translate(307,168)"/>
<path d="M0 0 C4.08998175 1.80720124 6.66247347 4.19069751 9 8 C9.62819266 13.0255413 9.03320735 15.95572354 6 20 C3.24705395 23.21177039 0.96958591 23.86947882 -3.25 24.4375 C-8.1843364 23.86182742 -10.79803186 21.71753928 -14 18 C-15.23534045 14.29397865 -15.45528745 11.90246386 -15 8 C-10.91704021 1.64314568 -7.65816344 -0.51919752 0 0 Z " fill="#302F2E" transform="translate(211,168)"/>
<path d="M0 0 C2.95084765 2.48390033 2.95084765 2.48390033 3.25 5.625 C3 8 3 8 2 9 C-1.77854877 9.68700887 -3.75560618 8.67095255 -6.8125 6.625 C-13.99824522 1.8925969 -21.50833643 1.21261322 -30 2 C-34.69416317 3.0224171 -38.67980407 4.72367149 -42.75 7.25 C-46 9 -46 9 -48.9375 8.75 C-49.618125 8.5025 -50.29875 8.255 -51 8 C-51.40424593 3.49227656 -51.40424593 3.49227656 -49.63671875 1.33984375 C-34.06329049 -9.864286 -16.30891516 -9.76217479 0 0 Z " fill="#333130" transform="translate(328,147)"/>
<path d="M0 0 C2.95084765 2.48390033 2.95084765 2.48390033 3.25 5.625 C3 8 3 8 2 9 C-1.77854877 9.68700887 -3.75560618 8.67095255 -6.8125 6.625 C-13.99824522 1.8925969 -21.50833643 1.21261322 -30 2 C-34.69416317 3.0224171 -38.67980407 4.72367149 -42.75 7.25 C-46 9 -46 9 -48.9375 8.75 C-49.618125 8.5025 -50.29875 8.255 -51 8 C-51.40424593 3.49227656 -51.40424593 3.49227656 -49.63671875 1.33984375 C-34.06329049 -9.864286 -16.30891516 -9.76217479 0 0 Z " fill="#333130" transform="translate(232,147)"/>
<path d="M0 0 C1.26119736 3.78359209 0.56337201 5.52850668 -0.44140625 9.37109375 C-0.60434677 10.00164673 -0.76728729 10.63219971 -0.93516541 11.28186035 C-1.46896709 13.33611227 -2.01527008 15.38678806 -2.5625 17.4375 C-2.9312996 18.84244795 -3.29978814 20.2474776 -3.66796875 21.65258789 C-6.53045842 32.5105263 -9.63678695 43.28612814 -13 54 C-13.66 54 -14.32 54 -15 54 C-15.37363007 48.07825075 -15.64413699 42.16347083 -15.82397461 36.23266602 C-15.89896933 34.22103354 -16.00102285 32.21020699 -16.1315918 30.20141602 C-17.16376002 13.9012535 -17.16376002 13.9012535 -13.47930908 8.96099854 C-9.46826274 5.12605641 -4.93937707 2.4728441 0 0 Z " fill="#3672C6" transform="translate(163,322)"/>
<path d="M0 0 C4.0743356 0.84881992 5.54405875 2.30225596 8 5.625 C8.625 8.625 8.625 8.625 8 11.625 C5.54405875 14.94774404 4.0743356 16.40118008 0 17.25 C-4.0743356 16.40118008 -5.54405875 14.94774404 -8 11.625 C-8.625 8.625 -8.625 8.625 -8 5.625 C-5.54405875 2.30225596 -4.0743356 0.84881992 0 0 Z " fill="#F5F8FC" transform="translate(256,455.375)"/>
<path d="M0 0 C4.0743356 0.84881992 5.54405875 2.30225596 8 5.625 C8.625 8.625 8.625 8.625 8 11.625 C5.54405875 14.94774404 4.0743356 16.40118008 0 17.25 C-4.0743356 16.40118008 -5.54405875 14.94774404 -8 11.625 C-8.625 8.625 -8.625 8.625 -8 5.625 C-5.54405875 2.30225596 -4.0743356 0.84881992 0 0 Z " fill="#F5F8FC" transform="translate(256,407.375)"/>
<path d="M0 0 C4.0743356 0.84881992 5.54405875 2.30225596 8 5.625 C8.625 8.625 8.625 8.625 8 11.625 C5.54405875 14.94774404 4.0743356 16.40118008 0 17.25 C-4.0743356 16.40118008 -5.54405875 14.94774404 -8 11.625 C-8.625 8.625 -8.625 8.625 -8 5.625 C-5.54405875 2.30225596 -4.0743356 0.84881992 0 0 Z " fill="#F5F8FC" transform="translate(256,359.375)"/>
</svg>
